M48
INCH,TZ
T1C0.012
T2C0.031
T3C0.059
T4C0.065
T5C0.106
T6C0.240
%
G90
G05
T1
X4.2Y-3.2
X4.22Y-3.34
X4.365Y-3.265
X4.615Y-3.585
X4.635Y-3.705
X4.77Y-3.24
X4.935Y-3.32
X5.275Y-3.035
X5.275Y-3.12
X5.3Y-4.05
X5.325Y-3.925
X5.42Y-3.515
X5.47Y-3.035
X5.47Y-3.225
X5.525Y-3.72
X5.525Y-3.83
X5.525Y-4.23
X5.53Y-2.77
X5.625Y-3.72
X5.625Y-3.83
X5.625Y-4.23
X5.65Y-2.87
X5.665Y-3.5725
X5.73Y-2.715
X5.9475Y-3.5725
X5.975Y-3.245
X6.055Y-3.085
X6.06Y-3.49
X6.13Y-2.8
X6.13Y-3.32
X6.14Y-3.545
X6.18Y-3.32
X6.2Y-3.685
X6.285Y-2.92
X6.3Y-3.245
X6.3Y-3.8
X6.335Y-3.145
X6.45Y-3.36
T2
X5.075Y-3.125
X5.075Y-3.225
X5.075Y-3.325
X5.075Y-3.425
X5.375Y-3.125
X5.375Y-3.225
X5.375Y-3.325
X5.375Y-3.425
T3
X6.15Y-3.975
X6.15Y-4.125
X6.3Y-3.975
X6.3Y-4.125
T4
X5.4928Y-2.4256
X5.4928Y-2.65
X5.6739Y-2.4256
X5.6739Y-2.65
X5.855Y-2.4256
X5.855Y-2.65
T5
X4.325Y-2.4876
X4.325Y-4.0624
X7.025Y-2.4876
X7.025Y-4.0624
T6
X4.375Y-2.9001
X4.375Y-3.65
X6.975Y-2.9001
X6.975Y-3.65
T0
M30
