G04 #@! TF.FileFunction,Other,Fab,Bot*
%FSLAX46Y46*%
G04 Gerber Fmt 4.6, Leading zero omitted, Abs format (unit mm)*
G04 Created by KiCad (PCBNEW 4.0.5) date 12/16/17 21:51:34*
%MOMM*%
%LPD*%
G01*
G04 APERTURE LIST*
%ADD10C,0.100000*%
%ADD11C,0.075000*%
%ADD12C,0.150000*%
G04 APERTURE END LIST*
D10*
X146035000Y-88408000D02*
X144795000Y-88408000D01*
X146035000Y-90408000D02*
X146035000Y-88408000D01*
X144795000Y-90408000D02*
X146035000Y-90408000D01*
X144795000Y-88408000D02*
X144795000Y-90408000D01*
X127366000Y-79645000D02*
X126126000Y-79645000D01*
X127366000Y-81645000D02*
X127366000Y-79645000D01*
X126126000Y-81645000D02*
X127366000Y-81645000D01*
X126126000Y-79645000D02*
X126126000Y-81645000D01*
X132350000Y-102250000D02*
X132350000Y-103490000D01*
X134350000Y-102250000D02*
X132350000Y-102250000D01*
X134350000Y-103490000D02*
X134350000Y-102250000D01*
X132350000Y-103490000D02*
X134350000Y-103490000D01*
X150099000Y-88408000D02*
X148859000Y-88408000D01*
X150099000Y-90408000D02*
X150099000Y-88408000D01*
X148859000Y-90408000D02*
X150099000Y-90408000D01*
X148859000Y-88408000D02*
X148859000Y-90408000D01*
X108950000Y-81900000D02*
X108950000Y-80660000D01*
X106950000Y-81900000D02*
X108950000Y-81900000D01*
X106950000Y-80660000D02*
X106950000Y-81900000D01*
X108950000Y-80660000D02*
X106950000Y-80660000D01*
X153813000Y-75707000D02*
X153813000Y-76947000D01*
X155813000Y-75707000D02*
X153813000Y-75707000D01*
X155813000Y-76947000D02*
X155813000Y-75707000D01*
X153813000Y-76947000D02*
X155813000Y-76947000D01*
X160259000Y-88535000D02*
X159019000Y-88535000D01*
X160259000Y-90535000D02*
X160259000Y-88535000D01*
X159019000Y-90535000D02*
X160259000Y-90535000D01*
X159019000Y-88535000D02*
X159019000Y-90535000D01*
X153177000Y-86471000D02*
X154417000Y-86471000D01*
X153177000Y-84471000D02*
X153177000Y-86471000D01*
X154417000Y-84471000D02*
X153177000Y-84471000D01*
X154417000Y-86471000D02*
X154417000Y-84471000D01*
X127366000Y-86503000D02*
X126126000Y-86503000D01*
X127366000Y-88503000D02*
X127366000Y-86503000D01*
X126126000Y-88503000D02*
X127366000Y-88503000D01*
X126126000Y-86503000D02*
X126126000Y-88503000D01*
X153177000Y-81772000D02*
X154417000Y-81772000D01*
X153177000Y-79772000D02*
X153177000Y-81772000D01*
X154417000Y-79772000D02*
X153177000Y-79772000D01*
X154417000Y-81772000D02*
X154417000Y-79772000D01*
X131715000Y-76469000D02*
X131715000Y-77709000D01*
X133715000Y-76469000D02*
X131715000Y-76469000D01*
X133715000Y-77709000D02*
X133715000Y-76469000D01*
X131715000Y-77709000D02*
X133715000Y-77709000D01*
X138318000Y-84185000D02*
X139558000Y-84185000D01*
X138318000Y-82185000D02*
X138318000Y-84185000D01*
X139558000Y-82185000D02*
X138318000Y-82185000D01*
X139558000Y-84185000D02*
X139558000Y-82185000D01*
X113744000Y-83236000D02*
X113744000Y-86436000D01*
X113744000Y-86436000D02*
X107744000Y-86436000D01*
X107744000Y-86436000D02*
X107744000Y-83236000D01*
X107744000Y-83236000D02*
X113744000Y-83236000D01*
X113144000Y-83236000D02*
X113144000Y-86436000D01*
X112844000Y-83236000D02*
X112844000Y-86436000D01*
X114665000Y-81900000D02*
X114665000Y-80660000D01*
X112665000Y-81900000D02*
X114665000Y-81900000D01*
X112665000Y-80660000D02*
X112665000Y-81900000D01*
X114665000Y-80660000D02*
X112665000Y-80660000D01*
X158100000Y-91202000D02*
X156860000Y-91202000D01*
X158100000Y-93202000D02*
X158100000Y-91202000D01*
X156860000Y-93202000D02*
X158100000Y-93202000D01*
X156860000Y-91202000D02*
X156860000Y-93202000D01*
X139558000Y-87011000D02*
X138318000Y-87011000D01*
X139558000Y-89011000D02*
X139558000Y-87011000D01*
X138318000Y-89011000D02*
X139558000Y-89011000D01*
X138318000Y-87011000D02*
X138318000Y-89011000D01*
X138318000Y-79359000D02*
X139558000Y-79359000D01*
X138318000Y-77359000D02*
X138318000Y-79359000D01*
X139558000Y-77359000D02*
X138318000Y-77359000D01*
X139558000Y-79359000D02*
X139558000Y-77359000D01*
X151272000Y-86598000D02*
X152512000Y-86598000D01*
X151272000Y-84598000D02*
X151272000Y-86598000D01*
X152512000Y-84598000D02*
X151272000Y-84598000D01*
X152512000Y-86598000D02*
X152512000Y-84598000D01*
X159019000Y-77835000D02*
X160259000Y-77835000D01*
X159019000Y-75835000D02*
X159019000Y-77835000D01*
X160259000Y-75835000D02*
X159019000Y-75835000D01*
X160259000Y-77835000D02*
X160259000Y-75835000D01*
X131715000Y-78628000D02*
X131715000Y-79868000D01*
X133715000Y-78628000D02*
X131715000Y-78628000D01*
X133715000Y-79868000D02*
X133715000Y-78628000D01*
X131715000Y-79868000D02*
X133715000Y-79868000D01*
X165330000Y-85485000D02*
X165330000Y-80885000D01*
X165330000Y-80885000D02*
X162330000Y-80885000D01*
X162330000Y-85485000D02*
X165330000Y-85485000D01*
X162330000Y-85485000D02*
X162330000Y-80885000D01*
X163831020Y-82535560D02*
X163831020Y-81633860D01*
X163831020Y-83686180D02*
X163831020Y-84684400D01*
X163030920Y-82535560D02*
X164631120Y-82535560D01*
X164580320Y-83686180D02*
X163030920Y-83686180D01*
X163831020Y-82535560D02*
X164580320Y-83686180D01*
X163831020Y-82535560D02*
X163030920Y-83686180D01*
X160057000Y-84135000D02*
X160057000Y-81235000D01*
X160057000Y-81235000D02*
X155157000Y-81235000D01*
X155157000Y-81235000D02*
X155157000Y-85135000D01*
X155157000Y-85135000D02*
X159057000Y-85135000D01*
X159057000Y-85135000D02*
X160057000Y-84135000D01*
X150683000Y-76011000D02*
X148233000Y-76011000D01*
X151253000Y-75461000D02*
X151253000Y-74611000D01*
X150683000Y-76011000D02*
X151253000Y-75461000D01*
X151253000Y-74611000D02*
X148213000Y-74611000D01*
X148213000Y-76011000D02*
X148213000Y-74611000D01*
X145020000Y-97385000D02*
X149620000Y-97385000D01*
X149620000Y-97385000D02*
X149620000Y-94385000D01*
X145020000Y-94385000D02*
X145020000Y-97385000D01*
X145020000Y-94385000D02*
X149620000Y-94385000D01*
X147969440Y-95886020D02*
X148871140Y-95886020D01*
X146818820Y-95886020D02*
X145820600Y-95886020D01*
X147969440Y-95085920D02*
X147969440Y-96686120D01*
X146818820Y-96635320D02*
X146818820Y-95085920D01*
X147969440Y-95886020D02*
X146818820Y-96635320D01*
X147969440Y-95886020D02*
X146818820Y-95085920D01*
X130265000Y-83251000D02*
X130265000Y-86151000D01*
X130265000Y-86151000D02*
X135165000Y-86151000D01*
X135165000Y-86151000D02*
X135165000Y-82251000D01*
X135165000Y-82251000D02*
X131265000Y-82251000D01*
X131265000Y-82251000D02*
X130265000Y-83251000D01*
X124828000Y-82070000D02*
X124828000Y-85570000D01*
X124828000Y-85570000D02*
X120028000Y-85570000D01*
X120028000Y-85570000D02*
X120028000Y-82070000D01*
X120028000Y-82070000D02*
X124828000Y-82070000D01*
X123058000Y-83990000D02*
X124108000Y-85040000D01*
X123148000Y-83900000D02*
X124198000Y-84950000D01*
X124378000Y-84470000D02*
G75*
G03X124378000Y-84470000I-750000J0D01*
G01*
X135650000Y-98195000D02*
X131050000Y-98195000D01*
X131050000Y-98195000D02*
X131050000Y-101195000D01*
X135650000Y-101195000D02*
X135650000Y-98195000D01*
X135650000Y-101195000D02*
X131050000Y-101195000D01*
X132700560Y-99693980D02*
X131798860Y-99693980D01*
X133851180Y-99693980D02*
X134849400Y-99693980D01*
X132700560Y-100494080D02*
X132700560Y-98893880D01*
X133851180Y-98944680D02*
X133851180Y-100494080D01*
X132700560Y-99693980D02*
X133851180Y-98944680D01*
X132700560Y-99693980D02*
X133851180Y-100494080D01*
X131050000Y-97385000D02*
X135650000Y-97385000D01*
X135650000Y-97385000D02*
X135650000Y-94385000D01*
X131050000Y-94385000D02*
X131050000Y-97385000D01*
X131050000Y-94385000D02*
X135650000Y-94385000D01*
X133999440Y-95886020D02*
X134901140Y-95886020D01*
X132848820Y-95886020D02*
X131850600Y-95886020D01*
X133999440Y-95085920D02*
X133999440Y-96686120D01*
X132848820Y-96635320D02*
X132848820Y-95085920D01*
X133999440Y-95886020D02*
X132848820Y-96635320D01*
X133999440Y-95886020D02*
X132848820Y-95085920D01*
X169140000Y-85485000D02*
X169140000Y-80885000D01*
X169140000Y-80885000D02*
X166140000Y-80885000D01*
X166140000Y-85485000D02*
X169140000Y-85485000D01*
X166140000Y-85485000D02*
X166140000Y-80885000D01*
X167641020Y-82535560D02*
X167641020Y-81633860D01*
X167641020Y-83686180D02*
X167641020Y-84684400D01*
X166840920Y-82535560D02*
X168441120Y-82535560D01*
X168390320Y-83686180D02*
X166840920Y-83686180D01*
X167641020Y-82535560D02*
X168390320Y-83686180D01*
X167641020Y-82535560D02*
X166840920Y-83686180D01*
X147165000Y-83585000D02*
X147565000Y-82985000D01*
X147565000Y-82985000D02*
X146765000Y-82985000D01*
X146765000Y-82985000D02*
X147165000Y-83585000D01*
X147565000Y-83635000D02*
X146765000Y-83635000D01*
X144615000Y-84785000D02*
X146215000Y-84785000D01*
X144615000Y-81585000D02*
X144615000Y-84785000D01*
X146215000Y-81585000D02*
X144615000Y-81585000D01*
X146215000Y-84785000D02*
X146215000Y-81585000D01*
X151229000Y-83585000D02*
X151629000Y-82985000D01*
X151629000Y-82985000D02*
X150829000Y-82985000D01*
X150829000Y-82985000D02*
X151229000Y-83585000D01*
X151629000Y-83635000D02*
X150829000Y-83635000D01*
X148679000Y-84785000D02*
X150279000Y-84785000D01*
X148679000Y-81585000D02*
X148679000Y-84785000D01*
X150279000Y-81585000D02*
X148679000Y-81585000D01*
X150279000Y-84785000D02*
X150279000Y-81585000D01*
D11*
X145641190Y-89086572D02*
X145403095Y-88919905D01*
X145641190Y-88800858D02*
X145141190Y-88800858D01*
X145141190Y-88991334D01*
X145165000Y-89038953D01*
X145188810Y-89062762D01*
X145236429Y-89086572D01*
X145307857Y-89086572D01*
X145355476Y-89062762D01*
X145379286Y-89038953D01*
X145403095Y-88991334D01*
X145403095Y-88800858D01*
X145641190Y-89562762D02*
X145641190Y-89277048D01*
X145641190Y-89419905D02*
X145141190Y-89419905D01*
X145212619Y-89372286D01*
X145260238Y-89324667D01*
X145284048Y-89277048D01*
X145141190Y-89872286D02*
X145141190Y-89919905D01*
X145165000Y-89967524D01*
X145188810Y-89991333D01*
X145236429Y-90015143D01*
X145331667Y-90038952D01*
X145450714Y-90038952D01*
X145545952Y-90015143D01*
X145593571Y-89991333D01*
X145617381Y-89967524D01*
X145641190Y-89919905D01*
X145641190Y-89872286D01*
X145617381Y-89824667D01*
X145593571Y-89800857D01*
X145545952Y-89777048D01*
X145450714Y-89753238D01*
X145331667Y-89753238D01*
X145236429Y-89777048D01*
X145188810Y-89800857D01*
X145165000Y-89824667D01*
X145141190Y-89872286D01*
X126972190Y-80561667D02*
X126734095Y-80395000D01*
X126972190Y-80275953D02*
X126472190Y-80275953D01*
X126472190Y-80466429D01*
X126496000Y-80514048D01*
X126519810Y-80537857D01*
X126567429Y-80561667D01*
X126638857Y-80561667D01*
X126686476Y-80537857D01*
X126710286Y-80514048D01*
X126734095Y-80466429D01*
X126734095Y-80275953D01*
X126972190Y-80799762D02*
X126972190Y-80895000D01*
X126948381Y-80942619D01*
X126924571Y-80966429D01*
X126853143Y-81014048D01*
X126757905Y-81037857D01*
X126567429Y-81037857D01*
X126519810Y-81014048D01*
X126496000Y-80990238D01*
X126472190Y-80942619D01*
X126472190Y-80847381D01*
X126496000Y-80799762D01*
X126519810Y-80775953D01*
X126567429Y-80752143D01*
X126686476Y-80752143D01*
X126734095Y-80775953D01*
X126757905Y-80799762D01*
X126781714Y-80847381D01*
X126781714Y-80942619D01*
X126757905Y-80990238D01*
X126734095Y-81014048D01*
X126686476Y-81037857D01*
X133433333Y-103096190D02*
X133600000Y-102858095D01*
X133719047Y-103096190D02*
X133719047Y-102596190D01*
X133528571Y-102596190D01*
X133480952Y-102620000D01*
X133457143Y-102643810D01*
X133433333Y-102691429D01*
X133433333Y-102762857D01*
X133457143Y-102810476D01*
X133480952Y-102834286D01*
X133528571Y-102858095D01*
X133719047Y-102858095D01*
X133147619Y-102810476D02*
X133195238Y-102786667D01*
X133219047Y-102762857D01*
X133242857Y-102715238D01*
X133242857Y-102691429D01*
X133219047Y-102643810D01*
X133195238Y-102620000D01*
X133147619Y-102596190D01*
X133052381Y-102596190D01*
X133004762Y-102620000D01*
X132980952Y-102643810D01*
X132957143Y-102691429D01*
X132957143Y-102715238D01*
X132980952Y-102762857D01*
X133004762Y-102786667D01*
X133052381Y-102810476D01*
X133147619Y-102810476D01*
X133195238Y-102834286D01*
X133219047Y-102858095D01*
X133242857Y-102905714D01*
X133242857Y-103000952D01*
X133219047Y-103048571D01*
X133195238Y-103072381D01*
X133147619Y-103096190D01*
X133052381Y-103096190D01*
X133004762Y-103072381D01*
X132980952Y-103048571D01*
X132957143Y-103000952D01*
X132957143Y-102905714D01*
X132980952Y-102858095D01*
X133004762Y-102834286D01*
X133052381Y-102810476D01*
X149705190Y-89324667D02*
X149467095Y-89158000D01*
X149705190Y-89038953D02*
X149205190Y-89038953D01*
X149205190Y-89229429D01*
X149229000Y-89277048D01*
X149252810Y-89300857D01*
X149300429Y-89324667D01*
X149371857Y-89324667D01*
X149419476Y-89300857D01*
X149443286Y-89277048D01*
X149467095Y-89229429D01*
X149467095Y-89038953D01*
X149205190Y-89491334D02*
X149205190Y-89824667D01*
X149705190Y-89610381D01*
X108033333Y-81506190D02*
X108200000Y-81268095D01*
X108319047Y-81506190D02*
X108319047Y-81006190D01*
X108128571Y-81006190D01*
X108080952Y-81030000D01*
X108057143Y-81053810D01*
X108033333Y-81101429D01*
X108033333Y-81172857D01*
X108057143Y-81220476D01*
X108080952Y-81244286D01*
X108128571Y-81268095D01*
X108319047Y-81268095D01*
X107604762Y-81006190D02*
X107700000Y-81006190D01*
X107747619Y-81030000D01*
X107771428Y-81053810D01*
X107819047Y-81125238D01*
X107842857Y-81220476D01*
X107842857Y-81410952D01*
X107819047Y-81458571D01*
X107795238Y-81482381D01*
X107747619Y-81506190D01*
X107652381Y-81506190D01*
X107604762Y-81482381D01*
X107580952Y-81458571D01*
X107557143Y-81410952D01*
X107557143Y-81291905D01*
X107580952Y-81244286D01*
X107604762Y-81220476D01*
X107652381Y-81196667D01*
X107747619Y-81196667D01*
X107795238Y-81220476D01*
X107819047Y-81244286D01*
X107842857Y-81291905D01*
X154896333Y-76553190D02*
X155063000Y-76315095D01*
X155182047Y-76553190D02*
X155182047Y-76053190D01*
X154991571Y-76053190D01*
X154943952Y-76077000D01*
X154920143Y-76100810D01*
X154896333Y-76148429D01*
X154896333Y-76219857D01*
X154920143Y-76267476D01*
X154943952Y-76291286D01*
X154991571Y-76315095D01*
X155182047Y-76315095D01*
X154443952Y-76053190D02*
X154682047Y-76053190D01*
X154705857Y-76291286D01*
X154682047Y-76267476D01*
X154634428Y-76243667D01*
X154515381Y-76243667D01*
X154467762Y-76267476D01*
X154443952Y-76291286D01*
X154420143Y-76338905D01*
X154420143Y-76457952D01*
X154443952Y-76505571D01*
X154467762Y-76529381D01*
X154515381Y-76553190D01*
X154634428Y-76553190D01*
X154682047Y-76529381D01*
X154705857Y-76505571D01*
X159865190Y-89451667D02*
X159627095Y-89285000D01*
X159865190Y-89165953D02*
X159365190Y-89165953D01*
X159365190Y-89356429D01*
X159389000Y-89404048D01*
X159412810Y-89427857D01*
X159460429Y-89451667D01*
X159531857Y-89451667D01*
X159579476Y-89427857D01*
X159603286Y-89404048D01*
X159627095Y-89356429D01*
X159627095Y-89165953D01*
X159531857Y-89880238D02*
X159865190Y-89880238D01*
X159341381Y-89761191D02*
X159698524Y-89642143D01*
X159698524Y-89951667D01*
X154023190Y-85387667D02*
X153785095Y-85221000D01*
X154023190Y-85101953D02*
X153523190Y-85101953D01*
X153523190Y-85292429D01*
X153547000Y-85340048D01*
X153570810Y-85363857D01*
X153618429Y-85387667D01*
X153689857Y-85387667D01*
X153737476Y-85363857D01*
X153761286Y-85340048D01*
X153785095Y-85292429D01*
X153785095Y-85101953D01*
X153523190Y-85554334D02*
X153523190Y-85863857D01*
X153713667Y-85697191D01*
X153713667Y-85768619D01*
X153737476Y-85816238D01*
X153761286Y-85840048D01*
X153808905Y-85863857D01*
X153927952Y-85863857D01*
X153975571Y-85840048D01*
X153999381Y-85816238D01*
X154023190Y-85768619D01*
X154023190Y-85625762D01*
X153999381Y-85578143D01*
X153975571Y-85554334D01*
X126972190Y-87419667D02*
X126734095Y-87253000D01*
X126972190Y-87133953D02*
X126472190Y-87133953D01*
X126472190Y-87324429D01*
X126496000Y-87372048D01*
X126519810Y-87395857D01*
X126567429Y-87419667D01*
X126638857Y-87419667D01*
X126686476Y-87395857D01*
X126710286Y-87372048D01*
X126734095Y-87324429D01*
X126734095Y-87133953D01*
X126519810Y-87610143D02*
X126496000Y-87633953D01*
X126472190Y-87681572D01*
X126472190Y-87800619D01*
X126496000Y-87848238D01*
X126519810Y-87872048D01*
X126567429Y-87895857D01*
X126615048Y-87895857D01*
X126686476Y-87872048D01*
X126972190Y-87586334D01*
X126972190Y-87895857D01*
X154023190Y-80688667D02*
X153785095Y-80522000D01*
X154023190Y-80402953D02*
X153523190Y-80402953D01*
X153523190Y-80593429D01*
X153547000Y-80641048D01*
X153570810Y-80664857D01*
X153618429Y-80688667D01*
X153689857Y-80688667D01*
X153737476Y-80664857D01*
X153761286Y-80641048D01*
X153785095Y-80593429D01*
X153785095Y-80402953D01*
X154023190Y-81164857D02*
X154023190Y-80879143D01*
X154023190Y-81022000D02*
X153523190Y-81022000D01*
X153594619Y-80974381D01*
X153642238Y-80926762D01*
X153666048Y-80879143D01*
D12*
X133357857Y-79196143D02*
X133405476Y-79243762D01*
X133548333Y-79291381D01*
X133643571Y-79291381D01*
X133786429Y-79243762D01*
X133881667Y-79148524D01*
X133929286Y-79053286D01*
X133976905Y-78862810D01*
X133976905Y-78719952D01*
X133929286Y-78529476D01*
X133881667Y-78434238D01*
X133786429Y-78339000D01*
X133643571Y-78291381D01*
X133548333Y-78291381D01*
X133405476Y-78339000D01*
X133357857Y-78386619D01*
X132405476Y-79291381D02*
X132976905Y-79291381D01*
X132691191Y-79291381D02*
X132691191Y-78291381D01*
X132786429Y-78434238D01*
X132881667Y-78529476D01*
X132976905Y-78577095D01*
X131786429Y-78291381D02*
X131691190Y-78291381D01*
X131595952Y-78339000D01*
X131548333Y-78386619D01*
X131500714Y-78481857D01*
X131453095Y-78672333D01*
X131453095Y-78910429D01*
X131500714Y-79100905D01*
X131548333Y-79196143D01*
X131595952Y-79243762D01*
X131691190Y-79291381D01*
X131786429Y-79291381D01*
X131881667Y-79243762D01*
X131929286Y-79196143D01*
X131976905Y-79100905D01*
X132024524Y-78910429D01*
X132024524Y-78672333D01*
X131976905Y-78481857D01*
X131929286Y-78386619D01*
X131881667Y-78339000D01*
X131786429Y-78291381D01*
X141045143Y-83018334D02*
X141092762Y-82970715D01*
X141140381Y-82827858D01*
X141140381Y-82732620D01*
X141092762Y-82589762D01*
X140997524Y-82494524D01*
X140902286Y-82446905D01*
X140711810Y-82399286D01*
X140568952Y-82399286D01*
X140378476Y-82446905D01*
X140283238Y-82494524D01*
X140188000Y-82589762D01*
X140140381Y-82732620D01*
X140140381Y-82827858D01*
X140188000Y-82970715D01*
X140235619Y-83018334D01*
X140568952Y-83589762D02*
X140521333Y-83494524D01*
X140473714Y-83446905D01*
X140378476Y-83399286D01*
X140330857Y-83399286D01*
X140235619Y-83446905D01*
X140188000Y-83494524D01*
X140140381Y-83589762D01*
X140140381Y-83780239D01*
X140188000Y-83875477D01*
X140235619Y-83923096D01*
X140330857Y-83970715D01*
X140378476Y-83970715D01*
X140473714Y-83923096D01*
X140521333Y-83875477D01*
X140568952Y-83780239D01*
X140568952Y-83589762D01*
X140616571Y-83494524D01*
X140664190Y-83446905D01*
X140759429Y-83399286D01*
X140949905Y-83399286D01*
X141045143Y-83446905D01*
X141092762Y-83494524D01*
X141140381Y-83589762D01*
X141140381Y-83780239D01*
X141092762Y-83875477D01*
X141045143Y-83923096D01*
X140949905Y-83970715D01*
X140759429Y-83970715D01*
X140664190Y-83923096D01*
X140616571Y-83875477D01*
X140568952Y-83780239D01*
X110910666Y-85193143D02*
X110958285Y-85240762D01*
X111101142Y-85288381D01*
X111196380Y-85288381D01*
X111339238Y-85240762D01*
X111434476Y-85145524D01*
X111482095Y-85050286D01*
X111529714Y-84859810D01*
X111529714Y-84716952D01*
X111482095Y-84526476D01*
X111434476Y-84431238D01*
X111339238Y-84336000D01*
X111196380Y-84288381D01*
X111101142Y-84288381D01*
X110958285Y-84336000D01*
X110910666Y-84383619D01*
X110434476Y-85288381D02*
X110244000Y-85288381D01*
X110148761Y-85240762D01*
X110101142Y-85193143D01*
X110005904Y-85050286D01*
X109958285Y-84859810D01*
X109958285Y-84478857D01*
X110005904Y-84383619D01*
X110053523Y-84336000D01*
X110148761Y-84288381D01*
X110339238Y-84288381D01*
X110434476Y-84336000D01*
X110482095Y-84383619D01*
X110529714Y-84478857D01*
X110529714Y-84716952D01*
X110482095Y-84812190D01*
X110434476Y-84859810D01*
X110339238Y-84907429D01*
X110148761Y-84907429D01*
X110053523Y-84859810D01*
X110005904Y-84812190D01*
X109958285Y-84716952D01*
X113831666Y-79887143D02*
X113879285Y-79934762D01*
X114022142Y-79982381D01*
X114117380Y-79982381D01*
X114260238Y-79934762D01*
X114355476Y-79839524D01*
X114403095Y-79744286D01*
X114450714Y-79553810D01*
X114450714Y-79410952D01*
X114403095Y-79220476D01*
X114355476Y-79125238D01*
X114260238Y-79030000D01*
X114117380Y-78982381D01*
X114022142Y-78982381D01*
X113879285Y-79030000D01*
X113831666Y-79077619D01*
X113498333Y-78982381D02*
X112831666Y-78982381D01*
X113260238Y-79982381D01*
X156087143Y-92035334D02*
X156134762Y-91987715D01*
X156182381Y-91844858D01*
X156182381Y-91749620D01*
X156134762Y-91606762D01*
X156039524Y-91511524D01*
X155944286Y-91463905D01*
X155753810Y-91416286D01*
X155610952Y-91416286D01*
X155420476Y-91463905D01*
X155325238Y-91511524D01*
X155230000Y-91606762D01*
X155182381Y-91749620D01*
X155182381Y-91844858D01*
X155230000Y-91987715D01*
X155277619Y-92035334D01*
X155182381Y-92892477D02*
X155182381Y-92702000D01*
X155230000Y-92606762D01*
X155277619Y-92559143D01*
X155420476Y-92463905D01*
X155610952Y-92416286D01*
X155991905Y-92416286D01*
X156087143Y-92463905D01*
X156134762Y-92511524D01*
X156182381Y-92606762D01*
X156182381Y-92797239D01*
X156134762Y-92892477D01*
X156087143Y-92940096D01*
X155991905Y-92987715D01*
X155753810Y-92987715D01*
X155658571Y-92940096D01*
X155610952Y-92892477D01*
X155563333Y-92797239D01*
X155563333Y-92606762D01*
X155610952Y-92511524D01*
X155658571Y-92463905D01*
X155753810Y-92416286D01*
X137545143Y-87844334D02*
X137592762Y-87796715D01*
X137640381Y-87653858D01*
X137640381Y-87558620D01*
X137592762Y-87415762D01*
X137497524Y-87320524D01*
X137402286Y-87272905D01*
X137211810Y-87225286D01*
X137068952Y-87225286D01*
X136878476Y-87272905D01*
X136783238Y-87320524D01*
X136688000Y-87415762D01*
X136640381Y-87558620D01*
X136640381Y-87653858D01*
X136688000Y-87796715D01*
X136735619Y-87844334D01*
X136640381Y-88749096D02*
X136640381Y-88272905D01*
X137116571Y-88225286D01*
X137068952Y-88272905D01*
X137021333Y-88368143D01*
X137021333Y-88606239D01*
X137068952Y-88701477D01*
X137116571Y-88749096D01*
X137211810Y-88796715D01*
X137449905Y-88796715D01*
X137545143Y-88749096D01*
X137592762Y-88701477D01*
X137640381Y-88606239D01*
X137640381Y-88368143D01*
X137592762Y-88272905D01*
X137545143Y-88225286D01*
X141045143Y-78192334D02*
X141092762Y-78144715D01*
X141140381Y-78001858D01*
X141140381Y-77906620D01*
X141092762Y-77763762D01*
X140997524Y-77668524D01*
X140902286Y-77620905D01*
X140711810Y-77573286D01*
X140568952Y-77573286D01*
X140378476Y-77620905D01*
X140283238Y-77668524D01*
X140188000Y-77763762D01*
X140140381Y-77906620D01*
X140140381Y-78001858D01*
X140188000Y-78144715D01*
X140235619Y-78192334D01*
X140473714Y-79049477D02*
X141140381Y-79049477D01*
X140092762Y-78811381D02*
X140807048Y-78573286D01*
X140807048Y-79192334D01*
X153999143Y-85431334D02*
X154046762Y-85383715D01*
X154094381Y-85240858D01*
X154094381Y-85145620D01*
X154046762Y-85002762D01*
X153951524Y-84907524D01*
X153856286Y-84859905D01*
X153665810Y-84812286D01*
X153522952Y-84812286D01*
X153332476Y-84859905D01*
X153237238Y-84907524D01*
X153142000Y-85002762D01*
X153094381Y-85145620D01*
X153094381Y-85240858D01*
X153142000Y-85383715D01*
X153189619Y-85431334D01*
X153094381Y-85764667D02*
X153094381Y-86383715D01*
X153475333Y-86050381D01*
X153475333Y-86193239D01*
X153522952Y-86288477D01*
X153570571Y-86336096D01*
X153665810Y-86383715D01*
X153903905Y-86383715D01*
X153999143Y-86336096D01*
X154046762Y-86288477D01*
X154094381Y-86193239D01*
X154094381Y-85907524D01*
X154046762Y-85812286D01*
X153999143Y-85764667D01*
X161746143Y-76668334D02*
X161793762Y-76620715D01*
X161841381Y-76477858D01*
X161841381Y-76382620D01*
X161793762Y-76239762D01*
X161698524Y-76144524D01*
X161603286Y-76096905D01*
X161412810Y-76049286D01*
X161269952Y-76049286D01*
X161079476Y-76096905D01*
X160984238Y-76144524D01*
X160889000Y-76239762D01*
X160841381Y-76382620D01*
X160841381Y-76477858D01*
X160889000Y-76620715D01*
X160936619Y-76668334D01*
X160936619Y-77049286D02*
X160889000Y-77096905D01*
X160841381Y-77192143D01*
X160841381Y-77430239D01*
X160889000Y-77525477D01*
X160936619Y-77573096D01*
X161031857Y-77620715D01*
X161127095Y-77620715D01*
X161269952Y-77573096D01*
X161841381Y-77001667D01*
X161841381Y-77620715D01*
X132881666Y-81355143D02*
X132929285Y-81402762D01*
X133072142Y-81450381D01*
X133167380Y-81450381D01*
X133310238Y-81402762D01*
X133405476Y-81307524D01*
X133453095Y-81212286D01*
X133500714Y-81021810D01*
X133500714Y-80878952D01*
X133453095Y-80688476D01*
X133405476Y-80593238D01*
X133310238Y-80498000D01*
X133167380Y-80450381D01*
X133072142Y-80450381D01*
X132929285Y-80498000D01*
X132881666Y-80545619D01*
X131929285Y-81450381D02*
X132500714Y-81450381D01*
X132215000Y-81450381D02*
X132215000Y-80450381D01*
X132310238Y-80593238D01*
X132405476Y-80688476D01*
X132500714Y-80736095D01*
X161782381Y-82446905D02*
X160782381Y-82446905D01*
X160782381Y-82685000D01*
X160830000Y-82827858D01*
X160925238Y-82923096D01*
X161020476Y-82970715D01*
X161210952Y-83018334D01*
X161353810Y-83018334D01*
X161544286Y-82970715D01*
X161639524Y-82923096D01*
X161734762Y-82827858D01*
X161782381Y-82685000D01*
X161782381Y-82446905D01*
X161115714Y-83875477D02*
X161782381Y-83875477D01*
X160734762Y-83637381D02*
X161449048Y-83399286D01*
X161449048Y-84018334D01*
X157059381Y-82423095D02*
X157868905Y-82423095D01*
X157964143Y-82470714D01*
X158011762Y-82518333D01*
X158059381Y-82613571D01*
X158059381Y-82804048D01*
X158011762Y-82899286D01*
X157964143Y-82946905D01*
X157868905Y-82994524D01*
X157059381Y-82994524D01*
X157154619Y-83423095D02*
X157107000Y-83470714D01*
X157059381Y-83565952D01*
X157059381Y-83804048D01*
X157107000Y-83899286D01*
X157154619Y-83946905D01*
X157249857Y-83994524D01*
X157345095Y-83994524D01*
X157487952Y-83946905D01*
X158059381Y-83375476D01*
X158059381Y-83994524D01*
D11*
X149780619Y-75584810D02*
X149828238Y-75561000D01*
X149875857Y-75513381D01*
X149947286Y-75441952D01*
X149994905Y-75418143D01*
X150042524Y-75418143D01*
X150018714Y-75537190D02*
X150066333Y-75513381D01*
X150113952Y-75465762D01*
X150137762Y-75370524D01*
X150137762Y-75203857D01*
X150113952Y-75108619D01*
X150066333Y-75061000D01*
X150018714Y-75037190D01*
X149923476Y-75037190D01*
X149875857Y-75061000D01*
X149828238Y-75108619D01*
X149804429Y-75203857D01*
X149804429Y-75370524D01*
X149828238Y-75465762D01*
X149875857Y-75513381D01*
X149923476Y-75537190D01*
X150018714Y-75537190D01*
X149328238Y-75537190D02*
X149613952Y-75537190D01*
X149471095Y-75537190D02*
X149471095Y-75037190D01*
X149518714Y-75108619D01*
X149566333Y-75156238D01*
X149613952Y-75180048D01*
D12*
X148058095Y-93837381D02*
X148058095Y-92837381D01*
X147820000Y-92837381D01*
X147677142Y-92885000D01*
X147581904Y-92980238D01*
X147534285Y-93075476D01*
X147486666Y-93265952D01*
X147486666Y-93408810D01*
X147534285Y-93599286D01*
X147581904Y-93694524D01*
X147677142Y-93789762D01*
X147820000Y-93837381D01*
X148058095Y-93837381D01*
X147153333Y-92837381D02*
X146534285Y-92837381D01*
X146867619Y-93218333D01*
X146724761Y-93218333D01*
X146629523Y-93265952D01*
X146581904Y-93313571D01*
X146534285Y-93408810D01*
X146534285Y-93646905D01*
X146581904Y-93742143D01*
X146629523Y-93789762D01*
X146724761Y-93837381D01*
X147010476Y-93837381D01*
X147105714Y-93789762D01*
X147153333Y-93742143D01*
X132167381Y-83439095D02*
X132976905Y-83439095D01*
X133072143Y-83486714D01*
X133119762Y-83534333D01*
X133167381Y-83629571D01*
X133167381Y-83820048D01*
X133119762Y-83915286D01*
X133072143Y-83962905D01*
X132976905Y-84010524D01*
X132167381Y-84010524D01*
X133167381Y-85010524D02*
X133167381Y-84439095D01*
X133167381Y-84724809D02*
X132167381Y-84724809D01*
X132310238Y-84629571D01*
X132405476Y-84534333D01*
X132453095Y-84439095D01*
X134088095Y-102647381D02*
X134088095Y-101647381D01*
X133850000Y-101647381D01*
X133707142Y-101695000D01*
X133611904Y-101790238D01*
X133564285Y-101885476D01*
X133516666Y-102075952D01*
X133516666Y-102218810D01*
X133564285Y-102409286D01*
X133611904Y-102504524D01*
X133707142Y-102599762D01*
X133850000Y-102647381D01*
X134088095Y-102647381D01*
X132659523Y-101647381D02*
X132850000Y-101647381D01*
X132945238Y-101695000D01*
X132992857Y-101742619D01*
X133088095Y-101885476D01*
X133135714Y-102075952D01*
X133135714Y-102456905D01*
X133088095Y-102552143D01*
X133040476Y-102599762D01*
X132945238Y-102647381D01*
X132754761Y-102647381D01*
X132659523Y-102599762D01*
X132611904Y-102552143D01*
X132564285Y-102456905D01*
X132564285Y-102218810D01*
X132611904Y-102123571D01*
X132659523Y-102075952D01*
X132754761Y-102028333D01*
X132945238Y-102028333D01*
X133040476Y-102075952D01*
X133088095Y-102123571D01*
X133135714Y-102218810D01*
X134088095Y-93837381D02*
X134088095Y-92837381D01*
X133850000Y-92837381D01*
X133707142Y-92885000D01*
X133611904Y-92980238D01*
X133564285Y-93075476D01*
X133516666Y-93265952D01*
X133516666Y-93408810D01*
X133564285Y-93599286D01*
X133611904Y-93694524D01*
X133707142Y-93789762D01*
X133850000Y-93837381D01*
X134088095Y-93837381D01*
X133135714Y-92932619D02*
X133088095Y-92885000D01*
X132992857Y-92837381D01*
X132754761Y-92837381D01*
X132659523Y-92885000D01*
X132611904Y-92932619D01*
X132564285Y-93027857D01*
X132564285Y-93123095D01*
X132611904Y-93265952D01*
X133183333Y-93837381D01*
X132564285Y-93837381D01*
X165592381Y-82446905D02*
X164592381Y-82446905D01*
X164592381Y-82685000D01*
X164640000Y-82827858D01*
X164735238Y-82923096D01*
X164830476Y-82970715D01*
X165020952Y-83018334D01*
X165163810Y-83018334D01*
X165354286Y-82970715D01*
X165449524Y-82923096D01*
X165544762Y-82827858D01*
X165592381Y-82685000D01*
X165592381Y-82446905D01*
X165592381Y-83970715D02*
X165592381Y-83399286D01*
X165592381Y-83685000D02*
X164592381Y-83685000D01*
X164735238Y-83589762D01*
X164830476Y-83494524D01*
X164878095Y-83399286D01*
M02*
