G04 #@! TF.FileFunction,Other,User*
%FSLAX46Y46*%
G04 Gerber Fmt 4.6, Leading zero omitted, Abs format (unit mm)*
G04 Created by KiCad (PCBNEW 4.0.5) date 12/16/17 21:51:34*
%MOMM*%
%LPD*%
G01*
G04 APERTURE LIST*
%ADD10C,0.100000*%
%ADD11C,0.050000*%
G04 APERTURE END LIST*
D10*
D11*
X144515000Y-87058000D02*
X144515000Y-91758000D01*
X144515000Y-87058000D02*
X146315000Y-87058000D01*
X146315000Y-91758000D02*
X144515000Y-91758000D01*
X146315000Y-91758000D02*
X146315000Y-87058000D01*
X125846000Y-78295000D02*
X125846000Y-82995000D01*
X125846000Y-78295000D02*
X127646000Y-78295000D01*
X127646000Y-82995000D02*
X125846000Y-82995000D01*
X127646000Y-82995000D02*
X127646000Y-78295000D01*
X131000000Y-103770000D02*
X135700000Y-103770000D01*
X131000000Y-103770000D02*
X131000000Y-101970000D01*
X135700000Y-101970000D02*
X135700000Y-103770000D01*
X135700000Y-101970000D02*
X131000000Y-101970000D01*
X148579000Y-87058000D02*
X148579000Y-91758000D01*
X148579000Y-87058000D02*
X150379000Y-87058000D01*
X150379000Y-91758000D02*
X148579000Y-91758000D01*
X150379000Y-91758000D02*
X150379000Y-87058000D01*
X110300000Y-80380000D02*
X105600000Y-80380000D01*
X110300000Y-80380000D02*
X110300000Y-82180000D01*
X105600000Y-82180000D02*
X105600000Y-80380000D01*
X105600000Y-82180000D02*
X110300000Y-82180000D01*
X152463000Y-77227000D02*
X157163000Y-77227000D01*
X152463000Y-77227000D02*
X152463000Y-75427000D01*
X157163000Y-75427000D02*
X157163000Y-77227000D01*
X157163000Y-75427000D02*
X152463000Y-75427000D01*
X158739000Y-87185000D02*
X158739000Y-91885000D01*
X158739000Y-87185000D02*
X160539000Y-87185000D01*
X160539000Y-91885000D02*
X158739000Y-91885000D01*
X160539000Y-91885000D02*
X160539000Y-87185000D01*
X154697000Y-87821000D02*
X154697000Y-83121000D01*
X154697000Y-87821000D02*
X152897000Y-87821000D01*
X152897000Y-83121000D02*
X154697000Y-83121000D01*
X152897000Y-83121000D02*
X152897000Y-87821000D01*
X125846000Y-85153000D02*
X125846000Y-89853000D01*
X125846000Y-85153000D02*
X127646000Y-85153000D01*
X127646000Y-89853000D02*
X125846000Y-89853000D01*
X127646000Y-89853000D02*
X127646000Y-85153000D01*
X154697000Y-83122000D02*
X154697000Y-78422000D01*
X154697000Y-83122000D02*
X152897000Y-83122000D01*
X152897000Y-78422000D02*
X154697000Y-78422000D01*
X152897000Y-78422000D02*
X152897000Y-83122000D01*
X130465000Y-77969000D02*
X134965000Y-77969000D01*
X130465000Y-77969000D02*
X130465000Y-76219000D01*
X134965000Y-76219000D02*
X134965000Y-77969000D01*
X134965000Y-76219000D02*
X130465000Y-76219000D01*
X139818000Y-85435000D02*
X139818000Y-80935000D01*
X139818000Y-85435000D02*
X138068000Y-85435000D01*
X138068000Y-80935000D02*
X139818000Y-80935000D01*
X138068000Y-80935000D02*
X138068000Y-85435000D01*
X116144000Y-82836000D02*
X116144000Y-86836000D01*
X116144000Y-86836000D02*
X105344000Y-86836000D01*
X105344000Y-86836000D02*
X105344000Y-82836000D01*
X105344000Y-82836000D02*
X116144000Y-82836000D01*
X115915000Y-80400000D02*
X111415000Y-80400000D01*
X115915000Y-80400000D02*
X115915000Y-82150000D01*
X111415000Y-82150000D02*
X111415000Y-80400000D01*
X111415000Y-82150000D02*
X115915000Y-82150000D01*
X156600000Y-89952000D02*
X156600000Y-94452000D01*
X156600000Y-89952000D02*
X158350000Y-89952000D01*
X158350000Y-94452000D02*
X156600000Y-94452000D01*
X158350000Y-94452000D02*
X158350000Y-89952000D01*
X138058000Y-85761000D02*
X138058000Y-90261000D01*
X138058000Y-85761000D02*
X139808000Y-85761000D01*
X139808000Y-90261000D02*
X138058000Y-90261000D01*
X139808000Y-90261000D02*
X139808000Y-85761000D01*
X139818000Y-80609000D02*
X139818000Y-76109000D01*
X139818000Y-80609000D02*
X138068000Y-80609000D01*
X138068000Y-76109000D02*
X139818000Y-76109000D01*
X138068000Y-76109000D02*
X138068000Y-80609000D01*
X152772000Y-87848000D02*
X152772000Y-83348000D01*
X152772000Y-87848000D02*
X151022000Y-87848000D01*
X151022000Y-83348000D02*
X152772000Y-83348000D01*
X151022000Y-83348000D02*
X151022000Y-87848000D01*
X160519000Y-79085000D02*
X160519000Y-74585000D01*
X160519000Y-79085000D02*
X158769000Y-79085000D01*
X158769000Y-74585000D02*
X160519000Y-74585000D01*
X158769000Y-74585000D02*
X158769000Y-79085000D01*
X130465000Y-80128000D02*
X134965000Y-80128000D01*
X130465000Y-80128000D02*
X130465000Y-78378000D01*
X134965000Y-78378000D02*
X134965000Y-80128000D01*
X134965000Y-78378000D02*
X130465000Y-78378000D01*
X162080000Y-79685000D02*
X162080000Y-86685000D01*
X162080000Y-86685000D02*
X165580000Y-86685000D01*
X165580000Y-86685000D02*
X165580000Y-79685000D01*
X165580000Y-79685000D02*
X162080000Y-79685000D01*
X160307000Y-86915000D02*
X154907000Y-86915000D01*
X160307000Y-79455000D02*
X154907000Y-79455000D01*
X160307000Y-86915000D02*
X160307000Y-79455000D01*
X154907000Y-86915000D02*
X154907000Y-79455000D01*
X151483000Y-77011000D02*
X151483000Y-73611000D01*
X151483000Y-73611000D02*
X147983000Y-73611000D01*
X147983000Y-73611000D02*
X147983000Y-77011000D01*
X147983000Y-77011000D02*
X151483000Y-77011000D01*
X150820000Y-94135000D02*
X143820000Y-94135000D01*
X143820000Y-94135000D02*
X143820000Y-97635000D01*
X143820000Y-97635000D02*
X150820000Y-97635000D01*
X150820000Y-97635000D02*
X150820000Y-94135000D01*
X130015000Y-80471000D02*
X135415000Y-80471000D01*
X130015000Y-87931000D02*
X135415000Y-87931000D01*
X130015000Y-80471000D02*
X130015000Y-87931000D01*
X135415000Y-80471000D02*
X135415000Y-87931000D01*
X125078000Y-81290000D02*
X125078000Y-86340000D01*
X125078000Y-86340000D02*
X119778000Y-86340000D01*
X119778000Y-86340000D02*
X119778000Y-81290000D01*
X119778000Y-81290000D02*
X125078000Y-81290000D01*
X129850000Y-101445000D02*
X136850000Y-101445000D01*
X136850000Y-101445000D02*
X136850000Y-97945000D01*
X136850000Y-97945000D02*
X129850000Y-97945000D01*
X129850000Y-97945000D02*
X129850000Y-101445000D01*
X136850000Y-94135000D02*
X129850000Y-94135000D01*
X129850000Y-94135000D02*
X129850000Y-97635000D01*
X129850000Y-97635000D02*
X136850000Y-97635000D01*
X136850000Y-97635000D02*
X136850000Y-94135000D01*
X165890000Y-79685000D02*
X165890000Y-86685000D01*
X165890000Y-86685000D02*
X169390000Y-86685000D01*
X169390000Y-86685000D02*
X169390000Y-79685000D01*
X169390000Y-79685000D02*
X165890000Y-79685000D01*
X146525000Y-86435000D02*
X146525000Y-79935000D01*
X146525000Y-86435000D02*
X144315000Y-86435000D01*
X144315000Y-79935000D02*
X146525000Y-79935000D01*
X144315000Y-79935000D02*
X144315000Y-86435000D01*
X150589000Y-86435000D02*
X150589000Y-79935000D01*
X150589000Y-86435000D02*
X148379000Y-86435000D01*
X148379000Y-79935000D02*
X150589000Y-79935000D01*
X148379000Y-79935000D02*
X148379000Y-86435000D01*
M02*
