G04 #@! TF.FileFunction,Other,Fab,Bot*
%FSLAX46Y46*%
G04 Gerber Fmt 4.6, Leading zero omitted, Abs format (unit mm)*
G04 Created by KiCad (PCBNEW 4.0.7) date 01/03/18 21:35:11*
%MOMM*%
%LPD*%
G01*
G04 APERTURE LIST*
%ADD10C,0.100000*%
%ADD11C,0.150000*%
%ADD12C,0.075000*%
G04 APERTURE END LIST*
D10*
X146035000Y-88408000D02*
X144795000Y-88408000D01*
X146035000Y-90408000D02*
X146035000Y-88408000D01*
X144795000Y-90408000D02*
X146035000Y-90408000D01*
X144795000Y-88408000D02*
X144795000Y-90408000D01*
X127366000Y-79645000D02*
X126126000Y-79645000D01*
X127366000Y-81645000D02*
X127366000Y-79645000D01*
X126126000Y-81645000D02*
X127366000Y-81645000D01*
X126126000Y-79645000D02*
X126126000Y-81645000D01*
X132350000Y-102250000D02*
X132350000Y-103490000D01*
X134350000Y-102250000D02*
X132350000Y-102250000D01*
X134350000Y-103490000D02*
X134350000Y-102250000D01*
X132350000Y-103490000D02*
X134350000Y-103490000D01*
X150099000Y-88408000D02*
X148859000Y-88408000D01*
X150099000Y-90408000D02*
X150099000Y-88408000D01*
X148859000Y-90408000D02*
X150099000Y-90408000D01*
X148859000Y-88408000D02*
X148859000Y-90408000D01*
X119014000Y-81264000D02*
X120254000Y-81264000D01*
X119014000Y-79264000D02*
X119014000Y-81264000D01*
X120254000Y-79264000D02*
X119014000Y-79264000D01*
X120254000Y-81264000D02*
X120254000Y-79264000D01*
X153813000Y-75707000D02*
X153813000Y-76947000D01*
X155813000Y-75707000D02*
X153813000Y-75707000D01*
X155813000Y-76947000D02*
X155813000Y-75707000D01*
X153813000Y-76947000D02*
X155813000Y-76947000D01*
X160259000Y-88535000D02*
X159019000Y-88535000D01*
X160259000Y-90535000D02*
X160259000Y-88535000D01*
X159019000Y-90535000D02*
X160259000Y-90535000D01*
X159019000Y-88535000D02*
X159019000Y-90535000D01*
X153177000Y-86471000D02*
X154417000Y-86471000D01*
X153177000Y-84471000D02*
X153177000Y-86471000D01*
X154417000Y-84471000D02*
X153177000Y-84471000D01*
X154417000Y-86471000D02*
X154417000Y-84471000D01*
X127366000Y-86503000D02*
X126126000Y-86503000D01*
X127366000Y-88503000D02*
X127366000Y-86503000D01*
X126126000Y-88503000D02*
X127366000Y-88503000D01*
X126126000Y-86503000D02*
X126126000Y-88503000D01*
X153177000Y-81772000D02*
X154417000Y-81772000D01*
X153177000Y-79772000D02*
X153177000Y-81772000D01*
X154417000Y-79772000D02*
X153177000Y-79772000D01*
X154417000Y-81772000D02*
X154417000Y-79772000D01*
X131715000Y-76469000D02*
X131715000Y-77709000D01*
X133715000Y-76469000D02*
X131715000Y-76469000D01*
X133715000Y-77709000D02*
X133715000Y-76469000D01*
X131715000Y-77709000D02*
X133715000Y-77709000D01*
X138318000Y-84185000D02*
X139558000Y-84185000D01*
X138318000Y-82185000D02*
X138318000Y-84185000D01*
X139558000Y-82185000D02*
X138318000Y-82185000D01*
X139558000Y-84185000D02*
X139558000Y-82185000D01*
X108026000Y-86185000D02*
X104826000Y-86185000D01*
X104826000Y-86185000D02*
X104826000Y-80185000D01*
X104826000Y-80185000D02*
X108026000Y-80185000D01*
X108026000Y-80185000D02*
X108026000Y-86185000D01*
X108026000Y-85585000D02*
X104826000Y-85585000D01*
X108026000Y-85285000D02*
X104826000Y-85285000D01*
X116982000Y-84058000D02*
X118222000Y-84058000D01*
X116982000Y-82058000D02*
X116982000Y-84058000D01*
X118222000Y-82058000D02*
X116982000Y-82058000D01*
X118222000Y-84058000D02*
X118222000Y-82058000D01*
X158100000Y-89932000D02*
X156860000Y-89932000D01*
X158100000Y-91932000D02*
X158100000Y-89932000D01*
X156860000Y-91932000D02*
X158100000Y-91932000D01*
X156860000Y-89932000D02*
X156860000Y-91932000D01*
X139558000Y-87265000D02*
X138318000Y-87265000D01*
X139558000Y-89265000D02*
X139558000Y-87265000D01*
X138318000Y-89265000D02*
X139558000Y-89265000D01*
X138318000Y-87265000D02*
X138318000Y-89265000D01*
X138318000Y-79105000D02*
X139558000Y-79105000D01*
X138318000Y-77105000D02*
X138318000Y-79105000D01*
X139558000Y-77105000D02*
X138318000Y-77105000D01*
X139558000Y-79105000D02*
X139558000Y-77105000D01*
X151272000Y-86598000D02*
X152512000Y-86598000D01*
X151272000Y-84598000D02*
X151272000Y-86598000D01*
X152512000Y-84598000D02*
X151272000Y-84598000D01*
X152512000Y-86598000D02*
X152512000Y-84598000D01*
X159019000Y-77835000D02*
X160259000Y-77835000D01*
X159019000Y-75835000D02*
X159019000Y-77835000D01*
X160259000Y-75835000D02*
X159019000Y-75835000D01*
X160259000Y-77835000D02*
X160259000Y-75835000D01*
X131715000Y-78628000D02*
X131715000Y-79868000D01*
X133715000Y-78628000D02*
X131715000Y-78628000D01*
X133715000Y-79868000D02*
X133715000Y-78628000D01*
X131715000Y-79868000D02*
X133715000Y-79868000D01*
X160057000Y-84135000D02*
X160057000Y-81235000D01*
X160057000Y-81235000D02*
X155157000Y-81235000D01*
X155157000Y-81235000D02*
X155157000Y-85135000D01*
X155157000Y-85135000D02*
X159057000Y-85135000D01*
X159057000Y-85135000D02*
X160057000Y-84135000D01*
X150683000Y-76011000D02*
X148233000Y-76011000D01*
X151253000Y-75461000D02*
X151253000Y-74611000D01*
X150683000Y-76011000D02*
X151253000Y-75461000D01*
X151253000Y-74611000D02*
X148213000Y-74611000D01*
X148213000Y-76011000D02*
X148213000Y-74611000D01*
X145020000Y-97385000D02*
X149620000Y-97385000D01*
X149620000Y-97385000D02*
X149620000Y-94385000D01*
X145020000Y-94385000D02*
X145020000Y-97385000D01*
X145020000Y-94385000D02*
X149620000Y-94385000D01*
X147969440Y-95886020D02*
X148871140Y-95886020D01*
X146818820Y-95886020D02*
X145820600Y-95886020D01*
X147969440Y-95085920D02*
X147969440Y-96686120D01*
X146818820Y-96635320D02*
X146818820Y-95085920D01*
X147969440Y-95886020D02*
X146818820Y-96635320D01*
X147969440Y-95886020D02*
X146818820Y-95085920D01*
X130265000Y-83251000D02*
X130265000Y-86151000D01*
X130265000Y-86151000D02*
X135165000Y-86151000D01*
X135165000Y-86151000D02*
X135165000Y-82251000D01*
X135165000Y-82251000D02*
X131265000Y-82251000D01*
X131265000Y-82251000D02*
X130265000Y-83251000D01*
X113510000Y-85458000D02*
X110010000Y-85458000D01*
X110010000Y-85458000D02*
X110010000Y-80658000D01*
X110010000Y-80658000D02*
X113510000Y-80658000D01*
X113510000Y-80658000D02*
X113510000Y-85458000D01*
X111590000Y-83688000D02*
X110540000Y-84738000D01*
X111680000Y-83778000D02*
X110630000Y-84828000D01*
X111860000Y-84258000D02*
G75*
G03X111860000Y-84258000I-750000J0D01*
G01*
X135650000Y-98195000D02*
X131050000Y-98195000D01*
X131050000Y-98195000D02*
X131050000Y-101195000D01*
X135650000Y-101195000D02*
X135650000Y-98195000D01*
X135650000Y-101195000D02*
X131050000Y-101195000D01*
X132700560Y-99693980D02*
X131798860Y-99693980D01*
X133851180Y-99693980D02*
X134849400Y-99693980D01*
X132700560Y-100494080D02*
X132700560Y-98893880D01*
X133851180Y-98944680D02*
X133851180Y-100494080D01*
X132700560Y-99693980D02*
X133851180Y-98944680D01*
X132700560Y-99693980D02*
X133851180Y-100494080D01*
X131050000Y-97385000D02*
X135650000Y-97385000D01*
X135650000Y-97385000D02*
X135650000Y-94385000D01*
X131050000Y-94385000D02*
X131050000Y-97385000D01*
X131050000Y-94385000D02*
X135650000Y-94385000D01*
X133999440Y-95886020D02*
X134901140Y-95886020D01*
X132848820Y-95886020D02*
X131850600Y-95886020D01*
X133999440Y-95085920D02*
X133999440Y-96686120D01*
X132848820Y-96635320D02*
X132848820Y-95085920D01*
X133999440Y-95886020D02*
X132848820Y-96635320D01*
X133999440Y-95886020D02*
X132848820Y-95085920D01*
X163806000Y-72658000D02*
X163806000Y-68058000D01*
X163806000Y-68058000D02*
X160806000Y-68058000D01*
X160806000Y-72658000D02*
X163806000Y-72658000D01*
X160806000Y-72658000D02*
X160806000Y-68058000D01*
X162307020Y-69708560D02*
X162307020Y-68806860D01*
X162307020Y-70859180D02*
X162307020Y-71857400D01*
X161506920Y-69708560D02*
X163107120Y-69708560D01*
X163056320Y-70859180D02*
X161506920Y-70859180D01*
X162307020Y-69708560D02*
X163056320Y-70859180D01*
X162307020Y-69708560D02*
X161506920Y-70859180D01*
X147165000Y-83585000D02*
X147565000Y-82985000D01*
X147565000Y-82985000D02*
X146765000Y-82985000D01*
X146765000Y-82985000D02*
X147165000Y-83585000D01*
X147565000Y-83635000D02*
X146765000Y-83635000D01*
X144615000Y-84785000D02*
X146215000Y-84785000D01*
X144615000Y-81585000D02*
X144615000Y-84785000D01*
X146215000Y-81585000D02*
X144615000Y-81585000D01*
X146215000Y-84785000D02*
X146215000Y-81585000D01*
X151229000Y-83585000D02*
X151629000Y-82985000D01*
X151629000Y-82985000D02*
X150829000Y-82985000D01*
X150829000Y-82985000D02*
X151229000Y-83585000D01*
X151629000Y-83635000D02*
X150829000Y-83635000D01*
X148679000Y-84785000D02*
X150279000Y-84785000D01*
X148679000Y-81585000D02*
X148679000Y-84785000D01*
X150279000Y-81585000D02*
X148679000Y-81585000D01*
X150279000Y-84785000D02*
X150279000Y-81585000D01*
X172196000Y-80884000D02*
X172196000Y-79644000D01*
X170196000Y-80884000D02*
X172196000Y-80884000D01*
X170196000Y-79644000D02*
X170196000Y-80884000D01*
X172196000Y-79644000D02*
X170196000Y-79644000D01*
X166100000Y-80884000D02*
X166100000Y-79644000D01*
X164100000Y-80884000D02*
X166100000Y-80884000D01*
X164100000Y-79644000D02*
X164100000Y-80884000D01*
X166100000Y-79644000D02*
X164100000Y-79644000D01*
X166132000Y-71516000D02*
X166132000Y-72756000D01*
X168132000Y-71516000D02*
X166132000Y-71516000D01*
X168132000Y-72756000D02*
X168132000Y-71516000D01*
X166132000Y-72756000D02*
X168132000Y-72756000D01*
X169940000Y-73684000D02*
X165340000Y-73684000D01*
X165340000Y-73684000D02*
X165340000Y-76684000D01*
X169940000Y-76684000D02*
X169940000Y-73684000D01*
X169940000Y-76684000D02*
X165340000Y-76684000D01*
X166990560Y-75182980D02*
X166088860Y-75182980D01*
X168141180Y-75182980D02*
X169139400Y-75182980D01*
X166990560Y-75983080D02*
X166990560Y-74382880D01*
X168141180Y-74433680D02*
X168141180Y-75983080D01*
X166990560Y-75182980D02*
X168141180Y-74433680D01*
X166990560Y-75182980D02*
X168141180Y-75983080D01*
D11*
X181308000Y-83312000D02*
X181308000Y-81312000D01*
X181308000Y-81312000D02*
X180308000Y-80312000D01*
X180308000Y-80312000D02*
X178308000Y-80312000D01*
X175308000Y-83312000D02*
X175308000Y-81312000D01*
X175308000Y-81312000D02*
X176308000Y-80312000D01*
X176308000Y-80312000D02*
X178308000Y-80312000D01*
X175308000Y-83312000D02*
X175308000Y-85312000D01*
X175308000Y-85312000D02*
X176308000Y-86312000D01*
X176308000Y-86312000D02*
X178308000Y-86312000D01*
X181308000Y-83312000D02*
X181308000Y-85312000D01*
X181308000Y-85312000D02*
X180308000Y-86312000D01*
X180308000Y-86312000D02*
X178308000Y-86312000D01*
D10*
X135016000Y-65516000D02*
X136256000Y-65516000D01*
X135016000Y-63516000D02*
X135016000Y-65516000D01*
X136256000Y-63516000D02*
X135016000Y-63516000D01*
X136256000Y-65516000D02*
X136256000Y-63516000D01*
X166100000Y-78852000D02*
X166100000Y-77612000D01*
X164100000Y-78852000D02*
X166100000Y-78852000D01*
X164100000Y-77612000D02*
X164100000Y-78852000D01*
X166100000Y-77612000D02*
X164100000Y-77612000D01*
X164196000Y-83328000D02*
X162956000Y-83328000D01*
X164196000Y-85328000D02*
X164196000Y-83328000D01*
X162956000Y-85328000D02*
X164196000Y-85328000D01*
X162956000Y-83328000D02*
X162956000Y-85328000D01*
X168264000Y-85736000D02*
X168914000Y-86386000D01*
X170064000Y-86386000D02*
X168914000Y-86386000D01*
X168264000Y-85736000D02*
X168264000Y-83286000D01*
X170064000Y-83286000D02*
X168264000Y-83286000D01*
X170064000Y-86386000D02*
X170064000Y-83286000D01*
X158266000Y-99300000D02*
X158266000Y-103900000D01*
X158266000Y-103900000D02*
X161266000Y-103900000D01*
X161266000Y-99300000D02*
X158266000Y-99300000D01*
X161266000Y-99300000D02*
X161266000Y-103900000D01*
X159764980Y-102249440D02*
X159764980Y-103151140D01*
X159764980Y-101098820D02*
X159764980Y-100100600D01*
X160565080Y-102249440D02*
X158964880Y-102249440D01*
X159015680Y-101098820D02*
X160565080Y-101098820D01*
X159764980Y-102249440D02*
X159015680Y-101098820D01*
X159764980Y-102249440D02*
X160565080Y-101098820D01*
X114950000Y-86852000D02*
X116190000Y-86852000D01*
X114950000Y-84852000D02*
X114950000Y-86852000D01*
X116190000Y-84852000D02*
X114950000Y-84852000D01*
X116190000Y-86852000D02*
X116190000Y-84852000D01*
X114950000Y-81137000D02*
X116190000Y-81137000D01*
X114950000Y-79137000D02*
X114950000Y-81137000D01*
X116190000Y-79137000D02*
X114950000Y-79137000D01*
X116190000Y-81137000D02*
X116190000Y-79137000D01*
D12*
X145641190Y-89086572D02*
X145403095Y-88919905D01*
X145641190Y-88800858D02*
X145141190Y-88800858D01*
X145141190Y-88991334D01*
X145165000Y-89038953D01*
X145188810Y-89062762D01*
X145236429Y-89086572D01*
X145307857Y-89086572D01*
X145355476Y-89062762D01*
X145379286Y-89038953D01*
X145403095Y-88991334D01*
X145403095Y-88800858D01*
X145641190Y-89562762D02*
X145641190Y-89277048D01*
X145641190Y-89419905D02*
X145141190Y-89419905D01*
X145212619Y-89372286D01*
X145260238Y-89324667D01*
X145284048Y-89277048D01*
X145141190Y-89872286D02*
X145141190Y-89919905D01*
X145165000Y-89967524D01*
X145188810Y-89991333D01*
X145236429Y-90015143D01*
X145331667Y-90038952D01*
X145450714Y-90038952D01*
X145545952Y-90015143D01*
X145593571Y-89991333D01*
X145617381Y-89967524D01*
X145641190Y-89919905D01*
X145641190Y-89872286D01*
X145617381Y-89824667D01*
X145593571Y-89800857D01*
X145545952Y-89777048D01*
X145450714Y-89753238D01*
X145331667Y-89753238D01*
X145236429Y-89777048D01*
X145188810Y-89800857D01*
X145165000Y-89824667D01*
X145141190Y-89872286D01*
X126972190Y-80561667D02*
X126734095Y-80395000D01*
X126972190Y-80275953D02*
X126472190Y-80275953D01*
X126472190Y-80466429D01*
X126496000Y-80514048D01*
X126519810Y-80537857D01*
X126567429Y-80561667D01*
X126638857Y-80561667D01*
X126686476Y-80537857D01*
X126710286Y-80514048D01*
X126734095Y-80466429D01*
X126734095Y-80275953D01*
X126972190Y-80799762D02*
X126972190Y-80895000D01*
X126948381Y-80942619D01*
X126924571Y-80966429D01*
X126853143Y-81014048D01*
X126757905Y-81037857D01*
X126567429Y-81037857D01*
X126519810Y-81014048D01*
X126496000Y-80990238D01*
X126472190Y-80942619D01*
X126472190Y-80847381D01*
X126496000Y-80799762D01*
X126519810Y-80775953D01*
X126567429Y-80752143D01*
X126686476Y-80752143D01*
X126734095Y-80775953D01*
X126757905Y-80799762D01*
X126781714Y-80847381D01*
X126781714Y-80942619D01*
X126757905Y-80990238D01*
X126734095Y-81014048D01*
X126686476Y-81037857D01*
X133433333Y-103096190D02*
X133600000Y-102858095D01*
X133719047Y-103096190D02*
X133719047Y-102596190D01*
X133528571Y-102596190D01*
X133480952Y-102620000D01*
X133457143Y-102643810D01*
X133433333Y-102691429D01*
X133433333Y-102762857D01*
X133457143Y-102810476D01*
X133480952Y-102834286D01*
X133528571Y-102858095D01*
X133719047Y-102858095D01*
X133147619Y-102810476D02*
X133195238Y-102786667D01*
X133219047Y-102762857D01*
X133242857Y-102715238D01*
X133242857Y-102691429D01*
X133219047Y-102643810D01*
X133195238Y-102620000D01*
X133147619Y-102596190D01*
X133052381Y-102596190D01*
X133004762Y-102620000D01*
X132980952Y-102643810D01*
X132957143Y-102691429D01*
X132957143Y-102715238D01*
X132980952Y-102762857D01*
X133004762Y-102786667D01*
X133052381Y-102810476D01*
X133147619Y-102810476D01*
X133195238Y-102834286D01*
X133219047Y-102858095D01*
X133242857Y-102905714D01*
X133242857Y-103000952D01*
X133219047Y-103048571D01*
X133195238Y-103072381D01*
X133147619Y-103096190D01*
X133052381Y-103096190D01*
X133004762Y-103072381D01*
X132980952Y-103048571D01*
X132957143Y-103000952D01*
X132957143Y-102905714D01*
X132980952Y-102858095D01*
X133004762Y-102834286D01*
X133052381Y-102810476D01*
X149705190Y-89324667D02*
X149467095Y-89158000D01*
X149705190Y-89038953D02*
X149205190Y-89038953D01*
X149205190Y-89229429D01*
X149229000Y-89277048D01*
X149252810Y-89300857D01*
X149300429Y-89324667D01*
X149371857Y-89324667D01*
X149419476Y-89300857D01*
X149443286Y-89277048D01*
X149467095Y-89229429D01*
X149467095Y-89038953D01*
X149205190Y-89491334D02*
X149205190Y-89824667D01*
X149705190Y-89610381D01*
X119860190Y-80180667D02*
X119622095Y-80014000D01*
X119860190Y-79894953D02*
X119360190Y-79894953D01*
X119360190Y-80085429D01*
X119384000Y-80133048D01*
X119407810Y-80156857D01*
X119455429Y-80180667D01*
X119526857Y-80180667D01*
X119574476Y-80156857D01*
X119598286Y-80133048D01*
X119622095Y-80085429D01*
X119622095Y-79894953D01*
X119360190Y-80609238D02*
X119360190Y-80514000D01*
X119384000Y-80466381D01*
X119407810Y-80442572D01*
X119479238Y-80394953D01*
X119574476Y-80371143D01*
X119764952Y-80371143D01*
X119812571Y-80394953D01*
X119836381Y-80418762D01*
X119860190Y-80466381D01*
X119860190Y-80561619D01*
X119836381Y-80609238D01*
X119812571Y-80633048D01*
X119764952Y-80656857D01*
X119645905Y-80656857D01*
X119598286Y-80633048D01*
X119574476Y-80609238D01*
X119550667Y-80561619D01*
X119550667Y-80466381D01*
X119574476Y-80418762D01*
X119598286Y-80394953D01*
X119645905Y-80371143D01*
X154896333Y-76553190D02*
X155063000Y-76315095D01*
X155182047Y-76553190D02*
X155182047Y-76053190D01*
X154991571Y-76053190D01*
X154943952Y-76077000D01*
X154920143Y-76100810D01*
X154896333Y-76148429D01*
X154896333Y-76219857D01*
X154920143Y-76267476D01*
X154943952Y-76291286D01*
X154991571Y-76315095D01*
X155182047Y-76315095D01*
X154443952Y-76053190D02*
X154682047Y-76053190D01*
X154705857Y-76291286D01*
X154682047Y-76267476D01*
X154634428Y-76243667D01*
X154515381Y-76243667D01*
X154467762Y-76267476D01*
X154443952Y-76291286D01*
X154420143Y-76338905D01*
X154420143Y-76457952D01*
X154443952Y-76505571D01*
X154467762Y-76529381D01*
X154515381Y-76553190D01*
X154634428Y-76553190D01*
X154682047Y-76529381D01*
X154705857Y-76505571D01*
X159865190Y-89451667D02*
X159627095Y-89285000D01*
X159865190Y-89165953D02*
X159365190Y-89165953D01*
X159365190Y-89356429D01*
X159389000Y-89404048D01*
X159412810Y-89427857D01*
X159460429Y-89451667D01*
X159531857Y-89451667D01*
X159579476Y-89427857D01*
X159603286Y-89404048D01*
X159627095Y-89356429D01*
X159627095Y-89165953D01*
X159531857Y-89880238D02*
X159865190Y-89880238D01*
X159341381Y-89761191D02*
X159698524Y-89642143D01*
X159698524Y-89951667D01*
X154023190Y-85387667D02*
X153785095Y-85221000D01*
X154023190Y-85101953D02*
X153523190Y-85101953D01*
X153523190Y-85292429D01*
X153547000Y-85340048D01*
X153570810Y-85363857D01*
X153618429Y-85387667D01*
X153689857Y-85387667D01*
X153737476Y-85363857D01*
X153761286Y-85340048D01*
X153785095Y-85292429D01*
X153785095Y-85101953D01*
X153523190Y-85554334D02*
X153523190Y-85863857D01*
X153713667Y-85697191D01*
X153713667Y-85768619D01*
X153737476Y-85816238D01*
X153761286Y-85840048D01*
X153808905Y-85863857D01*
X153927952Y-85863857D01*
X153975571Y-85840048D01*
X153999381Y-85816238D01*
X154023190Y-85768619D01*
X154023190Y-85625762D01*
X153999381Y-85578143D01*
X153975571Y-85554334D01*
X126972190Y-87419667D02*
X126734095Y-87253000D01*
X126972190Y-87133953D02*
X126472190Y-87133953D01*
X126472190Y-87324429D01*
X126496000Y-87372048D01*
X126519810Y-87395857D01*
X126567429Y-87419667D01*
X126638857Y-87419667D01*
X126686476Y-87395857D01*
X126710286Y-87372048D01*
X126734095Y-87324429D01*
X126734095Y-87133953D01*
X126519810Y-87610143D02*
X126496000Y-87633953D01*
X126472190Y-87681572D01*
X126472190Y-87800619D01*
X126496000Y-87848238D01*
X126519810Y-87872048D01*
X126567429Y-87895857D01*
X126615048Y-87895857D01*
X126686476Y-87872048D01*
X126972190Y-87586334D01*
X126972190Y-87895857D01*
X154023190Y-80688667D02*
X153785095Y-80522000D01*
X154023190Y-80402953D02*
X153523190Y-80402953D01*
X153523190Y-80593429D01*
X153547000Y-80641048D01*
X153570810Y-80664857D01*
X153618429Y-80688667D01*
X153689857Y-80688667D01*
X153737476Y-80664857D01*
X153761286Y-80641048D01*
X153785095Y-80593429D01*
X153785095Y-80402953D01*
X154023190Y-81164857D02*
X154023190Y-80879143D01*
X154023190Y-81022000D02*
X153523190Y-81022000D01*
X153594619Y-80974381D01*
X153642238Y-80926762D01*
X153666048Y-80879143D01*
D11*
X133357857Y-75795143D02*
X133405476Y-75842762D01*
X133548333Y-75890381D01*
X133643571Y-75890381D01*
X133786429Y-75842762D01*
X133881667Y-75747524D01*
X133929286Y-75652286D01*
X133976905Y-75461810D01*
X133976905Y-75318952D01*
X133929286Y-75128476D01*
X133881667Y-75033238D01*
X133786429Y-74938000D01*
X133643571Y-74890381D01*
X133548333Y-74890381D01*
X133405476Y-74938000D01*
X133357857Y-74985619D01*
X132405476Y-75890381D02*
X132976905Y-75890381D01*
X132691191Y-75890381D02*
X132691191Y-74890381D01*
X132786429Y-75033238D01*
X132881667Y-75128476D01*
X132976905Y-75176095D01*
X131786429Y-74890381D02*
X131691190Y-74890381D01*
X131595952Y-74938000D01*
X131548333Y-74985619D01*
X131500714Y-75080857D01*
X131453095Y-75271333D01*
X131453095Y-75509429D01*
X131500714Y-75699905D01*
X131548333Y-75795143D01*
X131595952Y-75842762D01*
X131691190Y-75890381D01*
X131786429Y-75890381D01*
X131881667Y-75842762D01*
X131929286Y-75795143D01*
X131976905Y-75699905D01*
X132024524Y-75509429D01*
X132024524Y-75271333D01*
X131976905Y-75080857D01*
X131929286Y-74985619D01*
X131881667Y-74938000D01*
X131786429Y-74890381D01*
X141045143Y-83018334D02*
X141092762Y-82970715D01*
X141140381Y-82827858D01*
X141140381Y-82732620D01*
X141092762Y-82589762D01*
X140997524Y-82494524D01*
X140902286Y-82446905D01*
X140711810Y-82399286D01*
X140568952Y-82399286D01*
X140378476Y-82446905D01*
X140283238Y-82494524D01*
X140188000Y-82589762D01*
X140140381Y-82732620D01*
X140140381Y-82827858D01*
X140188000Y-82970715D01*
X140235619Y-83018334D01*
X140568952Y-83589762D02*
X140521333Y-83494524D01*
X140473714Y-83446905D01*
X140378476Y-83399286D01*
X140330857Y-83399286D01*
X140235619Y-83446905D01*
X140188000Y-83494524D01*
X140140381Y-83589762D01*
X140140381Y-83780239D01*
X140188000Y-83875477D01*
X140235619Y-83923096D01*
X140330857Y-83970715D01*
X140378476Y-83970715D01*
X140473714Y-83923096D01*
X140521333Y-83875477D01*
X140568952Y-83780239D01*
X140568952Y-83589762D01*
X140616571Y-83494524D01*
X140664190Y-83446905D01*
X140759429Y-83399286D01*
X140949905Y-83399286D01*
X141045143Y-83446905D01*
X141092762Y-83494524D01*
X141140381Y-83589762D01*
X141140381Y-83780239D01*
X141092762Y-83875477D01*
X141045143Y-83923096D01*
X140949905Y-83970715D01*
X140759429Y-83970715D01*
X140664190Y-83923096D01*
X140616571Y-83875477D01*
X140568952Y-83780239D01*
X106783143Y-83018334D02*
X106830762Y-82970715D01*
X106878381Y-82827858D01*
X106878381Y-82732620D01*
X106830762Y-82589762D01*
X106735524Y-82494524D01*
X106640286Y-82446905D01*
X106449810Y-82399286D01*
X106306952Y-82399286D01*
X106116476Y-82446905D01*
X106021238Y-82494524D01*
X105926000Y-82589762D01*
X105878381Y-82732620D01*
X105878381Y-82827858D01*
X105926000Y-82970715D01*
X105973619Y-83018334D01*
X106878381Y-83494524D02*
X106878381Y-83685000D01*
X106830762Y-83780239D01*
X106783143Y-83827858D01*
X106640286Y-83923096D01*
X106449810Y-83970715D01*
X106068857Y-83970715D01*
X105973619Y-83923096D01*
X105926000Y-83875477D01*
X105878381Y-83780239D01*
X105878381Y-83589762D01*
X105926000Y-83494524D01*
X105973619Y-83446905D01*
X106068857Y-83399286D01*
X106306952Y-83399286D01*
X106402190Y-83446905D01*
X106449810Y-83494524D01*
X106497429Y-83589762D01*
X106497429Y-83780239D01*
X106449810Y-83875477D01*
X106402190Y-83923096D01*
X106306952Y-83970715D01*
X117959143Y-85050334D02*
X118006762Y-85002715D01*
X118054381Y-84859858D01*
X118054381Y-84764620D01*
X118006762Y-84621762D01*
X117911524Y-84526524D01*
X117816286Y-84478905D01*
X117625810Y-84431286D01*
X117482952Y-84431286D01*
X117292476Y-84478905D01*
X117197238Y-84526524D01*
X117102000Y-84621762D01*
X117054381Y-84764620D01*
X117054381Y-84859858D01*
X117102000Y-85002715D01*
X117149619Y-85050334D01*
X117054381Y-85383667D02*
X117054381Y-86050334D01*
X118054381Y-85621762D01*
X156087143Y-90765334D02*
X156134762Y-90717715D01*
X156182381Y-90574858D01*
X156182381Y-90479620D01*
X156134762Y-90336762D01*
X156039524Y-90241524D01*
X155944286Y-90193905D01*
X155753810Y-90146286D01*
X155610952Y-90146286D01*
X155420476Y-90193905D01*
X155325238Y-90241524D01*
X155230000Y-90336762D01*
X155182381Y-90479620D01*
X155182381Y-90574858D01*
X155230000Y-90717715D01*
X155277619Y-90765334D01*
X155182381Y-91622477D02*
X155182381Y-91432000D01*
X155230000Y-91336762D01*
X155277619Y-91289143D01*
X155420476Y-91193905D01*
X155610952Y-91146286D01*
X155991905Y-91146286D01*
X156087143Y-91193905D01*
X156134762Y-91241524D01*
X156182381Y-91336762D01*
X156182381Y-91527239D01*
X156134762Y-91622477D01*
X156087143Y-91670096D01*
X155991905Y-91717715D01*
X155753810Y-91717715D01*
X155658571Y-91670096D01*
X155610952Y-91622477D01*
X155563333Y-91527239D01*
X155563333Y-91336762D01*
X155610952Y-91241524D01*
X155658571Y-91193905D01*
X155753810Y-91146286D01*
X140946143Y-87971334D02*
X140993762Y-87923715D01*
X141041381Y-87780858D01*
X141041381Y-87685620D01*
X140993762Y-87542762D01*
X140898524Y-87447524D01*
X140803286Y-87399905D01*
X140612810Y-87352286D01*
X140469952Y-87352286D01*
X140279476Y-87399905D01*
X140184238Y-87447524D01*
X140089000Y-87542762D01*
X140041381Y-87685620D01*
X140041381Y-87780858D01*
X140089000Y-87923715D01*
X140136619Y-87971334D01*
X140041381Y-88876096D02*
X140041381Y-88399905D01*
X140517571Y-88352286D01*
X140469952Y-88399905D01*
X140422333Y-88495143D01*
X140422333Y-88733239D01*
X140469952Y-88828477D01*
X140517571Y-88876096D01*
X140612810Y-88923715D01*
X140850905Y-88923715D01*
X140946143Y-88876096D01*
X140993762Y-88828477D01*
X141041381Y-88733239D01*
X141041381Y-88495143D01*
X140993762Y-88399905D01*
X140946143Y-88352286D01*
X141045143Y-77938334D02*
X141092762Y-77890715D01*
X141140381Y-77747858D01*
X141140381Y-77652620D01*
X141092762Y-77509762D01*
X140997524Y-77414524D01*
X140902286Y-77366905D01*
X140711810Y-77319286D01*
X140568952Y-77319286D01*
X140378476Y-77366905D01*
X140283238Y-77414524D01*
X140188000Y-77509762D01*
X140140381Y-77652620D01*
X140140381Y-77747858D01*
X140188000Y-77890715D01*
X140235619Y-77938334D01*
X140473714Y-78795477D02*
X141140381Y-78795477D01*
X140092762Y-78557381D02*
X140807048Y-78319286D01*
X140807048Y-78938334D01*
X152249143Y-88733334D02*
X152296762Y-88685715D01*
X152344381Y-88542858D01*
X152344381Y-88447620D01*
X152296762Y-88304762D01*
X152201524Y-88209524D01*
X152106286Y-88161905D01*
X151915810Y-88114286D01*
X151772952Y-88114286D01*
X151582476Y-88161905D01*
X151487238Y-88209524D01*
X151392000Y-88304762D01*
X151344381Y-88447620D01*
X151344381Y-88542858D01*
X151392000Y-88685715D01*
X151439619Y-88733334D01*
X151344381Y-89066667D02*
X151344381Y-89685715D01*
X151725333Y-89352381D01*
X151725333Y-89495239D01*
X151772952Y-89590477D01*
X151820571Y-89638096D01*
X151915810Y-89685715D01*
X152153905Y-89685715D01*
X152249143Y-89638096D01*
X152296762Y-89590477D01*
X152344381Y-89495239D01*
X152344381Y-89209524D01*
X152296762Y-89114286D01*
X152249143Y-89066667D01*
X161746143Y-76668334D02*
X161793762Y-76620715D01*
X161841381Y-76477858D01*
X161841381Y-76382620D01*
X161793762Y-76239762D01*
X161698524Y-76144524D01*
X161603286Y-76096905D01*
X161412810Y-76049286D01*
X161269952Y-76049286D01*
X161079476Y-76096905D01*
X160984238Y-76144524D01*
X160889000Y-76239762D01*
X160841381Y-76382620D01*
X160841381Y-76477858D01*
X160889000Y-76620715D01*
X160936619Y-76668334D01*
X160936619Y-77049286D02*
X160889000Y-77096905D01*
X160841381Y-77192143D01*
X160841381Y-77430239D01*
X160889000Y-77525477D01*
X160936619Y-77573096D01*
X161031857Y-77620715D01*
X161127095Y-77620715D01*
X161269952Y-77573096D01*
X161841381Y-77001667D01*
X161841381Y-77620715D01*
X132881666Y-81510143D02*
X132929285Y-81557762D01*
X133072142Y-81605381D01*
X133167380Y-81605381D01*
X133310238Y-81557762D01*
X133405476Y-81462524D01*
X133453095Y-81367286D01*
X133500714Y-81176810D01*
X133500714Y-81033952D01*
X133453095Y-80843476D01*
X133405476Y-80748238D01*
X133310238Y-80653000D01*
X133167380Y-80605381D01*
X133072142Y-80605381D01*
X132929285Y-80653000D01*
X132881666Y-80700619D01*
X131929285Y-81605381D02*
X132500714Y-81605381D01*
X132215000Y-81605381D02*
X132215000Y-80605381D01*
X132310238Y-80748238D01*
X132405476Y-80843476D01*
X132500714Y-80891095D01*
X157059381Y-82423095D02*
X157868905Y-82423095D01*
X157964143Y-82470714D01*
X158011762Y-82518333D01*
X158059381Y-82613571D01*
X158059381Y-82804048D01*
X158011762Y-82899286D01*
X157964143Y-82946905D01*
X157868905Y-82994524D01*
X157059381Y-82994524D01*
X157154619Y-83423095D02*
X157107000Y-83470714D01*
X157059381Y-83565952D01*
X157059381Y-83804048D01*
X157107000Y-83899286D01*
X157154619Y-83946905D01*
X157249857Y-83994524D01*
X157345095Y-83994524D01*
X157487952Y-83946905D01*
X158059381Y-83375476D01*
X158059381Y-83994524D01*
D12*
X149780619Y-75584810D02*
X149828238Y-75561000D01*
X149875857Y-75513381D01*
X149947286Y-75441952D01*
X149994905Y-75418143D01*
X150042524Y-75418143D01*
X150018714Y-75537190D02*
X150066333Y-75513381D01*
X150113952Y-75465762D01*
X150137762Y-75370524D01*
X150137762Y-75203857D01*
X150113952Y-75108619D01*
X150066333Y-75061000D01*
X150018714Y-75037190D01*
X149923476Y-75037190D01*
X149875857Y-75061000D01*
X149828238Y-75108619D01*
X149804429Y-75203857D01*
X149804429Y-75370524D01*
X149828238Y-75465762D01*
X149875857Y-75513381D01*
X149923476Y-75537190D01*
X150018714Y-75537190D01*
X149328238Y-75537190D02*
X149613952Y-75537190D01*
X149471095Y-75537190D02*
X149471095Y-75037190D01*
X149518714Y-75108619D01*
X149566333Y-75156238D01*
X149613952Y-75180048D01*
D11*
X148058095Y-93837381D02*
X148058095Y-92837381D01*
X147820000Y-92837381D01*
X147677142Y-92885000D01*
X147581904Y-92980238D01*
X147534285Y-93075476D01*
X147486666Y-93265952D01*
X147486666Y-93408810D01*
X147534285Y-93599286D01*
X147581904Y-93694524D01*
X147677142Y-93789762D01*
X147820000Y-93837381D01*
X148058095Y-93837381D01*
X147153333Y-92837381D02*
X146534285Y-92837381D01*
X146867619Y-93218333D01*
X146724761Y-93218333D01*
X146629523Y-93265952D01*
X146581904Y-93313571D01*
X146534285Y-93408810D01*
X146534285Y-93646905D01*
X146581904Y-93742143D01*
X146629523Y-93789762D01*
X146724761Y-93837381D01*
X147010476Y-93837381D01*
X147105714Y-93789762D01*
X147153333Y-93742143D01*
X132167381Y-84074095D02*
X132976905Y-84074095D01*
X133072143Y-84121714D01*
X133119762Y-84169333D01*
X133167381Y-84264571D01*
X133167381Y-84455048D01*
X133119762Y-84550286D01*
X133072143Y-84597905D01*
X132976905Y-84645524D01*
X132167381Y-84645524D01*
X133167381Y-85645524D02*
X133167381Y-85074095D01*
X133167381Y-85359809D02*
X132167381Y-85359809D01*
X132310238Y-85264571D01*
X132405476Y-85169333D01*
X132453095Y-85074095D01*
X137644095Y-100147381D02*
X137644095Y-99147381D01*
X137406000Y-99147381D01*
X137263142Y-99195000D01*
X137167904Y-99290238D01*
X137120285Y-99385476D01*
X137072666Y-99575952D01*
X137072666Y-99718810D01*
X137120285Y-99909286D01*
X137167904Y-100004524D01*
X137263142Y-100099762D01*
X137406000Y-100147381D01*
X137644095Y-100147381D01*
X136215523Y-99147381D02*
X136406000Y-99147381D01*
X136501238Y-99195000D01*
X136548857Y-99242619D01*
X136644095Y-99385476D01*
X136691714Y-99575952D01*
X136691714Y-99956905D01*
X136644095Y-100052143D01*
X136596476Y-100099762D01*
X136501238Y-100147381D01*
X136310761Y-100147381D01*
X136215523Y-100099762D01*
X136167904Y-100052143D01*
X136120285Y-99956905D01*
X136120285Y-99718810D01*
X136167904Y-99623571D01*
X136215523Y-99575952D01*
X136310761Y-99528333D01*
X136501238Y-99528333D01*
X136596476Y-99575952D01*
X136644095Y-99623571D01*
X136691714Y-99718810D01*
X134088095Y-93837381D02*
X134088095Y-92837381D01*
X133850000Y-92837381D01*
X133707142Y-92885000D01*
X133611904Y-92980238D01*
X133564285Y-93075476D01*
X133516666Y-93265952D01*
X133516666Y-93408810D01*
X133564285Y-93599286D01*
X133611904Y-93694524D01*
X133707142Y-93789762D01*
X133850000Y-93837381D01*
X134088095Y-93837381D01*
X133135714Y-92932619D02*
X133088095Y-92885000D01*
X132992857Y-92837381D01*
X132754761Y-92837381D01*
X132659523Y-92885000D01*
X132611904Y-92932619D01*
X132564285Y-93027857D01*
X132564285Y-93123095D01*
X132611904Y-93265952D01*
X133183333Y-93837381D01*
X132564285Y-93837381D01*
X160258381Y-69619905D02*
X159258381Y-69619905D01*
X159258381Y-69858000D01*
X159306000Y-70000858D01*
X159401238Y-70096096D01*
X159496476Y-70143715D01*
X159686952Y-70191334D01*
X159829810Y-70191334D01*
X160020286Y-70143715D01*
X160115524Y-70096096D01*
X160210762Y-70000858D01*
X160258381Y-69858000D01*
X160258381Y-69619905D01*
X160258381Y-71143715D02*
X160258381Y-70572286D01*
X160258381Y-70858000D02*
X159258381Y-70858000D01*
X159401238Y-70762762D01*
X159496476Y-70667524D01*
X159544095Y-70572286D01*
X171838857Y-78871143D02*
X171886476Y-78918762D01*
X172029333Y-78966381D01*
X172124571Y-78966381D01*
X172267429Y-78918762D01*
X172362667Y-78823524D01*
X172410286Y-78728286D01*
X172457905Y-78537810D01*
X172457905Y-78394952D01*
X172410286Y-78204476D01*
X172362667Y-78109238D01*
X172267429Y-78014000D01*
X172124571Y-77966381D01*
X172029333Y-77966381D01*
X171886476Y-78014000D01*
X171838857Y-78061619D01*
X170886476Y-78966381D02*
X171457905Y-78966381D01*
X171172191Y-78966381D02*
X171172191Y-77966381D01*
X171267429Y-78109238D01*
X171362667Y-78204476D01*
X171457905Y-78252095D01*
X169934095Y-78966381D02*
X170505524Y-78966381D01*
X170219810Y-78966381D02*
X170219810Y-77966381D01*
X170315048Y-78109238D01*
X170410286Y-78204476D01*
X170505524Y-78252095D01*
X163075857Y-80621143D02*
X163123476Y-80668762D01*
X163266333Y-80716381D01*
X163361571Y-80716381D01*
X163504429Y-80668762D01*
X163599667Y-80573524D01*
X163647286Y-80478286D01*
X163694905Y-80287810D01*
X163694905Y-80144952D01*
X163647286Y-79954476D01*
X163599667Y-79859238D01*
X163504429Y-79764000D01*
X163361571Y-79716381D01*
X163266333Y-79716381D01*
X163123476Y-79764000D01*
X163075857Y-79811619D01*
X162123476Y-80716381D02*
X162694905Y-80716381D01*
X162409191Y-80716381D02*
X162409191Y-79716381D01*
X162504429Y-79859238D01*
X162599667Y-79954476D01*
X162694905Y-80002095D01*
X161742524Y-79811619D02*
X161694905Y-79764000D01*
X161599667Y-79716381D01*
X161361571Y-79716381D01*
X161266333Y-79764000D01*
X161218714Y-79811619D01*
X161171095Y-79906857D01*
X161171095Y-80002095D01*
X161218714Y-80144952D01*
X161790143Y-80716381D01*
X161171095Y-80716381D01*
X167774857Y-70715143D02*
X167822476Y-70762762D01*
X167965333Y-70810381D01*
X168060571Y-70810381D01*
X168203429Y-70762762D01*
X168298667Y-70667524D01*
X168346286Y-70572286D01*
X168393905Y-70381810D01*
X168393905Y-70238952D01*
X168346286Y-70048476D01*
X168298667Y-69953238D01*
X168203429Y-69858000D01*
X168060571Y-69810381D01*
X167965333Y-69810381D01*
X167822476Y-69858000D01*
X167774857Y-69905619D01*
X166822476Y-70810381D02*
X167393905Y-70810381D01*
X167108191Y-70810381D02*
X167108191Y-69810381D01*
X167203429Y-69953238D01*
X167298667Y-70048476D01*
X167393905Y-70096095D01*
X166489143Y-69810381D02*
X165870095Y-69810381D01*
X166203429Y-70191333D01*
X166060571Y-70191333D01*
X165965333Y-70238952D01*
X165917714Y-70286571D01*
X165870095Y-70381810D01*
X165870095Y-70619905D01*
X165917714Y-70715143D01*
X165965333Y-70762762D01*
X166060571Y-70810381D01*
X166346286Y-70810381D01*
X166441524Y-70762762D01*
X166489143Y-70715143D01*
X170791095Y-75636381D02*
X170791095Y-74636381D01*
X170553000Y-74636381D01*
X170410142Y-74684000D01*
X170314904Y-74779238D01*
X170267285Y-74874476D01*
X170219666Y-75064952D01*
X170219666Y-75207810D01*
X170267285Y-75398286D01*
X170314904Y-75493524D01*
X170410142Y-75588762D01*
X170553000Y-75636381D01*
X170791095Y-75636381D01*
X169648238Y-75064952D02*
X169743476Y-75017333D01*
X169791095Y-74969714D01*
X169838714Y-74874476D01*
X169838714Y-74826857D01*
X169791095Y-74731619D01*
X169743476Y-74684000D01*
X169648238Y-74636381D01*
X169457761Y-74636381D01*
X169362523Y-74684000D01*
X169314904Y-74731619D01*
X169267285Y-74826857D01*
X169267285Y-74874476D01*
X169314904Y-74969714D01*
X169362523Y-75017333D01*
X169457761Y-75064952D01*
X169648238Y-75064952D01*
X169743476Y-75112571D01*
X169791095Y-75160190D01*
X169838714Y-75255429D01*
X169838714Y-75445905D01*
X169791095Y-75541143D01*
X169743476Y-75588762D01*
X169648238Y-75636381D01*
X169457761Y-75636381D01*
X169362523Y-75588762D01*
X169314904Y-75541143D01*
X169267285Y-75445905D01*
X169267285Y-75255429D01*
X169314904Y-75160190D01*
X169362523Y-75112571D01*
X169457761Y-75064952D01*
D12*
X135862190Y-64194572D02*
X135624095Y-64027905D01*
X135862190Y-63908858D02*
X135362190Y-63908858D01*
X135362190Y-64099334D01*
X135386000Y-64146953D01*
X135409810Y-64170762D01*
X135457429Y-64194572D01*
X135528857Y-64194572D01*
X135576476Y-64170762D01*
X135600286Y-64146953D01*
X135624095Y-64099334D01*
X135624095Y-63908858D01*
X135862190Y-64670762D02*
X135862190Y-64385048D01*
X135862190Y-64527905D02*
X135362190Y-64527905D01*
X135433619Y-64480286D01*
X135481238Y-64432667D01*
X135505048Y-64385048D01*
X135862190Y-65146952D02*
X135862190Y-64861238D01*
X135862190Y-65004095D02*
X135362190Y-65004095D01*
X135433619Y-64956476D01*
X135481238Y-64908857D01*
X135505048Y-64861238D01*
X165421428Y-78458190D02*
X165588095Y-78220095D01*
X165707142Y-78458190D02*
X165707142Y-77958190D01*
X165516666Y-77958190D01*
X165469047Y-77982000D01*
X165445238Y-78005810D01*
X165421428Y-78053429D01*
X165421428Y-78124857D01*
X165445238Y-78172476D01*
X165469047Y-78196286D01*
X165516666Y-78220095D01*
X165707142Y-78220095D01*
X164945238Y-78458190D02*
X165230952Y-78458190D01*
X165088095Y-78458190D02*
X165088095Y-77958190D01*
X165135714Y-78029619D01*
X165183333Y-78077238D01*
X165230952Y-78101048D01*
X164754762Y-78005810D02*
X164730952Y-77982000D01*
X164683333Y-77958190D01*
X164564286Y-77958190D01*
X164516667Y-77982000D01*
X164492857Y-78005810D01*
X164469048Y-78053429D01*
X164469048Y-78101048D01*
X164492857Y-78172476D01*
X164778571Y-78458190D01*
X164469048Y-78458190D01*
X163802190Y-84006572D02*
X163564095Y-83839905D01*
X163802190Y-83720858D02*
X163302190Y-83720858D01*
X163302190Y-83911334D01*
X163326000Y-83958953D01*
X163349810Y-83982762D01*
X163397429Y-84006572D01*
X163468857Y-84006572D01*
X163516476Y-83982762D01*
X163540286Y-83958953D01*
X163564095Y-83911334D01*
X163564095Y-83720858D01*
X163802190Y-84482762D02*
X163802190Y-84197048D01*
X163802190Y-84339905D02*
X163302190Y-84339905D01*
X163373619Y-84292286D01*
X163421238Y-84244667D01*
X163445048Y-84197048D01*
X163302190Y-84649429D02*
X163302190Y-84958952D01*
X163492667Y-84792286D01*
X163492667Y-84863714D01*
X163516476Y-84911333D01*
X163540286Y-84935143D01*
X163587905Y-84958952D01*
X163706952Y-84958952D01*
X163754571Y-84935143D01*
X163778381Y-84911333D01*
X163802190Y-84863714D01*
X163802190Y-84720857D01*
X163778381Y-84673238D01*
X163754571Y-84649429D01*
X168890190Y-84455048D02*
X169294952Y-84455048D01*
X169342571Y-84478857D01*
X169366381Y-84502667D01*
X169390190Y-84550286D01*
X169390190Y-84645524D01*
X169366381Y-84693143D01*
X169342571Y-84716952D01*
X169294952Y-84740762D01*
X168890190Y-84740762D01*
X169056857Y-85193143D02*
X169390190Y-85193143D01*
X168866381Y-85074096D02*
X169223524Y-84955048D01*
X169223524Y-85264572D01*
D11*
X162718381Y-100861905D02*
X161718381Y-100861905D01*
X161718381Y-101100000D01*
X161766000Y-101242858D01*
X161861238Y-101338096D01*
X161956476Y-101385715D01*
X162146952Y-101433334D01*
X162289810Y-101433334D01*
X162480286Y-101385715D01*
X162575524Y-101338096D01*
X162670762Y-101242858D01*
X162718381Y-101100000D01*
X162718381Y-100861905D01*
X162718381Y-101909524D02*
X162718381Y-102100000D01*
X162670762Y-102195239D01*
X162623143Y-102242858D01*
X162480286Y-102338096D01*
X162289810Y-102385715D01*
X161908857Y-102385715D01*
X161813619Y-102338096D01*
X161766000Y-102290477D01*
X161718381Y-102195239D01*
X161718381Y-102004762D01*
X161766000Y-101909524D01*
X161813619Y-101861905D01*
X161908857Y-101814286D01*
X162146952Y-101814286D01*
X162242190Y-101861905D01*
X162289810Y-101909524D01*
X162337429Y-102004762D01*
X162337429Y-102195239D01*
X162289810Y-102290477D01*
X162242190Y-102338096D01*
X162146952Y-102385715D01*
D12*
X115796190Y-85530572D02*
X115558095Y-85363905D01*
X115796190Y-85244858D02*
X115296190Y-85244858D01*
X115296190Y-85435334D01*
X115320000Y-85482953D01*
X115343810Y-85506762D01*
X115391429Y-85530572D01*
X115462857Y-85530572D01*
X115510476Y-85506762D01*
X115534286Y-85482953D01*
X115558095Y-85435334D01*
X115558095Y-85244858D01*
X115796190Y-86006762D02*
X115796190Y-85721048D01*
X115796190Y-85863905D02*
X115296190Y-85863905D01*
X115367619Y-85816286D01*
X115415238Y-85768667D01*
X115439048Y-85721048D01*
X115462857Y-86435333D02*
X115796190Y-86435333D01*
X115272381Y-86316286D02*
X115629524Y-86197238D01*
X115629524Y-86506762D01*
X115796190Y-79815572D02*
X115558095Y-79648905D01*
X115796190Y-79529858D02*
X115296190Y-79529858D01*
X115296190Y-79720334D01*
X115320000Y-79767953D01*
X115343810Y-79791762D01*
X115391429Y-79815572D01*
X115462857Y-79815572D01*
X115510476Y-79791762D01*
X115534286Y-79767953D01*
X115558095Y-79720334D01*
X115558095Y-79529858D01*
X115796190Y-80291762D02*
X115796190Y-80006048D01*
X115796190Y-80148905D02*
X115296190Y-80148905D01*
X115367619Y-80101286D01*
X115415238Y-80053667D01*
X115439048Y-80006048D01*
X115296190Y-80744143D02*
X115296190Y-80506048D01*
X115534286Y-80482238D01*
X115510476Y-80506048D01*
X115486667Y-80553667D01*
X115486667Y-80672714D01*
X115510476Y-80720333D01*
X115534286Y-80744143D01*
X115581905Y-80767952D01*
X115700952Y-80767952D01*
X115748571Y-80744143D01*
X115772381Y-80720333D01*
X115796190Y-80672714D01*
X115796190Y-80553667D01*
X115772381Y-80506048D01*
X115748571Y-80482238D01*
M02*
