G04 #@! TF.FileFunction,Soldermask,Bot*
%FSLAX46Y46*%
G04 Gerber Fmt 4.6, Leading zero omitted, Abs format (unit mm)*
G04 Created by KiCad (PCBNEW 4.0.7) date 01/03/18 21:35:11*
%MOMM*%
%LPD*%
G01*
G04 APERTURE LIST*
%ADD10C,0.100000*%
%ADD11O,5.480000X2.940000*%
%ADD12C,10.560000*%
%ADD13R,1.700000X1.900000*%
%ADD14R,1.900000X1.700000*%
%ADD15R,1.900000X1.650000*%
%ADD16R,1.650000X1.900000*%
%ADD17R,2.900000X4.150000*%
%ADD18R,1.000000X1.950000*%
%ADD19R,1.200000X1.300000*%
%ADD20R,2.900000X2.200000*%
%ADD21R,2.000000X2.000000*%
%ADD22O,2.000000X2.000000*%
%ADD23R,2.000000X1.700000*%
%ADD24R,2.000000X2.400000*%
%ADD25R,2.200000X2.900000*%
%ADD26R,2.900000X2.900000*%
%ADD27C,2.900000*%
%ADD28R,2.100000X2.100000*%
%ADD29R,2.850000X6.300000*%
%ADD30R,1.960000X1.050000*%
G04 APERTURE END LIST*
D10*
D11*
X146304000Y-100838000D03*
X146304000Y-104648000D03*
D10*
G36*
X177688357Y-70364981D02*
X173869981Y-74183357D01*
X163687643Y-64001019D01*
X167506019Y-60182643D01*
X177688357Y-70364981D01*
X177688357Y-70364981D01*
G37*
D12*
X177165000Y-92710000D03*
X177165000Y-73662000D03*
D10*
G36*
X167506019Y-106187357D02*
X163687643Y-102368981D01*
X173869981Y-92186643D01*
X177688357Y-96005019D01*
X167506019Y-106187357D01*
X167506019Y-106187357D01*
G37*
D13*
X145415000Y-88058000D03*
X145415000Y-90758000D03*
X126746000Y-79295000D03*
X126746000Y-81995000D03*
D14*
X132000000Y-102870000D03*
X134700000Y-102870000D03*
D13*
X149479000Y-88058000D03*
X149479000Y-90758000D03*
X119634000Y-81614000D03*
X119634000Y-78914000D03*
D14*
X153463000Y-76327000D03*
X156163000Y-76327000D03*
D13*
X159639000Y-88185000D03*
X159639000Y-90885000D03*
X153797000Y-86821000D03*
X153797000Y-84121000D03*
X126746000Y-86153000D03*
X126746000Y-88853000D03*
X153797000Y-82122000D03*
X153797000Y-79422000D03*
D15*
X131465000Y-77089000D03*
X133965000Y-77089000D03*
D16*
X138938000Y-84435000D03*
X138938000Y-81935000D03*
D17*
X106426000Y-86310000D03*
X106426000Y-80060000D03*
D16*
X117602000Y-84308000D03*
X117602000Y-81808000D03*
X157480000Y-89682000D03*
X157480000Y-92182000D03*
X138938000Y-87015000D03*
X138938000Y-89515000D03*
X138938000Y-79355000D03*
X138938000Y-76855000D03*
X151892000Y-86848000D03*
X151892000Y-84348000D03*
X159639000Y-78085000D03*
X159639000Y-75585000D03*
D15*
X131465000Y-79248000D03*
X133965000Y-79248000D03*
D18*
X159512000Y-85885000D03*
X158242000Y-85885000D03*
X156972000Y-85885000D03*
X155702000Y-85885000D03*
X155702000Y-80485000D03*
X156972000Y-80485000D03*
X158242000Y-80485000D03*
X159512000Y-80485000D03*
D19*
X150683000Y-76311000D03*
X148783000Y-76311000D03*
X149733000Y-74311000D03*
D20*
X149320000Y-95885000D03*
X145320000Y-95885000D03*
D21*
X128905000Y-79375000D03*
D22*
X136525000Y-86995000D03*
X128905000Y-81915000D03*
X136525000Y-84455000D03*
X128905000Y-84455000D03*
X136525000Y-81915000D03*
X128905000Y-86995000D03*
X136525000Y-79375000D03*
D18*
X130810000Y-81501000D03*
X132080000Y-81501000D03*
X133350000Y-81501000D03*
X134620000Y-81501000D03*
X134620000Y-86901000D03*
X133350000Y-86901000D03*
X132080000Y-86901000D03*
X130810000Y-86901000D03*
D23*
X113210000Y-81808000D03*
D24*
X110310000Y-83058000D03*
D23*
X113210000Y-84308000D03*
D20*
X131350000Y-99695000D03*
X135350000Y-99695000D03*
X135350000Y-95885000D03*
X131350000Y-95885000D03*
D25*
X162306000Y-68358000D03*
X162306000Y-72358000D03*
D26*
X148717000Y-67310000D03*
D27*
X144117000Y-67310000D03*
X139517000Y-67310000D03*
X148717000Y-61610000D03*
X144117000Y-61610000D03*
X139517000Y-61610000D03*
D28*
X145415000Y-85335000D03*
X145415000Y-81035000D03*
X149479000Y-85335000D03*
X149479000Y-81035000D03*
D10*
G36*
X114420019Y-74183357D02*
X110601643Y-70364981D01*
X120783981Y-60182643D01*
X124602357Y-64001019D01*
X114420019Y-74183357D01*
X114420019Y-74183357D01*
G37*
D12*
X111125000Y-92710000D03*
X111125000Y-73662000D03*
D10*
G36*
X124602357Y-102368981D02*
X120783981Y-106187357D01*
X110601643Y-96005019D01*
X114420019Y-92186643D01*
X124602357Y-102368981D01*
X124602357Y-102368981D01*
G37*
D15*
X172446000Y-80264000D03*
X169946000Y-80264000D03*
X166350000Y-80264000D03*
X163850000Y-80264000D03*
X165882000Y-72136000D03*
X168382000Y-72136000D03*
D20*
X165640000Y-75184000D03*
X169640000Y-75184000D03*
D29*
X181083000Y-83312000D03*
X175533000Y-83312000D03*
D13*
X135636000Y-65866000D03*
X135636000Y-63166000D03*
D14*
X166450000Y-78232000D03*
X163750000Y-78232000D03*
D13*
X163576000Y-82978000D03*
X163576000Y-85678000D03*
D30*
X167814000Y-85786000D03*
X167814000Y-84836000D03*
X167814000Y-83886000D03*
X170514000Y-83886000D03*
X170514000Y-85786000D03*
D25*
X159766000Y-103600000D03*
X159766000Y-99600000D03*
D13*
X115570000Y-87202000D03*
X115570000Y-84502000D03*
X115570000Y-81487000D03*
X115570000Y-78787000D03*
M02*
