G04 #@! TF.FileFunction,Legend,Top*
%FSLAX46Y46*%
G04 Gerber Fmt 4.6, Leading zero omitted, Abs format (unit mm)*
G04 Created by KiCad (PCBNEW 4.0.5) date 12/26/17 18:41:23*
%MOMM*%
%LPD*%
G01*
G04 APERTURE LIST*
%ADD10C,0.100000*%
%ADD11C,0.300000*%
%ADD12C,0.200000*%
%ADD13C,0.700000*%
%ADD14C,0.120000*%
%ADD15C,0.150000*%
%ADD16C,0.381000*%
%ADD17C,0.010000*%
%ADD18C,0.254000*%
G04 APERTURE END LIST*
D10*
D11*
X162405143Y-93906001D02*
X162476571Y-93763144D01*
X162476571Y-93477429D01*
X162405143Y-93334572D01*
X162262286Y-93263144D01*
X162190857Y-93263144D01*
X162048000Y-93334572D01*
X161976571Y-93477429D01*
X161976571Y-93691715D01*
X161905143Y-93834572D01*
X161762286Y-93906001D01*
X161690857Y-93906001D01*
X161548000Y-93834572D01*
X161476571Y-93691715D01*
X161476571Y-93477429D01*
X161548000Y-93334572D01*
X162405143Y-91977429D02*
X162476571Y-92120286D01*
X162476571Y-92406000D01*
X162405143Y-92548858D01*
X162333714Y-92620286D01*
X162190857Y-92691715D01*
X161762286Y-92691715D01*
X161619429Y-92620286D01*
X161548000Y-92548858D01*
X161476571Y-92406000D01*
X161476571Y-92120286D01*
X161548000Y-91977429D01*
X162476571Y-91334572D02*
X160976571Y-91334572D01*
X162476571Y-90691715D02*
X161690857Y-90691715D01*
X161548000Y-90763144D01*
X161476571Y-90906001D01*
X161476571Y-91120286D01*
X161548000Y-91263144D01*
X161619429Y-91334572D01*
X162405143Y-89406001D02*
X162476571Y-89548858D01*
X162476571Y-89834572D01*
X162405143Y-89977429D01*
X162262286Y-90048858D01*
X161690857Y-90048858D01*
X161548000Y-89977429D01*
X161476571Y-89834572D01*
X161476571Y-89548858D01*
X161548000Y-89406001D01*
X161690857Y-89334572D01*
X161833714Y-89334572D01*
X161976571Y-90048858D01*
X161476571Y-88691715D02*
X162476571Y-88691715D01*
X161619429Y-88691715D02*
X161548000Y-88620287D01*
X161476571Y-88477429D01*
X161476571Y-88263144D01*
X161548000Y-88120287D01*
X161690857Y-88048858D01*
X162476571Y-88048858D01*
X162476571Y-87334572D02*
X160976571Y-87334572D01*
X161905143Y-87191715D02*
X162476571Y-86763144D01*
X161476571Y-86763144D02*
X162048000Y-87334572D01*
X161476571Y-86334572D02*
X161476571Y-85763143D01*
X160976571Y-86120286D02*
X162262286Y-86120286D01*
X162405143Y-86048858D01*
X162476571Y-85906000D01*
X162476571Y-85763143D01*
X162476571Y-85263143D02*
X161476571Y-85263143D01*
X161762286Y-85263143D02*
X161619429Y-85191715D01*
X161548000Y-85120286D01*
X161476571Y-84977429D01*
X161476571Y-84834572D01*
X162476571Y-84120286D02*
X162405143Y-84263144D01*
X162333714Y-84334572D01*
X162190857Y-84406001D01*
X161762286Y-84406001D01*
X161619429Y-84334572D01*
X161548000Y-84263144D01*
X161476571Y-84120286D01*
X161476571Y-83906001D01*
X161548000Y-83763144D01*
X161619429Y-83691715D01*
X161762286Y-83620286D01*
X162190857Y-83620286D01*
X162333714Y-83691715D01*
X162405143Y-83763144D01*
X162476571Y-83906001D01*
X162476571Y-84120286D01*
X161476571Y-82977429D02*
X162476571Y-82977429D01*
X161619429Y-82977429D02*
X161548000Y-82906001D01*
X161476571Y-82763143D01*
X161476571Y-82548858D01*
X161548000Y-82406001D01*
X161690857Y-82334572D01*
X162476571Y-82334572D01*
X162476571Y-81620286D02*
X161476571Y-81620286D01*
X160976571Y-81620286D02*
X161048000Y-81691715D01*
X161119429Y-81620286D01*
X161048000Y-81548858D01*
X160976571Y-81620286D01*
X161119429Y-81620286D01*
X162405143Y-80263143D02*
X162476571Y-80406000D01*
X162476571Y-80691714D01*
X162405143Y-80834572D01*
X162333714Y-80906000D01*
X162190857Y-80977429D01*
X161762286Y-80977429D01*
X161619429Y-80906000D01*
X161548000Y-80834572D01*
X161476571Y-80691714D01*
X161476571Y-80406000D01*
X161548000Y-80263143D01*
X162405143Y-79691715D02*
X162476571Y-79548858D01*
X162476571Y-79263143D01*
X162405143Y-79120286D01*
X162262286Y-79048858D01*
X162190857Y-79048858D01*
X162048000Y-79120286D01*
X161976571Y-79263143D01*
X161976571Y-79477429D01*
X161905143Y-79620286D01*
X161762286Y-79691715D01*
X161690857Y-79691715D01*
X161548000Y-79620286D01*
X161476571Y-79477429D01*
X161476571Y-79263143D01*
X161548000Y-79120286D01*
X162333714Y-78406000D02*
X162405143Y-78334572D01*
X162476571Y-78406000D01*
X162405143Y-78477429D01*
X162333714Y-78406000D01*
X162476571Y-78406000D01*
X162405143Y-77048857D02*
X162476571Y-77191714D01*
X162476571Y-77477428D01*
X162405143Y-77620286D01*
X162333714Y-77691714D01*
X162190857Y-77763143D01*
X161762286Y-77763143D01*
X161619429Y-77691714D01*
X161548000Y-77620286D01*
X161476571Y-77477428D01*
X161476571Y-77191714D01*
X161548000Y-77048857D01*
X162476571Y-76191714D02*
X162405143Y-76334572D01*
X162333714Y-76406000D01*
X162190857Y-76477429D01*
X161762286Y-76477429D01*
X161619429Y-76406000D01*
X161548000Y-76334572D01*
X161476571Y-76191714D01*
X161476571Y-75977429D01*
X161548000Y-75834572D01*
X161619429Y-75763143D01*
X161762286Y-75691714D01*
X162190857Y-75691714D01*
X162333714Y-75763143D01*
X162405143Y-75834572D01*
X162476571Y-75977429D01*
X162476571Y-76191714D01*
X162476571Y-75048857D02*
X161476571Y-75048857D01*
X161619429Y-75048857D02*
X161548000Y-74977429D01*
X161476571Y-74834571D01*
X161476571Y-74620286D01*
X161548000Y-74477429D01*
X161690857Y-74406000D01*
X162476571Y-74406000D01*
X161690857Y-74406000D02*
X161548000Y-74334571D01*
X161476571Y-74191714D01*
X161476571Y-73977429D01*
X161548000Y-73834571D01*
X161690857Y-73763143D01*
X162476571Y-73763143D01*
D12*
X113902381Y-84527262D02*
X113902381Y-85098691D01*
X113902381Y-84812977D02*
X112902381Y-84687977D01*
X113045238Y-84801072D01*
X113140476Y-84908214D01*
X113188095Y-85009405D01*
X112902381Y-83783215D02*
X112902381Y-83687976D01*
X112950000Y-83598690D01*
X112997619Y-83557023D01*
X113092857Y-83521309D01*
X113283333Y-83497500D01*
X113521429Y-83527262D01*
X113711905Y-83598690D01*
X113807143Y-83658214D01*
X113854762Y-83711785D01*
X113902381Y-83812976D01*
X113902381Y-83908215D01*
X113854762Y-83997500D01*
X113807143Y-84039167D01*
X113711905Y-84074881D01*
X113521429Y-84098691D01*
X113283333Y-84068929D01*
X113092857Y-83997500D01*
X112997619Y-83937976D01*
X112950000Y-83884405D01*
X112902381Y-83783215D01*
X113902381Y-83146310D02*
X113235714Y-83062976D01*
X113330952Y-83074881D02*
X113283333Y-83021310D01*
X113235714Y-82920119D01*
X113235714Y-82777261D01*
X113283333Y-82687976D01*
X113378571Y-82652261D01*
X113902381Y-82717738D01*
X113378571Y-82652261D02*
X113283333Y-82592738D01*
X113235714Y-82491547D01*
X113235714Y-82348690D01*
X113283333Y-82259405D01*
X113378571Y-82223690D01*
X113902381Y-82289167D01*
X113616667Y-81824881D02*
X113616667Y-81348690D01*
X113902381Y-81955834D02*
X112902381Y-81497501D01*
X113902381Y-81289167D01*
X115602381Y-86455833D02*
X114602381Y-86330833D01*
X115316667Y-86086784D01*
X114602381Y-85664166D01*
X115602381Y-85789166D01*
X115602381Y-84884404D02*
X115078571Y-84818927D01*
X114983333Y-84854642D01*
X114935714Y-84943927D01*
X114935714Y-85134404D01*
X114983333Y-85235595D01*
X115554762Y-84878451D02*
X115602381Y-84979642D01*
X115602381Y-85217738D01*
X115554762Y-85307023D01*
X115459524Y-85342737D01*
X115364286Y-85330833D01*
X115269048Y-85271309D01*
X115221429Y-85170119D01*
X115221429Y-84932023D01*
X115173810Y-84830832D01*
X115602381Y-84503452D02*
X114935714Y-83896308D01*
X114935714Y-84420118D02*
X115602381Y-83979642D01*
X115602381Y-83598690D02*
X114935714Y-83515356D01*
X114602381Y-83473690D02*
X114650000Y-83527261D01*
X114697619Y-83485594D01*
X114650000Y-83432023D01*
X114602381Y-83473690D01*
X114697619Y-83485594D01*
X115602381Y-83122500D02*
X114935714Y-83039166D01*
X115030952Y-83051071D02*
X114983333Y-82997500D01*
X114935714Y-82896309D01*
X114935714Y-82753451D01*
X114983333Y-82664166D01*
X115078571Y-82628451D01*
X115602381Y-82693928D01*
X115078571Y-82628451D02*
X114983333Y-82568928D01*
X114935714Y-82467737D01*
X114935714Y-82324880D01*
X114983333Y-82235595D01*
X115078571Y-82199880D01*
X115602381Y-82265357D01*
X114935714Y-81277261D02*
X115602381Y-81360595D01*
X114935714Y-81705833D02*
X115459524Y-81771309D01*
X115554762Y-81735595D01*
X115602381Y-81646310D01*
X115602381Y-81503452D01*
X115554762Y-81402261D01*
X115507143Y-81348690D01*
X115602381Y-80884405D02*
X114935714Y-80801071D01*
X115030952Y-80812976D02*
X114983333Y-80759405D01*
X114935714Y-80658214D01*
X114935714Y-80515356D01*
X114983333Y-80426071D01*
X115078571Y-80390356D01*
X115602381Y-80455833D01*
X115078571Y-80390356D02*
X114983333Y-80330833D01*
X114935714Y-80229642D01*
X114935714Y-80086785D01*
X114983333Y-79997500D01*
X115078571Y-79961785D01*
X115602381Y-80027262D01*
D13*
X154106905Y-94081904D02*
X154106905Y-93320000D01*
X154345000Y-92968809D01*
X154821190Y-92647381D01*
X155773571Y-92575952D01*
X157440238Y-92784286D01*
X158392619Y-93093809D01*
X158868810Y-93534285D01*
X159106905Y-93945000D01*
X159106905Y-94706904D01*
X158868810Y-95058095D01*
X158392619Y-95379523D01*
X157440238Y-95450952D01*
X155773571Y-95242618D01*
X154821190Y-94933095D01*
X154345000Y-94492619D01*
X154106905Y-94081904D01*
X159106905Y-91278333D02*
X155773571Y-90861666D01*
X156249762Y-90921190D02*
X156011667Y-90700952D01*
X155773571Y-90290237D01*
X155773571Y-89718809D01*
X156011667Y-89367619D01*
X156487857Y-89236666D01*
X159106905Y-89564047D01*
X156487857Y-89236666D02*
X156011667Y-88986666D01*
X155773571Y-88575952D01*
X155773571Y-88004523D01*
X156011667Y-87653333D01*
X156487857Y-87522381D01*
X159106905Y-87849762D01*
X155773571Y-85528333D02*
X159106905Y-85945000D01*
X156249762Y-85587857D02*
X156011667Y-85367619D01*
X155773571Y-84956904D01*
X155773571Y-84385476D01*
X156011667Y-84034286D01*
X156487857Y-83903333D01*
X159106905Y-84230714D01*
X159106905Y-82325952D02*
X155773571Y-81909285D01*
X154106905Y-81700952D02*
X154345000Y-81921190D01*
X154583095Y-81760476D01*
X154345000Y-81540238D01*
X154106905Y-81700952D01*
X154583095Y-81760476D01*
X159106905Y-78135476D02*
X156725952Y-79171190D01*
X159106905Y-80421190D02*
X154106905Y-79796190D01*
X154106905Y-78272381D01*
X154345000Y-77921190D01*
X154583095Y-77760476D01*
X155059286Y-77629524D01*
X155773571Y-77718809D01*
X156249762Y-77968809D01*
X156487857Y-78189047D01*
X156725952Y-78599762D01*
X156725952Y-80123571D01*
X158868810Y-74867619D02*
X159106905Y-75278333D01*
X159106905Y-76040238D01*
X158868810Y-76391428D01*
X158392619Y-76522380D01*
X156487857Y-76284285D01*
X156011667Y-76034285D01*
X155773571Y-75623571D01*
X155773571Y-74861666D01*
X156011667Y-74510476D01*
X156487857Y-74379523D01*
X156964048Y-74439047D01*
X157440238Y-76403333D01*
X155773571Y-73147381D02*
X155773571Y-71623571D01*
X159106905Y-72992619D02*
X154821190Y-72456905D01*
X154345000Y-72206905D01*
X154106905Y-71796190D01*
X154106905Y-71415238D01*
D11*
X119031857Y-100651571D02*
X119531857Y-102151571D01*
X120031857Y-100651571D01*
X120746143Y-102151571D02*
X120603285Y-102080143D01*
X120531857Y-102008714D01*
X120460428Y-101865857D01*
X120460428Y-101437286D01*
X120531857Y-101294429D01*
X120603285Y-101223000D01*
X120746143Y-101151571D01*
X120960428Y-101151571D01*
X121103285Y-101223000D01*
X121174714Y-101294429D01*
X121246143Y-101437286D01*
X121246143Y-101865857D01*
X121174714Y-102008714D01*
X121103285Y-102080143D01*
X120960428Y-102151571D01*
X120746143Y-102151571D01*
X122103286Y-102151571D02*
X121960428Y-102080143D01*
X121889000Y-101937286D01*
X121889000Y-100651571D01*
X122460428Y-101151571D02*
X123031857Y-101151571D01*
X122674714Y-100651571D02*
X122674714Y-101937286D01*
X122746142Y-102080143D01*
X122889000Y-102151571D01*
X123031857Y-102151571D01*
X124174714Y-102151571D02*
X124174714Y-101365857D01*
X124103285Y-101223000D01*
X123960428Y-101151571D01*
X123674714Y-101151571D01*
X123531857Y-101223000D01*
X124174714Y-102080143D02*
X124031857Y-102151571D01*
X123674714Y-102151571D01*
X123531857Y-102080143D01*
X123460428Y-101937286D01*
X123460428Y-101794429D01*
X123531857Y-101651571D01*
X123674714Y-101580143D01*
X124031857Y-101580143D01*
X124174714Y-101508714D01*
X125531857Y-101151571D02*
X125531857Y-102365857D01*
X125460428Y-102508714D01*
X125389000Y-102580143D01*
X125246143Y-102651571D01*
X125031857Y-102651571D01*
X124889000Y-102580143D01*
X125531857Y-102080143D02*
X125389000Y-102151571D01*
X125103286Y-102151571D01*
X124960428Y-102080143D01*
X124889000Y-102008714D01*
X124817571Y-101865857D01*
X124817571Y-101437286D01*
X124889000Y-101294429D01*
X124960428Y-101223000D01*
X125103286Y-101151571D01*
X125389000Y-101151571D01*
X125531857Y-101223000D01*
X126817571Y-102080143D02*
X126674714Y-102151571D01*
X126389000Y-102151571D01*
X126246143Y-102080143D01*
X126174714Y-101937286D01*
X126174714Y-101365857D01*
X126246143Y-101223000D01*
X126389000Y-101151571D01*
X126674714Y-101151571D01*
X126817571Y-101223000D01*
X126889000Y-101365857D01*
X126889000Y-101508714D01*
X126174714Y-101651571D01*
X127531857Y-102008714D02*
X127603285Y-102080143D01*
X127531857Y-102151571D01*
X127460428Y-102080143D01*
X127531857Y-102008714D01*
X127531857Y-102151571D01*
X127531857Y-101223000D02*
X127603285Y-101294429D01*
X127531857Y-101365857D01*
X127460428Y-101294429D01*
X127531857Y-101223000D01*
X127531857Y-101365857D01*
X113960430Y-106596571D02*
X113460430Y-105882286D01*
X113103287Y-106596571D02*
X113103287Y-105096571D01*
X113674715Y-105096571D01*
X113817573Y-105168000D01*
X113889001Y-105239429D01*
X113960430Y-105382286D01*
X113960430Y-105596571D01*
X113889001Y-105739429D01*
X113817573Y-105810857D01*
X113674715Y-105882286D01*
X113103287Y-105882286D01*
X115174715Y-106525143D02*
X115031858Y-106596571D01*
X114746144Y-106596571D01*
X114603287Y-106525143D01*
X114531858Y-106382286D01*
X114531858Y-105810857D01*
X114603287Y-105668000D01*
X114746144Y-105596571D01*
X115031858Y-105596571D01*
X115174715Y-105668000D01*
X115246144Y-105810857D01*
X115246144Y-105953714D01*
X114531858Y-106096571D01*
X115674715Y-105596571D02*
X116246144Y-105596571D01*
X115889001Y-106596571D02*
X115889001Y-105310857D01*
X115960429Y-105168000D01*
X116103287Y-105096571D01*
X116246144Y-105096571D01*
X117317572Y-106525143D02*
X117174715Y-106596571D01*
X116889001Y-106596571D01*
X116746144Y-106525143D01*
X116674715Y-106382286D01*
X116674715Y-105810857D01*
X116746144Y-105668000D01*
X116889001Y-105596571D01*
X117174715Y-105596571D01*
X117317572Y-105668000D01*
X117389001Y-105810857D01*
X117389001Y-105953714D01*
X116674715Y-106096571D01*
X118031858Y-106596571D02*
X118031858Y-105596571D01*
X118031858Y-105882286D02*
X118103286Y-105739429D01*
X118174715Y-105668000D01*
X118317572Y-105596571D01*
X118460429Y-105596571D01*
X119531857Y-106525143D02*
X119389000Y-106596571D01*
X119103286Y-106596571D01*
X118960429Y-106525143D01*
X118889000Y-106382286D01*
X118889000Y-105810857D01*
X118960429Y-105668000D01*
X119103286Y-105596571D01*
X119389000Y-105596571D01*
X119531857Y-105668000D01*
X119603286Y-105810857D01*
X119603286Y-105953714D01*
X118889000Y-106096571D01*
X120246143Y-105596571D02*
X120246143Y-106596571D01*
X120246143Y-105739429D02*
X120317571Y-105668000D01*
X120460429Y-105596571D01*
X120674714Y-105596571D01*
X120817571Y-105668000D01*
X120889000Y-105810857D01*
X120889000Y-106596571D01*
X122246143Y-106525143D02*
X122103286Y-106596571D01*
X121817572Y-106596571D01*
X121674714Y-106525143D01*
X121603286Y-106453714D01*
X121531857Y-106310857D01*
X121531857Y-105882286D01*
X121603286Y-105739429D01*
X121674714Y-105668000D01*
X121817572Y-105596571D01*
X122103286Y-105596571D01*
X122246143Y-105668000D01*
X123460428Y-106525143D02*
X123317571Y-106596571D01*
X123031857Y-106596571D01*
X122889000Y-106525143D01*
X122817571Y-106382286D01*
X122817571Y-105810857D01*
X122889000Y-105668000D01*
X123031857Y-105596571D01*
X123317571Y-105596571D01*
X123460428Y-105668000D01*
X123531857Y-105810857D01*
X123531857Y-105953714D01*
X122817571Y-106096571D01*
X125317571Y-106596571D02*
X125317571Y-105096571D01*
X126889000Y-106453714D02*
X126817571Y-106525143D01*
X126603285Y-106596571D01*
X126460428Y-106596571D01*
X126246143Y-106525143D01*
X126103285Y-106382286D01*
X126031857Y-106239429D01*
X125960428Y-105953714D01*
X125960428Y-105739429D01*
X126031857Y-105453714D01*
X126103285Y-105310857D01*
X126246143Y-105168000D01*
X126460428Y-105096571D01*
X126603285Y-105096571D01*
X126817571Y-105168000D01*
X126889000Y-105239429D01*
X127531857Y-106453714D02*
X127603285Y-106525143D01*
X127531857Y-106596571D01*
X127460428Y-106525143D01*
X127531857Y-106453714D01*
X127531857Y-106596571D01*
X127531857Y-105668000D02*
X127603285Y-105739429D01*
X127531857Y-105810857D01*
X127460428Y-105739429D01*
X127531857Y-105668000D01*
X127531857Y-105810857D01*
X118959286Y-93720714D02*
X118959286Y-91815952D01*
X120102143Y-92768333D02*
X117816429Y-92768333D01*
X117102143Y-88244523D02*
X117102143Y-87768333D01*
X117245000Y-87530238D01*
X117530714Y-87292142D01*
X118102143Y-87173095D01*
X119102143Y-87173095D01*
X119673571Y-87292142D01*
X119959286Y-87530238D01*
X120102143Y-87768333D01*
X120102143Y-88244523D01*
X119959286Y-88482619D01*
X119673571Y-88720714D01*
X119102143Y-88839762D01*
X118102143Y-88839762D01*
X117530714Y-88720714D01*
X117245000Y-88482619D01*
X117102143Y-88244523D01*
X118102143Y-85030237D02*
X120102143Y-85030237D01*
X118102143Y-86101666D02*
X119673571Y-86101666D01*
X119959286Y-85982618D01*
X120102143Y-85744523D01*
X120102143Y-85387380D01*
X119959286Y-85149285D01*
X119816429Y-85030237D01*
X118102143Y-84196904D02*
X118102143Y-83244523D01*
X117102143Y-83839761D02*
X119673571Y-83839761D01*
X119959286Y-83720713D01*
X120102143Y-83482618D01*
X120102143Y-83244523D01*
X118102143Y-82411190D02*
X121102143Y-82411190D01*
X118245000Y-82411190D02*
X118102143Y-82173095D01*
X118102143Y-81696904D01*
X118245000Y-81458809D01*
X118387857Y-81339761D01*
X118673571Y-81220714D01*
X119530714Y-81220714D01*
X119816429Y-81339761D01*
X119959286Y-81458809D01*
X120102143Y-81696904D01*
X120102143Y-82173095D01*
X119959286Y-82411190D01*
X118102143Y-79077856D02*
X120102143Y-79077856D01*
X118102143Y-80149285D02*
X119673571Y-80149285D01*
X119959286Y-80030237D01*
X120102143Y-79792142D01*
X120102143Y-79434999D01*
X119959286Y-79196904D01*
X119816429Y-79077856D01*
X118102143Y-78244523D02*
X118102143Y-77292142D01*
X117102143Y-77887380D02*
X119673571Y-77887380D01*
X119959286Y-77768332D01*
X120102143Y-77530237D01*
X120102143Y-77292142D01*
X118959286Y-74554047D02*
X118959286Y-72649285D01*
X169124286Y-94196905D02*
X169124286Y-92292143D01*
X170267143Y-93244524D02*
X167981429Y-93244524D01*
X170267143Y-87292143D02*
X167267143Y-87292143D01*
X168267143Y-86101667D02*
X170267143Y-86101667D01*
X168552857Y-86101667D02*
X168410000Y-85982619D01*
X168267143Y-85744524D01*
X168267143Y-85387381D01*
X168410000Y-85149286D01*
X168695714Y-85030238D01*
X170267143Y-85030238D01*
X168267143Y-83839762D02*
X171267143Y-83839762D01*
X168410000Y-83839762D02*
X168267143Y-83601667D01*
X168267143Y-83125476D01*
X168410000Y-82887381D01*
X168552857Y-82768333D01*
X168838571Y-82649286D01*
X169695714Y-82649286D01*
X169981429Y-82768333D01*
X170124286Y-82887381D01*
X170267143Y-83125476D01*
X170267143Y-83601667D01*
X170124286Y-83839762D01*
X168267143Y-80506428D02*
X170267143Y-80506428D01*
X168267143Y-81577857D02*
X169838571Y-81577857D01*
X170124286Y-81458809D01*
X170267143Y-81220714D01*
X170267143Y-80863571D01*
X170124286Y-80625476D01*
X169981429Y-80506428D01*
X168267143Y-79673095D02*
X168267143Y-78720714D01*
X167267143Y-79315952D02*
X169838571Y-79315952D01*
X170124286Y-79196904D01*
X170267143Y-78958809D01*
X170267143Y-78720714D01*
X169124286Y-74077857D02*
X169124286Y-72173095D01*
D12*
X172687619Y-84318928D02*
X172640000Y-84265357D01*
X172592381Y-84164167D01*
X172592381Y-83926071D01*
X172640000Y-83836785D01*
X172687619Y-83795118D01*
X172782857Y-83759404D01*
X172878095Y-83771309D01*
X173020952Y-83836785D01*
X173592381Y-84479643D01*
X173592381Y-83860595D01*
X172592381Y-82830833D02*
X172592381Y-83307024D01*
X173068571Y-83414166D01*
X173020952Y-83360595D01*
X172973333Y-83259405D01*
X172973333Y-83021309D01*
X173020952Y-82932023D01*
X173068571Y-82890356D01*
X173163810Y-82854642D01*
X173401905Y-82884404D01*
X173497143Y-82943928D01*
X173544762Y-82997499D01*
X173592381Y-83098690D01*
X173592381Y-83336786D01*
X173544762Y-83426071D01*
X173497143Y-83467738D01*
X172592381Y-82497500D02*
X173592381Y-82289167D01*
X172592381Y-81830833D01*
X175292381Y-86455833D02*
X174292381Y-86330833D01*
X175006667Y-86086784D01*
X174292381Y-85664166D01*
X175292381Y-85789166D01*
X175292381Y-84884404D02*
X174768571Y-84818927D01*
X174673333Y-84854642D01*
X174625714Y-84943927D01*
X174625714Y-85134404D01*
X174673333Y-85235595D01*
X175244762Y-84878451D02*
X175292381Y-84979642D01*
X175292381Y-85217738D01*
X175244762Y-85307023D01*
X175149524Y-85342737D01*
X175054286Y-85330833D01*
X174959048Y-85271309D01*
X174911429Y-85170119D01*
X174911429Y-84932023D01*
X174863810Y-84830832D01*
X175292381Y-84503452D02*
X174625714Y-83896308D01*
X174625714Y-84420118D02*
X175292381Y-83979642D01*
X175292381Y-83598690D02*
X174625714Y-83515356D01*
X174292381Y-83473690D02*
X174340000Y-83527261D01*
X174387619Y-83485594D01*
X174340000Y-83432023D01*
X174292381Y-83473690D01*
X174387619Y-83485594D01*
X175292381Y-83122500D02*
X174625714Y-83039166D01*
X174720952Y-83051071D02*
X174673333Y-82997500D01*
X174625714Y-82896309D01*
X174625714Y-82753451D01*
X174673333Y-82664166D01*
X174768571Y-82628451D01*
X175292381Y-82693928D01*
X174768571Y-82628451D02*
X174673333Y-82568928D01*
X174625714Y-82467737D01*
X174625714Y-82324880D01*
X174673333Y-82235595D01*
X174768571Y-82199880D01*
X175292381Y-82265357D01*
X174625714Y-81277261D02*
X175292381Y-81360595D01*
X174625714Y-81705833D02*
X175149524Y-81771309D01*
X175244762Y-81735595D01*
X175292381Y-81646310D01*
X175292381Y-81503452D01*
X175244762Y-81402261D01*
X175197143Y-81348690D01*
X175292381Y-80884405D02*
X174625714Y-80801071D01*
X174720952Y-80812976D02*
X174673333Y-80759405D01*
X174625714Y-80658214D01*
X174625714Y-80515356D01*
X174673333Y-80426071D01*
X174768571Y-80390356D01*
X175292381Y-80455833D01*
X174768571Y-80390356D02*
X174673333Y-80330833D01*
X174625714Y-80229642D01*
X174625714Y-80086785D01*
X174673333Y-79997500D01*
X174768571Y-79961785D01*
X175292381Y-80027262D01*
D11*
X155467857Y-66127143D02*
X155467857Y-65627143D01*
X156253571Y-65412857D02*
X156253571Y-66127143D01*
X154753571Y-66127143D01*
X154753571Y-65412857D01*
X156253571Y-64912857D02*
X155253571Y-64127143D01*
X155253571Y-64912857D02*
X156253571Y-64127143D01*
X155253571Y-63770000D02*
X155253571Y-63198571D01*
X154753571Y-63555714D02*
X156039286Y-63555714D01*
X156182143Y-63484286D01*
X156253571Y-63341428D01*
X156253571Y-63198571D01*
X132607857Y-66198571D02*
X132679286Y-65984285D01*
X132750714Y-65912857D01*
X132893571Y-65841428D01*
X133107857Y-65841428D01*
X133250714Y-65912857D01*
X133322143Y-65984285D01*
X133393571Y-66127143D01*
X133393571Y-66698571D01*
X131893571Y-66698571D01*
X131893571Y-66198571D01*
X131965000Y-66055714D01*
X132036429Y-65984285D01*
X132179286Y-65912857D01*
X132322143Y-65912857D01*
X132465000Y-65984285D01*
X132536429Y-66055714D01*
X132607857Y-66198571D01*
X132607857Y-66698571D01*
X133393571Y-64555714D02*
X132607857Y-64555714D01*
X132465000Y-64627143D01*
X132393571Y-64770000D01*
X132393571Y-65055714D01*
X132465000Y-65198571D01*
X133322143Y-64555714D02*
X133393571Y-64698571D01*
X133393571Y-65055714D01*
X133322143Y-65198571D01*
X133179286Y-65270000D01*
X133036429Y-65270000D01*
X132893571Y-65198571D01*
X132822143Y-65055714D01*
X132822143Y-64698571D01*
X132750714Y-64555714D01*
X132393571Y-64055714D02*
X132393571Y-63484285D01*
X131893571Y-63841428D02*
X133179286Y-63841428D01*
X133322143Y-63770000D01*
X133393571Y-63627142D01*
X133393571Y-63484285D01*
X132393571Y-63198571D02*
X132393571Y-62627142D01*
X131893571Y-62984285D02*
X133179286Y-62984285D01*
X133322143Y-62912857D01*
X133393571Y-62769999D01*
X133393571Y-62627142D01*
X150157571Y-97734571D02*
X150157571Y-98448857D01*
X148657571Y-98448857D01*
X150157571Y-97020285D02*
X150086143Y-97163143D01*
X150014714Y-97234571D01*
X149871857Y-97306000D01*
X149443286Y-97306000D01*
X149300429Y-97234571D01*
X149229000Y-97163143D01*
X149157571Y-97020285D01*
X149157571Y-96806000D01*
X149229000Y-96663143D01*
X149300429Y-96591714D01*
X149443286Y-96520285D01*
X149871857Y-96520285D01*
X150014714Y-96591714D01*
X150086143Y-96663143D01*
X150157571Y-96806000D01*
X150157571Y-97020285D01*
X149157571Y-96020285D02*
X150157571Y-95734571D01*
X149443286Y-95448857D01*
X150157571Y-95163142D01*
X149157571Y-94877428D01*
X148657571Y-93377428D02*
X150157571Y-92877428D01*
X148657571Y-92377428D01*
X150157571Y-91663142D02*
X150086143Y-91806000D01*
X150014714Y-91877428D01*
X149871857Y-91948857D01*
X149443286Y-91948857D01*
X149300429Y-91877428D01*
X149229000Y-91806000D01*
X149157571Y-91663142D01*
X149157571Y-91448857D01*
X149229000Y-91306000D01*
X149300429Y-91234571D01*
X149443286Y-91163142D01*
X149871857Y-91163142D01*
X150014714Y-91234571D01*
X150086143Y-91306000D01*
X150157571Y-91448857D01*
X150157571Y-91663142D01*
X150157571Y-90305999D02*
X150086143Y-90448857D01*
X149943286Y-90520285D01*
X148657571Y-90520285D01*
X149157571Y-89948857D02*
X149157571Y-89377428D01*
X148657571Y-89734571D02*
X149943286Y-89734571D01*
X150086143Y-89663143D01*
X150157571Y-89520285D01*
X150157571Y-89377428D01*
X150157571Y-88234571D02*
X149371857Y-88234571D01*
X149229000Y-88306000D01*
X149157571Y-88448857D01*
X149157571Y-88734571D01*
X149229000Y-88877428D01*
X150086143Y-88234571D02*
X150157571Y-88377428D01*
X150157571Y-88734571D01*
X150086143Y-88877428D01*
X149943286Y-88948857D01*
X149800429Y-88948857D01*
X149657571Y-88877428D01*
X149586143Y-88734571D01*
X149586143Y-88377428D01*
X149514714Y-88234571D01*
X149157571Y-86877428D02*
X150371857Y-86877428D01*
X150514714Y-86948857D01*
X150586143Y-87020285D01*
X150657571Y-87163142D01*
X150657571Y-87377428D01*
X150586143Y-87520285D01*
X150086143Y-86877428D02*
X150157571Y-87020285D01*
X150157571Y-87305999D01*
X150086143Y-87448857D01*
X150014714Y-87520285D01*
X149871857Y-87591714D01*
X149443286Y-87591714D01*
X149300429Y-87520285D01*
X149229000Y-87448857D01*
X149157571Y-87305999D01*
X149157571Y-87020285D01*
X149229000Y-86877428D01*
X150086143Y-85591714D02*
X150157571Y-85734571D01*
X150157571Y-86020285D01*
X150086143Y-86163142D01*
X149943286Y-86234571D01*
X149371857Y-86234571D01*
X149229000Y-86163142D01*
X149157571Y-86020285D01*
X149157571Y-85734571D01*
X149229000Y-85591714D01*
X149371857Y-85520285D01*
X149514714Y-85520285D01*
X149657571Y-86234571D01*
X146093571Y-95654857D02*
X144593571Y-95654857D01*
X144593571Y-95083429D01*
X144665000Y-94940571D01*
X144736429Y-94869143D01*
X144879286Y-94797714D01*
X145093571Y-94797714D01*
X145236429Y-94869143D01*
X145307857Y-94940571D01*
X145379286Y-95083429D01*
X145379286Y-95654857D01*
X146093571Y-93940571D02*
X146022143Y-94083429D01*
X145950714Y-94154857D01*
X145807857Y-94226286D01*
X145379286Y-94226286D01*
X145236429Y-94154857D01*
X145165000Y-94083429D01*
X145093571Y-93940571D01*
X145093571Y-93726286D01*
X145165000Y-93583429D01*
X145236429Y-93512000D01*
X145379286Y-93440571D01*
X145807857Y-93440571D01*
X145950714Y-93512000D01*
X146022143Y-93583429D01*
X146093571Y-93726286D01*
X146093571Y-93940571D01*
X145093571Y-92940571D02*
X146093571Y-92654857D01*
X145379286Y-92369143D01*
X146093571Y-92083428D01*
X145093571Y-91797714D01*
X146022143Y-90654857D02*
X146093571Y-90797714D01*
X146093571Y-91083428D01*
X146022143Y-91226285D01*
X145879286Y-91297714D01*
X145307857Y-91297714D01*
X145165000Y-91226285D01*
X145093571Y-91083428D01*
X145093571Y-90797714D01*
X145165000Y-90654857D01*
X145307857Y-90583428D01*
X145450714Y-90583428D01*
X145593571Y-91297714D01*
X146093571Y-89940571D02*
X145093571Y-89940571D01*
X145379286Y-89940571D02*
X145236429Y-89869143D01*
X145165000Y-89797714D01*
X145093571Y-89654857D01*
X145093571Y-89512000D01*
X144593571Y-87583429D02*
X144593571Y-87297715D01*
X144665000Y-87154857D01*
X144807857Y-87012000D01*
X145093571Y-86940572D01*
X145593571Y-86940572D01*
X145879286Y-87012000D01*
X146022143Y-87154857D01*
X146093571Y-87297715D01*
X146093571Y-87583429D01*
X146022143Y-87726286D01*
X145879286Y-87869143D01*
X145593571Y-87940572D01*
X145093571Y-87940572D01*
X144807857Y-87869143D01*
X144665000Y-87726286D01*
X144593571Y-87583429D01*
X145093571Y-86297714D02*
X146093571Y-86297714D01*
X145236429Y-86297714D02*
X145165000Y-86226286D01*
X145093571Y-86083428D01*
X145093571Y-85869143D01*
X145165000Y-85726286D01*
X145307857Y-85654857D01*
X146093571Y-85654857D01*
D14*
X133715000Y-78045000D02*
G75*
G02X131715000Y-78045000I-1000000J0D01*
G01*
X131715000Y-78045000D02*
X130065000Y-78045000D01*
X130065000Y-78045000D02*
X130065000Y-88325000D01*
X130065000Y-88325000D02*
X135365000Y-88325000D01*
X135365000Y-88325000D02*
X135365000Y-78045000D01*
X135365000Y-78045000D02*
X133715000Y-78045000D01*
D15*
X153670000Y-69850000D02*
X134620000Y-69850000D01*
X134620000Y-69850000D02*
X134620000Y-59055000D01*
X153670000Y-69850000D02*
X153670000Y-59055000D01*
X153670000Y-59055000D02*
X134620000Y-59055000D01*
D16*
X159119900Y-101119800D02*
X159020840Y-101218860D01*
X159020840Y-101218860D02*
X158919240Y-101419520D01*
X158919240Y-101419520D02*
X158919240Y-101719240D01*
X158919240Y-101719240D02*
X159020840Y-102018960D01*
X159020840Y-102018960D02*
X159419620Y-102219620D01*
X159419620Y-102219620D02*
X159920000Y-102321220D01*
X159920000Y-102321220D02*
X160318780Y-102321220D01*
X160318780Y-102321220D02*
X160720100Y-102120560D01*
X160720100Y-102120560D02*
X160920760Y-101719240D01*
X160920760Y-101719240D02*
X160920760Y-101521120D01*
X160920760Y-101521120D02*
X160920760Y-101218860D01*
X160920760Y-101218860D02*
X160720100Y-101119800D01*
X159119900Y-103118780D02*
X159020840Y-103220380D01*
X159020840Y-103220380D02*
X158919240Y-103520100D01*
X158919240Y-103520100D02*
X159020840Y-103918880D01*
X159020840Y-103918880D02*
X159218960Y-104221140D01*
X159218960Y-104221140D02*
X159620280Y-104320200D01*
X159620280Y-104320200D02*
X160019060Y-104320200D01*
X160019060Y-104320200D02*
X160519440Y-104221140D01*
X160519440Y-104221140D02*
X160819160Y-104020480D01*
X160819160Y-104020480D02*
X160920760Y-103720760D01*
X160920760Y-103720760D02*
X160920760Y-103319440D01*
X160920760Y-103319440D02*
X160720100Y-103118780D01*
X157420640Y-102720000D02*
X157420640Y-102819060D01*
X157420640Y-102819060D02*
X157519700Y-103421040D01*
X157519700Y-103421040D02*
X157720360Y-103918880D01*
X157720360Y-103918880D02*
X158119140Y-104419260D01*
X158119140Y-104419260D02*
X158721120Y-104919640D01*
X158721120Y-104919640D02*
X159119900Y-105120300D01*
X159119900Y-105120300D02*
X159620280Y-105219360D01*
X159620280Y-105219360D02*
X160219720Y-105219360D01*
X160219720Y-105219360D02*
X161019820Y-105021240D01*
X161019820Y-105021240D02*
X161720860Y-104419260D01*
X161720860Y-104419260D02*
X162119640Y-103918880D01*
X162119640Y-103918880D02*
X162419360Y-103220380D01*
X162419360Y-103220380D02*
X162419360Y-102420280D01*
X162419360Y-102420280D02*
X162221240Y-101820840D01*
X162221240Y-101820840D02*
X161918980Y-101218860D01*
X161918980Y-101218860D02*
X161421140Y-100721020D01*
X161421140Y-100721020D02*
X160720100Y-100319700D01*
X160720100Y-100319700D02*
X160120660Y-100220640D01*
X160120660Y-100220640D02*
X159521220Y-100220640D01*
X159521220Y-100220640D02*
X158919240Y-100418760D01*
X158919240Y-100418760D02*
X158418860Y-100721020D01*
X158418860Y-100721020D02*
X157921020Y-101218860D01*
X157921020Y-101218860D02*
X157618760Y-101719240D01*
X157618760Y-101719240D02*
X157519700Y-102120560D01*
X157519700Y-102120560D02*
X157420640Y-102720000D01*
X164470080Y-102870000D02*
X164868860Y-102870000D01*
X165668960Y-103571040D02*
X165668960Y-102270560D01*
X165971220Y-102369620D02*
X165971220Y-103571040D01*
X166270940Y-103670100D02*
X166270940Y-102369620D01*
X166669720Y-102870000D02*
X167970200Y-102870000D01*
X168170860Y-102770940D02*
X168170860Y-102570280D01*
X168170860Y-102570280D02*
X166570660Y-102570280D01*
X166669720Y-103169720D02*
X168170860Y-103169720D01*
X168170860Y-103169720D02*
X168170860Y-102669340D01*
X165369240Y-103670100D02*
X165369240Y-102168960D01*
X165369240Y-102168960D02*
X166570660Y-102168960D01*
X166570660Y-102168960D02*
X166570660Y-103670100D01*
X166570660Y-103670100D02*
X165369240Y-103670100D01*
X164986406Y-102870000D02*
G75*
G03X164986406Y-102870000I-315666J0D01*
G01*
X163870640Y-102870000D02*
X163870640Y-102969060D01*
X163870640Y-102969060D02*
X163969700Y-103571040D01*
X163969700Y-103571040D02*
X164170360Y-104068880D01*
X164170360Y-104068880D02*
X164569140Y-104569260D01*
X164569140Y-104569260D02*
X165171120Y-105069640D01*
X165171120Y-105069640D02*
X165569900Y-105270300D01*
X165569900Y-105270300D02*
X166070280Y-105369360D01*
X166070280Y-105369360D02*
X166669720Y-105369360D01*
X166669720Y-105369360D02*
X167469820Y-105171240D01*
X167469820Y-105171240D02*
X168170860Y-104569260D01*
X168170860Y-104569260D02*
X168569640Y-104068880D01*
X168569640Y-104068880D02*
X168869360Y-103370380D01*
X168869360Y-103370380D02*
X168869360Y-102570280D01*
X168869360Y-102570280D02*
X168671240Y-101970840D01*
X168671240Y-101970840D02*
X168368980Y-101368860D01*
X168368980Y-101368860D02*
X167871140Y-100871020D01*
X167871140Y-100871020D02*
X167170100Y-100469700D01*
X167170100Y-100469700D02*
X166570660Y-100370640D01*
X166570660Y-100370640D02*
X165971220Y-100370640D01*
X165971220Y-100370640D02*
X165369240Y-100568760D01*
X165369240Y-100568760D02*
X164868860Y-100871020D01*
X164868860Y-100871020D02*
X164371020Y-101368860D01*
X164371020Y-101368860D02*
X164068760Y-101869240D01*
X164068760Y-101869240D02*
X163969700Y-102270560D01*
X163969700Y-102270560D02*
X163870640Y-102870000D01*
X173918880Y-103969820D02*
X174221140Y-103469440D01*
X174221140Y-103469440D02*
X174320200Y-102969060D01*
X174320200Y-102969060D02*
X174221140Y-102471220D01*
X174221140Y-102471220D02*
X174020480Y-101970840D01*
X174020480Y-101970840D02*
X173619160Y-101569520D01*
X173619160Y-101569520D02*
X173118780Y-101269800D01*
X173118780Y-101269800D02*
X172720000Y-101269800D01*
X172720000Y-101269800D02*
X172219620Y-101368860D01*
X172219620Y-101368860D02*
X171719240Y-101671120D01*
X171719240Y-101671120D02*
X171419520Y-101970840D01*
X171419520Y-101970840D02*
X171119800Y-102570280D01*
X171119800Y-102570280D02*
X171119800Y-102969060D01*
X171119800Y-102969060D02*
X171218860Y-103370380D01*
X171218860Y-103370380D02*
X171419520Y-103870760D01*
X170220640Y-102870000D02*
X170220640Y-102969060D01*
X170220640Y-102969060D02*
X170319700Y-103571040D01*
X170319700Y-103571040D02*
X170520360Y-104068880D01*
X170520360Y-104068880D02*
X170919140Y-104569260D01*
X170919140Y-104569260D02*
X171521120Y-105069640D01*
X171521120Y-105069640D02*
X171919900Y-105270300D01*
X171919900Y-105270300D02*
X172420280Y-105369360D01*
X172420280Y-105369360D02*
X173019720Y-105369360D01*
X173019720Y-105369360D02*
X173819820Y-105171240D01*
X173819820Y-105171240D02*
X174520860Y-104569260D01*
X174520860Y-104569260D02*
X174919640Y-104068880D01*
X174919640Y-104068880D02*
X175219360Y-103370380D01*
X175219360Y-103370380D02*
X175219360Y-102570280D01*
X175219360Y-102570280D02*
X175021240Y-101970840D01*
X175021240Y-101970840D02*
X174718980Y-101368860D01*
X174718980Y-101368860D02*
X174221140Y-100871020D01*
X174221140Y-100871020D02*
X173520100Y-100469700D01*
X173520100Y-100469700D02*
X172920660Y-100370640D01*
X172920660Y-100370640D02*
X172321220Y-100370640D01*
X172321220Y-100370640D02*
X171719240Y-100568760D01*
X171719240Y-100568760D02*
X171218860Y-100871020D01*
X171218860Y-100871020D02*
X170721020Y-101368860D01*
X170721020Y-101368860D02*
X170418760Y-101869240D01*
X170418760Y-101869240D02*
X170319700Y-102270560D01*
X170319700Y-102270560D02*
X170220640Y-102870000D01*
D17*
G36*
X124829560Y-68550091D02*
X124855499Y-68497588D01*
X124900700Y-68432842D01*
X124949991Y-68385653D01*
X125011885Y-68353335D01*
X125094896Y-68333203D01*
X125207538Y-68322570D01*
X125358324Y-68318753D01*
X125423149Y-68318530D01*
X125565221Y-68319182D01*
X125666757Y-68321888D01*
X125737015Y-68327776D01*
X125785256Y-68337973D01*
X125820738Y-68353606D01*
X125844943Y-68369872D01*
X125947929Y-68473705D01*
X126009874Y-68595979D01*
X126028506Y-68727886D01*
X126001549Y-68860616D01*
X125982486Y-68902667D01*
X125930015Y-69003334D01*
X126752259Y-69003334D01*
X126714267Y-68929865D01*
X126684872Y-68833059D01*
X126677342Y-68714072D01*
X126691245Y-68595255D01*
X126722476Y-68505527D01*
X126781954Y-68431101D01*
X126867066Y-68367510D01*
X126875805Y-68362729D01*
X126916966Y-68342563D01*
X126958454Y-68327835D01*
X127008713Y-68317697D01*
X127076184Y-68311301D01*
X127169309Y-68307799D01*
X127296531Y-68306342D01*
X127439701Y-68306079D01*
X127896471Y-68306079D01*
X127896471Y-68580000D01*
X127054231Y-68580000D01*
X126989763Y-68656617D01*
X126938194Y-68736207D01*
X126928818Y-68811578D01*
X126952947Y-68887367D01*
X126976574Y-68927759D01*
X127010227Y-68957821D01*
X127061087Y-68979203D01*
X127136334Y-68993550D01*
X127243146Y-69002510D01*
X127388704Y-69007730D01*
X127485588Y-69009569D01*
X127884020Y-69015785D01*
X127891547Y-69146520D01*
X127899073Y-69277255D01*
X125426582Y-69277255D01*
X125426582Y-69003334D01*
X125564423Y-68996350D01*
X125660107Y-68972818D01*
X125719641Y-68928865D01*
X125749029Y-68860618D01*
X125754902Y-68791667D01*
X125748154Y-68713614D01*
X125721594Y-68661811D01*
X125686499Y-68629417D01*
X125648752Y-68603916D01*
X125606700Y-68588735D01*
X125547779Y-68581981D01*
X125459428Y-68581759D01*
X125385448Y-68584032D01*
X125274000Y-68589251D01*
X125200833Y-68597021D01*
X125154422Y-68610105D01*
X125123244Y-68631268D01*
X125105223Y-68651240D01*
X125065925Y-68734686D01*
X125059579Y-68833449D01*
X125073116Y-68890159D01*
X125121233Y-68946308D01*
X125214833Y-68983501D01*
X125353254Y-69001528D01*
X125426582Y-69003334D01*
X125426582Y-69277255D01*
X124808628Y-69277255D01*
X124808628Y-69140295D01*
X124811879Y-69058065D01*
X124823426Y-69015640D01*
X124845952Y-69003339D01*
X124846620Y-69003334D01*
X124868681Y-68997626D01*
X124866176Y-68972453D01*
X124841935Y-68922402D01*
X124804851Y-68805781D01*
X124800953Y-68674571D01*
X124829560Y-68550091D01*
X124829560Y-68550091D01*
G37*
X124829560Y-68550091D02*
X124855499Y-68497588D01*
X124900700Y-68432842D01*
X124949991Y-68385653D01*
X125011885Y-68353335D01*
X125094896Y-68333203D01*
X125207538Y-68322570D01*
X125358324Y-68318753D01*
X125423149Y-68318530D01*
X125565221Y-68319182D01*
X125666757Y-68321888D01*
X125737015Y-68327776D01*
X125785256Y-68337973D01*
X125820738Y-68353606D01*
X125844943Y-68369872D01*
X125947929Y-68473705D01*
X126009874Y-68595979D01*
X126028506Y-68727886D01*
X126001549Y-68860616D01*
X125982486Y-68902667D01*
X125930015Y-69003334D01*
X126752259Y-69003334D01*
X126714267Y-68929865D01*
X126684872Y-68833059D01*
X126677342Y-68714072D01*
X126691245Y-68595255D01*
X126722476Y-68505527D01*
X126781954Y-68431101D01*
X126867066Y-68367510D01*
X126875805Y-68362729D01*
X126916966Y-68342563D01*
X126958454Y-68327835D01*
X127008713Y-68317697D01*
X127076184Y-68311301D01*
X127169309Y-68307799D01*
X127296531Y-68306342D01*
X127439701Y-68306079D01*
X127896471Y-68306079D01*
X127896471Y-68580000D01*
X127054231Y-68580000D01*
X126989763Y-68656617D01*
X126938194Y-68736207D01*
X126928818Y-68811578D01*
X126952947Y-68887367D01*
X126976574Y-68927759D01*
X127010227Y-68957821D01*
X127061087Y-68979203D01*
X127136334Y-68993550D01*
X127243146Y-69002510D01*
X127388704Y-69007730D01*
X127485588Y-69009569D01*
X127884020Y-69015785D01*
X127891547Y-69146520D01*
X127899073Y-69277255D01*
X125426582Y-69277255D01*
X125426582Y-69003334D01*
X125564423Y-68996350D01*
X125660107Y-68972818D01*
X125719641Y-68928865D01*
X125749029Y-68860618D01*
X125754902Y-68791667D01*
X125748154Y-68713614D01*
X125721594Y-68661811D01*
X125686499Y-68629417D01*
X125648752Y-68603916D01*
X125606700Y-68588735D01*
X125547779Y-68581981D01*
X125459428Y-68581759D01*
X125385448Y-68584032D01*
X125274000Y-68589251D01*
X125200833Y-68597021D01*
X125154422Y-68610105D01*
X125123244Y-68631268D01*
X125105223Y-68651240D01*
X125065925Y-68734686D01*
X125059579Y-68833449D01*
X125073116Y-68890159D01*
X125121233Y-68946308D01*
X125214833Y-68983501D01*
X125353254Y-69001528D01*
X125426582Y-69003334D01*
X125426582Y-69277255D01*
X124808628Y-69277255D01*
X124808628Y-69140295D01*
X124811879Y-69058065D01*
X124823426Y-69015640D01*
X124845952Y-69003339D01*
X124846620Y-69003334D01*
X124868681Y-68997626D01*
X124866176Y-68972453D01*
X124841935Y-68922402D01*
X124804851Y-68805781D01*
X124800953Y-68674571D01*
X124829560Y-68550091D01*
G36*
X126685922Y-67511280D02*
X126717180Y-67394130D01*
X126773837Y-67304949D01*
X126848045Y-67242016D01*
X126879716Y-67222452D01*
X126912891Y-67208008D01*
X126955329Y-67197911D01*
X127014788Y-67191385D01*
X127099029Y-67187658D01*
X127215810Y-67185954D01*
X127372890Y-67185500D01*
X127414565Y-67185491D01*
X127896471Y-67185491D01*
X127896471Y-67305020D01*
X127891131Y-67381261D01*
X127877604Y-67437634D01*
X127869262Y-67451758D01*
X127854864Y-67490370D01*
X127869262Y-67529808D01*
X127887237Y-67594738D01*
X127894472Y-67689055D01*
X127891333Y-67793593D01*
X127878186Y-67889189D01*
X127861318Y-67945000D01*
X127791986Y-68053002D01*
X127695772Y-68120497D01*
X127567844Y-68150841D01*
X127564559Y-68151123D01*
X127507808Y-68148460D01*
X127507808Y-67907647D01*
X127572358Y-67886595D01*
X127608686Y-67852303D01*
X127636162Y-67783468D01*
X127647129Y-67692610D01*
X127641731Y-67599958D01*
X127620110Y-67525744D01*
X127606239Y-67504951D01*
X127542143Y-67468619D01*
X127469278Y-67459412D01*
X127373530Y-67459412D01*
X127373530Y-67597173D01*
X127383605Y-67728047D01*
X127412148Y-67827259D01*
X127456639Y-67888977D01*
X127507808Y-67907647D01*
X127507808Y-68148460D01*
X127424790Y-68144564D01*
X127314282Y-68098466D01*
X127230712Y-68011800D01*
X127223110Y-67999821D01*
X127198357Y-67948345D01*
X127183368Y-67884632D01*
X127176082Y-67795565D01*
X127174407Y-67689755D01*
X127174314Y-67459412D01*
X127077755Y-67459412D01*
X127002836Y-67469183D01*
X126952644Y-67494116D01*
X126949972Y-67497035D01*
X126928015Y-67552519D01*
X126919505Y-67636273D01*
X126923687Y-67728833D01*
X126939809Y-67810730D01*
X126963990Y-67859327D01*
X126983359Y-67885659D01*
X126987057Y-67913465D01*
X126971188Y-67951839D01*
X126931855Y-68009875D01*
X126865164Y-68096669D01*
X126858916Y-68104635D01*
X126835800Y-68100553D01*
X126797352Y-68066499D01*
X126754627Y-68014740D01*
X126718679Y-67957545D01*
X126710191Y-67939575D01*
X126693252Y-67874028D01*
X126681170Y-67777980D01*
X126676323Y-67670671D01*
X126676313Y-67665653D01*
X126685922Y-67511280D01*
X126685922Y-67511280D01*
G37*
X126685922Y-67511280D02*
X126717180Y-67394130D01*
X126773837Y-67304949D01*
X126848045Y-67242016D01*
X126879716Y-67222452D01*
X126912891Y-67208008D01*
X126955329Y-67197911D01*
X127014788Y-67191385D01*
X127099029Y-67187658D01*
X127215810Y-67185954D01*
X127372890Y-67185500D01*
X127414565Y-67185491D01*
X127896471Y-67185491D01*
X127896471Y-67305020D01*
X127891131Y-67381261D01*
X127877604Y-67437634D01*
X127869262Y-67451758D01*
X127854864Y-67490370D01*
X127869262Y-67529808D01*
X127887237Y-67594738D01*
X127894472Y-67689055D01*
X127891333Y-67793593D01*
X127878186Y-67889189D01*
X127861318Y-67945000D01*
X127791986Y-68053002D01*
X127695772Y-68120497D01*
X127567844Y-68150841D01*
X127564559Y-68151123D01*
X127507808Y-68148460D01*
X127507808Y-67907647D01*
X127572358Y-67886595D01*
X127608686Y-67852303D01*
X127636162Y-67783468D01*
X127647129Y-67692610D01*
X127641731Y-67599958D01*
X127620110Y-67525744D01*
X127606239Y-67504951D01*
X127542143Y-67468619D01*
X127469278Y-67459412D01*
X127373530Y-67459412D01*
X127373530Y-67597173D01*
X127383605Y-67728047D01*
X127412148Y-67827259D01*
X127456639Y-67888977D01*
X127507808Y-67907647D01*
X127507808Y-68148460D01*
X127424790Y-68144564D01*
X127314282Y-68098466D01*
X127230712Y-68011800D01*
X127223110Y-67999821D01*
X127198357Y-67948345D01*
X127183368Y-67884632D01*
X127176082Y-67795565D01*
X127174407Y-67689755D01*
X127174314Y-67459412D01*
X127077755Y-67459412D01*
X127002836Y-67469183D01*
X126952644Y-67494116D01*
X126949972Y-67497035D01*
X126928015Y-67552519D01*
X126919505Y-67636273D01*
X126923687Y-67728833D01*
X126939809Y-67810730D01*
X126963990Y-67859327D01*
X126983359Y-67885659D01*
X126987057Y-67913465D01*
X126971188Y-67951839D01*
X126931855Y-68009875D01*
X126865164Y-68096669D01*
X126858916Y-68104635D01*
X126835800Y-68100553D01*
X126797352Y-68066499D01*
X126754627Y-68014740D01*
X126718679Y-67957545D01*
X126710191Y-67939575D01*
X126693252Y-67874028D01*
X126681170Y-67777980D01*
X126676323Y-67670671D01*
X126676313Y-67665653D01*
X126685922Y-67511280D01*
G36*
X126678921Y-66737236D02*
X126690091Y-66699970D01*
X126714633Y-66687957D01*
X126725712Y-66687451D01*
X126756572Y-66685296D01*
X126761417Y-66670449D01*
X126740260Y-66630343D01*
X126725806Y-66606520D01*
X126694850Y-66531362D01*
X126679544Y-66441594D01*
X126678367Y-66347471D01*
X126689799Y-66259246D01*
X126712320Y-66187174D01*
X126744409Y-66141508D01*
X126784545Y-66132502D01*
X126795415Y-66137047D01*
X126840534Y-66170179D01*
X126896026Y-66221555D01*
X126904996Y-66230848D01*
X126946245Y-66279818D01*
X126959572Y-66322069D01*
X126950271Y-66381159D01*
X126944090Y-66404831D01*
X126929246Y-66478496D01*
X126935921Y-66530290D01*
X126959465Y-66574031D01*
X126991061Y-66614098D01*
X127030798Y-66643608D01*
X127086252Y-66664116D01*
X127165003Y-66677176D01*
X127274629Y-66684344D01*
X127422706Y-66687176D01*
X127512111Y-66687451D01*
X127896471Y-66687451D01*
X127896471Y-66936471D01*
X126676275Y-66936471D01*
X126676275Y-66811961D01*
X126678921Y-66737236D01*
X126678921Y-66737236D01*
G37*
X126678921Y-66737236D02*
X126690091Y-66699970D01*
X126714633Y-66687957D01*
X126725712Y-66687451D01*
X126756572Y-66685296D01*
X126761417Y-66670449D01*
X126740260Y-66630343D01*
X126725806Y-66606520D01*
X126694850Y-66531362D01*
X126679544Y-66441594D01*
X126678367Y-66347471D01*
X126689799Y-66259246D01*
X126712320Y-66187174D01*
X126744409Y-66141508D01*
X126784545Y-66132502D01*
X126795415Y-66137047D01*
X126840534Y-66170179D01*
X126896026Y-66221555D01*
X126904996Y-66230848D01*
X126946245Y-66279818D01*
X126959572Y-66322069D01*
X126950271Y-66381159D01*
X126944090Y-66404831D01*
X126929246Y-66478496D01*
X126935921Y-66530290D01*
X126959465Y-66574031D01*
X126991061Y-66614098D01*
X127030798Y-66643608D01*
X127086252Y-66664116D01*
X127165003Y-66677176D01*
X127274629Y-66684344D01*
X127422706Y-66687176D01*
X127512111Y-66687451D01*
X127896471Y-66687451D01*
X127896471Y-66936471D01*
X126676275Y-66936471D01*
X126676275Y-66811961D01*
X126678921Y-66737236D01*
G36*
X127896471Y-65168432D02*
X127896471Y-65305393D01*
X127894140Y-65384889D01*
X127884488Y-65426292D01*
X127863525Y-65441199D01*
X127849351Y-65442353D01*
X127820927Y-65444867D01*
X127815475Y-65460720D01*
X127832998Y-65502379D01*
X127849351Y-65534776D01*
X127888103Y-65659151D01*
X127890346Y-65794354D01*
X127861444Y-65904274D01*
X127791619Y-66006634D01*
X127688555Y-66084660D01*
X127566989Y-66127386D01*
X127560192Y-66128474D01*
X127486032Y-66134822D01*
X127379570Y-66137979D01*
X127299052Y-66137725D01*
X127299052Y-65865711D01*
X127406070Y-65859410D01*
X127494278Y-65845075D01*
X127544090Y-65825669D01*
X127612162Y-65752254D01*
X127636564Y-65665086D01*
X127616831Y-65575196D01*
X127557968Y-65498383D01*
X127518379Y-65469292D01*
X127471138Y-65452283D01*
X127402181Y-65444316D01*
X127298607Y-65442353D01*
X127196039Y-65445866D01*
X127105921Y-65455143D01*
X127045613Y-65468294D01*
X127040208Y-65470486D01*
X126975940Y-65523522D01*
X126940656Y-65600933D01*
X126934959Y-65687546D01*
X126959453Y-65768193D01*
X127014742Y-65827703D01*
X127025743Y-65833876D01*
X127092827Y-65853199D01*
X127189284Y-65863726D01*
X127299052Y-65865711D01*
X127299052Y-66137725D01*
X127258225Y-66137596D01*
X127192918Y-66135806D01*
X127031355Y-66123627D01*
X126910053Y-66098315D01*
X126820379Y-66056207D01*
X126753699Y-65993641D01*
X126714557Y-65932900D01*
X126687040Y-65848036D01*
X126677603Y-65742485D01*
X126685290Y-65634402D01*
X126709146Y-65541942D01*
X126737685Y-65493090D01*
X126783601Y-65442353D01*
X126203137Y-65442353D01*
X126203137Y-65168432D01*
X127896471Y-65168432D01*
X127896471Y-65168432D01*
G37*
X127896471Y-65168432D02*
X127896471Y-65305393D01*
X127894140Y-65384889D01*
X127884488Y-65426292D01*
X127863525Y-65441199D01*
X127849351Y-65442353D01*
X127820927Y-65444867D01*
X127815475Y-65460720D01*
X127832998Y-65502379D01*
X127849351Y-65534776D01*
X127888103Y-65659151D01*
X127890346Y-65794354D01*
X127861444Y-65904274D01*
X127791619Y-66006634D01*
X127688555Y-66084660D01*
X127566989Y-66127386D01*
X127560192Y-66128474D01*
X127486032Y-66134822D01*
X127379570Y-66137979D01*
X127299052Y-66137725D01*
X127299052Y-65865711D01*
X127406070Y-65859410D01*
X127494278Y-65845075D01*
X127544090Y-65825669D01*
X127612162Y-65752254D01*
X127636564Y-65665086D01*
X127616831Y-65575196D01*
X127557968Y-65498383D01*
X127518379Y-65469292D01*
X127471138Y-65452283D01*
X127402181Y-65444316D01*
X127298607Y-65442353D01*
X127196039Y-65445866D01*
X127105921Y-65455143D01*
X127045613Y-65468294D01*
X127040208Y-65470486D01*
X126975940Y-65523522D01*
X126940656Y-65600933D01*
X126934959Y-65687546D01*
X126959453Y-65768193D01*
X127014742Y-65827703D01*
X127025743Y-65833876D01*
X127092827Y-65853199D01*
X127189284Y-65863726D01*
X127299052Y-65865711D01*
X127299052Y-66137725D01*
X127258225Y-66137596D01*
X127192918Y-66135806D01*
X127031355Y-66123627D01*
X126910053Y-66098315D01*
X126820379Y-66056207D01*
X126753699Y-65993641D01*
X126714557Y-65932900D01*
X126687040Y-65848036D01*
X126677603Y-65742485D01*
X126685290Y-65634402D01*
X126709146Y-65541942D01*
X126737685Y-65493090D01*
X126783601Y-65442353D01*
X126203137Y-65442353D01*
X126203137Y-65168432D01*
X127896471Y-65168432D01*
G36*
X126681332Y-64212472D02*
X126688726Y-64113986D01*
X127074706Y-63985224D01*
X127460686Y-63856463D01*
X127323726Y-63816089D01*
X127239083Y-63791793D01*
X127124697Y-63759833D01*
X126998963Y-63725321D01*
X126931520Y-63707072D01*
X126676275Y-63638429D01*
X126676275Y-63355227D01*
X126943971Y-63439878D01*
X127075638Y-63481565D01*
X127234458Y-63531926D01*
X127400128Y-63584519D01*
X127547843Y-63631470D01*
X127884020Y-63738411D01*
X127899044Y-63969339D01*
X127692316Y-64031950D01*
X127563896Y-64070562D01*
X127422322Y-64112700D01*
X127297285Y-64149528D01*
X127292309Y-64150982D01*
X127207586Y-64178489D01*
X127149778Y-64202758D01*
X127127918Y-64219757D01*
X127130446Y-64223250D01*
X127164336Y-64235510D01*
X127236930Y-64258805D01*
X127339101Y-64290300D01*
X127461720Y-64327158D01*
X127529167Y-64347101D01*
X127896471Y-64455105D01*
X127896471Y-64684321D01*
X127317500Y-64867561D01*
X127155091Y-64919037D01*
X127007602Y-64965930D01*
X126881960Y-65006023D01*
X126785095Y-65037103D01*
X126723934Y-65056955D01*
X126706065Y-65062989D01*
X126687768Y-65058212D01*
X126679755Y-65020703D01*
X126680557Y-64942645D01*
X126681163Y-64930426D01*
X126688726Y-64785674D01*
X127037353Y-64690870D01*
X127164497Y-64656023D01*
X127276265Y-64624883D01*
X127362953Y-64600191D01*
X127414856Y-64584688D01*
X127423318Y-64581824D01*
X127413587Y-64569954D01*
X127363172Y-64546017D01*
X127278935Y-64512761D01*
X127167741Y-64472936D01*
X127067297Y-64439270D01*
X126673939Y-64310959D01*
X126681332Y-64212472D01*
X126681332Y-64212472D01*
G37*
X126681332Y-64212472D02*
X126688726Y-64113986D01*
X127074706Y-63985224D01*
X127460686Y-63856463D01*
X127323726Y-63816089D01*
X127239083Y-63791793D01*
X127124697Y-63759833D01*
X126998963Y-63725321D01*
X126931520Y-63707072D01*
X126676275Y-63638429D01*
X126676275Y-63355227D01*
X126943971Y-63439878D01*
X127075638Y-63481565D01*
X127234458Y-63531926D01*
X127400128Y-63584519D01*
X127547843Y-63631470D01*
X127884020Y-63738411D01*
X127899044Y-63969339D01*
X127692316Y-64031950D01*
X127563896Y-64070562D01*
X127422322Y-64112700D01*
X127297285Y-64149528D01*
X127292309Y-64150982D01*
X127207586Y-64178489D01*
X127149778Y-64202758D01*
X127127918Y-64219757D01*
X127130446Y-64223250D01*
X127164336Y-64235510D01*
X127236930Y-64258805D01*
X127339101Y-64290300D01*
X127461720Y-64327158D01*
X127529167Y-64347101D01*
X127896471Y-64455105D01*
X127896471Y-64684321D01*
X127317500Y-64867561D01*
X127155091Y-64919037D01*
X127007602Y-64965930D01*
X126881960Y-65006023D01*
X126785095Y-65037103D01*
X126723934Y-65056955D01*
X126706065Y-65062989D01*
X126687768Y-65058212D01*
X126679755Y-65020703D01*
X126680557Y-64942645D01*
X126681163Y-64930426D01*
X126688726Y-64785674D01*
X127037353Y-64690870D01*
X127164497Y-64656023D01*
X127276265Y-64624883D01*
X127362953Y-64600191D01*
X127414856Y-64584688D01*
X127423318Y-64581824D01*
X127413587Y-64569954D01*
X127363172Y-64546017D01*
X127278935Y-64512761D01*
X127167741Y-64472936D01*
X127067297Y-64439270D01*
X126673939Y-64310959D01*
X126681332Y-64212472D01*
G36*
X126683669Y-62713541D02*
X126709163Y-62608580D01*
X126722669Y-62578239D01*
X126758046Y-62519427D01*
X126797890Y-62474291D01*
X126849120Y-62440894D01*
X126918654Y-62417299D01*
X127013409Y-62401567D01*
X127140305Y-62391761D01*
X127306258Y-62385943D01*
X127417108Y-62383734D01*
X127896471Y-62375604D01*
X127896471Y-62514469D01*
X127892938Y-62598713D01*
X127880866Y-62642116D01*
X127860594Y-62653334D01*
X127838674Y-62659256D01*
X127842865Y-62685734D01*
X127860441Y-62721814D01*
X127887382Y-62812138D01*
X127894642Y-62928223D01*
X127882767Y-63050320D01*
X127852305Y-63158679D01*
X127848077Y-63168398D01*
X127778505Y-63267432D01*
X127681789Y-63332719D01*
X127568738Y-63362760D01*
X127528122Y-63360465D01*
X127528122Y-63115367D01*
X127582782Y-63093771D01*
X127621952Y-63029741D01*
X127642974Y-62926435D01*
X127645766Y-62871226D01*
X127638620Y-62779218D01*
X127610848Y-62718059D01*
X127597647Y-62703138D01*
X127525829Y-62662713D01*
X127460686Y-62653334D01*
X127373530Y-62653334D01*
X127373530Y-62774731D01*
X127380722Y-62915847D01*
X127403345Y-63014827D01*
X127442964Y-63077367D01*
X127460628Y-63091369D01*
X127528122Y-63115367D01*
X127528122Y-63360465D01*
X127450157Y-63356059D01*
X127336855Y-63311120D01*
X127260285Y-63249804D01*
X127227181Y-63212668D01*
X127205425Y-63176313D01*
X127192161Y-63129010D01*
X127184528Y-63059027D01*
X127179670Y-62954636D01*
X127178273Y-62913230D01*
X127169780Y-62653334D01*
X127091116Y-62653715D01*
X127008428Y-62663781D01*
X126958431Y-62700171D01*
X126926489Y-62773689D01*
X126925920Y-62775661D01*
X126913361Y-62879895D01*
X126929766Y-62981892D01*
X126969657Y-63057695D01*
X126989354Y-63088110D01*
X126986629Y-63120868D01*
X126958091Y-63171279D01*
X126937950Y-63200881D01*
X126894919Y-63258782D01*
X126862662Y-63294648D01*
X126853427Y-63300403D01*
X126805636Y-63276705D01*
X126748562Y-63206687D01*
X126729305Y-63176275D01*
X126696140Y-63088845D01*
X126677350Y-62971017D01*
X126673129Y-62840134D01*
X126683669Y-62713541D01*
X126683669Y-62713541D01*
G37*
X126683669Y-62713541D02*
X126709163Y-62608580D01*
X126722669Y-62578239D01*
X126758046Y-62519427D01*
X126797890Y-62474291D01*
X126849120Y-62440894D01*
X126918654Y-62417299D01*
X127013409Y-62401567D01*
X127140305Y-62391761D01*
X127306258Y-62385943D01*
X127417108Y-62383734D01*
X127896471Y-62375604D01*
X127896471Y-62514469D01*
X127892938Y-62598713D01*
X127880866Y-62642116D01*
X127860594Y-62653334D01*
X127838674Y-62659256D01*
X127842865Y-62685734D01*
X127860441Y-62721814D01*
X127887382Y-62812138D01*
X127894642Y-62928223D01*
X127882767Y-63050320D01*
X127852305Y-63158679D01*
X127848077Y-63168398D01*
X127778505Y-63267432D01*
X127681789Y-63332719D01*
X127568738Y-63362760D01*
X127528122Y-63360465D01*
X127528122Y-63115367D01*
X127582782Y-63093771D01*
X127621952Y-63029741D01*
X127642974Y-62926435D01*
X127645766Y-62871226D01*
X127638620Y-62779218D01*
X127610848Y-62718059D01*
X127597647Y-62703138D01*
X127525829Y-62662713D01*
X127460686Y-62653334D01*
X127373530Y-62653334D01*
X127373530Y-62774731D01*
X127380722Y-62915847D01*
X127403345Y-63014827D01*
X127442964Y-63077367D01*
X127460628Y-63091369D01*
X127528122Y-63115367D01*
X127528122Y-63360465D01*
X127450157Y-63356059D01*
X127336855Y-63311120D01*
X127260285Y-63249804D01*
X127227181Y-63212668D01*
X127205425Y-63176313D01*
X127192161Y-63129010D01*
X127184528Y-63059027D01*
X127179670Y-62954636D01*
X127178273Y-62913230D01*
X127169780Y-62653334D01*
X127091116Y-62653715D01*
X127008428Y-62663781D01*
X126958431Y-62700171D01*
X126926489Y-62773689D01*
X126925920Y-62775661D01*
X126913361Y-62879895D01*
X126929766Y-62981892D01*
X126969657Y-63057695D01*
X126989354Y-63088110D01*
X126986629Y-63120868D01*
X126958091Y-63171279D01*
X126937950Y-63200881D01*
X126894919Y-63258782D01*
X126862662Y-63294648D01*
X126853427Y-63300403D01*
X126805636Y-63276705D01*
X126748562Y-63206687D01*
X126729305Y-63176275D01*
X126696140Y-63088845D01*
X126677350Y-62971017D01*
X126673129Y-62840134D01*
X126683669Y-62713541D01*
G36*
X126675883Y-61531554D02*
X126694755Y-61435823D01*
X126722699Y-61381323D01*
X126769123Y-61323992D01*
X126872111Y-61405559D01*
X126934479Y-61455850D01*
X126964907Y-61489999D01*
X126969555Y-61523937D01*
X126954586Y-61573594D01*
X126946117Y-61596904D01*
X126933622Y-61691937D01*
X126960406Y-61778968D01*
X127020915Y-61842862D01*
X127040208Y-61853241D01*
X127091314Y-61864544D01*
X127185500Y-61873268D01*
X127316089Y-61879003D01*
X127476405Y-61881340D01*
X127499211Y-61881373D01*
X127896471Y-61881373D01*
X127896471Y-62155295D01*
X126676275Y-62155295D01*
X126676275Y-62018334D01*
X126678337Y-61939362D01*
X126687513Y-61898221D01*
X126708290Y-61883008D01*
X126727886Y-61881373D01*
X126779497Y-61881373D01*
X126727886Y-61815760D01*
X126692675Y-61740525D01*
X126675265Y-61639456D01*
X126675883Y-61531554D01*
X126675883Y-61531554D01*
G37*
X126675883Y-61531554D02*
X126694755Y-61435823D01*
X126722699Y-61381323D01*
X126769123Y-61323992D01*
X126872111Y-61405559D01*
X126934479Y-61455850D01*
X126964907Y-61489999D01*
X126969555Y-61523937D01*
X126954586Y-61573594D01*
X126946117Y-61596904D01*
X126933622Y-61691937D01*
X126960406Y-61778968D01*
X127020915Y-61842862D01*
X127040208Y-61853241D01*
X127091314Y-61864544D01*
X127185500Y-61873268D01*
X127316089Y-61879003D01*
X127476405Y-61881340D01*
X127499211Y-61881373D01*
X127896471Y-61881373D01*
X127896471Y-62155295D01*
X126676275Y-62155295D01*
X126676275Y-62018334D01*
X126678337Y-61939362D01*
X126687513Y-61898221D01*
X126708290Y-61883008D01*
X126727886Y-61881373D01*
X126779497Y-61881373D01*
X126727886Y-61815760D01*
X126692675Y-61740525D01*
X126675265Y-61639456D01*
X126675883Y-61531554D01*
G36*
X126682784Y-60744693D02*
X126713731Y-60625663D01*
X126777600Y-60525979D01*
X126825313Y-60477712D01*
X126938106Y-60398592D01*
X127068950Y-60353248D01*
X127229792Y-60337670D01*
X127242794Y-60337590D01*
X127373530Y-60337451D01*
X127373530Y-61089909D01*
X127442010Y-61073870D01*
X127504031Y-61044909D01*
X127568654Y-60994222D01*
X127578971Y-60983621D01*
X127634805Y-60892506D01*
X127644275Y-60788600D01*
X127607540Y-60669000D01*
X127597647Y-60648726D01*
X127567574Y-60586544D01*
X127550440Y-60544894D01*
X127548855Y-60537627D01*
X127564242Y-60512260D01*
X127601887Y-60463880D01*
X127622459Y-60439321D01*
X127669714Y-60388430D01*
X127700917Y-60371719D01*
X127729620Y-60383317D01*
X127737468Y-60389517D01*
X127771819Y-60431507D01*
X127813565Y-60500794D01*
X127837935Y-60549118D01*
X127880873Y-60686289D01*
X127894786Y-60838153D01*
X127878300Y-60981976D01*
X127866496Y-61022255D01*
X127799689Y-61146922D01*
X127696892Y-61239329D01*
X127557105Y-61300010D01*
X127379330Y-61329502D01*
X127286373Y-61332740D01*
X127151033Y-61323286D01*
X127151033Y-61084510D01*
X127161038Y-61061416D01*
X127168888Y-60999338D01*
X127173521Y-60909086D01*
X127174314Y-60847942D01*
X127173549Y-60737960D01*
X127169970Y-60668543D01*
X127161649Y-60630462D01*
X127146657Y-60614485D01*
X127124903Y-60611373D01*
X127057892Y-60632722D01*
X126991664Y-60686471D01*
X126940832Y-60757178D01*
X126920038Y-60827911D01*
X126938484Y-60923984D01*
X126991811Y-61007151D01*
X127068677Y-61064814D01*
X127151033Y-61084510D01*
X127151033Y-61323286D01*
X127089291Y-61318972D01*
X126932271Y-61276480D01*
X126814069Y-61204365D01*
X126733440Y-61101727D01*
X126689139Y-60967668D01*
X126680607Y-60895043D01*
X126682784Y-60744693D01*
X126682784Y-60744693D01*
G37*
X126682784Y-60744693D02*
X126713731Y-60625663D01*
X126777600Y-60525979D01*
X126825313Y-60477712D01*
X126938106Y-60398592D01*
X127068950Y-60353248D01*
X127229792Y-60337670D01*
X127242794Y-60337590D01*
X127373530Y-60337451D01*
X127373530Y-61089909D01*
X127442010Y-61073870D01*
X127504031Y-61044909D01*
X127568654Y-60994222D01*
X127578971Y-60983621D01*
X127634805Y-60892506D01*
X127644275Y-60788600D01*
X127607540Y-60669000D01*
X127597647Y-60648726D01*
X127567574Y-60586544D01*
X127550440Y-60544894D01*
X127548855Y-60537627D01*
X127564242Y-60512260D01*
X127601887Y-60463880D01*
X127622459Y-60439321D01*
X127669714Y-60388430D01*
X127700917Y-60371719D01*
X127729620Y-60383317D01*
X127737468Y-60389517D01*
X127771819Y-60431507D01*
X127813565Y-60500794D01*
X127837935Y-60549118D01*
X127880873Y-60686289D01*
X127894786Y-60838153D01*
X127878300Y-60981976D01*
X127866496Y-61022255D01*
X127799689Y-61146922D01*
X127696892Y-61239329D01*
X127557105Y-61300010D01*
X127379330Y-61329502D01*
X127286373Y-61332740D01*
X127151033Y-61323286D01*
X127151033Y-61084510D01*
X127161038Y-61061416D01*
X127168888Y-60999338D01*
X127173521Y-60909086D01*
X127174314Y-60847942D01*
X127173549Y-60737960D01*
X127169970Y-60668543D01*
X127161649Y-60630462D01*
X127146657Y-60614485D01*
X127124903Y-60611373D01*
X127057892Y-60632722D01*
X126991664Y-60686471D01*
X126940832Y-60757178D01*
X126920038Y-60827911D01*
X126938484Y-60923984D01*
X126991811Y-61007151D01*
X127068677Y-61064814D01*
X127151033Y-61084510D01*
X127151033Y-61323286D01*
X127089291Y-61318972D01*
X126932271Y-61276480D01*
X126814069Y-61204365D01*
X126733440Y-61101727D01*
X126689139Y-60967668D01*
X126680607Y-60895043D01*
X126682784Y-60744693D01*
G36*
X124821568Y-69796753D02*
X124879163Y-69666478D01*
X124975334Y-69567581D01*
X125110229Y-69499918D01*
X125283996Y-69463345D01*
X125311126Y-69460724D01*
X125502408Y-69458670D01*
X125670073Y-69485301D01*
X125805967Y-69538999D01*
X125849681Y-69567753D01*
X125942198Y-69667909D01*
X126002119Y-69795463D01*
X126026985Y-69938163D01*
X126014339Y-70083760D01*
X125975391Y-70194438D01*
X125909755Y-70289616D01*
X125823699Y-70367406D01*
X125821685Y-70368751D01*
X125768570Y-70400343D01*
X125715160Y-70420873D01*
X125647754Y-70433305D01*
X125552653Y-70440603D01*
X125474666Y-70443818D01*
X125403944Y-70445156D01*
X125403944Y-70196186D01*
X125474348Y-70193753D01*
X125568068Y-70184920D01*
X125628214Y-70169336D01*
X125671006Y-70141234D01*
X125696002Y-70114914D01*
X125748338Y-70021608D01*
X125755333Y-69923980D01*
X125717676Y-69833058D01*
X125675479Y-69787598D01*
X125632956Y-69754838D01*
X125592267Y-69735677D01*
X125539314Y-69727267D01*
X125459997Y-69726763D01*
X125386950Y-69729355D01*
X125282601Y-69734929D01*
X125214920Y-69743766D01*
X125170774Y-69759693D01*
X125137031Y-69786538D01*
X125117746Y-69807811D01*
X125067086Y-69896794D01*
X125064560Y-69992789D01*
X125094567Y-70073281D01*
X125157231Y-70141947D01*
X125260168Y-70182856D01*
X125403944Y-70196186D01*
X125403944Y-70445156D01*
X125319582Y-70446754D01*
X125203600Y-70441740D01*
X125116367Y-70426717D01*
X125047530Y-70399624D01*
X124986737Y-70358400D01*
X124968686Y-70343115D01*
X124878746Y-70247546D01*
X124826211Y-70145039D01*
X124804201Y-70019679D01*
X124802402Y-69958550D01*
X124821568Y-69796753D01*
X124821568Y-69796753D01*
G37*
X124821568Y-69796753D02*
X124879163Y-69666478D01*
X124975334Y-69567581D01*
X125110229Y-69499918D01*
X125283996Y-69463345D01*
X125311126Y-69460724D01*
X125502408Y-69458670D01*
X125670073Y-69485301D01*
X125805967Y-69538999D01*
X125849681Y-69567753D01*
X125942198Y-69667909D01*
X126002119Y-69795463D01*
X126026985Y-69938163D01*
X126014339Y-70083760D01*
X125975391Y-70194438D01*
X125909755Y-70289616D01*
X125823699Y-70367406D01*
X125821685Y-70368751D01*
X125768570Y-70400343D01*
X125715160Y-70420873D01*
X125647754Y-70433305D01*
X125552653Y-70440603D01*
X125474666Y-70443818D01*
X125403944Y-70445156D01*
X125403944Y-70196186D01*
X125474348Y-70193753D01*
X125568068Y-70184920D01*
X125628214Y-70169336D01*
X125671006Y-70141234D01*
X125696002Y-70114914D01*
X125748338Y-70021608D01*
X125755333Y-69923980D01*
X125717676Y-69833058D01*
X125675479Y-69787598D01*
X125632956Y-69754838D01*
X125592267Y-69735677D01*
X125539314Y-69727267D01*
X125459997Y-69726763D01*
X125386950Y-69729355D01*
X125282601Y-69734929D01*
X125214920Y-69743766D01*
X125170774Y-69759693D01*
X125137031Y-69786538D01*
X125117746Y-69807811D01*
X125067086Y-69896794D01*
X125064560Y-69992789D01*
X125094567Y-70073281D01*
X125157231Y-70141947D01*
X125260168Y-70182856D01*
X125403944Y-70196186D01*
X125403944Y-70445156D01*
X125319582Y-70446754D01*
X125203600Y-70441740D01*
X125116367Y-70426717D01*
X125047530Y-70399624D01*
X124986737Y-70358400D01*
X124968686Y-70343115D01*
X124878746Y-70247546D01*
X124826211Y-70145039D01*
X124804201Y-70019679D01*
X124802402Y-69958550D01*
X124821568Y-69796753D01*
G36*
X124836354Y-67456796D02*
X124848037Y-67431981D01*
X124910951Y-67346094D01*
X125002769Y-67264879D01*
X125103868Y-67204236D01*
X125150349Y-67186988D01*
X125233376Y-67171251D01*
X125333713Y-67161867D01*
X125375147Y-67160728D01*
X125505882Y-67160589D01*
X125505882Y-67913047D01*
X125574363Y-67897007D01*
X125655355Y-67857637D01*
X125725351Y-67788806D01*
X125770441Y-67706919D01*
X125779804Y-67654737D01*
X125768441Y-67583971D01*
X125739943Y-67499540D01*
X125726831Y-67470858D01*
X125673858Y-67364791D01*
X125742901Y-67274272D01*
X125789597Y-67222039D01*
X125828140Y-67194247D01*
X125839452Y-67192840D01*
X125866868Y-67217668D01*
X125908532Y-67272083D01*
X125941037Y-67321472D01*
X125999468Y-67454748D01*
X126025915Y-67604161D01*
X126019039Y-67752249D01*
X125983096Y-67870295D01*
X125906101Y-67991982D01*
X125804728Y-68078460D01*
X125673570Y-68132559D01*
X125507224Y-68157109D01*
X125431108Y-68159286D01*
X125256685Y-68150573D01*
X125251611Y-68149503D01*
X125251611Y-67900173D01*
X125267968Y-67893306D01*
X125276988Y-67865083D01*
X125280854Y-67806873D01*
X125281749Y-67710042D01*
X125281765Y-67672757D01*
X125280413Y-67559317D01*
X125275505Y-67487378D01*
X125265760Y-67448687D01*
X125249899Y-67434995D01*
X125244805Y-67434510D01*
X125204326Y-67450137D01*
X125147621Y-67489247D01*
X125127766Y-67506061D01*
X125071611Y-67568481D01*
X125049532Y-67633547D01*
X125047686Y-67668603D01*
X125070766Y-67763442D01*
X125132759Y-67842973D01*
X125222802Y-67893423D01*
X125225735Y-67894317D01*
X125251611Y-67900173D01*
X125251611Y-68149503D01*
X125119343Y-68121601D01*
X125009461Y-68069410D01*
X124931461Y-68005579D01*
X124846882Y-67887567D01*
X124801686Y-67748842D01*
X124797600Y-67601290D01*
X124836354Y-67456796D01*
X124836354Y-67456796D01*
G37*
X124836354Y-67456796D02*
X124848037Y-67431981D01*
X124910951Y-67346094D01*
X125002769Y-67264879D01*
X125103868Y-67204236D01*
X125150349Y-67186988D01*
X125233376Y-67171251D01*
X125333713Y-67161867D01*
X125375147Y-67160728D01*
X125505882Y-67160589D01*
X125505882Y-67913047D01*
X125574363Y-67897007D01*
X125655355Y-67857637D01*
X125725351Y-67788806D01*
X125770441Y-67706919D01*
X125779804Y-67654737D01*
X125768441Y-67583971D01*
X125739943Y-67499540D01*
X125726831Y-67470858D01*
X125673858Y-67364791D01*
X125742901Y-67274272D01*
X125789597Y-67222039D01*
X125828140Y-67194247D01*
X125839452Y-67192840D01*
X125866868Y-67217668D01*
X125908532Y-67272083D01*
X125941037Y-67321472D01*
X125999468Y-67454748D01*
X126025915Y-67604161D01*
X126019039Y-67752249D01*
X125983096Y-67870295D01*
X125906101Y-67991982D01*
X125804728Y-68078460D01*
X125673570Y-68132559D01*
X125507224Y-68157109D01*
X125431108Y-68159286D01*
X125256685Y-68150573D01*
X125251611Y-68149503D01*
X125251611Y-67900173D01*
X125267968Y-67893306D01*
X125276988Y-67865083D01*
X125280854Y-67806873D01*
X125281749Y-67710042D01*
X125281765Y-67672757D01*
X125280413Y-67559317D01*
X125275505Y-67487378D01*
X125265760Y-67448687D01*
X125249899Y-67434995D01*
X125244805Y-67434510D01*
X125204326Y-67450137D01*
X125147621Y-67489247D01*
X125127766Y-67506061D01*
X125071611Y-67568481D01*
X125049532Y-67633547D01*
X125047686Y-67668603D01*
X125070766Y-67763442D01*
X125132759Y-67842973D01*
X125222802Y-67893423D01*
X125225735Y-67894317D01*
X125251611Y-67900173D01*
X125251611Y-68149503D01*
X125119343Y-68121601D01*
X125009461Y-68069410D01*
X124931461Y-68005579D01*
X124846882Y-67887567D01*
X124801686Y-67748842D01*
X124797600Y-67601290D01*
X124836354Y-67456796D01*
G36*
X124804345Y-64742241D02*
X124822229Y-64647941D01*
X124859633Y-64550110D01*
X124864402Y-64539657D01*
X124903412Y-64465469D01*
X124939664Y-64414090D01*
X124962887Y-64397483D01*
X125000761Y-64413298D01*
X125056644Y-64451712D01*
X125077505Y-64468763D01*
X125159618Y-64539031D01*
X125106168Y-64629621D01*
X125070561Y-64715836D01*
X125051529Y-64815451D01*
X125050326Y-64910981D01*
X125068210Y-64984939D01*
X125079373Y-65002688D01*
X125130553Y-65036488D01*
X125189509Y-65040596D01*
X125235567Y-65015304D01*
X125244499Y-65000344D01*
X125255592Y-64955514D01*
X125268630Y-64876714D01*
X125281088Y-64779574D01*
X125283042Y-64761654D01*
X125310030Y-64605635D01*
X125355873Y-64492477D01*
X125424803Y-64417431D01*
X125521054Y-64375747D01*
X125638617Y-64362762D01*
X125772254Y-64380701D01*
X125877195Y-64438950D01*
X125953630Y-64537745D01*
X126001748Y-64677318D01*
X126020732Y-64832255D01*
X126020504Y-64958602D01*
X126003262Y-65061087D01*
X125979457Y-65131079D01*
X125937978Y-65219517D01*
X125889842Y-65301246D01*
X125868655Y-65330295D01*
X125807676Y-65405000D01*
X125716508Y-65314902D01*
X125625339Y-65224804D01*
X125693128Y-65122368D01*
X125744042Y-65019626D01*
X125770673Y-64909913D01*
X125773483Y-64804449D01*
X125752935Y-64714454D01*
X125709493Y-64651146D01*
X125672838Y-64630704D01*
X125614053Y-64633771D01*
X125569099Y-64684566D01*
X125538057Y-64782952D01*
X125523710Y-64890744D01*
X125496337Y-65056635D01*
X125444693Y-65179876D01*
X125367266Y-65262114D01*
X125262544Y-65304999D01*
X125138387Y-65310940D01*
X125008702Y-65281594D01*
X124910677Y-65214691D01*
X124843866Y-65109629D01*
X124807820Y-64965810D01*
X124800754Y-64859262D01*
X124804345Y-64742241D01*
X124804345Y-64742241D01*
G37*
X124804345Y-64742241D02*
X124822229Y-64647941D01*
X124859633Y-64550110D01*
X124864402Y-64539657D01*
X124903412Y-64465469D01*
X124939664Y-64414090D01*
X124962887Y-64397483D01*
X125000761Y-64413298D01*
X125056644Y-64451712D01*
X125077505Y-64468763D01*
X125159618Y-64539031D01*
X125106168Y-64629621D01*
X125070561Y-64715836D01*
X125051529Y-64815451D01*
X125050326Y-64910981D01*
X125068210Y-64984939D01*
X125079373Y-65002688D01*
X125130553Y-65036488D01*
X125189509Y-65040596D01*
X125235567Y-65015304D01*
X125244499Y-65000344D01*
X125255592Y-64955514D01*
X125268630Y-64876714D01*
X125281088Y-64779574D01*
X125283042Y-64761654D01*
X125310030Y-64605635D01*
X125355873Y-64492477D01*
X125424803Y-64417431D01*
X125521054Y-64375747D01*
X125638617Y-64362762D01*
X125772254Y-64380701D01*
X125877195Y-64438950D01*
X125953630Y-64537745D01*
X126001748Y-64677318D01*
X126020732Y-64832255D01*
X126020504Y-64958602D01*
X126003262Y-65061087D01*
X125979457Y-65131079D01*
X125937978Y-65219517D01*
X125889842Y-65301246D01*
X125868655Y-65330295D01*
X125807676Y-65405000D01*
X125716508Y-65314902D01*
X125625339Y-65224804D01*
X125693128Y-65122368D01*
X125744042Y-65019626D01*
X125770673Y-64909913D01*
X125773483Y-64804449D01*
X125752935Y-64714454D01*
X125709493Y-64651146D01*
X125672838Y-64630704D01*
X125614053Y-64633771D01*
X125569099Y-64684566D01*
X125538057Y-64782952D01*
X125523710Y-64890744D01*
X125496337Y-65056635D01*
X125444693Y-65179876D01*
X125367266Y-65262114D01*
X125262544Y-65304999D01*
X125138387Y-65310940D01*
X125008702Y-65281594D01*
X124910677Y-65214691D01*
X124843866Y-65109629D01*
X124807820Y-64965810D01*
X124800754Y-64859262D01*
X124804345Y-64742241D01*
G36*
X124823364Y-63560453D02*
X124891959Y-63434498D01*
X125000245Y-63335953D01*
X125088315Y-63289522D01*
X125166101Y-63269588D01*
X125276993Y-63256672D01*
X125404738Y-63251137D01*
X125533084Y-63253346D01*
X125645779Y-63263663D01*
X125705969Y-63275714D01*
X125788311Y-63316366D01*
X125875770Y-63386770D01*
X125952251Y-63471618D01*
X126001655Y-63555603D01*
X126002439Y-63557651D01*
X126024027Y-63661866D01*
X126024562Y-63785373D01*
X126004908Y-63902739D01*
X125989155Y-63948058D01*
X125922966Y-64064780D01*
X125836246Y-64148376D01*
X125721438Y-64203299D01*
X125570982Y-64234005D01*
X125492173Y-64240953D01*
X125393145Y-64240067D01*
X125393145Y-63973138D01*
X125537645Y-63964146D01*
X125647760Y-63938264D01*
X125718116Y-63897132D01*
X125738235Y-63867828D01*
X125752265Y-63792749D01*
X125748111Y-63703506D01*
X125727922Y-63626350D01*
X125716815Y-63606117D01*
X125652123Y-63552735D01*
X125553119Y-63517500D01*
X125432632Y-63502502D01*
X125303494Y-63509828D01*
X125225775Y-63526201D01*
X125135771Y-63573210D01*
X125079509Y-63647418D01*
X125060057Y-63736791D01*
X125080481Y-63829293D01*
X125130437Y-63900347D01*
X125171655Y-63937688D01*
X125212281Y-63959482D01*
X125267264Y-63969870D01*
X125351549Y-63972994D01*
X125393145Y-63973138D01*
X125393145Y-64240067D01*
X125281874Y-64239070D01*
X125109423Y-64204820D01*
X124974814Y-64138198D01*
X124878040Y-64039201D01*
X124819094Y-63907825D01*
X124812259Y-63879615D01*
X124796213Y-63710074D01*
X124823364Y-63560453D01*
X124823364Y-63560453D01*
G37*
X124823364Y-63560453D02*
X124891959Y-63434498D01*
X125000245Y-63335953D01*
X125088315Y-63289522D01*
X125166101Y-63269588D01*
X125276993Y-63256672D01*
X125404738Y-63251137D01*
X125533084Y-63253346D01*
X125645779Y-63263663D01*
X125705969Y-63275714D01*
X125788311Y-63316366D01*
X125875770Y-63386770D01*
X125952251Y-63471618D01*
X126001655Y-63555603D01*
X126002439Y-63557651D01*
X126024027Y-63661866D01*
X126024562Y-63785373D01*
X126004908Y-63902739D01*
X125989155Y-63948058D01*
X125922966Y-64064780D01*
X125836246Y-64148376D01*
X125721438Y-64203299D01*
X125570982Y-64234005D01*
X125492173Y-64240953D01*
X125393145Y-64240067D01*
X125393145Y-63973138D01*
X125537645Y-63964146D01*
X125647760Y-63938264D01*
X125718116Y-63897132D01*
X125738235Y-63867828D01*
X125752265Y-63792749D01*
X125748111Y-63703506D01*
X125727922Y-63626350D01*
X125716815Y-63606117D01*
X125652123Y-63552735D01*
X125553119Y-63517500D01*
X125432632Y-63502502D01*
X125303494Y-63509828D01*
X125225775Y-63526201D01*
X125135771Y-63573210D01*
X125079509Y-63647418D01*
X125060057Y-63736791D01*
X125080481Y-63829293D01*
X125130437Y-63900347D01*
X125171655Y-63937688D01*
X125212281Y-63959482D01*
X125267264Y-63969870D01*
X125351549Y-63972994D01*
X125393145Y-63973138D01*
X125393145Y-64240067D01*
X125281874Y-64239070D01*
X125109423Y-64204820D01*
X124974814Y-64138198D01*
X124878040Y-64039201D01*
X124819094Y-63907825D01*
X124812259Y-63879615D01*
X124796213Y-63710074D01*
X124823364Y-63560453D01*
G36*
X125196245Y-62802746D02*
X125378879Y-62800392D01*
X125517600Y-62791793D01*
X125618147Y-62774640D01*
X125686254Y-62746626D01*
X125727659Y-62705443D01*
X125748097Y-62648783D01*
X125753318Y-62578628D01*
X125747468Y-62505152D01*
X125726093Y-62449343D01*
X125683458Y-62408891D01*
X125613825Y-62381491D01*
X125511460Y-62364833D01*
X125370624Y-62356611D01*
X125196245Y-62354510D01*
X124808628Y-62354510D01*
X124808628Y-62080589D01*
X126003922Y-62080589D01*
X126003922Y-62217549D01*
X126000576Y-62300116D01*
X125988826Y-62342632D01*
X125966520Y-62354510D01*
X125946654Y-62361664D01*
X125950857Y-62390135D01*
X125978971Y-62447524D01*
X126022342Y-62579055D01*
X126019270Y-62718562D01*
X125972174Y-62852235D01*
X125934971Y-62915892D01*
X125894691Y-62964447D01*
X125844291Y-62999919D01*
X125776729Y-63024326D01*
X125684965Y-63039687D01*
X125561955Y-63048018D01*
X125400659Y-63051338D01*
X125275928Y-63051765D01*
X124808628Y-63051765D01*
X124808628Y-62802746D01*
X125196245Y-62802746D01*
X125196245Y-62802746D01*
G37*
X125196245Y-62802746D02*
X125378879Y-62800392D01*
X125517600Y-62791793D01*
X125618147Y-62774640D01*
X125686254Y-62746626D01*
X125727659Y-62705443D01*
X125748097Y-62648783D01*
X125753318Y-62578628D01*
X125747468Y-62505152D01*
X125726093Y-62449343D01*
X125683458Y-62408891D01*
X125613825Y-62381491D01*
X125511460Y-62364833D01*
X125370624Y-62356611D01*
X125196245Y-62354510D01*
X124808628Y-62354510D01*
X124808628Y-62080589D01*
X126003922Y-62080589D01*
X126003922Y-62217549D01*
X126000576Y-62300116D01*
X125988826Y-62342632D01*
X125966520Y-62354510D01*
X125946654Y-62361664D01*
X125950857Y-62390135D01*
X125978971Y-62447524D01*
X126022342Y-62579055D01*
X126019270Y-62718562D01*
X125972174Y-62852235D01*
X125934971Y-62915892D01*
X125894691Y-62964447D01*
X125844291Y-62999919D01*
X125776729Y-63024326D01*
X125684965Y-63039687D01*
X125561955Y-63048018D01*
X125400659Y-63051338D01*
X125275928Y-63051765D01*
X124808628Y-63051765D01*
X124808628Y-62802746D01*
X125196245Y-62802746D01*
G36*
X124819056Y-60379024D02*
X124880348Y-60234744D01*
X124910185Y-60189301D01*
X124956036Y-60131221D01*
X124992089Y-60094762D01*
X125003832Y-60088432D01*
X125029889Y-60106307D01*
X125074105Y-60152050D01*
X125104965Y-60188672D01*
X125185520Y-60288912D01*
X125118918Y-60368065D01*
X125075921Y-60429231D01*
X125061079Y-60488871D01*
X125064704Y-60557128D01*
X125091652Y-60665518D01*
X125147587Y-60740128D01*
X125238014Y-60785470D01*
X125368435Y-60806053D01*
X125368517Y-60806058D01*
X125514290Y-60804278D01*
X125621245Y-60776613D01*
X125694064Y-60721429D01*
X125718723Y-60683808D01*
X125749431Y-60583895D01*
X125749449Y-60477178D01*
X125719655Y-60384331D01*
X125705098Y-60362353D01*
X125667914Y-60307235D01*
X125661820Y-60264141D01*
X125689496Y-60217665D01*
X125739205Y-60166284D01*
X125823116Y-60084954D01*
X125897546Y-60175251D01*
X125981549Y-60314764D01*
X126022947Y-60472088D01*
X126019950Y-60636497D01*
X125992500Y-60744469D01*
X125924620Y-60870669D01*
X125817831Y-60971599D01*
X125742451Y-61017452D01*
X125634297Y-61054590D01*
X125497318Y-61073173D01*
X125348864Y-61073316D01*
X125206281Y-61055135D01*
X125086918Y-61018745D01*
X125074680Y-61013013D01*
X124954655Y-60928135D01*
X124867267Y-60813218D01*
X124814329Y-60677341D01*
X124797654Y-60529583D01*
X124819056Y-60379024D01*
X124819056Y-60379024D01*
G37*
X124819056Y-60379024D02*
X124880348Y-60234744D01*
X124910185Y-60189301D01*
X124956036Y-60131221D01*
X124992089Y-60094762D01*
X125003832Y-60088432D01*
X125029889Y-60106307D01*
X125074105Y-60152050D01*
X125104965Y-60188672D01*
X125185520Y-60288912D01*
X125118918Y-60368065D01*
X125075921Y-60429231D01*
X125061079Y-60488871D01*
X125064704Y-60557128D01*
X125091652Y-60665518D01*
X125147587Y-60740128D01*
X125238014Y-60785470D01*
X125368435Y-60806053D01*
X125368517Y-60806058D01*
X125514290Y-60804278D01*
X125621245Y-60776613D01*
X125694064Y-60721429D01*
X125718723Y-60683808D01*
X125749431Y-60583895D01*
X125749449Y-60477178D01*
X125719655Y-60384331D01*
X125705098Y-60362353D01*
X125667914Y-60307235D01*
X125661820Y-60264141D01*
X125689496Y-60217665D01*
X125739205Y-60166284D01*
X125823116Y-60084954D01*
X125897546Y-60175251D01*
X125981549Y-60314764D01*
X126022947Y-60472088D01*
X126019950Y-60636497D01*
X125992500Y-60744469D01*
X125924620Y-60870669D01*
X125817831Y-60971599D01*
X125742451Y-61017452D01*
X125634297Y-61054590D01*
X125497318Y-61073173D01*
X125348864Y-61073316D01*
X125206281Y-61055135D01*
X125086918Y-61018745D01*
X125074680Y-61013013D01*
X124954655Y-60928135D01*
X124867267Y-60813218D01*
X124814329Y-60677341D01*
X124797654Y-60529583D01*
X124819056Y-60379024D01*
G36*
X124804355Y-59466713D02*
X124819845Y-59402949D01*
X124876569Y-59280700D01*
X124963202Y-59176166D01*
X125067074Y-59103820D01*
X125090396Y-59093881D01*
X125151484Y-59080246D01*
X125241853Y-59070702D01*
X125333190Y-59067451D01*
X125505882Y-59067451D01*
X125505882Y-59428530D01*
X125506445Y-59577454D01*
X125509864Y-59682368D01*
X125518731Y-59749063D01*
X125535641Y-59783334D01*
X125563189Y-59790972D01*
X125603968Y-59777771D01*
X125651683Y-59754123D01*
X125731314Y-59688157D01*
X125770987Y-59596488D01*
X125769695Y-59484445D01*
X125726514Y-59357528D01*
X125673224Y-59247842D01*
X125745191Y-59156827D01*
X125817157Y-59065812D01*
X125896269Y-59151437D01*
X125971017Y-59265750D01*
X126016084Y-59406334D01*
X126028696Y-59557551D01*
X126006079Y-59703764D01*
X125998405Y-59727353D01*
X125931296Y-59855859D01*
X125831247Y-59951449D01*
X125695271Y-60016139D01*
X125520380Y-60051943D01*
X125516632Y-60052360D01*
X125326032Y-60055566D01*
X125258035Y-60042607D01*
X125258035Y-59789608D01*
X125268491Y-59766373D01*
X125276500Y-59703290D01*
X125281073Y-59610294D01*
X125281765Y-59551362D01*
X125281332Y-59441463D01*
X125278578Y-59372748D01*
X125271321Y-59336595D01*
X125257376Y-59324385D01*
X125234562Y-59327496D01*
X125225735Y-59330106D01*
X125142800Y-59374656D01*
X125075960Y-59444721D01*
X125046589Y-59506554D01*
X125048362Y-59588699D01*
X125084990Y-59671938D01*
X125145634Y-59741762D01*
X125219456Y-59783663D01*
X125258035Y-59789608D01*
X125258035Y-60042607D01*
X125158395Y-60023615D01*
X125017711Y-59960227D01*
X124907974Y-59869122D01*
X124833174Y-59754022D01*
X124797304Y-59618645D01*
X124804355Y-59466713D01*
X124804355Y-59466713D01*
G37*
X124804355Y-59466713D02*
X124819845Y-59402949D01*
X124876569Y-59280700D01*
X124963202Y-59176166D01*
X125067074Y-59103820D01*
X125090396Y-59093881D01*
X125151484Y-59080246D01*
X125241853Y-59070702D01*
X125333190Y-59067451D01*
X125505882Y-59067451D01*
X125505882Y-59428530D01*
X125506445Y-59577454D01*
X125509864Y-59682368D01*
X125518731Y-59749063D01*
X125535641Y-59783334D01*
X125563189Y-59790972D01*
X125603968Y-59777771D01*
X125651683Y-59754123D01*
X125731314Y-59688157D01*
X125770987Y-59596488D01*
X125769695Y-59484445D01*
X125726514Y-59357528D01*
X125673224Y-59247842D01*
X125745191Y-59156827D01*
X125817157Y-59065812D01*
X125896269Y-59151437D01*
X125971017Y-59265750D01*
X126016084Y-59406334D01*
X126028696Y-59557551D01*
X126006079Y-59703764D01*
X125998405Y-59727353D01*
X125931296Y-59855859D01*
X125831247Y-59951449D01*
X125695271Y-60016139D01*
X125520380Y-60051943D01*
X125516632Y-60052360D01*
X125326032Y-60055566D01*
X125258035Y-60042607D01*
X125258035Y-59789608D01*
X125268491Y-59766373D01*
X125276500Y-59703290D01*
X125281073Y-59610294D01*
X125281765Y-59551362D01*
X125281332Y-59441463D01*
X125278578Y-59372748D01*
X125271321Y-59336595D01*
X125257376Y-59324385D01*
X125234562Y-59327496D01*
X125225735Y-59330106D01*
X125142800Y-59374656D01*
X125075960Y-59444721D01*
X125046589Y-59506554D01*
X125048362Y-59588699D01*
X125084990Y-59671938D01*
X125145634Y-59741762D01*
X125219456Y-59783663D01*
X125258035Y-59789608D01*
X125258035Y-60042607D01*
X125158395Y-60023615D01*
X125017711Y-59960227D01*
X124907974Y-59869122D01*
X124833174Y-59754022D01*
X124797304Y-59618645D01*
X124804355Y-59466713D01*
G36*
X124829199Y-66263240D02*
X124858802Y-66201264D01*
X124901561Y-66141241D01*
X124950775Y-66095514D01*
X125013544Y-66062207D01*
X125096971Y-66039445D01*
X125208159Y-66025353D01*
X125354209Y-66018058D01*
X125542223Y-66015682D01*
X125561912Y-66015645D01*
X126003922Y-66015098D01*
X126003922Y-66289020D01*
X125596435Y-66289020D01*
X125445471Y-66289215D01*
X125336056Y-66290564D01*
X125259933Y-66294212D01*
X125208848Y-66301304D01*
X125174545Y-66312987D01*
X125148768Y-66330406D01*
X125123298Y-66354671D01*
X125068571Y-66439565D01*
X125058416Y-66532239D01*
X125093017Y-66620527D01*
X125118770Y-66651230D01*
X125142982Y-66673771D01*
X125168912Y-66689954D01*
X125204708Y-66700832D01*
X125258519Y-66707458D01*
X125338493Y-66710885D01*
X125452779Y-66712166D01*
X125591907Y-66712353D01*
X126003922Y-66712353D01*
X126003922Y-66986275D01*
X124808628Y-66986275D01*
X124808628Y-66849314D01*
X124811879Y-66767084D01*
X124823426Y-66724660D01*
X124845952Y-66712359D01*
X124846620Y-66712353D01*
X124868681Y-66706646D01*
X124866177Y-66681473D01*
X124841937Y-66631422D01*
X124806271Y-66517906D01*
X124802305Y-66388055D01*
X124829199Y-66263240D01*
X124829199Y-66263240D01*
G37*
X124829199Y-66263240D02*
X124858802Y-66201264D01*
X124901561Y-66141241D01*
X124950775Y-66095514D01*
X125013544Y-66062207D01*
X125096971Y-66039445D01*
X125208159Y-66025353D01*
X125354209Y-66018058D01*
X125542223Y-66015682D01*
X125561912Y-66015645D01*
X126003922Y-66015098D01*
X126003922Y-66289020D01*
X125596435Y-66289020D01*
X125445471Y-66289215D01*
X125336056Y-66290564D01*
X125259933Y-66294212D01*
X125208848Y-66301304D01*
X125174545Y-66312987D01*
X125148768Y-66330406D01*
X125123298Y-66354671D01*
X125068571Y-66439565D01*
X125058416Y-66532239D01*
X125093017Y-66620527D01*
X125118770Y-66651230D01*
X125142982Y-66673771D01*
X125168912Y-66689954D01*
X125204708Y-66700832D01*
X125258519Y-66707458D01*
X125338493Y-66710885D01*
X125452779Y-66712166D01*
X125591907Y-66712353D01*
X126003922Y-66712353D01*
X126003922Y-66986275D01*
X124808628Y-66986275D01*
X124808628Y-66849314D01*
X124811879Y-66767084D01*
X124823426Y-66724660D01*
X124845952Y-66712359D01*
X124846620Y-66712353D01*
X124868681Y-66706646D01*
X124866177Y-66681473D01*
X124841937Y-66631422D01*
X124806271Y-66517906D01*
X124802305Y-66388055D01*
X124829199Y-66263240D01*
G36*
X124807472Y-61206363D02*
X124833641Y-61120710D01*
X124866707Y-61065563D01*
X124892855Y-61047599D01*
X124923852Y-61052543D01*
X124972547Y-61084628D01*
X125007035Y-61111757D01*
X125069383Y-61167683D01*
X125095615Y-61209701D01*
X125093903Y-61245520D01*
X125066863Y-61351776D01*
X125068091Y-61429811D01*
X125098735Y-61493180D01*
X125116670Y-61514454D01*
X125179779Y-61582549D01*
X126003922Y-61582549D01*
X126003922Y-61856471D01*
X124808628Y-61856471D01*
X124808628Y-61719510D01*
X124811879Y-61637281D01*
X124823426Y-61594856D01*
X124845952Y-61582555D01*
X124846620Y-61582549D01*
X124870215Y-61576740D01*
X124867138Y-61550469D01*
X124850115Y-61514069D01*
X124818439Y-61438889D01*
X124799381Y-61377842D01*
X124794496Y-61299292D01*
X124807472Y-61206363D01*
X124807472Y-61206363D01*
G37*
X124807472Y-61206363D02*
X124833641Y-61120710D01*
X124866707Y-61065563D01*
X124892855Y-61047599D01*
X124923852Y-61052543D01*
X124972547Y-61084628D01*
X125007035Y-61111757D01*
X125069383Y-61167683D01*
X125095615Y-61209701D01*
X125093903Y-61245520D01*
X125066863Y-61351776D01*
X125068091Y-61429811D01*
X125098735Y-61493180D01*
X125116670Y-61514454D01*
X125179779Y-61582549D01*
X126003922Y-61582549D01*
X126003922Y-61856471D01*
X124808628Y-61856471D01*
X124808628Y-61719510D01*
X124811879Y-61637281D01*
X124823426Y-61594856D01*
X124845952Y-61582555D01*
X124846620Y-61582549D01*
X124870215Y-61576740D01*
X124867138Y-61550469D01*
X124850115Y-61514069D01*
X124818439Y-61438889D01*
X124799381Y-61377842D01*
X124794496Y-61299292D01*
X124807472Y-61206363D01*
G36*
X116553172Y-64023465D02*
X117150363Y-63910883D01*
X117321610Y-63495469D01*
X117492857Y-63080056D01*
X117153978Y-62581698D01*
X117059622Y-62442132D01*
X116975375Y-62315972D01*
X116905083Y-62209105D01*
X116852592Y-62127418D01*
X116821749Y-62076799D01*
X116815098Y-62063014D01*
X116832203Y-62038180D01*
X116879489Y-61985112D01*
X116950917Y-61909760D01*
X117040445Y-61818071D01*
X117142034Y-61715993D01*
X117249643Y-61609474D01*
X117357232Y-61504464D01*
X117458760Y-61406909D01*
X117548186Y-61322758D01*
X117619471Y-61257960D01*
X117666573Y-61218462D01*
X117682337Y-61209020D01*
X117711398Y-61222609D01*
X117775066Y-61260707D01*
X117867112Y-61319306D01*
X117981309Y-61394403D01*
X118111429Y-61481991D01*
X118185646Y-61532746D01*
X118321167Y-61625255D01*
X118443461Y-61707460D01*
X118546440Y-61775370D01*
X118624018Y-61825000D01*
X118670106Y-61852360D01*
X118679792Y-61856471D01*
X118707319Y-61847151D01*
X118771473Y-61821746D01*
X118863235Y-61784089D01*
X118973584Y-61738014D01*
X119093500Y-61687354D01*
X119213964Y-61635941D01*
X119325954Y-61587611D01*
X119420452Y-61546194D01*
X119488437Y-61515526D01*
X119520888Y-61499438D01*
X119522165Y-61498489D01*
X119528362Y-61473228D01*
X119542185Y-61405954D01*
X119562277Y-61303640D01*
X119587279Y-61173259D01*
X119615831Y-61021784D01*
X119632296Y-60933406D01*
X119663114Y-60771548D01*
X119692439Y-60625351D01*
X119718666Y-60502213D01*
X119740191Y-60409531D01*
X119755410Y-60354699D01*
X119760238Y-60343677D01*
X119792919Y-60332881D01*
X119866730Y-60324171D01*
X119973037Y-60317540D01*
X120103212Y-60312982D01*
X120248621Y-60310491D01*
X120400635Y-60310062D01*
X120550622Y-60311689D01*
X120689951Y-60315365D01*
X120809990Y-60321085D01*
X120902110Y-60328842D01*
X120957677Y-60338632D01*
X120969245Y-60344504D01*
X120983110Y-60379601D01*
X121002933Y-60453972D01*
X121026384Y-60557777D01*
X121051136Y-60681181D01*
X121059143Y-60724259D01*
X121097186Y-60931953D01*
X121127824Y-61096016D01*
X121152274Y-61221870D01*
X121171754Y-61314935D01*
X121187481Y-61380633D01*
X121200673Y-61424383D01*
X121212549Y-61451608D01*
X121224325Y-61467728D01*
X121226653Y-61469983D01*
X121264145Y-61492497D01*
X121337110Y-61526842D01*
X121436612Y-61569589D01*
X121553718Y-61617308D01*
X121679493Y-61666570D01*
X121805002Y-61713945D01*
X121921310Y-61756005D01*
X122019484Y-61789320D01*
X122090588Y-61810459D01*
X122125687Y-61815995D01*
X122126917Y-61815534D01*
X122155606Y-61796777D01*
X122218730Y-61754224D01*
X122309718Y-61692347D01*
X122422000Y-61615618D01*
X122549005Y-61528509D01*
X122585098Y-61503701D01*
X122715948Y-61415247D01*
X122835336Y-61337412D01*
X122936407Y-61274434D01*
X123012304Y-61230555D01*
X123056172Y-61210015D01*
X123061562Y-61209020D01*
X123089889Y-61226278D01*
X123146006Y-61273964D01*
X123223882Y-61345950D01*
X123317485Y-61436103D01*
X123420786Y-61538295D01*
X123527751Y-61646394D01*
X123632351Y-61754272D01*
X123728554Y-61855796D01*
X123810329Y-61944838D01*
X123871645Y-62015267D01*
X123906471Y-62060953D01*
X123912157Y-62073591D01*
X123898765Y-62103009D01*
X123862644Y-62163239D01*
X123809881Y-62244470D01*
X123767412Y-62306970D01*
X123689485Y-62420215D01*
X123597729Y-62554326D01*
X123506120Y-62688845D01*
X123457091Y-62761167D01*
X123291515Y-63005962D01*
X123402620Y-63211449D01*
X123451293Y-63305064D01*
X123489126Y-63384670D01*
X123510703Y-63438533D01*
X123513706Y-63452243D01*
X123491538Y-63468730D01*
X123428894Y-63501255D01*
X123331554Y-63547391D01*
X123205294Y-63604710D01*
X123055895Y-63670784D01*
X122889133Y-63743185D01*
X122710787Y-63819484D01*
X122526636Y-63897254D01*
X122342457Y-63974066D01*
X122164030Y-64047494D01*
X121997132Y-64115108D01*
X121847542Y-64174480D01*
X121721038Y-64223184D01*
X121623399Y-64258790D01*
X121560402Y-64278870D01*
X121538766Y-64282100D01*
X121511169Y-64256504D01*
X121466370Y-64200461D01*
X121413679Y-64125689D01*
X121409510Y-64119413D01*
X121254814Y-63926155D01*
X121074336Y-63770326D01*
X120873847Y-63653276D01*
X120659119Y-63576355D01*
X120435922Y-63540914D01*
X120210026Y-63548303D01*
X119987204Y-63599873D01*
X119773224Y-63696974D01*
X119726409Y-63725542D01*
X119537363Y-63874132D01*
X119385557Y-64049673D01*
X119271779Y-64246090D01*
X119196820Y-64457307D01*
X119161467Y-64677247D01*
X119166512Y-64899837D01*
X119212744Y-65118999D01*
X119300951Y-65328658D01*
X119431924Y-65522739D01*
X119485082Y-65582774D01*
X119651484Y-65735565D01*
X119826657Y-65846903D01*
X120023011Y-65923277D01*
X120217462Y-65965813D01*
X120436087Y-65976314D01*
X120655797Y-65941299D01*
X120869165Y-65864327D01*
X121068767Y-65748953D01*
X121247174Y-65598734D01*
X121396962Y-65417227D01*
X121412751Y-65393373D01*
X121464457Y-65317799D01*
X121509257Y-65260349D01*
X121537862Y-65232883D01*
X121538766Y-65232483D01*
X121569709Y-65238380D01*
X121639936Y-65261755D01*
X121743670Y-65300179D01*
X121875135Y-65351223D01*
X122028552Y-65412458D01*
X122198146Y-65481456D01*
X122378138Y-65555786D01*
X122562753Y-65633022D01*
X122746213Y-65710732D01*
X122922741Y-65786489D01*
X123086559Y-65857863D01*
X123231892Y-65922426D01*
X123352962Y-65977748D01*
X123443992Y-66021400D01*
X123499205Y-66050954D01*
X123513706Y-66062856D01*
X123502414Y-66099223D01*
X123472130Y-66167270D01*
X123428265Y-66255263D01*
X123402620Y-66303649D01*
X123291515Y-66509137D01*
X123457091Y-66753932D01*
X123541915Y-66878894D01*
X123635261Y-67015705D01*
X123723153Y-67143911D01*
X123767412Y-67208129D01*
X123828063Y-67298449D01*
X123876126Y-67374929D01*
X123905515Y-67427593D01*
X123911727Y-67444698D01*
X123894968Y-67469595D01*
X123848181Y-67524695D01*
X123776225Y-67604657D01*
X123683957Y-67704139D01*
X123576235Y-67817800D01*
X123507071Y-67889685D01*
X123383502Y-68015449D01*
X123272979Y-68124137D01*
X123180230Y-68211355D01*
X123109982Y-68272711D01*
X123066965Y-68303809D01*
X123058235Y-68306792D01*
X123025029Y-68292947D01*
X122957887Y-68254688D01*
X122863608Y-68196258D01*
X122748990Y-68121903D01*
X122620828Y-68035865D01*
X122585098Y-68011397D01*
X122455234Y-67922245D01*
X122338314Y-67842262D01*
X122240907Y-67775920D01*
X122169584Y-67727689D01*
X122130915Y-67702043D01*
X122126917Y-67699565D01*
X122096100Y-67703271D01*
X122028344Y-67722939D01*
X121932584Y-67755140D01*
X121817754Y-67796445D01*
X121692789Y-67843425D01*
X121566624Y-67892651D01*
X121448193Y-67940692D01*
X121346430Y-67984119D01*
X121270271Y-68019504D01*
X121228649Y-68043416D01*
X121226653Y-68045116D01*
X121214758Y-68059738D01*
X121202995Y-68084435D01*
X121190146Y-68124628D01*
X121174994Y-68185737D01*
X121156321Y-68273183D01*
X121132910Y-68392388D01*
X121103542Y-68548773D01*
X121067000Y-68747757D01*
X121059143Y-68790840D01*
X121034472Y-68918529D01*
X121010338Y-69029847D01*
X120989069Y-69114955D01*
X120972993Y-69164017D01*
X120969245Y-69170595D01*
X120936018Y-69181436D01*
X120861766Y-69190247D01*
X120755121Y-69197024D01*
X120624712Y-69201760D01*
X120479172Y-69204450D01*
X120327131Y-69205087D01*
X120177221Y-69203666D01*
X120038073Y-69200180D01*
X119918317Y-69194624D01*
X119826586Y-69186992D01*
X119771511Y-69177278D01*
X119760238Y-69171422D01*
X119748868Y-69138820D01*
X119730369Y-69064582D01*
X119706347Y-68956104D01*
X119678407Y-68820783D01*
X119648153Y-68666015D01*
X119632296Y-68581692D01*
X119602389Y-68421704D01*
X119575295Y-68279033D01*
X119552376Y-68160652D01*
X119534988Y-68073535D01*
X119524492Y-68024655D01*
X119522165Y-68016610D01*
X119495931Y-68003013D01*
X119432740Y-67974271D01*
X119341622Y-67934215D01*
X119231602Y-67886676D01*
X119111710Y-67835485D01*
X118990972Y-67784474D01*
X118878416Y-67737474D01*
X118783071Y-67698316D01*
X118713962Y-67670831D01*
X118680119Y-67658851D01*
X118678640Y-67658628D01*
X118651942Y-67672209D01*
X118590505Y-67710285D01*
X118500434Y-67768853D01*
X118387835Y-67843912D01*
X118258815Y-67931460D01*
X118184706Y-67982353D01*
X118048822Y-68075091D01*
X117925454Y-68157459D01*
X117820842Y-68225439D01*
X117741228Y-68275012D01*
X117692852Y-68302158D01*
X117682007Y-68306079D01*
X117656765Y-68289225D01*
X117602869Y-68242632D01*
X117526358Y-68172251D01*
X117433268Y-68084035D01*
X117329640Y-67983935D01*
X117221509Y-67877902D01*
X117114915Y-67771889D01*
X117015895Y-67671848D01*
X116930487Y-67583730D01*
X116864730Y-67513487D01*
X116824661Y-67467072D01*
X116815098Y-67451544D01*
X116828545Y-67426261D01*
X116866320Y-67365789D01*
X116924580Y-67276008D01*
X116999479Y-67162797D01*
X117087170Y-67032036D01*
X117153978Y-66933400D01*
X117492857Y-66435043D01*
X117321610Y-66019629D01*
X117150363Y-65604216D01*
X116553172Y-65491634D01*
X115955980Y-65379051D01*
X115955980Y-64136048D01*
X116553172Y-64023465D01*
X116553172Y-64023465D01*
G37*
X116553172Y-64023465D02*
X117150363Y-63910883D01*
X117321610Y-63495469D01*
X117492857Y-63080056D01*
X117153978Y-62581698D01*
X117059622Y-62442132D01*
X116975375Y-62315972D01*
X116905083Y-62209105D01*
X116852592Y-62127418D01*
X116821749Y-62076799D01*
X116815098Y-62063014D01*
X116832203Y-62038180D01*
X116879489Y-61985112D01*
X116950917Y-61909760D01*
X117040445Y-61818071D01*
X117142034Y-61715993D01*
X117249643Y-61609474D01*
X117357232Y-61504464D01*
X117458760Y-61406909D01*
X117548186Y-61322758D01*
X117619471Y-61257960D01*
X117666573Y-61218462D01*
X117682337Y-61209020D01*
X117711398Y-61222609D01*
X117775066Y-61260707D01*
X117867112Y-61319306D01*
X117981309Y-61394403D01*
X118111429Y-61481991D01*
X118185646Y-61532746D01*
X118321167Y-61625255D01*
X118443461Y-61707460D01*
X118546440Y-61775370D01*
X118624018Y-61825000D01*
X118670106Y-61852360D01*
X118679792Y-61856471D01*
X118707319Y-61847151D01*
X118771473Y-61821746D01*
X118863235Y-61784089D01*
X118973584Y-61738014D01*
X119093500Y-61687354D01*
X119213964Y-61635941D01*
X119325954Y-61587611D01*
X119420452Y-61546194D01*
X119488437Y-61515526D01*
X119520888Y-61499438D01*
X119522165Y-61498489D01*
X119528362Y-61473228D01*
X119542185Y-61405954D01*
X119562277Y-61303640D01*
X119587279Y-61173259D01*
X119615831Y-61021784D01*
X119632296Y-60933406D01*
X119663114Y-60771548D01*
X119692439Y-60625351D01*
X119718666Y-60502213D01*
X119740191Y-60409531D01*
X119755410Y-60354699D01*
X119760238Y-60343677D01*
X119792919Y-60332881D01*
X119866730Y-60324171D01*
X119973037Y-60317540D01*
X120103212Y-60312982D01*
X120248621Y-60310491D01*
X120400635Y-60310062D01*
X120550622Y-60311689D01*
X120689951Y-60315365D01*
X120809990Y-60321085D01*
X120902110Y-60328842D01*
X120957677Y-60338632D01*
X120969245Y-60344504D01*
X120983110Y-60379601D01*
X121002933Y-60453972D01*
X121026384Y-60557777D01*
X121051136Y-60681181D01*
X121059143Y-60724259D01*
X121097186Y-60931953D01*
X121127824Y-61096016D01*
X121152274Y-61221870D01*
X121171754Y-61314935D01*
X121187481Y-61380633D01*
X121200673Y-61424383D01*
X121212549Y-61451608D01*
X121224325Y-61467728D01*
X121226653Y-61469983D01*
X121264145Y-61492497D01*
X121337110Y-61526842D01*
X121436612Y-61569589D01*
X121553718Y-61617308D01*
X121679493Y-61666570D01*
X121805002Y-61713945D01*
X121921310Y-61756005D01*
X122019484Y-61789320D01*
X122090588Y-61810459D01*
X122125687Y-61815995D01*
X122126917Y-61815534D01*
X122155606Y-61796777D01*
X122218730Y-61754224D01*
X122309718Y-61692347D01*
X122422000Y-61615618D01*
X122549005Y-61528509D01*
X122585098Y-61503701D01*
X122715948Y-61415247D01*
X122835336Y-61337412D01*
X122936407Y-61274434D01*
X123012304Y-61230555D01*
X123056172Y-61210015D01*
X123061562Y-61209020D01*
X123089889Y-61226278D01*
X123146006Y-61273964D01*
X123223882Y-61345950D01*
X123317485Y-61436103D01*
X123420786Y-61538295D01*
X123527751Y-61646394D01*
X123632351Y-61754272D01*
X123728554Y-61855796D01*
X123810329Y-61944838D01*
X123871645Y-62015267D01*
X123906471Y-62060953D01*
X123912157Y-62073591D01*
X123898765Y-62103009D01*
X123862644Y-62163239D01*
X123809881Y-62244470D01*
X123767412Y-62306970D01*
X123689485Y-62420215D01*
X123597729Y-62554326D01*
X123506120Y-62688845D01*
X123457091Y-62761167D01*
X123291515Y-63005962D01*
X123402620Y-63211449D01*
X123451293Y-63305064D01*
X123489126Y-63384670D01*
X123510703Y-63438533D01*
X123513706Y-63452243D01*
X123491538Y-63468730D01*
X123428894Y-63501255D01*
X123331554Y-63547391D01*
X123205294Y-63604710D01*
X123055895Y-63670784D01*
X122889133Y-63743185D01*
X122710787Y-63819484D01*
X122526636Y-63897254D01*
X122342457Y-63974066D01*
X122164030Y-64047494D01*
X121997132Y-64115108D01*
X121847542Y-64174480D01*
X121721038Y-64223184D01*
X121623399Y-64258790D01*
X121560402Y-64278870D01*
X121538766Y-64282100D01*
X121511169Y-64256504D01*
X121466370Y-64200461D01*
X121413679Y-64125689D01*
X121409510Y-64119413D01*
X121254814Y-63926155D01*
X121074336Y-63770326D01*
X120873847Y-63653276D01*
X120659119Y-63576355D01*
X120435922Y-63540914D01*
X120210026Y-63548303D01*
X119987204Y-63599873D01*
X119773224Y-63696974D01*
X119726409Y-63725542D01*
X119537363Y-63874132D01*
X119385557Y-64049673D01*
X119271779Y-64246090D01*
X119196820Y-64457307D01*
X119161467Y-64677247D01*
X119166512Y-64899837D01*
X119212744Y-65118999D01*
X119300951Y-65328658D01*
X119431924Y-65522739D01*
X119485082Y-65582774D01*
X119651484Y-65735565D01*
X119826657Y-65846903D01*
X120023011Y-65923277D01*
X120217462Y-65965813D01*
X120436087Y-65976314D01*
X120655797Y-65941299D01*
X120869165Y-65864327D01*
X121068767Y-65748953D01*
X121247174Y-65598734D01*
X121396962Y-65417227D01*
X121412751Y-65393373D01*
X121464457Y-65317799D01*
X121509257Y-65260349D01*
X121537862Y-65232883D01*
X121538766Y-65232483D01*
X121569709Y-65238380D01*
X121639936Y-65261755D01*
X121743670Y-65300179D01*
X121875135Y-65351223D01*
X122028552Y-65412458D01*
X122198146Y-65481456D01*
X122378138Y-65555786D01*
X122562753Y-65633022D01*
X122746213Y-65710732D01*
X122922741Y-65786489D01*
X123086559Y-65857863D01*
X123231892Y-65922426D01*
X123352962Y-65977748D01*
X123443992Y-66021400D01*
X123499205Y-66050954D01*
X123513706Y-66062856D01*
X123502414Y-66099223D01*
X123472130Y-66167270D01*
X123428265Y-66255263D01*
X123402620Y-66303649D01*
X123291515Y-66509137D01*
X123457091Y-66753932D01*
X123541915Y-66878894D01*
X123635261Y-67015705D01*
X123723153Y-67143911D01*
X123767412Y-67208129D01*
X123828063Y-67298449D01*
X123876126Y-67374929D01*
X123905515Y-67427593D01*
X123911727Y-67444698D01*
X123894968Y-67469595D01*
X123848181Y-67524695D01*
X123776225Y-67604657D01*
X123683957Y-67704139D01*
X123576235Y-67817800D01*
X123507071Y-67889685D01*
X123383502Y-68015449D01*
X123272979Y-68124137D01*
X123180230Y-68211355D01*
X123109982Y-68272711D01*
X123066965Y-68303809D01*
X123058235Y-68306792D01*
X123025029Y-68292947D01*
X122957887Y-68254688D01*
X122863608Y-68196258D01*
X122748990Y-68121903D01*
X122620828Y-68035865D01*
X122585098Y-68011397D01*
X122455234Y-67922245D01*
X122338314Y-67842262D01*
X122240907Y-67775920D01*
X122169584Y-67727689D01*
X122130915Y-67702043D01*
X122126917Y-67699565D01*
X122096100Y-67703271D01*
X122028344Y-67722939D01*
X121932584Y-67755140D01*
X121817754Y-67796445D01*
X121692789Y-67843425D01*
X121566624Y-67892651D01*
X121448193Y-67940692D01*
X121346430Y-67984119D01*
X121270271Y-68019504D01*
X121228649Y-68043416D01*
X121226653Y-68045116D01*
X121214758Y-68059738D01*
X121202995Y-68084435D01*
X121190146Y-68124628D01*
X121174994Y-68185737D01*
X121156321Y-68273183D01*
X121132910Y-68392388D01*
X121103542Y-68548773D01*
X121067000Y-68747757D01*
X121059143Y-68790840D01*
X121034472Y-68918529D01*
X121010338Y-69029847D01*
X120989069Y-69114955D01*
X120972993Y-69164017D01*
X120969245Y-69170595D01*
X120936018Y-69181436D01*
X120861766Y-69190247D01*
X120755121Y-69197024D01*
X120624712Y-69201760D01*
X120479172Y-69204450D01*
X120327131Y-69205087D01*
X120177221Y-69203666D01*
X120038073Y-69200180D01*
X119918317Y-69194624D01*
X119826586Y-69186992D01*
X119771511Y-69177278D01*
X119760238Y-69171422D01*
X119748868Y-69138820D01*
X119730369Y-69064582D01*
X119706347Y-68956104D01*
X119678407Y-68820783D01*
X119648153Y-68666015D01*
X119632296Y-68581692D01*
X119602389Y-68421704D01*
X119575295Y-68279033D01*
X119552376Y-68160652D01*
X119534988Y-68073535D01*
X119524492Y-68024655D01*
X119522165Y-68016610D01*
X119495931Y-68003013D01*
X119432740Y-67974271D01*
X119341622Y-67934215D01*
X119231602Y-67886676D01*
X119111710Y-67835485D01*
X118990972Y-67784474D01*
X118878416Y-67737474D01*
X118783071Y-67698316D01*
X118713962Y-67670831D01*
X118680119Y-67658851D01*
X118678640Y-67658628D01*
X118651942Y-67672209D01*
X118590505Y-67710285D01*
X118500434Y-67768853D01*
X118387835Y-67843912D01*
X118258815Y-67931460D01*
X118184706Y-67982353D01*
X118048822Y-68075091D01*
X117925454Y-68157459D01*
X117820842Y-68225439D01*
X117741228Y-68275012D01*
X117692852Y-68302158D01*
X117682007Y-68306079D01*
X117656765Y-68289225D01*
X117602869Y-68242632D01*
X117526358Y-68172251D01*
X117433268Y-68084035D01*
X117329640Y-67983935D01*
X117221509Y-67877902D01*
X117114915Y-67771889D01*
X117015895Y-67671848D01*
X116930487Y-67583730D01*
X116864730Y-67513487D01*
X116824661Y-67467072D01*
X116815098Y-67451544D01*
X116828545Y-67426261D01*
X116866320Y-67365789D01*
X116924580Y-67276008D01*
X116999479Y-67162797D01*
X117087170Y-67032036D01*
X117153978Y-66933400D01*
X117492857Y-66435043D01*
X117321610Y-66019629D01*
X117150363Y-65604216D01*
X116553172Y-65491634D01*
X115955980Y-65379051D01*
X115955980Y-64136048D01*
X116553172Y-64023465D01*
D15*
X142938667Y-65174762D02*
X143081524Y-65222381D01*
X143319620Y-65222381D01*
X143414858Y-65174762D01*
X143462477Y-65127143D01*
X143510096Y-65031905D01*
X143510096Y-64936667D01*
X143462477Y-64841429D01*
X143414858Y-64793810D01*
X143319620Y-64746190D01*
X143129143Y-64698571D01*
X143033905Y-64650952D01*
X142986286Y-64603333D01*
X142938667Y-64508095D01*
X142938667Y-64412857D01*
X142986286Y-64317619D01*
X143033905Y-64270000D01*
X143129143Y-64222381D01*
X143367239Y-64222381D01*
X143510096Y-64270000D01*
X143843429Y-64222381D02*
X144081524Y-65222381D01*
X144272001Y-64508095D01*
X144462477Y-65222381D01*
X144700572Y-64222381D01*
X145605334Y-65222381D02*
X145033905Y-65222381D01*
X145319619Y-65222381D02*
X145319619Y-64222381D01*
X145224381Y-64365238D01*
X145129143Y-64460476D01*
X145033905Y-64508095D01*
D18*
G36*
X149733000Y-107188000D02*
X128397000Y-107188000D01*
X128397000Y-103632000D01*
X149733000Y-103632000D01*
X149733000Y-107188000D01*
X149733000Y-107188000D01*
G37*
X149733000Y-107188000D02*
X128397000Y-107188000D01*
X128397000Y-103632000D01*
X149733000Y-103632000D01*
X149733000Y-107188000D01*
G36*
X149733000Y-102743000D02*
X128397000Y-102743000D01*
X128397000Y-99187000D01*
X149733000Y-99187000D01*
X149733000Y-102743000D01*
X149733000Y-102743000D01*
G37*
X149733000Y-102743000D02*
X128397000Y-102743000D01*
X128397000Y-99187000D01*
X149733000Y-99187000D01*
X149733000Y-102743000D01*
M02*
