M48
METRIC,TZ
T1C0.300
T2C0.800
T3C1.500
T4C1.650
T5C2.700
T6C6.100
%
G90
G05
T1
X105.664Y-83.058
X105.664Y-89.408
X109.347Y-86.741
X113.792Y-86.995
X117.221Y-91.059
X117.602Y-78.867
X117.729Y-94.107
X118.872Y-86.233
X124.714Y-86.106
X125.095Y-88.773
X126.492Y-84.328
X126.873Y-94.234
X135.636Y-77.089
X136.398Y-102.87
X137.414Y-77.089
X137.414Y-89.408
X137.541Y-99.695
X139.192Y-80.645
X140.335Y-94.488
X140.335Y-97.282
X140.335Y-107.442
X140.462Y-70.358
X142.875Y-63.627
X142.875Y-94.488
X142.875Y-97.282
X142.875Y-107.442
X143.51Y-72.898
X143.891Y-90.742
X145.542Y-68.961
X146.812Y-107.442
X147.447Y-94.234
X151.066Y-90.742
X151.765Y-82.423
X153.797Y-77.851
X153.924Y-88.646
X155.702Y-84.201
X155.956Y-90.043
X156.083Y-92.202
X156.972Y-84.201
X159.131Y-92.456
X159.512Y-82.296
X159.639Y-74.168
X160.528Y-94.615
X162.179Y-59.944
X163.195Y-93.853
X163.576Y-87.376
X164.719Y-104.775
X165.989Y-84.836
X167.386Y-70.612
X168.148Y-77.216
X168.402Y-106.426
X169.926Y-78.74
X170.18Y-82.55
X171.577Y-77.978
X178.181Y-80.772
X181.61Y-88.519
X181.61Y-96.774
T2
X128.905Y-79.375
X128.905Y-81.915
X128.905Y-84.455
X128.905Y-86.995
X136.525Y-79.375
X136.525Y-81.915
X136.525Y-84.455
X136.525Y-86.995
T3
X151.384Y-100.838
X151.384Y-104.648
X155.194Y-100.838
X155.194Y-104.648
T4
X139.517Y-61.61
X139.517Y-67.31
X144.117Y-61.61
X144.117Y-67.31
X148.717Y-61.61
X148.717Y-67.31
T5
X109.855Y-63.185
X109.855Y-103.185
X178.435Y-63.185
X178.435Y-103.185
T6
X111.125Y-73.662
X111.125Y-92.71
X177.165Y-73.662
X177.165Y-92.71
T0
M30
