G04 #@! TF.FileFunction,Copper,L1,Top,Signal*
%FSLAX46Y46*%
G04 Gerber Fmt 4.6, Leading zero omitted, Abs format (unit mm)*
G04 Created by KiCad (PCBNEW 4.0.5) date 12/26/17 18:41:22*
%MOMM*%
%LPD*%
G01*
G04 APERTURE LIST*
%ADD10C,0.100000*%
%ADD11C,0.600000*%
%ADD12C,2.000000*%
%ADD13C,10.160000*%
%ADD14R,1.600000X1.600000*%
%ADD15O,1.600000X1.600000*%
%ADD16R,2.500000X2.500000*%
%ADD17C,2.500000*%
%ADD18C,3.000000*%
%ADD19C,0.500000*%
%ADD20C,0.254000*%
G04 APERTURE END LIST*
D10*
D11*
X113157000Y-80137000D03*
X109220000Y-86868000D03*
X112014000Y-86614000D03*
X105664000Y-89408000D03*
X117348000Y-84328000D03*
X147447000Y-94234000D03*
X159131000Y-92456000D03*
X146812000Y-107442000D03*
D12*
X155194000Y-100838000D03*
X151384000Y-100838000D03*
X155194000Y-104648000D03*
X151384000Y-104648000D03*
D11*
X167386000Y-70612000D03*
X168148000Y-77216000D03*
X142875000Y-63627000D03*
X181610000Y-96774000D03*
X168402000Y-106426000D03*
X163195000Y-93853000D03*
X164719000Y-104775000D03*
X181610000Y-88519000D03*
X178181000Y-80772000D03*
X170180000Y-82550000D03*
X171577000Y-77978000D03*
X169926000Y-78740000D03*
D13*
X177165000Y-92710000D03*
X177165000Y-73662000D03*
D11*
X151765000Y-82423000D03*
X162179000Y-59944000D03*
X160528000Y-94615000D03*
X155956000Y-90043000D03*
X153924000Y-88646000D03*
X140335000Y-97282000D03*
X142875000Y-97282000D03*
X142875000Y-107442000D03*
X140335000Y-107442000D03*
X117729000Y-94107000D03*
X117221000Y-91059000D03*
X117602000Y-76962000D03*
X126492000Y-84328000D03*
X140462000Y-70358000D03*
X143510000Y-72898000D03*
X140335000Y-94488000D03*
X159512000Y-82296000D03*
X165989000Y-84836000D03*
X145542000Y-68961000D03*
X124714000Y-86106000D03*
X137414000Y-77089000D03*
X137414000Y-89408000D03*
X143891000Y-90741500D03*
X142875000Y-94488000D03*
X163576000Y-87376000D03*
X153797000Y-77851000D03*
X155702000Y-84201000D03*
X105664000Y-83058000D03*
X137541000Y-99695000D03*
X116840000Y-87376000D03*
X139192000Y-80645000D03*
X136398000Y-102870000D03*
X135636000Y-77089000D03*
X151066500Y-90741500D03*
X156972000Y-84201000D03*
X156083000Y-92202000D03*
X159639000Y-74168000D03*
D14*
X128905000Y-79375000D03*
D15*
X136525000Y-86995000D03*
X128905000Y-81915000D03*
X136525000Y-84455000D03*
X128905000Y-84455000D03*
X136525000Y-81915000D03*
X128905000Y-86995000D03*
X136525000Y-79375000D03*
D16*
X148717000Y-67310000D03*
D17*
X144117000Y-67310000D03*
X139517000Y-67310000D03*
X148717000Y-61610000D03*
X144117000Y-61610000D03*
X139517000Y-61610000D03*
D13*
X111125000Y-92710000D03*
X111125000Y-73662000D03*
D18*
X109855000Y-103185000D03*
X178435000Y-103185000D03*
X178435000Y-63185000D03*
X109855000Y-63185000D03*
D19*
X136525000Y-84455000D02*
X136017000Y-84455000D01*
D20*
G36*
X140843000Y-60270194D02*
X140586161Y-60012907D01*
X139893595Y-59725328D01*
X139143695Y-59724674D01*
X138450628Y-60011043D01*
X137919907Y-60540839D01*
X137632328Y-61233405D01*
X137631674Y-61983305D01*
X137918043Y-62676372D01*
X138447839Y-63207093D01*
X139140405Y-63494672D01*
X139890305Y-63495326D01*
X140583372Y-63208957D01*
X140843000Y-62949782D01*
X140843000Y-65970194D01*
X140586161Y-65712907D01*
X139893595Y-65425328D01*
X139143695Y-65424674D01*
X138450628Y-65711043D01*
X137919907Y-66240839D01*
X137632328Y-66933405D01*
X137631674Y-67683305D01*
X137918043Y-68376372D01*
X138447839Y-68907093D01*
X139140405Y-69194672D01*
X139890305Y-69195326D01*
X140583372Y-68908957D01*
X140843000Y-68649782D01*
X140843000Y-72315000D01*
X128905000Y-72315000D01*
X128836413Y-72328643D01*
X128766485Y-72328643D01*
X128280478Y-72425315D01*
X128152507Y-72478323D01*
X128024537Y-72531329D01*
X127612520Y-72806630D01*
X127416630Y-73002520D01*
X127141329Y-73414538D01*
X127099250Y-73516127D01*
X127035315Y-73670478D01*
X126938642Y-74156486D01*
X126938643Y-74295000D01*
X126938642Y-74433514D01*
X127035315Y-74919522D01*
X127091230Y-75054512D01*
X127141329Y-75175462D01*
X127416630Y-75587480D01*
X127612520Y-75783370D01*
X128024537Y-76058671D01*
X128152507Y-76111677D01*
X128280478Y-76164685D01*
X128766485Y-76261357D01*
X128836413Y-76261357D01*
X128905000Y-76275000D01*
X139625000Y-76275000D01*
X139625000Y-90095000D01*
X128905000Y-90095000D01*
X128836413Y-90108643D01*
X128766485Y-90108643D01*
X128280478Y-90205315D01*
X128152508Y-90258322D01*
X128024537Y-90311329D01*
X127612520Y-90586630D01*
X127416630Y-90782520D01*
X127141329Y-91194538D01*
X127099250Y-91296128D01*
X127035315Y-91450478D01*
X126938642Y-91936486D01*
X126938643Y-92075000D01*
X126938642Y-92213514D01*
X127035315Y-92699522D01*
X127070722Y-92785000D01*
X127141329Y-92955462D01*
X127416630Y-93367480D01*
X127612520Y-93563370D01*
X128024537Y-93838671D01*
X128152507Y-93891677D01*
X128280478Y-93944685D01*
X128766485Y-94041357D01*
X128836413Y-94041357D01*
X128905000Y-94055000D01*
X140843000Y-94055000D01*
X140843000Y-99695000D01*
X140851685Y-99741159D01*
X140878965Y-99783553D01*
X140920590Y-99811994D01*
X140970000Y-99822000D01*
X142240000Y-99822000D01*
X142286159Y-99813315D01*
X142328553Y-99786035D01*
X142356994Y-99744410D01*
X142367000Y-99695000D01*
X142367000Y-93887739D01*
X142379448Y-93882583D01*
X142477917Y-93841796D01*
X171449011Y-93841796D01*
X172317234Y-95943058D01*
X173923486Y-97552116D01*
X176023229Y-98424005D01*
X178296796Y-98425989D01*
X180398058Y-97557766D01*
X182007116Y-95951514D01*
X182879005Y-93851771D01*
X182880989Y-91578204D01*
X182012766Y-89476942D01*
X180406514Y-87867884D01*
X178306771Y-86995995D01*
X176033204Y-86994011D01*
X173931942Y-87862234D01*
X172322884Y-89468486D01*
X171450995Y-91568229D01*
X171449011Y-93841796D01*
X142477917Y-93841796D01*
X142485462Y-93838671D01*
X142897480Y-93563370D01*
X143093370Y-93367480D01*
X143368671Y-92955463D01*
X143421678Y-92827492D01*
X143474685Y-92699522D01*
X143571357Y-92213515D01*
X143571357Y-92143587D01*
X143585000Y-92075000D01*
X143585000Y-83523648D01*
X143704704Y-83523648D01*
X143964487Y-84152372D01*
X144445098Y-84633822D01*
X145073368Y-84894703D01*
X145753648Y-84895296D01*
X146382372Y-84635513D01*
X146863822Y-84154902D01*
X147124703Y-83526632D01*
X147124705Y-83523648D01*
X147768704Y-83523648D01*
X148028487Y-84152372D01*
X148509098Y-84633822D01*
X149137368Y-84894703D01*
X149817648Y-84895296D01*
X150446372Y-84635513D01*
X150927822Y-84154902D01*
X151188703Y-83526632D01*
X151189296Y-82846352D01*
X150929513Y-82217628D01*
X150448902Y-81736178D01*
X149820632Y-81475297D01*
X149140352Y-81474704D01*
X148511628Y-81734487D01*
X148030178Y-82215098D01*
X147769297Y-82843368D01*
X147768704Y-83523648D01*
X147124705Y-83523648D01*
X147125296Y-82846352D01*
X146865513Y-82217628D01*
X146384902Y-81736178D01*
X145756632Y-81475297D01*
X145076352Y-81474704D01*
X144447628Y-81734487D01*
X143966178Y-82215098D01*
X143705297Y-82843368D01*
X143704704Y-83523648D01*
X143585000Y-83523648D01*
X143585000Y-74295000D01*
X143571357Y-74226413D01*
X143571357Y-74156485D01*
X143474685Y-73670478D01*
X143418770Y-73535488D01*
X143368671Y-73414537D01*
X143093370Y-73002520D01*
X142897480Y-72806630D01*
X142485462Y-72531329D01*
X142379448Y-72487417D01*
X142367000Y-72482261D01*
X142367000Y-68010819D01*
X142518043Y-68376372D01*
X143047839Y-68907093D01*
X143740405Y-69194672D01*
X144490305Y-69195326D01*
X145183372Y-68908957D01*
X145714093Y-68379161D01*
X146001672Y-67686595D01*
X146002326Y-66936695D01*
X145715957Y-66243628D01*
X145532650Y-66060000D01*
X146819560Y-66060000D01*
X146819560Y-68560000D01*
X146863838Y-68795317D01*
X147002910Y-69011441D01*
X147215110Y-69156431D01*
X147467000Y-69207440D01*
X149967000Y-69207440D01*
X150202317Y-69163162D01*
X150418441Y-69024090D01*
X150563431Y-68811890D01*
X150614440Y-68560000D01*
X150614440Y-66060000D01*
X150570162Y-65824683D01*
X150431090Y-65608559D01*
X150218890Y-65463569D01*
X149967000Y-65412560D01*
X147467000Y-65412560D01*
X147231683Y-65456838D01*
X147015559Y-65595910D01*
X146870569Y-65808110D01*
X146819560Y-66060000D01*
X145532650Y-66060000D01*
X145186161Y-65712907D01*
X144493595Y-65425328D01*
X143743695Y-65424674D01*
X143050628Y-65711043D01*
X142519907Y-66240839D01*
X142367000Y-66609079D01*
X142367000Y-62310819D01*
X142518043Y-62676372D01*
X143047839Y-63207093D01*
X143740405Y-63494672D01*
X144490305Y-63495326D01*
X145183372Y-63208957D01*
X145714093Y-62679161D01*
X146001672Y-61986595D01*
X146001674Y-61983305D01*
X146831674Y-61983305D01*
X147118043Y-62676372D01*
X147647839Y-63207093D01*
X148340405Y-63494672D01*
X149090305Y-63495326D01*
X149783372Y-63208957D01*
X150314093Y-62679161D01*
X150601672Y-61986595D01*
X150602326Y-61236695D01*
X150315957Y-60543628D01*
X149786161Y-60012907D01*
X149093595Y-59725328D01*
X148343695Y-59724674D01*
X147650628Y-60011043D01*
X147119907Y-60540839D01*
X146832328Y-61233405D01*
X146831674Y-61983305D01*
X146001674Y-61983305D01*
X146002326Y-61236695D01*
X145715957Y-60543628D01*
X145186161Y-60012907D01*
X144493595Y-59725328D01*
X143743695Y-59724674D01*
X143050628Y-60011043D01*
X142519907Y-60540839D01*
X142367000Y-60909079D01*
X142367000Y-58620000D01*
X183210000Y-58620000D01*
X183210000Y-107750000D01*
X142367000Y-107750000D01*
X142367000Y-101600000D01*
X142358315Y-101553841D01*
X142331035Y-101511447D01*
X142289410Y-101483006D01*
X142240000Y-101473000D01*
X140970000Y-101473000D01*
X140923841Y-101481685D01*
X140881447Y-101508965D01*
X140853006Y-101550590D01*
X140843000Y-101600000D01*
X140843000Y-107750000D01*
X105080000Y-107750000D01*
X105080000Y-93841796D01*
X105409011Y-93841796D01*
X106277234Y-95943058D01*
X107883486Y-97552116D01*
X109983229Y-98424005D01*
X112256796Y-98425989D01*
X114358058Y-97557766D01*
X115967116Y-95951514D01*
X116839005Y-93851771D01*
X116840989Y-91578204D01*
X115972766Y-89476942D01*
X114366514Y-87867884D01*
X113104955Y-87344039D01*
X127513096Y-87344039D01*
X127673959Y-87732423D01*
X128049866Y-88147389D01*
X128555959Y-88386914D01*
X128778000Y-88265629D01*
X128778000Y-87122000D01*
X129032000Y-87122000D01*
X129032000Y-88265629D01*
X129254041Y-88386914D01*
X129760134Y-88147389D01*
X130136041Y-87732423D01*
X130296904Y-87344039D01*
X130174915Y-87122000D01*
X129032000Y-87122000D01*
X128778000Y-87122000D01*
X127635085Y-87122000D01*
X127513096Y-87344039D01*
X113104955Y-87344039D01*
X112266771Y-86995995D01*
X109993204Y-86994011D01*
X107891942Y-87862234D01*
X106282884Y-89468486D01*
X105410995Y-91568229D01*
X105409011Y-93841796D01*
X105080000Y-93841796D01*
X105080000Y-81915000D01*
X127441887Y-81915000D01*
X127551120Y-82464151D01*
X127862189Y-82929698D01*
X128244275Y-83185000D01*
X127862189Y-83440302D01*
X127551120Y-83905849D01*
X127441887Y-84455000D01*
X127551120Y-85004151D01*
X127862189Y-85469698D01*
X128266703Y-85739986D01*
X128049866Y-85842611D01*
X127673959Y-86257577D01*
X127513096Y-86645961D01*
X127635085Y-86868000D01*
X128778000Y-86868000D01*
X128778000Y-86848000D01*
X129032000Y-86848000D01*
X129032000Y-86868000D01*
X130174915Y-86868000D01*
X130296904Y-86645961D01*
X130136041Y-86257577D01*
X129760134Y-85842611D01*
X129543297Y-85739986D01*
X129947811Y-85469698D01*
X130258880Y-85004151D01*
X130368113Y-84455000D01*
X130258880Y-83905849D01*
X129947811Y-83440302D01*
X129565725Y-83185000D01*
X129947811Y-82929698D01*
X130258880Y-82464151D01*
X130368113Y-81915000D01*
X130258880Y-81365849D01*
X129947811Y-80900302D01*
X129803535Y-80803899D01*
X129940317Y-80778162D01*
X130156441Y-80639090D01*
X130301431Y-80426890D01*
X130352440Y-80175000D01*
X130352440Y-79375000D01*
X135061887Y-79375000D01*
X135171120Y-79924151D01*
X135482189Y-80389698D01*
X135864275Y-80645000D01*
X135482189Y-80900302D01*
X135171120Y-81365849D01*
X135061887Y-81915000D01*
X135171120Y-82464151D01*
X135482189Y-82929698D01*
X135864275Y-83185000D01*
X135482189Y-83440302D01*
X135171120Y-83905849D01*
X135061887Y-84455000D01*
X135171120Y-85004151D01*
X135482189Y-85469698D01*
X135864275Y-85725000D01*
X135482189Y-85980302D01*
X135171120Y-86445849D01*
X135061887Y-86995000D01*
X135171120Y-87544151D01*
X135482189Y-88009698D01*
X135947736Y-88320767D01*
X136496887Y-88430000D01*
X136553113Y-88430000D01*
X137102264Y-88320767D01*
X137567811Y-88009698D01*
X137878880Y-87544151D01*
X137988113Y-86995000D01*
X137878880Y-86445849D01*
X137567811Y-85980302D01*
X137185725Y-85725000D01*
X137567811Y-85469698D01*
X137878880Y-85004151D01*
X137988113Y-84455000D01*
X137878880Y-83905849D01*
X137567811Y-83440302D01*
X137185725Y-83185000D01*
X137567811Y-82929698D01*
X137878880Y-82464151D01*
X137988113Y-81915000D01*
X137878880Y-81365849D01*
X137567811Y-80900302D01*
X137185725Y-80645000D01*
X137567811Y-80389698D01*
X137878880Y-79924151D01*
X137988113Y-79375000D01*
X137878880Y-78825849D01*
X137567811Y-78360302D01*
X137102264Y-78049233D01*
X136553113Y-77940000D01*
X136496887Y-77940000D01*
X135947736Y-78049233D01*
X135482189Y-78360302D01*
X135171120Y-78825849D01*
X135061887Y-79375000D01*
X130352440Y-79375000D01*
X130352440Y-78575000D01*
X130308162Y-78339683D01*
X130169090Y-78123559D01*
X129956890Y-77978569D01*
X129705000Y-77927560D01*
X128105000Y-77927560D01*
X127869683Y-77971838D01*
X127653559Y-78110910D01*
X127508569Y-78323110D01*
X127457560Y-78575000D01*
X127457560Y-80175000D01*
X127501838Y-80410317D01*
X127640910Y-80626441D01*
X127853110Y-80771431D01*
X128008089Y-80802815D01*
X127862189Y-80900302D01*
X127551120Y-81365849D01*
X127441887Y-81915000D01*
X105080000Y-81915000D01*
X105080000Y-58620000D01*
X140843000Y-58620000D01*
X140843000Y-60270194D01*
X140843000Y-60270194D01*
G37*
X140843000Y-60270194D02*
X140586161Y-60012907D01*
X139893595Y-59725328D01*
X139143695Y-59724674D01*
X138450628Y-60011043D01*
X137919907Y-60540839D01*
X137632328Y-61233405D01*
X137631674Y-61983305D01*
X137918043Y-62676372D01*
X138447839Y-63207093D01*
X139140405Y-63494672D01*
X139890305Y-63495326D01*
X140583372Y-63208957D01*
X140843000Y-62949782D01*
X140843000Y-65970194D01*
X140586161Y-65712907D01*
X139893595Y-65425328D01*
X139143695Y-65424674D01*
X138450628Y-65711043D01*
X137919907Y-66240839D01*
X137632328Y-66933405D01*
X137631674Y-67683305D01*
X137918043Y-68376372D01*
X138447839Y-68907093D01*
X139140405Y-69194672D01*
X139890305Y-69195326D01*
X140583372Y-68908957D01*
X140843000Y-68649782D01*
X140843000Y-72315000D01*
X128905000Y-72315000D01*
X128836413Y-72328643D01*
X128766485Y-72328643D01*
X128280478Y-72425315D01*
X128152507Y-72478323D01*
X128024537Y-72531329D01*
X127612520Y-72806630D01*
X127416630Y-73002520D01*
X127141329Y-73414538D01*
X127099250Y-73516127D01*
X127035315Y-73670478D01*
X126938642Y-74156486D01*
X126938643Y-74295000D01*
X126938642Y-74433514D01*
X127035315Y-74919522D01*
X127091230Y-75054512D01*
X127141329Y-75175462D01*
X127416630Y-75587480D01*
X127612520Y-75783370D01*
X128024537Y-76058671D01*
X128152507Y-76111677D01*
X128280478Y-76164685D01*
X128766485Y-76261357D01*
X128836413Y-76261357D01*
X128905000Y-76275000D01*
X139625000Y-76275000D01*
X139625000Y-90095000D01*
X128905000Y-90095000D01*
X128836413Y-90108643D01*
X128766485Y-90108643D01*
X128280478Y-90205315D01*
X128152508Y-90258322D01*
X128024537Y-90311329D01*
X127612520Y-90586630D01*
X127416630Y-90782520D01*
X127141329Y-91194538D01*
X127099250Y-91296128D01*
X127035315Y-91450478D01*
X126938642Y-91936486D01*
X126938643Y-92075000D01*
X126938642Y-92213514D01*
X127035315Y-92699522D01*
X127070722Y-92785000D01*
X127141329Y-92955462D01*
X127416630Y-93367480D01*
X127612520Y-93563370D01*
X128024537Y-93838671D01*
X128152507Y-93891677D01*
X128280478Y-93944685D01*
X128766485Y-94041357D01*
X128836413Y-94041357D01*
X128905000Y-94055000D01*
X140843000Y-94055000D01*
X140843000Y-99695000D01*
X140851685Y-99741159D01*
X140878965Y-99783553D01*
X140920590Y-99811994D01*
X140970000Y-99822000D01*
X142240000Y-99822000D01*
X142286159Y-99813315D01*
X142328553Y-99786035D01*
X142356994Y-99744410D01*
X142367000Y-99695000D01*
X142367000Y-93887739D01*
X142379448Y-93882583D01*
X142477917Y-93841796D01*
X171449011Y-93841796D01*
X172317234Y-95943058D01*
X173923486Y-97552116D01*
X176023229Y-98424005D01*
X178296796Y-98425989D01*
X180398058Y-97557766D01*
X182007116Y-95951514D01*
X182879005Y-93851771D01*
X182880989Y-91578204D01*
X182012766Y-89476942D01*
X180406514Y-87867884D01*
X178306771Y-86995995D01*
X176033204Y-86994011D01*
X173931942Y-87862234D01*
X172322884Y-89468486D01*
X171450995Y-91568229D01*
X171449011Y-93841796D01*
X142477917Y-93841796D01*
X142485462Y-93838671D01*
X142897480Y-93563370D01*
X143093370Y-93367480D01*
X143368671Y-92955463D01*
X143421678Y-92827492D01*
X143474685Y-92699522D01*
X143571357Y-92213515D01*
X143571357Y-92143587D01*
X143585000Y-92075000D01*
X143585000Y-83523648D01*
X143704704Y-83523648D01*
X143964487Y-84152372D01*
X144445098Y-84633822D01*
X145073368Y-84894703D01*
X145753648Y-84895296D01*
X146382372Y-84635513D01*
X146863822Y-84154902D01*
X147124703Y-83526632D01*
X147124705Y-83523648D01*
X147768704Y-83523648D01*
X148028487Y-84152372D01*
X148509098Y-84633822D01*
X149137368Y-84894703D01*
X149817648Y-84895296D01*
X150446372Y-84635513D01*
X150927822Y-84154902D01*
X151188703Y-83526632D01*
X151189296Y-82846352D01*
X150929513Y-82217628D01*
X150448902Y-81736178D01*
X149820632Y-81475297D01*
X149140352Y-81474704D01*
X148511628Y-81734487D01*
X148030178Y-82215098D01*
X147769297Y-82843368D01*
X147768704Y-83523648D01*
X147124705Y-83523648D01*
X147125296Y-82846352D01*
X146865513Y-82217628D01*
X146384902Y-81736178D01*
X145756632Y-81475297D01*
X145076352Y-81474704D01*
X144447628Y-81734487D01*
X143966178Y-82215098D01*
X143705297Y-82843368D01*
X143704704Y-83523648D01*
X143585000Y-83523648D01*
X143585000Y-74295000D01*
X143571357Y-74226413D01*
X143571357Y-74156485D01*
X143474685Y-73670478D01*
X143418770Y-73535488D01*
X143368671Y-73414537D01*
X143093370Y-73002520D01*
X142897480Y-72806630D01*
X142485462Y-72531329D01*
X142379448Y-72487417D01*
X142367000Y-72482261D01*
X142367000Y-68010819D01*
X142518043Y-68376372D01*
X143047839Y-68907093D01*
X143740405Y-69194672D01*
X144490305Y-69195326D01*
X145183372Y-68908957D01*
X145714093Y-68379161D01*
X146001672Y-67686595D01*
X146002326Y-66936695D01*
X145715957Y-66243628D01*
X145532650Y-66060000D01*
X146819560Y-66060000D01*
X146819560Y-68560000D01*
X146863838Y-68795317D01*
X147002910Y-69011441D01*
X147215110Y-69156431D01*
X147467000Y-69207440D01*
X149967000Y-69207440D01*
X150202317Y-69163162D01*
X150418441Y-69024090D01*
X150563431Y-68811890D01*
X150614440Y-68560000D01*
X150614440Y-66060000D01*
X150570162Y-65824683D01*
X150431090Y-65608559D01*
X150218890Y-65463569D01*
X149967000Y-65412560D01*
X147467000Y-65412560D01*
X147231683Y-65456838D01*
X147015559Y-65595910D01*
X146870569Y-65808110D01*
X146819560Y-66060000D01*
X145532650Y-66060000D01*
X145186161Y-65712907D01*
X144493595Y-65425328D01*
X143743695Y-65424674D01*
X143050628Y-65711043D01*
X142519907Y-66240839D01*
X142367000Y-66609079D01*
X142367000Y-62310819D01*
X142518043Y-62676372D01*
X143047839Y-63207093D01*
X143740405Y-63494672D01*
X144490305Y-63495326D01*
X145183372Y-63208957D01*
X145714093Y-62679161D01*
X146001672Y-61986595D01*
X146001674Y-61983305D01*
X146831674Y-61983305D01*
X147118043Y-62676372D01*
X147647839Y-63207093D01*
X148340405Y-63494672D01*
X149090305Y-63495326D01*
X149783372Y-63208957D01*
X150314093Y-62679161D01*
X150601672Y-61986595D01*
X150602326Y-61236695D01*
X150315957Y-60543628D01*
X149786161Y-60012907D01*
X149093595Y-59725328D01*
X148343695Y-59724674D01*
X147650628Y-60011043D01*
X147119907Y-60540839D01*
X146832328Y-61233405D01*
X146831674Y-61983305D01*
X146001674Y-61983305D01*
X146002326Y-61236695D01*
X145715957Y-60543628D01*
X145186161Y-60012907D01*
X144493595Y-59725328D01*
X143743695Y-59724674D01*
X143050628Y-60011043D01*
X142519907Y-60540839D01*
X142367000Y-60909079D01*
X142367000Y-58620000D01*
X183210000Y-58620000D01*
X183210000Y-107750000D01*
X142367000Y-107750000D01*
X142367000Y-101600000D01*
X142358315Y-101553841D01*
X142331035Y-101511447D01*
X142289410Y-101483006D01*
X142240000Y-101473000D01*
X140970000Y-101473000D01*
X140923841Y-101481685D01*
X140881447Y-101508965D01*
X140853006Y-101550590D01*
X140843000Y-101600000D01*
X140843000Y-107750000D01*
X105080000Y-107750000D01*
X105080000Y-93841796D01*
X105409011Y-93841796D01*
X106277234Y-95943058D01*
X107883486Y-97552116D01*
X109983229Y-98424005D01*
X112256796Y-98425989D01*
X114358058Y-97557766D01*
X115967116Y-95951514D01*
X116839005Y-93851771D01*
X116840989Y-91578204D01*
X115972766Y-89476942D01*
X114366514Y-87867884D01*
X113104955Y-87344039D01*
X127513096Y-87344039D01*
X127673959Y-87732423D01*
X128049866Y-88147389D01*
X128555959Y-88386914D01*
X128778000Y-88265629D01*
X128778000Y-87122000D01*
X129032000Y-87122000D01*
X129032000Y-88265629D01*
X129254041Y-88386914D01*
X129760134Y-88147389D01*
X130136041Y-87732423D01*
X130296904Y-87344039D01*
X130174915Y-87122000D01*
X129032000Y-87122000D01*
X128778000Y-87122000D01*
X127635085Y-87122000D01*
X127513096Y-87344039D01*
X113104955Y-87344039D01*
X112266771Y-86995995D01*
X109993204Y-86994011D01*
X107891942Y-87862234D01*
X106282884Y-89468486D01*
X105410995Y-91568229D01*
X105409011Y-93841796D01*
X105080000Y-93841796D01*
X105080000Y-81915000D01*
X127441887Y-81915000D01*
X127551120Y-82464151D01*
X127862189Y-82929698D01*
X128244275Y-83185000D01*
X127862189Y-83440302D01*
X127551120Y-83905849D01*
X127441887Y-84455000D01*
X127551120Y-85004151D01*
X127862189Y-85469698D01*
X128266703Y-85739986D01*
X128049866Y-85842611D01*
X127673959Y-86257577D01*
X127513096Y-86645961D01*
X127635085Y-86868000D01*
X128778000Y-86868000D01*
X128778000Y-86848000D01*
X129032000Y-86848000D01*
X129032000Y-86868000D01*
X130174915Y-86868000D01*
X130296904Y-86645961D01*
X130136041Y-86257577D01*
X129760134Y-85842611D01*
X129543297Y-85739986D01*
X129947811Y-85469698D01*
X130258880Y-85004151D01*
X130368113Y-84455000D01*
X130258880Y-83905849D01*
X129947811Y-83440302D01*
X129565725Y-83185000D01*
X129947811Y-82929698D01*
X130258880Y-82464151D01*
X130368113Y-81915000D01*
X130258880Y-81365849D01*
X129947811Y-80900302D01*
X129803535Y-80803899D01*
X129940317Y-80778162D01*
X130156441Y-80639090D01*
X130301431Y-80426890D01*
X130352440Y-80175000D01*
X130352440Y-79375000D01*
X135061887Y-79375000D01*
X135171120Y-79924151D01*
X135482189Y-80389698D01*
X135864275Y-80645000D01*
X135482189Y-80900302D01*
X135171120Y-81365849D01*
X135061887Y-81915000D01*
X135171120Y-82464151D01*
X135482189Y-82929698D01*
X135864275Y-83185000D01*
X135482189Y-83440302D01*
X135171120Y-83905849D01*
X135061887Y-84455000D01*
X135171120Y-85004151D01*
X135482189Y-85469698D01*
X135864275Y-85725000D01*
X135482189Y-85980302D01*
X135171120Y-86445849D01*
X135061887Y-86995000D01*
X135171120Y-87544151D01*
X135482189Y-88009698D01*
X135947736Y-88320767D01*
X136496887Y-88430000D01*
X136553113Y-88430000D01*
X137102264Y-88320767D01*
X137567811Y-88009698D01*
X137878880Y-87544151D01*
X137988113Y-86995000D01*
X137878880Y-86445849D01*
X137567811Y-85980302D01*
X137185725Y-85725000D01*
X137567811Y-85469698D01*
X137878880Y-85004151D01*
X137988113Y-84455000D01*
X137878880Y-83905849D01*
X137567811Y-83440302D01*
X137185725Y-83185000D01*
X137567811Y-82929698D01*
X137878880Y-82464151D01*
X137988113Y-81915000D01*
X137878880Y-81365849D01*
X137567811Y-80900302D01*
X137185725Y-80645000D01*
X137567811Y-80389698D01*
X137878880Y-79924151D01*
X137988113Y-79375000D01*
X137878880Y-78825849D01*
X137567811Y-78360302D01*
X137102264Y-78049233D01*
X136553113Y-77940000D01*
X136496887Y-77940000D01*
X135947736Y-78049233D01*
X135482189Y-78360302D01*
X135171120Y-78825849D01*
X135061887Y-79375000D01*
X130352440Y-79375000D01*
X130352440Y-78575000D01*
X130308162Y-78339683D01*
X130169090Y-78123559D01*
X129956890Y-77978569D01*
X129705000Y-77927560D01*
X128105000Y-77927560D01*
X127869683Y-77971838D01*
X127653559Y-78110910D01*
X127508569Y-78323110D01*
X127457560Y-78575000D01*
X127457560Y-80175000D01*
X127501838Y-80410317D01*
X127640910Y-80626441D01*
X127853110Y-80771431D01*
X128008089Y-80802815D01*
X127862189Y-80900302D01*
X127551120Y-81365849D01*
X127441887Y-81915000D01*
X105080000Y-81915000D01*
X105080000Y-58620000D01*
X140843000Y-58620000D01*
X140843000Y-60270194D01*
M02*
