G04 #@! TF.FileFunction,Other,Fab,Top*
%FSLAX46Y46*%
G04 Gerber Fmt 4.6, Leading zero omitted, Abs format (unit mm)*
G04 Created by KiCad (PCBNEW 4.0.5) date 12/26/17 19:06:58*
%MOMM*%
%LPD*%
G01*
G04 APERTURE LIST*
%ADD10C,0.100000*%
%ADD11C,0.150000*%
G04 APERTURE END LIST*
D10*
X179165000Y-73632000D02*
G75*
G03X179165000Y-73632000I-2000000J0D01*
G01*
X179165000Y-92710000D02*
G75*
G03X179165000Y-92710000I-2000000J0D01*
G01*
X181915000Y-92710000D02*
G75*
G03X181915000Y-92710000I-4750000J0D01*
G01*
X181915000Y-73632000D02*
G75*
G03X181915000Y-73632000I-4750000J0D01*
G01*
X130540000Y-78105000D02*
X135890000Y-78105000D01*
X135890000Y-78105000D02*
X135890000Y-88265000D01*
X135890000Y-88265000D02*
X129540000Y-88265000D01*
X129540000Y-88265000D02*
X129540000Y-79105000D01*
X129540000Y-79105000D02*
X130540000Y-78105000D01*
X113125000Y-73632000D02*
G75*
G03X113125000Y-73632000I-2000000J0D01*
G01*
X113125000Y-92710000D02*
G75*
G03X113125000Y-92710000I-2000000J0D01*
G01*
X115875000Y-92710000D02*
G75*
G03X115875000Y-92710000I-4750000J0D01*
G01*
X115875000Y-73632000D02*
G75*
G03X115875000Y-73632000I-4750000J0D01*
G01*
D11*
X176617381Y-82793333D02*
X177331667Y-82793333D01*
X177474524Y-82840953D01*
X177569762Y-82936191D01*
X177617381Y-83079048D01*
X177617381Y-83174286D01*
X177617381Y-81793333D02*
X177617381Y-82364762D01*
X177617381Y-82079048D02*
X176617381Y-82079048D01*
X176760238Y-82174286D01*
X176855476Y-82269524D01*
X176903095Y-82364762D01*
X131953095Y-82637381D02*
X131953095Y-83446905D01*
X132000714Y-83542143D01*
X132048333Y-83589762D01*
X132143571Y-83637381D01*
X132334048Y-83637381D01*
X132429286Y-83589762D01*
X132476905Y-83542143D01*
X132524524Y-83446905D01*
X132524524Y-82637381D01*
X132905476Y-82637381D02*
X133524524Y-82637381D01*
X133191190Y-83018333D01*
X133334048Y-83018333D01*
X133429286Y-83065952D01*
X133476905Y-83113571D01*
X133524524Y-83208810D01*
X133524524Y-83446905D01*
X133476905Y-83542143D01*
X133429286Y-83589762D01*
X133334048Y-83637381D01*
X133048333Y-83637381D01*
X132953095Y-83589762D01*
X132905476Y-83542143D01*
X142938667Y-65174762D02*
X143081524Y-65222381D01*
X143319620Y-65222381D01*
X143414858Y-65174762D01*
X143462477Y-65127143D01*
X143510096Y-65031905D01*
X143510096Y-64936667D01*
X143462477Y-64841429D01*
X143414858Y-64793810D01*
X143319620Y-64746190D01*
X143129143Y-64698571D01*
X143033905Y-64650952D01*
X142986286Y-64603333D01*
X142938667Y-64508095D01*
X142938667Y-64412857D01*
X142986286Y-64317619D01*
X143033905Y-64270000D01*
X143129143Y-64222381D01*
X143367239Y-64222381D01*
X143510096Y-64270000D01*
X143843429Y-64222381D02*
X144081524Y-65222381D01*
X144272001Y-64508095D01*
X144462477Y-65222381D01*
X144700572Y-64222381D01*
X145605334Y-65222381D02*
X145033905Y-65222381D01*
X145319619Y-65222381D02*
X145319619Y-64222381D01*
X145224381Y-64365238D01*
X145129143Y-64460476D01*
X145033905Y-64508095D01*
X110577381Y-82793333D02*
X111291667Y-82793333D01*
X111434524Y-82840953D01*
X111529762Y-82936191D01*
X111577381Y-83079048D01*
X111577381Y-83174286D01*
X110672619Y-82364762D02*
X110625000Y-82317143D01*
X110577381Y-82221905D01*
X110577381Y-81983809D01*
X110625000Y-81888571D01*
X110672619Y-81840952D01*
X110767857Y-81793333D01*
X110863095Y-81793333D01*
X111005952Y-81840952D01*
X111577381Y-82412381D01*
X111577381Y-81793333D01*
X108821667Y-103637381D02*
X108488333Y-103161190D01*
X108250238Y-103637381D02*
X108250238Y-102637381D01*
X108631191Y-102637381D01*
X108726429Y-102685000D01*
X108774048Y-102732619D01*
X108821667Y-102827857D01*
X108821667Y-102970714D01*
X108774048Y-103065952D01*
X108726429Y-103113571D01*
X108631191Y-103161190D01*
X108250238Y-103161190D01*
X109250238Y-103113571D02*
X109583572Y-103113571D01*
X109726429Y-103637381D02*
X109250238Y-103637381D01*
X109250238Y-102637381D01*
X109726429Y-102637381D01*
X110488334Y-103113571D02*
X110155000Y-103113571D01*
X110155000Y-103637381D02*
X110155000Y-102637381D01*
X110631191Y-102637381D01*
X111155000Y-102637381D02*
X111155000Y-102875476D01*
X110916905Y-102780238D02*
X111155000Y-102875476D01*
X111393096Y-102780238D01*
X111012143Y-103065952D02*
X111155000Y-102875476D01*
X111297858Y-103065952D01*
X111916905Y-102637381D02*
X111916905Y-102875476D01*
X111678810Y-102780238D02*
X111916905Y-102875476D01*
X112155001Y-102780238D01*
X111774048Y-103065952D02*
X111916905Y-102875476D01*
X112059763Y-103065952D01*
X177401667Y-103637381D02*
X177068333Y-103161190D01*
X176830238Y-103637381D02*
X176830238Y-102637381D01*
X177211191Y-102637381D01*
X177306429Y-102685000D01*
X177354048Y-102732619D01*
X177401667Y-102827857D01*
X177401667Y-102970714D01*
X177354048Y-103065952D01*
X177306429Y-103113571D01*
X177211191Y-103161190D01*
X176830238Y-103161190D01*
X177830238Y-103113571D02*
X178163572Y-103113571D01*
X178306429Y-103637381D02*
X177830238Y-103637381D01*
X177830238Y-102637381D01*
X178306429Y-102637381D01*
X179068334Y-103113571D02*
X178735000Y-103113571D01*
X178735000Y-103637381D02*
X178735000Y-102637381D01*
X179211191Y-102637381D01*
X179735000Y-102637381D02*
X179735000Y-102875476D01*
X179496905Y-102780238D02*
X179735000Y-102875476D01*
X179973096Y-102780238D01*
X179592143Y-103065952D02*
X179735000Y-102875476D01*
X179877858Y-103065952D01*
X180496905Y-102637381D02*
X180496905Y-102875476D01*
X180258810Y-102780238D02*
X180496905Y-102875476D01*
X180735001Y-102780238D01*
X180354048Y-103065952D02*
X180496905Y-102875476D01*
X180639763Y-103065952D01*
X177401667Y-63637381D02*
X177068333Y-63161190D01*
X176830238Y-63637381D02*
X176830238Y-62637381D01*
X177211191Y-62637381D01*
X177306429Y-62685000D01*
X177354048Y-62732619D01*
X177401667Y-62827857D01*
X177401667Y-62970714D01*
X177354048Y-63065952D01*
X177306429Y-63113571D01*
X177211191Y-63161190D01*
X176830238Y-63161190D01*
X177830238Y-63113571D02*
X178163572Y-63113571D01*
X178306429Y-63637381D02*
X177830238Y-63637381D01*
X177830238Y-62637381D01*
X178306429Y-62637381D01*
X179068334Y-63113571D02*
X178735000Y-63113571D01*
X178735000Y-63637381D02*
X178735000Y-62637381D01*
X179211191Y-62637381D01*
X179735000Y-62637381D02*
X179735000Y-62875476D01*
X179496905Y-62780238D02*
X179735000Y-62875476D01*
X179973096Y-62780238D01*
X179592143Y-63065952D02*
X179735000Y-62875476D01*
X179877858Y-63065952D01*
X180496905Y-62637381D02*
X180496905Y-62875476D01*
X180258810Y-62780238D02*
X180496905Y-62875476D01*
X180735001Y-62780238D01*
X180354048Y-63065952D02*
X180496905Y-62875476D01*
X180639763Y-63065952D01*
X108821667Y-63637381D02*
X108488333Y-63161190D01*
X108250238Y-63637381D02*
X108250238Y-62637381D01*
X108631191Y-62637381D01*
X108726429Y-62685000D01*
X108774048Y-62732619D01*
X108821667Y-62827857D01*
X108821667Y-62970714D01*
X108774048Y-63065952D01*
X108726429Y-63113571D01*
X108631191Y-63161190D01*
X108250238Y-63161190D01*
X109250238Y-63113571D02*
X109583572Y-63113571D01*
X109726429Y-63637381D02*
X109250238Y-63637381D01*
X109250238Y-62637381D01*
X109726429Y-62637381D01*
X110488334Y-63113571D02*
X110155000Y-63113571D01*
X110155000Y-63637381D02*
X110155000Y-62637381D01*
X110631191Y-62637381D01*
X111155000Y-62637381D02*
X111155000Y-62875476D01*
X110916905Y-62780238D02*
X111155000Y-62875476D01*
X111393096Y-62780238D01*
X111012143Y-63065952D02*
X111155000Y-62875476D01*
X111297858Y-63065952D01*
X111916905Y-62637381D02*
X111916905Y-62875476D01*
X111678810Y-62780238D02*
X111916905Y-62875476D01*
X112155001Y-62780238D01*
X111774048Y-63065952D02*
X111916905Y-62875476D01*
X112059763Y-63065952D01*
M02*
