G04 #@! TF.FileFunction,Profile,NP*
%FSLAX46Y46*%
G04 Gerber Fmt 4.6, Leading zero omitted, Abs format (unit mm)*
G04 Created by KiCad (PCBNEW 4.0.5) date 12/18/17 18:47:54*
%MOMM*%
%LPD*%
G01*
G04 APERTURE LIST*
%ADD10C,0.100000*%
%ADD11C,0.150000*%
G04 APERTURE END LIST*
D10*
D11*
X140335000Y-90805000D02*
X128905000Y-90805000D01*
X140335000Y-75565000D02*
X140335000Y-90805000D01*
X128905000Y-75565000D02*
X140335000Y-75565000D01*
X141605000Y-73025000D02*
X128905000Y-73025000D01*
X142875000Y-92075000D02*
X142875000Y-74295000D01*
X128905000Y-93345000D02*
X141605000Y-93345000D01*
X142875000Y-74295000D02*
G75*
G03X141605000Y-73025000I-1270000J0D01*
G01*
X141605000Y-93345000D02*
G75*
G03X142875000Y-92075000I0J1270000D01*
G01*
X128905000Y-90805000D02*
G75*
G03X127635000Y-92075000I0J-1270000D01*
G01*
X127635000Y-92075000D02*
G75*
G03X128905000Y-93345000I1270000J0D01*
G01*
X127635000Y-74295000D02*
G75*
G03X128905000Y-75565000I1270000J0D01*
G01*
X128905000Y-73025000D02*
G75*
G03X127635000Y-74295000I0J-1270000D01*
G01*
D10*
X104800400Y-108534200D02*
G75*
G02X104292400Y-108026200I0J508000D01*
G01*
X183997600Y-108026200D02*
G75*
G02X183489600Y-108534200I-508000J0D01*
G01*
X183489600Y-57835800D02*
G75*
G02X183997600Y-58343800I0J-508000D01*
G01*
X104292400Y-58343800D02*
G75*
G02X104800400Y-57835800I508000J0D01*
G01*
X104800400Y-108534200D02*
X183489600Y-108534200D01*
X183997600Y-58343800D02*
X183997600Y-108026200D01*
X104800400Y-57835800D02*
X183489600Y-57835800D01*
X104292400Y-58343800D02*
X104292400Y-108026200D01*
M02*
