M48
INCH,TZ
T1C0.012
T2C0.031
T3C0.059
T4C0.065
T5C0.106
T6C0.240
%
G90
G05
T1
X4.16Y-3.27
X4.16Y-3.52
X4.3Y-3.42
X4.41Y-3.41
X4.455Y-3.155
X4.6Y-3.44
X4.615Y-3.585
X4.62Y-3.32
X4.63Y-3.03
X4.635Y-3.705
X4.91Y-3.39
X4.98Y-3.32
X5.34Y-3.035
X5.37Y-4.05
X5.41Y-3.035
X5.41Y-3.52
X5.415Y-3.925
X5.48Y-3.175
X5.525Y-3.72
X5.525Y-3.83
X5.525Y-4.23
X5.53Y-2.77
X5.625Y-2.505
X5.625Y-3.72
X5.625Y-3.83
X5.625Y-4.23
X5.65Y-2.87
X5.665Y-3.5725
X5.73Y-2.715
X5.78Y-4.23
X5.805Y-3.71
X5.9475Y-3.5725
X5.975Y-3.245
X6.055Y-3.065
X6.06Y-3.49
X6.13Y-3.315
X6.14Y-3.545
X6.145Y-3.63
X6.18Y-3.315
X6.265Y-3.64
X6.28Y-3.24
X6.285Y-2.92
X6.32Y-3.725
X6.385Y-2.36
X6.425Y-3.695
X6.44Y-3.44
X6.485Y-4.125
X6.535Y-3.34
X6.59Y-2.78
X6.62Y-3.04
X6.63Y-4.19
X6.69Y-3.1
X6.7Y-3.25
X6.755Y-3.07
X7.015Y-3.18
X7.15Y-3.485
X7.15Y-3.81
T2
X5.075Y-3.125
X5.075Y-3.225
X5.075Y-3.325
X5.075Y-3.425
X5.375Y-3.125
X5.375Y-3.225
X5.375Y-3.325
X5.375Y-3.425
T3
X5.96Y-3.97
X5.96Y-4.12
X6.11Y-3.97
X6.11Y-4.12
T4
X5.4928Y-2.4256
X5.4928Y-2.65
X5.6739Y-2.4256
X5.6739Y-2.65
X5.855Y-2.4256
X5.855Y-2.65
T5
X4.325Y-2.4876
X4.325Y-4.0624
X7.025Y-2.4876
X7.025Y-4.0624
T6
X4.375Y-2.9001
X4.375Y-3.65
X6.975Y-2.9001
X6.975Y-3.65
T0
M30
