G04 #@! TF.FileFunction,Copper,L2,Bot,Signal*
%FSLAX46Y46*%
G04 Gerber Fmt 4.6, Leading zero omitted, Abs format (unit mm)*
G04 Created by KiCad (PCBNEW 4.0.5) date 12/16/17 21:51:32*
%MOMM*%
%LPD*%
G01*
G04 APERTURE LIST*
%ADD10C,0.100000*%
%ADD11C,0.600000*%
%ADD12C,10.160000*%
%ADD13R,1.300000X1.500000*%
%ADD14R,1.500000X1.300000*%
%ADD15R,1.500000X1.250000*%
%ADD16R,1.250000X1.500000*%
%ADD17R,3.750000X2.500000*%
%ADD18C,2.000000*%
%ADD19O,5.080000X2.540000*%
%ADD20R,1.800000X2.500000*%
%ADD21R,0.600000X1.550000*%
%ADD22R,0.800000X0.900000*%
%ADD23R,2.500000X1.800000*%
%ADD24R,1.600000X1.600000*%
%ADD25O,1.600000X1.600000*%
%ADD26R,1.300000X1.600000*%
%ADD27R,2.000000X1.600000*%
%ADD28R,2.500000X2.500000*%
%ADD29C,2.500000*%
%ADD30R,1.700000X1.700000*%
%ADD31C,5.400000*%
%ADD32C,0.500000*%
%ADD33C,0.254000*%
G04 APERTURE END LIST*
D10*
D11*
X151765000Y-82423000D03*
X155702000Y-71120000D03*
X160020000Y-96520000D03*
X155956000Y-90043000D03*
X153924000Y-88646000D03*
X140335000Y-97282000D03*
X142875000Y-97282000D03*
X142875000Y-107442000D03*
X140335000Y-107442000D03*
X117729000Y-94107000D03*
X117221000Y-91059000D03*
X110871000Y-82931000D03*
X125349000Y-84328000D03*
X140462000Y-70358000D03*
X143510000Y-72898000D03*
X140335000Y-94488000D03*
X160020000Y-82423000D03*
X160909000Y-79883000D03*
X145542000Y-68961000D03*
D10*
G36*
X177405514Y-70364981D02*
X173869981Y-73900514D01*
X163970486Y-64001019D01*
X167506019Y-60465486D01*
X177405514Y-70364981D01*
X177405514Y-70364981D01*
G37*
D12*
X177165000Y-92710000D03*
X177165000Y-73662000D03*
D10*
G36*
X167506019Y-105904514D02*
X163970486Y-102368981D01*
X173869981Y-92469486D01*
X177405514Y-96005019D01*
X167506019Y-105904514D01*
X167506019Y-105904514D01*
G37*
D11*
X121158000Y-82296000D03*
X133985000Y-79248000D03*
X138938000Y-77089000D03*
X137668000Y-89281000D03*
X143891000Y-90741500D03*
X142875000Y-94488000D03*
X163830000Y-85344000D03*
X153797000Y-78359000D03*
X155702000Y-84328000D03*
X106680000Y-81280000D03*
X135255000Y-99695000D03*
X107188000Y-84836000D03*
X138938000Y-81915000D03*
X134620000Y-102870000D03*
X133985000Y-77089000D03*
X151066500Y-90741500D03*
X156972000Y-84328000D03*
X157480000Y-93599000D03*
X159639000Y-74168000D03*
D13*
X145415000Y-88058000D03*
X145415000Y-90758000D03*
X126746000Y-79295000D03*
X126746000Y-81995000D03*
D14*
X132000000Y-102870000D03*
X134700000Y-102870000D03*
D13*
X149479000Y-88058000D03*
X149479000Y-90758000D03*
D14*
X109300000Y-81280000D03*
X106600000Y-81280000D03*
X153463000Y-76327000D03*
X156163000Y-76327000D03*
D13*
X159639000Y-88185000D03*
X159639000Y-90885000D03*
X153797000Y-86821000D03*
X153797000Y-84121000D03*
X126746000Y-86153000D03*
X126746000Y-88853000D03*
X153797000Y-82122000D03*
X153797000Y-79422000D03*
D15*
X131465000Y-77089000D03*
X133965000Y-77089000D03*
D16*
X138938000Y-84435000D03*
X138938000Y-81935000D03*
D17*
X113869000Y-84836000D03*
X107619000Y-84836000D03*
D18*
X160020000Y-100965000D03*
X156210000Y-100965000D03*
X160020000Y-104775000D03*
D19*
X151130000Y-100965000D03*
X151130000Y-104775000D03*
D18*
X156210000Y-104775000D03*
D15*
X114915000Y-81280000D03*
X112415000Y-81280000D03*
D16*
X157480000Y-90952000D03*
X157480000Y-93452000D03*
X138938000Y-86761000D03*
X138938000Y-89261000D03*
X138938000Y-79609000D03*
X138938000Y-77109000D03*
X151892000Y-86848000D03*
X151892000Y-84348000D03*
X159639000Y-78085000D03*
X159639000Y-75585000D03*
D15*
X131465000Y-79248000D03*
X133965000Y-79248000D03*
D20*
X163830000Y-81185000D03*
X163830000Y-85185000D03*
D21*
X159512000Y-85885000D03*
X158242000Y-85885000D03*
X156972000Y-85885000D03*
X155702000Y-85885000D03*
X155702000Y-80485000D03*
X156972000Y-80485000D03*
X158242000Y-80485000D03*
X159512000Y-80485000D03*
D22*
X150683000Y-76311000D03*
X148783000Y-76311000D03*
X149733000Y-74311000D03*
D23*
X149320000Y-95885000D03*
X145320000Y-95885000D03*
D24*
X128905000Y-79375000D03*
D25*
X136525000Y-86995000D03*
X128905000Y-81915000D03*
X136525000Y-84455000D03*
X128905000Y-84455000D03*
X136525000Y-81915000D03*
X128905000Y-86995000D03*
X136525000Y-79375000D03*
D21*
X130810000Y-81501000D03*
X132080000Y-81501000D03*
X133350000Y-81501000D03*
X134620000Y-81501000D03*
X134620000Y-86901000D03*
X133350000Y-86901000D03*
X132080000Y-86901000D03*
X130810000Y-86901000D03*
D26*
X121178000Y-82370000D03*
D27*
X122428000Y-85270000D03*
D26*
X123678000Y-82370000D03*
D23*
X131350000Y-99695000D03*
X135350000Y-99695000D03*
X135350000Y-95885000D03*
X131350000Y-95885000D03*
D20*
X167640000Y-81185000D03*
X167640000Y-85185000D03*
D28*
X148717000Y-67310000D03*
D29*
X144117000Y-67310000D03*
X139517000Y-67310000D03*
X148717000Y-61610000D03*
X144117000Y-61610000D03*
X139517000Y-61610000D03*
D30*
X145415000Y-85335000D03*
X145415000Y-81035000D03*
X149479000Y-85335000D03*
X149479000Y-81035000D03*
D10*
G36*
X114420019Y-73900514D02*
X110884486Y-70364981D01*
X120783981Y-60465486D01*
X124319514Y-64001019D01*
X114420019Y-73900514D01*
X114420019Y-73900514D01*
G37*
D12*
X111125000Y-92710000D03*
X111125000Y-73662000D03*
D10*
G36*
X124319514Y-102368981D02*
X120783981Y-105904514D01*
X110884486Y-96005019D01*
X114420019Y-92469486D01*
X124319514Y-102368981D01*
X124319514Y-102368981D01*
G37*
D31*
X109855000Y-103185000D03*
X178435000Y-103185000D03*
X178435000Y-63185000D03*
X109855000Y-63185000D03*
D32*
X126746000Y-79295000D02*
X126746000Y-77470000D01*
X144891000Y-71628000D02*
X147574000Y-74311000D01*
X128016000Y-71628000D02*
X144891000Y-71628000D01*
X126238000Y-73406000D02*
X128016000Y-71628000D01*
X126238000Y-76962000D02*
X126238000Y-73406000D01*
X126746000Y-77470000D02*
X126238000Y-76962000D01*
X149733000Y-74311000D02*
X147574000Y-74311000D01*
X147574000Y-74311000D02*
X147574000Y-74295000D01*
X145415000Y-81185000D02*
X147574000Y-81185000D01*
X147447000Y-81153000D02*
X147574000Y-81153000D01*
X147542000Y-81153000D02*
X147447000Y-81153000D01*
X147574000Y-81185000D02*
X147542000Y-81153000D01*
X132080000Y-81501000D02*
X132080000Y-80645000D01*
X131465000Y-80030000D02*
X131465000Y-79248000D01*
X132080000Y-80645000D02*
X131465000Y-80030000D01*
X126746000Y-79545000D02*
X126746000Y-79756000D01*
X126746000Y-79756000D02*
X128905000Y-81915000D01*
X128905000Y-81915000D02*
X129921000Y-82931000D01*
X129921000Y-82931000D02*
X131191000Y-82931000D01*
X131191000Y-82931000D02*
X131699000Y-82931000D01*
X131699000Y-82931000D02*
X132080000Y-82550000D01*
X132080000Y-82550000D02*
X132080000Y-81501000D01*
X147574000Y-74295000D02*
X147574000Y-81153000D01*
X126535000Y-79756000D02*
X126746000Y-79545000D01*
X135350000Y-95885000D02*
X145320000Y-95885000D01*
X147574000Y-90805000D02*
X147574000Y-92710000D01*
X147574000Y-92710000D02*
X147320000Y-92710000D01*
X149225000Y-92710000D02*
X147320000Y-92710000D01*
X155661000Y-88435000D02*
X155661000Y-88687000D01*
X151638000Y-92710000D02*
X155661000Y-88687000D01*
X149225000Y-92710000D02*
X151638000Y-92710000D01*
X145320000Y-94710000D02*
X145320000Y-95885000D01*
X147320000Y-92710000D02*
X145320000Y-94710000D01*
X147574000Y-88900000D02*
X147574000Y-90805000D01*
X147574000Y-90805000D02*
X147574000Y-91122500D01*
X147574000Y-91122500D02*
X147574000Y-91059000D01*
X159639000Y-88435000D02*
X155661000Y-88435000D01*
X155661000Y-88435000D02*
X153797000Y-86571000D01*
X159512000Y-85885000D02*
X159512000Y-88308000D01*
X159512000Y-88308000D02*
X159639000Y-88435000D01*
X152273000Y-86421000D02*
X153647000Y-86421000D01*
X153647000Y-86421000D02*
X153797000Y-86571000D01*
X147574000Y-81153000D02*
X147574000Y-88900000D01*
X147574000Y-88900000D02*
X147574000Y-89154000D01*
X128905000Y-86995000D02*
X128905000Y-86868000D01*
X128905000Y-86868000D02*
X131191000Y-84582000D01*
X131191000Y-84582000D02*
X132588000Y-84582000D01*
X132588000Y-84582000D02*
X134620000Y-82550000D01*
X134620000Y-82550000D02*
X134620000Y-81501000D01*
X137795000Y-81407000D02*
X137795000Y-80645000D01*
X135255000Y-83185000D02*
X137287000Y-83185000D01*
X137287000Y-83185000D02*
X137795000Y-82677000D01*
X137795000Y-82677000D02*
X137795000Y-81407000D01*
X137795000Y-80645000D02*
X136525000Y-79375000D01*
X138938000Y-79609000D02*
X138831000Y-79609000D01*
X138831000Y-79609000D02*
X137795000Y-80645000D01*
X130810000Y-86106000D02*
X131445000Y-85471000D01*
X131445000Y-85471000D02*
X132969000Y-85471000D01*
X132969000Y-85471000D02*
X135255000Y-83185000D01*
X130810000Y-86901000D02*
X130810000Y-86106000D01*
X130777000Y-86901000D02*
X130810000Y-86901000D01*
X134620000Y-86901000D02*
X134620000Y-87503000D01*
X134620000Y-87503000D02*
X132969000Y-89154000D01*
X127297000Y-89154000D02*
X126746000Y-88603000D01*
X132969000Y-89154000D02*
X127297000Y-89154000D01*
X136525000Y-86995000D02*
X138704000Y-86995000D01*
X134620000Y-86901000D02*
X136431000Y-86901000D01*
X136431000Y-86901000D02*
X136525000Y-86995000D01*
X134577000Y-86944000D02*
X134620000Y-86901000D01*
X136431000Y-86901000D02*
X136525000Y-86995000D01*
X138704000Y-86995000D02*
X138938000Y-86761000D01*
X159639000Y-90885000D02*
X157547000Y-90885000D01*
X157547000Y-90885000D02*
X157480000Y-90952000D01*
X131350000Y-95885000D02*
X125984000Y-95885000D01*
X122809000Y-92710000D02*
X111125000Y-92710000D01*
X125984000Y-95885000D02*
X122809000Y-92710000D01*
X120904000Y-87503000D02*
X118491000Y-87503000D01*
X132588000Y-88265000D02*
X128397000Y-88265000D01*
X128397000Y-88265000D02*
X127635000Y-87503000D01*
X127635000Y-87503000D02*
X125222000Y-87503000D01*
X133350000Y-87503000D02*
X132588000Y-88265000D01*
X120904000Y-87503000D02*
X125222000Y-87503000D01*
X118491000Y-87503000D02*
X113284000Y-92710000D01*
X113284000Y-92710000D02*
X111125000Y-92710000D01*
X132000000Y-102870000D02*
X132000000Y-100345000D01*
X132000000Y-100345000D02*
X131350000Y-99695000D01*
X113869000Y-84836000D02*
X113869000Y-82326000D01*
X113869000Y-82326000D02*
X114915000Y-81280000D01*
X111125000Y-92710000D02*
X111125000Y-87580000D01*
X111125000Y-87580000D02*
X113869000Y-84836000D01*
X131350000Y-99695000D02*
X131350000Y-95885000D01*
X116840000Y-95885000D02*
X113665000Y-92710000D01*
X113665000Y-92710000D02*
X111125000Y-92710000D01*
X123678000Y-82370000D02*
X123678000Y-82443000D01*
X123678000Y-82443000D02*
X122301000Y-83820000D01*
X120015000Y-83820000D02*
X111125000Y-92710000D01*
X122301000Y-83820000D02*
X120015000Y-83820000D01*
X111125000Y-92710000D02*
X115697000Y-92710000D01*
X136591000Y-84521000D02*
X136525000Y-84455000D01*
X135255000Y-84455000D02*
X136525000Y-84455000D01*
X133350000Y-86901000D02*
X133350000Y-87503000D01*
X136525000Y-84455000D02*
X138918000Y-84455000D01*
X138918000Y-84455000D02*
X138938000Y-84435000D01*
X133350000Y-86901000D02*
X133350000Y-86360000D01*
X133350000Y-86360000D02*
X135255000Y-84455000D01*
X109300000Y-81280000D02*
X112415000Y-81280000D01*
X170688000Y-99187000D02*
X177165000Y-92710000D01*
X177165000Y-92710000D02*
X175165000Y-92710000D01*
X175165000Y-92710000D02*
X167640000Y-85185000D01*
X149479000Y-87673000D02*
X149479000Y-85185000D01*
X149749000Y-85296000D02*
X149860000Y-85185000D01*
X149860000Y-85185000D02*
X149955000Y-85185000D01*
X122428000Y-85270000D02*
X122862000Y-85270000D01*
X122862000Y-85270000D02*
X123745000Y-86153000D01*
X123745000Y-86153000D02*
X126746000Y-86153000D01*
X126746000Y-86403000D02*
X126746000Y-85725000D01*
X153797000Y-82253000D02*
X157269000Y-82253000D01*
X157269000Y-82253000D02*
X158242000Y-81280000D01*
X158242000Y-81280000D02*
X158242000Y-80485000D01*
X153797000Y-84371000D02*
X152423000Y-84371000D01*
X152423000Y-84371000D02*
X152273000Y-84521000D01*
X153797000Y-82253000D02*
X153797000Y-84371000D01*
X149479000Y-81185000D02*
X149479000Y-77007000D01*
X149479000Y-77007000D02*
X148783000Y-76311000D01*
X150683000Y-76311000D02*
X153697000Y-76311000D01*
X153697000Y-76311000D02*
X153713000Y-76327000D01*
X155913000Y-76327000D02*
X155913000Y-77513000D01*
X155702000Y-77724000D02*
X155702000Y-80485000D01*
X155913000Y-77513000D02*
X155702000Y-77724000D01*
X151130000Y-104775000D02*
X153035000Y-104775000D01*
X153035000Y-104775000D02*
X154940000Y-102870000D01*
X154940000Y-102870000D02*
X160655000Y-102870000D01*
X160655000Y-102870000D02*
X165735000Y-97790000D01*
X165735000Y-97790000D02*
X165735000Y-74930000D01*
X165735000Y-74930000D02*
X160655000Y-69850000D01*
X160655000Y-69850000D02*
X147320000Y-69850000D01*
X147320000Y-69850000D02*
X146685000Y-69215000D01*
X146685000Y-69215000D02*
X146685000Y-66675000D01*
X146685000Y-66675000D02*
X145415000Y-65405000D01*
X145415000Y-65405000D02*
X141422000Y-65405000D01*
X141422000Y-65405000D02*
X139517000Y-67310000D01*
X167640000Y-81185000D02*
X167640000Y-74295000D01*
X160655000Y-67310000D02*
X148717000Y-67310000D01*
X167640000Y-74295000D02*
X160655000Y-67310000D01*
X149225000Y-67945000D02*
X148590000Y-67310000D01*
X145415000Y-87673000D02*
X145415000Y-85185000D01*
X133350000Y-81501000D02*
X133350000Y-80899000D01*
X133350000Y-80899000D02*
X132715000Y-80264000D01*
X132715000Y-78339000D02*
X131465000Y-77089000D01*
X132715000Y-80264000D02*
X132715000Y-78339000D01*
X128905000Y-84455000D02*
X128397000Y-84455000D01*
X128397000Y-84455000D02*
X126746000Y-82804000D01*
X126746000Y-82804000D02*
X126746000Y-81745000D01*
X128905000Y-84455000D02*
X130175000Y-84455000D01*
X133350000Y-82550000D02*
X133350000Y-81501000D01*
X132207000Y-83693000D02*
X133350000Y-82550000D01*
X130937000Y-83693000D02*
X132207000Y-83693000D01*
X130175000Y-84455000D02*
X130937000Y-83693000D01*
X144117000Y-67310000D02*
X144117000Y-69187000D01*
X158115000Y-76561000D02*
X159639000Y-78085000D01*
X158115000Y-73660000D02*
X158115000Y-76561000D01*
X156845000Y-72390000D02*
X158115000Y-73660000D01*
X147320000Y-72390000D02*
X156845000Y-72390000D01*
X144117000Y-69187000D02*
X147320000Y-72390000D01*
X159639000Y-78085000D02*
X159365000Y-78085000D01*
X159512000Y-80485000D02*
X159512000Y-78212000D01*
X149320000Y-95885000D02*
X156845000Y-95885000D01*
X161290000Y-97155000D02*
X161290000Y-81185000D01*
X160655000Y-97790000D02*
X161290000Y-97155000D01*
X158750000Y-97790000D02*
X160655000Y-97790000D01*
X156845000Y-95885000D02*
X158750000Y-97790000D01*
X160655000Y-81185000D02*
X163830000Y-81185000D01*
X161290000Y-81185000D02*
X161290000Y-81280000D01*
X161290000Y-81280000D02*
X161290000Y-81185000D01*
X161290000Y-81185000D02*
X160655000Y-81185000D01*
X160655000Y-81185000D02*
X160212000Y-81185000D01*
X160212000Y-81185000D02*
X159512000Y-80485000D01*
D33*
G36*
X183312600Y-107849200D02*
X142367000Y-107849200D01*
X142367000Y-100542219D01*
X148002507Y-100542219D01*
X148118374Y-100838000D01*
X151003000Y-100838000D01*
X151003000Y-99060000D01*
X151257000Y-99060000D01*
X151257000Y-100838000D01*
X154141626Y-100838000D01*
X154257493Y-100542219D01*
X154208591Y-100353321D01*
X153836841Y-99707764D01*
X153246345Y-99253610D01*
X152527000Y-99060000D01*
X151257000Y-99060000D01*
X151003000Y-99060000D01*
X149733000Y-99060000D01*
X149013655Y-99253610D01*
X148423159Y-99707764D01*
X148051409Y-100353321D01*
X148002507Y-100542219D01*
X142367000Y-100542219D01*
X142367000Y-96770000D01*
X143422560Y-96770000D01*
X143422560Y-96785000D01*
X143466838Y-97020317D01*
X143605910Y-97236441D01*
X143818110Y-97381431D01*
X144070000Y-97432440D01*
X146570000Y-97432440D01*
X146805317Y-97388162D01*
X147021441Y-97249090D01*
X147166431Y-97036890D01*
X147217440Y-96785000D01*
X147217440Y-94985000D01*
X147173162Y-94749683D01*
X147034090Y-94533559D01*
X146864141Y-94417438D01*
X147543829Y-93737750D01*
X156220000Y-93737750D01*
X156220000Y-94328309D01*
X156316673Y-94561698D01*
X156495301Y-94740327D01*
X156728690Y-94837000D01*
X157194250Y-94837000D01*
X157353000Y-94678250D01*
X157353000Y-93579000D01*
X157607000Y-93579000D01*
X157607000Y-94678250D01*
X157765750Y-94837000D01*
X158231310Y-94837000D01*
X158464699Y-94740327D01*
X158643327Y-94561698D01*
X158740000Y-94328309D01*
X158740000Y-93737750D01*
X158581250Y-93579000D01*
X157607000Y-93579000D01*
X157353000Y-93579000D01*
X156378750Y-93579000D01*
X156220000Y-93737750D01*
X147543829Y-93737750D01*
X147686579Y-93595000D01*
X151637995Y-93595000D01*
X151638000Y-93595001D01*
X151920484Y-93538810D01*
X151976675Y-93527633D01*
X152263790Y-93335790D01*
X152263791Y-93335789D01*
X156279579Y-89320000D01*
X158482156Y-89320000D01*
X158524910Y-89386441D01*
X158737110Y-89531431D01*
X158750197Y-89534081D01*
X158537559Y-89670910D01*
X158510493Y-89710522D01*
X158356890Y-89605569D01*
X158105000Y-89554560D01*
X156855000Y-89554560D01*
X156619683Y-89598838D01*
X156403559Y-89737910D01*
X156258569Y-89950110D01*
X156207560Y-90202000D01*
X156207560Y-91702000D01*
X156251838Y-91937317D01*
X156390910Y-92153441D01*
X156459006Y-92199969D01*
X156316673Y-92342302D01*
X156220000Y-92575691D01*
X156220000Y-93166250D01*
X156378750Y-93325000D01*
X157353000Y-93325000D01*
X157353000Y-93305000D01*
X157607000Y-93305000D01*
X157607000Y-93325000D01*
X158581250Y-93325000D01*
X158740000Y-93166250D01*
X158740000Y-92575691D01*
X158643327Y-92342302D01*
X158502090Y-92201064D01*
X158556441Y-92166090D01*
X158583507Y-92126478D01*
X158737110Y-92231431D01*
X158989000Y-92282440D01*
X160289000Y-92282440D01*
X160405000Y-92260613D01*
X160405000Y-96788421D01*
X160288420Y-96905000D01*
X159116579Y-96905000D01*
X157470790Y-95259210D01*
X157183675Y-95067367D01*
X157127484Y-95056190D01*
X156845000Y-94999999D01*
X156844995Y-95000000D01*
X151217440Y-95000000D01*
X151217440Y-94985000D01*
X151173162Y-94749683D01*
X151034090Y-94533559D01*
X150821890Y-94388569D01*
X150570000Y-94337560D01*
X148070000Y-94337560D01*
X147834683Y-94381838D01*
X147618559Y-94520910D01*
X147473569Y-94733110D01*
X147422560Y-94985000D01*
X147422560Y-96785000D01*
X147466838Y-97020317D01*
X147605910Y-97236441D01*
X147818110Y-97381431D01*
X148070000Y-97432440D01*
X150570000Y-97432440D01*
X150805317Y-97388162D01*
X151021441Y-97249090D01*
X151166431Y-97036890D01*
X151217440Y-96785000D01*
X151217440Y-96770000D01*
X156478420Y-96770000D01*
X158124208Y-98415787D01*
X158124210Y-98415790D01*
X158411325Y-98607633D01*
X158467516Y-98618810D01*
X158750000Y-98675001D01*
X158750005Y-98675000D01*
X160654995Y-98675000D01*
X160655000Y-98675001D01*
X160937484Y-98618810D01*
X160993675Y-98607633D01*
X161280790Y-98415790D01*
X161280791Y-98415789D01*
X161915787Y-97780792D01*
X161915790Y-97780790D01*
X162107633Y-97493675D01*
X162107634Y-97493674D01*
X162175001Y-97155000D01*
X162175000Y-97154995D01*
X162175000Y-85470750D01*
X162295000Y-85470750D01*
X162295000Y-86561309D01*
X162391673Y-86794698D01*
X162570301Y-86973327D01*
X162803690Y-87070000D01*
X163544250Y-87070000D01*
X163703000Y-86911250D01*
X163703000Y-85312000D01*
X162453750Y-85312000D01*
X162295000Y-85470750D01*
X162175000Y-85470750D01*
X162175000Y-83808691D01*
X162295000Y-83808691D01*
X162295000Y-84899250D01*
X162453750Y-85058000D01*
X163703000Y-85058000D01*
X163703000Y-83458750D01*
X163544250Y-83300000D01*
X162803690Y-83300000D01*
X162570301Y-83396673D01*
X162391673Y-83575302D01*
X162295000Y-83808691D01*
X162175000Y-83808691D01*
X162175000Y-82070000D01*
X162282560Y-82070000D01*
X162282560Y-82435000D01*
X162326838Y-82670317D01*
X162465910Y-82886441D01*
X162678110Y-83031431D01*
X162930000Y-83082440D01*
X164730000Y-83082440D01*
X164850000Y-83059860D01*
X164850000Y-83300000D01*
X164115750Y-83300000D01*
X163957000Y-83458750D01*
X163957000Y-85058000D01*
X163977000Y-85058000D01*
X163977000Y-85312000D01*
X163957000Y-85312000D01*
X163957000Y-86911250D01*
X164115750Y-87070000D01*
X164850000Y-87070000D01*
X164850000Y-97423421D01*
X160288420Y-101985000D01*
X154940005Y-101985000D01*
X154940000Y-101984999D01*
X154657516Y-102041190D01*
X154601325Y-102052367D01*
X154314210Y-102244210D01*
X154314208Y-102244213D01*
X153402341Y-103156080D01*
X153191214Y-103015009D01*
X152462202Y-102870000D01*
X152527000Y-102870000D01*
X153246345Y-102676390D01*
X153836841Y-102222236D01*
X154208591Y-101576679D01*
X154257493Y-101387781D01*
X154141626Y-101092000D01*
X151257000Y-101092000D01*
X151257000Y-102870000D01*
X151003000Y-102870000D01*
X151003000Y-101092000D01*
X148118374Y-101092000D01*
X148002507Y-101387781D01*
X148051409Y-101576679D01*
X148423159Y-102222236D01*
X149013655Y-102676390D01*
X149733000Y-102870000D01*
X149797798Y-102870000D01*
X149068786Y-103015009D01*
X148450760Y-103427962D01*
X148037807Y-104045988D01*
X147892798Y-104775000D01*
X148037807Y-105504012D01*
X148450760Y-106122038D01*
X149068786Y-106534991D01*
X149797798Y-106680000D01*
X152462202Y-106680000D01*
X153191214Y-106534991D01*
X153809240Y-106122038D01*
X154222193Y-105504012D01*
X154367202Y-104775000D01*
X154353826Y-104707754D01*
X155306579Y-103755000D01*
X160654995Y-103755000D01*
X160655000Y-103755001D01*
X160937484Y-103698810D01*
X160993675Y-103687633D01*
X161280790Y-103495790D01*
X161280791Y-103495789D01*
X166360787Y-98415792D01*
X166360790Y-98415790D01*
X166552633Y-98128675D01*
X166583672Y-97972633D01*
X166620001Y-97790000D01*
X166620000Y-97789995D01*
X166620000Y-87058139D01*
X166740000Y-87082440D01*
X168285860Y-87082440D01*
X171838480Y-90635060D01*
X171450995Y-91568229D01*
X171449011Y-93841796D01*
X171487910Y-93935939D01*
X163512677Y-101911172D01*
X163377592Y-102108875D01*
X163323108Y-102360037D01*
X163370632Y-102612608D01*
X163512677Y-102826790D01*
X167048210Y-106362323D01*
X167245913Y-106497408D01*
X167497075Y-106551892D01*
X167749646Y-106504368D01*
X167963828Y-106362323D01*
X175937672Y-98388479D01*
X176023229Y-98424005D01*
X178296796Y-98425989D01*
X180398058Y-97557766D01*
X182007116Y-95951514D01*
X182879005Y-93851771D01*
X182880989Y-91578204D01*
X182012766Y-89476942D01*
X180406514Y-87867884D01*
X178306771Y-86995995D01*
X176033204Y-86994011D01*
X173931942Y-87862234D01*
X172749347Y-89042767D01*
X169187440Y-85480860D01*
X169187440Y-83935000D01*
X169143162Y-83699683D01*
X169004090Y-83483559D01*
X168791890Y-83338569D01*
X168540000Y-83287560D01*
X166740000Y-83287560D01*
X166620000Y-83310140D01*
X166620000Y-83058139D01*
X166740000Y-83082440D01*
X168540000Y-83082440D01*
X168775317Y-83038162D01*
X168991441Y-82899090D01*
X169136431Y-82686890D01*
X169187440Y-82435000D01*
X169187440Y-79935000D01*
X169143162Y-79699683D01*
X169004090Y-79483559D01*
X168791890Y-79338569D01*
X168540000Y-79287560D01*
X168525000Y-79287560D01*
X168525000Y-74295005D01*
X168525001Y-74295000D01*
X168463798Y-73987317D01*
X168457633Y-73956325D01*
X168265790Y-73669210D01*
X168265787Y-73669208D01*
X163973909Y-69377329D01*
X168673276Y-69377329D01*
X168673276Y-69601836D01*
X173510282Y-74438841D01*
X173743671Y-74535514D01*
X173996290Y-74535515D01*
X174229679Y-74438842D01*
X174408307Y-74260213D01*
X175884705Y-72783816D01*
X175884705Y-72559310D01*
X170688000Y-67362605D01*
X168673276Y-69377329D01*
X163973909Y-69377329D01*
X161280790Y-66684210D01*
X161267006Y-66675000D01*
X160993675Y-66492367D01*
X160937484Y-66481190D01*
X160655000Y-66424999D01*
X160654995Y-66425000D01*
X150614440Y-66425000D01*
X150614440Y-66060000D01*
X150570162Y-65824683D01*
X150431090Y-65608559D01*
X150218890Y-65463569D01*
X149967000Y-65412560D01*
X147467000Y-65412560D01*
X147231683Y-65456838D01*
X147015559Y-65595910D01*
X146951396Y-65689816D01*
X146040790Y-64779210D01*
X146018272Y-64764164D01*
X145753675Y-64587367D01*
X145697484Y-64576190D01*
X145415000Y-64519999D01*
X145414995Y-64520000D01*
X142367000Y-64520000D01*
X142367000Y-63874710D01*
X163335485Y-63874710D01*
X163335486Y-64127329D01*
X163432159Y-64360718D01*
X168269164Y-69197724D01*
X168493671Y-69197724D01*
X170508395Y-67183000D01*
X170867605Y-67183000D01*
X176064310Y-72379705D01*
X176288816Y-72379705D01*
X177765213Y-70903307D01*
X177943842Y-70724679D01*
X178040515Y-70491290D01*
X178040514Y-70238671D01*
X177943841Y-70005282D01*
X173106836Y-65168276D01*
X172882329Y-65168276D01*
X170867605Y-67183000D01*
X170508395Y-67183000D01*
X165311690Y-61986295D01*
X165087184Y-61986295D01*
X163610787Y-63462693D01*
X163432158Y-63641321D01*
X163335485Y-63874710D01*
X142367000Y-63874710D01*
X142367000Y-62943320D01*
X142963285Y-62943320D01*
X143092533Y-63236123D01*
X143792806Y-63504388D01*
X144542435Y-63484250D01*
X145141467Y-63236123D01*
X145270715Y-62943320D01*
X147563285Y-62943320D01*
X147692533Y-63236123D01*
X148392806Y-63504388D01*
X149142435Y-63484250D01*
X149741467Y-63236123D01*
X149870715Y-62943320D01*
X148717000Y-61789605D01*
X147563285Y-62943320D01*
X145270715Y-62943320D01*
X144117000Y-61789605D01*
X142963285Y-62943320D01*
X142367000Y-62943320D01*
X142367000Y-62335401D01*
X142490877Y-62634467D01*
X142783680Y-62763715D01*
X143937395Y-61610000D01*
X144296605Y-61610000D01*
X145450320Y-62763715D01*
X145743123Y-62634467D01*
X146011388Y-61934194D01*
X145993970Y-61285806D01*
X146822612Y-61285806D01*
X146842750Y-62035435D01*
X147090877Y-62634467D01*
X147383680Y-62763715D01*
X148537395Y-61610000D01*
X148896605Y-61610000D01*
X150050320Y-62763715D01*
X150343123Y-62634467D01*
X150611388Y-61934194D01*
X150601932Y-61582184D01*
X165491295Y-61582184D01*
X165491295Y-61806690D01*
X170688000Y-67003395D01*
X172702724Y-64988671D01*
X172702724Y-64764164D01*
X167865718Y-59927159D01*
X167632329Y-59830486D01*
X167379710Y-59830485D01*
X167146321Y-59927158D01*
X166967693Y-60105787D01*
X165491295Y-61582184D01*
X150601932Y-61582184D01*
X150591250Y-61184565D01*
X150343123Y-60585533D01*
X150050320Y-60456285D01*
X148896605Y-61610000D01*
X148537395Y-61610000D01*
X147383680Y-60456285D01*
X147090877Y-60585533D01*
X146822612Y-61285806D01*
X145993970Y-61285806D01*
X145991250Y-61184565D01*
X145743123Y-60585533D01*
X145450320Y-60456285D01*
X144296605Y-61610000D01*
X143937395Y-61610000D01*
X142783680Y-60456285D01*
X142490877Y-60585533D01*
X142367000Y-60908899D01*
X142367000Y-60276680D01*
X142963285Y-60276680D01*
X144117000Y-61430395D01*
X145270715Y-60276680D01*
X147563285Y-60276680D01*
X148717000Y-61430395D01*
X149870715Y-60276680D01*
X149741467Y-59983877D01*
X149041194Y-59715612D01*
X148291565Y-59735750D01*
X147692533Y-59983877D01*
X147563285Y-60276680D01*
X145270715Y-60276680D01*
X145141467Y-59983877D01*
X144441194Y-59715612D01*
X143691565Y-59735750D01*
X143092533Y-59983877D01*
X142963285Y-60276680D01*
X142367000Y-60276680D01*
X142367000Y-58520800D01*
X183312600Y-58520800D01*
X183312600Y-107849200D01*
X183312600Y-107849200D01*
G37*
X183312600Y-107849200D02*
X142367000Y-107849200D01*
X142367000Y-100542219D01*
X148002507Y-100542219D01*
X148118374Y-100838000D01*
X151003000Y-100838000D01*
X151003000Y-99060000D01*
X151257000Y-99060000D01*
X151257000Y-100838000D01*
X154141626Y-100838000D01*
X154257493Y-100542219D01*
X154208591Y-100353321D01*
X153836841Y-99707764D01*
X153246345Y-99253610D01*
X152527000Y-99060000D01*
X151257000Y-99060000D01*
X151003000Y-99060000D01*
X149733000Y-99060000D01*
X149013655Y-99253610D01*
X148423159Y-99707764D01*
X148051409Y-100353321D01*
X148002507Y-100542219D01*
X142367000Y-100542219D01*
X142367000Y-96770000D01*
X143422560Y-96770000D01*
X143422560Y-96785000D01*
X143466838Y-97020317D01*
X143605910Y-97236441D01*
X143818110Y-97381431D01*
X144070000Y-97432440D01*
X146570000Y-97432440D01*
X146805317Y-97388162D01*
X147021441Y-97249090D01*
X147166431Y-97036890D01*
X147217440Y-96785000D01*
X147217440Y-94985000D01*
X147173162Y-94749683D01*
X147034090Y-94533559D01*
X146864141Y-94417438D01*
X147543829Y-93737750D01*
X156220000Y-93737750D01*
X156220000Y-94328309D01*
X156316673Y-94561698D01*
X156495301Y-94740327D01*
X156728690Y-94837000D01*
X157194250Y-94837000D01*
X157353000Y-94678250D01*
X157353000Y-93579000D01*
X157607000Y-93579000D01*
X157607000Y-94678250D01*
X157765750Y-94837000D01*
X158231310Y-94837000D01*
X158464699Y-94740327D01*
X158643327Y-94561698D01*
X158740000Y-94328309D01*
X158740000Y-93737750D01*
X158581250Y-93579000D01*
X157607000Y-93579000D01*
X157353000Y-93579000D01*
X156378750Y-93579000D01*
X156220000Y-93737750D01*
X147543829Y-93737750D01*
X147686579Y-93595000D01*
X151637995Y-93595000D01*
X151638000Y-93595001D01*
X151920484Y-93538810D01*
X151976675Y-93527633D01*
X152263790Y-93335790D01*
X152263791Y-93335789D01*
X156279579Y-89320000D01*
X158482156Y-89320000D01*
X158524910Y-89386441D01*
X158737110Y-89531431D01*
X158750197Y-89534081D01*
X158537559Y-89670910D01*
X158510493Y-89710522D01*
X158356890Y-89605569D01*
X158105000Y-89554560D01*
X156855000Y-89554560D01*
X156619683Y-89598838D01*
X156403559Y-89737910D01*
X156258569Y-89950110D01*
X156207560Y-90202000D01*
X156207560Y-91702000D01*
X156251838Y-91937317D01*
X156390910Y-92153441D01*
X156459006Y-92199969D01*
X156316673Y-92342302D01*
X156220000Y-92575691D01*
X156220000Y-93166250D01*
X156378750Y-93325000D01*
X157353000Y-93325000D01*
X157353000Y-93305000D01*
X157607000Y-93305000D01*
X157607000Y-93325000D01*
X158581250Y-93325000D01*
X158740000Y-93166250D01*
X158740000Y-92575691D01*
X158643327Y-92342302D01*
X158502090Y-92201064D01*
X158556441Y-92166090D01*
X158583507Y-92126478D01*
X158737110Y-92231431D01*
X158989000Y-92282440D01*
X160289000Y-92282440D01*
X160405000Y-92260613D01*
X160405000Y-96788421D01*
X160288420Y-96905000D01*
X159116579Y-96905000D01*
X157470790Y-95259210D01*
X157183675Y-95067367D01*
X157127484Y-95056190D01*
X156845000Y-94999999D01*
X156844995Y-95000000D01*
X151217440Y-95000000D01*
X151217440Y-94985000D01*
X151173162Y-94749683D01*
X151034090Y-94533559D01*
X150821890Y-94388569D01*
X150570000Y-94337560D01*
X148070000Y-94337560D01*
X147834683Y-94381838D01*
X147618559Y-94520910D01*
X147473569Y-94733110D01*
X147422560Y-94985000D01*
X147422560Y-96785000D01*
X147466838Y-97020317D01*
X147605910Y-97236441D01*
X147818110Y-97381431D01*
X148070000Y-97432440D01*
X150570000Y-97432440D01*
X150805317Y-97388162D01*
X151021441Y-97249090D01*
X151166431Y-97036890D01*
X151217440Y-96785000D01*
X151217440Y-96770000D01*
X156478420Y-96770000D01*
X158124208Y-98415787D01*
X158124210Y-98415790D01*
X158411325Y-98607633D01*
X158467516Y-98618810D01*
X158750000Y-98675001D01*
X158750005Y-98675000D01*
X160654995Y-98675000D01*
X160655000Y-98675001D01*
X160937484Y-98618810D01*
X160993675Y-98607633D01*
X161280790Y-98415790D01*
X161280791Y-98415789D01*
X161915787Y-97780792D01*
X161915790Y-97780790D01*
X162107633Y-97493675D01*
X162107634Y-97493674D01*
X162175001Y-97155000D01*
X162175000Y-97154995D01*
X162175000Y-85470750D01*
X162295000Y-85470750D01*
X162295000Y-86561309D01*
X162391673Y-86794698D01*
X162570301Y-86973327D01*
X162803690Y-87070000D01*
X163544250Y-87070000D01*
X163703000Y-86911250D01*
X163703000Y-85312000D01*
X162453750Y-85312000D01*
X162295000Y-85470750D01*
X162175000Y-85470750D01*
X162175000Y-83808691D01*
X162295000Y-83808691D01*
X162295000Y-84899250D01*
X162453750Y-85058000D01*
X163703000Y-85058000D01*
X163703000Y-83458750D01*
X163544250Y-83300000D01*
X162803690Y-83300000D01*
X162570301Y-83396673D01*
X162391673Y-83575302D01*
X162295000Y-83808691D01*
X162175000Y-83808691D01*
X162175000Y-82070000D01*
X162282560Y-82070000D01*
X162282560Y-82435000D01*
X162326838Y-82670317D01*
X162465910Y-82886441D01*
X162678110Y-83031431D01*
X162930000Y-83082440D01*
X164730000Y-83082440D01*
X164850000Y-83059860D01*
X164850000Y-83300000D01*
X164115750Y-83300000D01*
X163957000Y-83458750D01*
X163957000Y-85058000D01*
X163977000Y-85058000D01*
X163977000Y-85312000D01*
X163957000Y-85312000D01*
X163957000Y-86911250D01*
X164115750Y-87070000D01*
X164850000Y-87070000D01*
X164850000Y-97423421D01*
X160288420Y-101985000D01*
X154940005Y-101985000D01*
X154940000Y-101984999D01*
X154657516Y-102041190D01*
X154601325Y-102052367D01*
X154314210Y-102244210D01*
X154314208Y-102244213D01*
X153402341Y-103156080D01*
X153191214Y-103015009D01*
X152462202Y-102870000D01*
X152527000Y-102870000D01*
X153246345Y-102676390D01*
X153836841Y-102222236D01*
X154208591Y-101576679D01*
X154257493Y-101387781D01*
X154141626Y-101092000D01*
X151257000Y-101092000D01*
X151257000Y-102870000D01*
X151003000Y-102870000D01*
X151003000Y-101092000D01*
X148118374Y-101092000D01*
X148002507Y-101387781D01*
X148051409Y-101576679D01*
X148423159Y-102222236D01*
X149013655Y-102676390D01*
X149733000Y-102870000D01*
X149797798Y-102870000D01*
X149068786Y-103015009D01*
X148450760Y-103427962D01*
X148037807Y-104045988D01*
X147892798Y-104775000D01*
X148037807Y-105504012D01*
X148450760Y-106122038D01*
X149068786Y-106534991D01*
X149797798Y-106680000D01*
X152462202Y-106680000D01*
X153191214Y-106534991D01*
X153809240Y-106122038D01*
X154222193Y-105504012D01*
X154367202Y-104775000D01*
X154353826Y-104707754D01*
X155306579Y-103755000D01*
X160654995Y-103755000D01*
X160655000Y-103755001D01*
X160937484Y-103698810D01*
X160993675Y-103687633D01*
X161280790Y-103495790D01*
X161280791Y-103495789D01*
X166360787Y-98415792D01*
X166360790Y-98415790D01*
X166552633Y-98128675D01*
X166583672Y-97972633D01*
X166620001Y-97790000D01*
X166620000Y-97789995D01*
X166620000Y-87058139D01*
X166740000Y-87082440D01*
X168285860Y-87082440D01*
X171838480Y-90635060D01*
X171450995Y-91568229D01*
X171449011Y-93841796D01*
X171487910Y-93935939D01*
X163512677Y-101911172D01*
X163377592Y-102108875D01*
X163323108Y-102360037D01*
X163370632Y-102612608D01*
X163512677Y-102826790D01*
X167048210Y-106362323D01*
X167245913Y-106497408D01*
X167497075Y-106551892D01*
X167749646Y-106504368D01*
X167963828Y-106362323D01*
X175937672Y-98388479D01*
X176023229Y-98424005D01*
X178296796Y-98425989D01*
X180398058Y-97557766D01*
X182007116Y-95951514D01*
X182879005Y-93851771D01*
X182880989Y-91578204D01*
X182012766Y-89476942D01*
X180406514Y-87867884D01*
X178306771Y-86995995D01*
X176033204Y-86994011D01*
X173931942Y-87862234D01*
X172749347Y-89042767D01*
X169187440Y-85480860D01*
X169187440Y-83935000D01*
X169143162Y-83699683D01*
X169004090Y-83483559D01*
X168791890Y-83338569D01*
X168540000Y-83287560D01*
X166740000Y-83287560D01*
X166620000Y-83310140D01*
X166620000Y-83058139D01*
X166740000Y-83082440D01*
X168540000Y-83082440D01*
X168775317Y-83038162D01*
X168991441Y-82899090D01*
X169136431Y-82686890D01*
X169187440Y-82435000D01*
X169187440Y-79935000D01*
X169143162Y-79699683D01*
X169004090Y-79483559D01*
X168791890Y-79338569D01*
X168540000Y-79287560D01*
X168525000Y-79287560D01*
X168525000Y-74295005D01*
X168525001Y-74295000D01*
X168463798Y-73987317D01*
X168457633Y-73956325D01*
X168265790Y-73669210D01*
X168265787Y-73669208D01*
X163973909Y-69377329D01*
X168673276Y-69377329D01*
X168673276Y-69601836D01*
X173510282Y-74438841D01*
X173743671Y-74535514D01*
X173996290Y-74535515D01*
X174229679Y-74438842D01*
X174408307Y-74260213D01*
X175884705Y-72783816D01*
X175884705Y-72559310D01*
X170688000Y-67362605D01*
X168673276Y-69377329D01*
X163973909Y-69377329D01*
X161280790Y-66684210D01*
X161267006Y-66675000D01*
X160993675Y-66492367D01*
X160937484Y-66481190D01*
X160655000Y-66424999D01*
X160654995Y-66425000D01*
X150614440Y-66425000D01*
X150614440Y-66060000D01*
X150570162Y-65824683D01*
X150431090Y-65608559D01*
X150218890Y-65463569D01*
X149967000Y-65412560D01*
X147467000Y-65412560D01*
X147231683Y-65456838D01*
X147015559Y-65595910D01*
X146951396Y-65689816D01*
X146040790Y-64779210D01*
X146018272Y-64764164D01*
X145753675Y-64587367D01*
X145697484Y-64576190D01*
X145415000Y-64519999D01*
X145414995Y-64520000D01*
X142367000Y-64520000D01*
X142367000Y-63874710D01*
X163335485Y-63874710D01*
X163335486Y-64127329D01*
X163432159Y-64360718D01*
X168269164Y-69197724D01*
X168493671Y-69197724D01*
X170508395Y-67183000D01*
X170867605Y-67183000D01*
X176064310Y-72379705D01*
X176288816Y-72379705D01*
X177765213Y-70903307D01*
X177943842Y-70724679D01*
X178040515Y-70491290D01*
X178040514Y-70238671D01*
X177943841Y-70005282D01*
X173106836Y-65168276D01*
X172882329Y-65168276D01*
X170867605Y-67183000D01*
X170508395Y-67183000D01*
X165311690Y-61986295D01*
X165087184Y-61986295D01*
X163610787Y-63462693D01*
X163432158Y-63641321D01*
X163335485Y-63874710D01*
X142367000Y-63874710D01*
X142367000Y-62943320D01*
X142963285Y-62943320D01*
X143092533Y-63236123D01*
X143792806Y-63504388D01*
X144542435Y-63484250D01*
X145141467Y-63236123D01*
X145270715Y-62943320D01*
X147563285Y-62943320D01*
X147692533Y-63236123D01*
X148392806Y-63504388D01*
X149142435Y-63484250D01*
X149741467Y-63236123D01*
X149870715Y-62943320D01*
X148717000Y-61789605D01*
X147563285Y-62943320D01*
X145270715Y-62943320D01*
X144117000Y-61789605D01*
X142963285Y-62943320D01*
X142367000Y-62943320D01*
X142367000Y-62335401D01*
X142490877Y-62634467D01*
X142783680Y-62763715D01*
X143937395Y-61610000D01*
X144296605Y-61610000D01*
X145450320Y-62763715D01*
X145743123Y-62634467D01*
X146011388Y-61934194D01*
X145993970Y-61285806D01*
X146822612Y-61285806D01*
X146842750Y-62035435D01*
X147090877Y-62634467D01*
X147383680Y-62763715D01*
X148537395Y-61610000D01*
X148896605Y-61610000D01*
X150050320Y-62763715D01*
X150343123Y-62634467D01*
X150611388Y-61934194D01*
X150601932Y-61582184D01*
X165491295Y-61582184D01*
X165491295Y-61806690D01*
X170688000Y-67003395D01*
X172702724Y-64988671D01*
X172702724Y-64764164D01*
X167865718Y-59927159D01*
X167632329Y-59830486D01*
X167379710Y-59830485D01*
X167146321Y-59927158D01*
X166967693Y-60105787D01*
X165491295Y-61582184D01*
X150601932Y-61582184D01*
X150591250Y-61184565D01*
X150343123Y-60585533D01*
X150050320Y-60456285D01*
X148896605Y-61610000D01*
X148537395Y-61610000D01*
X147383680Y-60456285D01*
X147090877Y-60585533D01*
X146822612Y-61285806D01*
X145993970Y-61285806D01*
X145991250Y-61184565D01*
X145743123Y-60585533D01*
X145450320Y-60456285D01*
X144296605Y-61610000D01*
X143937395Y-61610000D01*
X142783680Y-60456285D01*
X142490877Y-60585533D01*
X142367000Y-60908899D01*
X142367000Y-60276680D01*
X142963285Y-60276680D01*
X144117000Y-61430395D01*
X145270715Y-60276680D01*
X147563285Y-60276680D01*
X148717000Y-61430395D01*
X149870715Y-60276680D01*
X149741467Y-59983877D01*
X149041194Y-59715612D01*
X148291565Y-59735750D01*
X147692533Y-59983877D01*
X147563285Y-60276680D01*
X145270715Y-60276680D01*
X145141467Y-59983877D01*
X144441194Y-59715612D01*
X143691565Y-59735750D01*
X143092533Y-59983877D01*
X142963285Y-60276680D01*
X142367000Y-60276680D01*
X142367000Y-58520800D01*
X183312600Y-58520800D01*
X183312600Y-107849200D01*
G36*
X140843000Y-60221500D02*
X140784446Y-60162946D01*
X140670714Y-60276678D01*
X140541467Y-59983877D01*
X139841194Y-59715612D01*
X139091565Y-59735750D01*
X138492533Y-59983877D01*
X138363285Y-60276680D01*
X139517000Y-61430395D01*
X139531143Y-61416253D01*
X139710748Y-61595858D01*
X139696605Y-61610000D01*
X139710748Y-61624143D01*
X139531143Y-61803748D01*
X139517000Y-61789605D01*
X138363285Y-62943320D01*
X138492533Y-63236123D01*
X139192806Y-63504388D01*
X139942435Y-63484250D01*
X140541467Y-63236123D01*
X140670714Y-62943322D01*
X140784446Y-63057054D01*
X140843000Y-62998500D01*
X140843000Y-64747946D01*
X140796210Y-64779210D01*
X140796208Y-64779213D01*
X140074835Y-65500586D01*
X139893595Y-65425328D01*
X139143695Y-65424674D01*
X138450628Y-65711043D01*
X137919907Y-66240839D01*
X137632328Y-66933405D01*
X137631674Y-67683305D01*
X137918043Y-68376372D01*
X138447839Y-68907093D01*
X139140405Y-69194672D01*
X139890305Y-69195326D01*
X140583372Y-68908957D01*
X140843000Y-68649782D01*
X140843000Y-70743000D01*
X128016005Y-70743000D01*
X128016000Y-70742999D01*
X127733516Y-70799190D01*
X127677325Y-70810367D01*
X127390210Y-71002210D01*
X127390208Y-71002213D01*
X125612210Y-72780210D01*
X125420367Y-73067325D01*
X125418958Y-73074410D01*
X125352999Y-73406000D01*
X125353000Y-73406005D01*
X125353000Y-76961995D01*
X125352999Y-76962000D01*
X125386681Y-77131325D01*
X125420367Y-77300675D01*
X125522815Y-77454000D01*
X125612210Y-77587790D01*
X125861000Y-77836580D01*
X125861000Y-77941778D01*
X125860683Y-77941838D01*
X125644559Y-78080910D01*
X125499569Y-78293110D01*
X125448560Y-78545000D01*
X125448560Y-80045000D01*
X125492838Y-80280317D01*
X125631910Y-80496441D01*
X125844110Y-80641431D01*
X125857197Y-80644081D01*
X125644559Y-80780910D01*
X125499569Y-80993110D01*
X125448560Y-81245000D01*
X125448560Y-82745000D01*
X125492838Y-82980317D01*
X125631910Y-83196441D01*
X125844110Y-83341431D01*
X126095137Y-83392265D01*
X126120210Y-83429790D01*
X127458672Y-84768251D01*
X127396000Y-84755560D01*
X126096000Y-84755560D01*
X125860683Y-84799838D01*
X125644559Y-84938910D01*
X125499569Y-85151110D01*
X125475898Y-85268000D01*
X124111579Y-85268000D01*
X124075440Y-85231861D01*
X124075440Y-84470000D01*
X124031162Y-84234683D01*
X123892090Y-84018559D01*
X123679890Y-83873569D01*
X123529471Y-83843108D01*
X123555140Y-83817440D01*
X124328000Y-83817440D01*
X124563317Y-83773162D01*
X124779441Y-83634090D01*
X124924431Y-83421890D01*
X124975440Y-83170000D01*
X124975440Y-81570000D01*
X124931162Y-81334683D01*
X124792090Y-81118559D01*
X124579890Y-80973569D01*
X124328000Y-80922560D01*
X123028000Y-80922560D01*
X122792683Y-80966838D01*
X122576559Y-81105910D01*
X122431569Y-81318110D01*
X122424809Y-81351490D01*
X122366327Y-81210301D01*
X122187698Y-81031673D01*
X121954309Y-80935000D01*
X121463750Y-80935000D01*
X121305000Y-81093750D01*
X121305000Y-82243000D01*
X121325000Y-82243000D01*
X121325000Y-82497000D01*
X121305000Y-82497000D01*
X121305000Y-82517000D01*
X121051000Y-82517000D01*
X121051000Y-82497000D01*
X120051750Y-82497000D01*
X119893000Y-82655750D01*
X119893000Y-82959267D01*
X119676326Y-83002366D01*
X119612972Y-83044698D01*
X119389210Y-83194210D01*
X119389208Y-83194213D01*
X116364529Y-86218892D01*
X116391440Y-86086000D01*
X116391440Y-83586000D01*
X116347162Y-83350683D01*
X116208090Y-83134559D01*
X115995890Y-82989569D01*
X115744000Y-82938560D01*
X114754000Y-82938560D01*
X114754000Y-82692580D01*
X114894140Y-82552440D01*
X115665000Y-82552440D01*
X115900317Y-82508162D01*
X116116441Y-82369090D01*
X116261431Y-82156890D01*
X116312440Y-81905000D01*
X116312440Y-81443690D01*
X119893000Y-81443690D01*
X119893000Y-82084250D01*
X120051750Y-82243000D01*
X121051000Y-82243000D01*
X121051000Y-81093750D01*
X120892250Y-80935000D01*
X120401691Y-80935000D01*
X120168302Y-81031673D01*
X119989673Y-81210301D01*
X119893000Y-81443690D01*
X116312440Y-81443690D01*
X116312440Y-80655000D01*
X116268162Y-80419683D01*
X116129090Y-80203559D01*
X115916890Y-80058569D01*
X115665000Y-80007560D01*
X114165000Y-80007560D01*
X113929683Y-80051838D01*
X113713559Y-80190910D01*
X113665866Y-80260711D01*
X113629090Y-80203559D01*
X113416890Y-80058569D01*
X113165000Y-80007560D01*
X111665000Y-80007560D01*
X111429683Y-80051838D01*
X111213559Y-80190910D01*
X111074110Y-80395000D01*
X110653222Y-80395000D01*
X110653162Y-80394683D01*
X110514090Y-80178559D01*
X110301890Y-80033569D01*
X110050000Y-79982560D01*
X108550000Y-79982560D01*
X108314683Y-80026838D01*
X108098559Y-80165910D01*
X107953569Y-80378110D01*
X107946809Y-80411490D01*
X107888327Y-80270301D01*
X107709698Y-80091673D01*
X107476309Y-79995000D01*
X106885750Y-79995000D01*
X106727000Y-80153750D01*
X106727000Y-81153000D01*
X106747000Y-81153000D01*
X106747000Y-81407000D01*
X106727000Y-81407000D01*
X106727000Y-82406250D01*
X106885750Y-82565000D01*
X107476309Y-82565000D01*
X107709698Y-82468327D01*
X107888327Y-82289699D01*
X107944654Y-82153713D01*
X107946838Y-82165317D01*
X108085910Y-82381441D01*
X108298110Y-82526431D01*
X108550000Y-82577440D01*
X110050000Y-82577440D01*
X110285317Y-82533162D01*
X110501441Y-82394090D01*
X110646431Y-82181890D01*
X110649851Y-82165000D01*
X111077721Y-82165000D01*
X111200910Y-82356441D01*
X111413110Y-82501431D01*
X111665000Y-82552440D01*
X112984000Y-82552440D01*
X112984000Y-82938560D01*
X111994000Y-82938560D01*
X111758683Y-82982838D01*
X111542559Y-83121910D01*
X111397569Y-83334110D01*
X111346560Y-83586000D01*
X111346560Y-86086000D01*
X111349864Y-86103557D01*
X110499210Y-86954210D01*
X110472337Y-86994429D01*
X109993204Y-86994011D01*
X107891942Y-87862234D01*
X106282884Y-89468486D01*
X105410995Y-91568229D01*
X105409011Y-93841796D01*
X106277234Y-95943058D01*
X107883486Y-97552116D01*
X109983229Y-98424005D01*
X112256796Y-98425989D01*
X112350939Y-98387090D01*
X120326172Y-106362323D01*
X120523875Y-106497408D01*
X120775037Y-106551892D01*
X121027608Y-106504368D01*
X121241790Y-106362323D01*
X124777323Y-102826790D01*
X124912408Y-102629087D01*
X124966892Y-102377925D01*
X124919368Y-102125354D01*
X124777323Y-101911172D01*
X116803479Y-93937328D01*
X116839005Y-93851771D01*
X116839229Y-93595000D01*
X122442420Y-93595000D01*
X125358208Y-96510787D01*
X125358210Y-96510790D01*
X125645325Y-96702633D01*
X125701516Y-96713810D01*
X125984000Y-96770001D01*
X125984005Y-96770000D01*
X129452560Y-96770000D01*
X129452560Y-96785000D01*
X129496838Y-97020317D01*
X129635910Y-97236441D01*
X129848110Y-97381431D01*
X130100000Y-97432440D01*
X130465000Y-97432440D01*
X130465000Y-98147560D01*
X130100000Y-98147560D01*
X129864683Y-98191838D01*
X129648559Y-98330910D01*
X129503569Y-98543110D01*
X129452560Y-98795000D01*
X129452560Y-100595000D01*
X129496838Y-100830317D01*
X129635910Y-101046441D01*
X129848110Y-101191431D01*
X130100000Y-101242440D01*
X131115000Y-101242440D01*
X131115000Y-101597962D01*
X131014683Y-101616838D01*
X130798559Y-101755910D01*
X130653569Y-101968110D01*
X130602560Y-102220000D01*
X130602560Y-103520000D01*
X130646838Y-103755317D01*
X130785910Y-103971441D01*
X130998110Y-104116431D01*
X131250000Y-104167440D01*
X132750000Y-104167440D01*
X132985317Y-104123162D01*
X133201441Y-103984090D01*
X133346431Y-103771890D01*
X133353191Y-103738510D01*
X133411673Y-103879699D01*
X133590302Y-104058327D01*
X133823691Y-104155000D01*
X134414250Y-104155000D01*
X134573000Y-103996250D01*
X134573000Y-102997000D01*
X134827000Y-102997000D01*
X134827000Y-103996250D01*
X134985750Y-104155000D01*
X135576309Y-104155000D01*
X135809698Y-104058327D01*
X135988327Y-103879699D01*
X136085000Y-103646310D01*
X136085000Y-103155750D01*
X135926250Y-102997000D01*
X134827000Y-102997000D01*
X134573000Y-102997000D01*
X134553000Y-102997000D01*
X134553000Y-102743000D01*
X134573000Y-102743000D01*
X134573000Y-101743750D01*
X134827000Y-101743750D01*
X134827000Y-102743000D01*
X135926250Y-102743000D01*
X136085000Y-102584250D01*
X136085000Y-102093690D01*
X135988327Y-101860301D01*
X135809698Y-101681673D01*
X135576309Y-101585000D01*
X134985750Y-101585000D01*
X134827000Y-101743750D01*
X134573000Y-101743750D01*
X134414250Y-101585000D01*
X133823691Y-101585000D01*
X133590302Y-101681673D01*
X133411673Y-101860301D01*
X133355346Y-101996287D01*
X133353162Y-101984683D01*
X133214090Y-101768559D01*
X133001890Y-101623569D01*
X132885000Y-101599898D01*
X132885000Y-101166192D01*
X133051441Y-101059090D01*
X133196431Y-100846890D01*
X133247440Y-100595000D01*
X133247440Y-99980750D01*
X133465000Y-99980750D01*
X133465000Y-100721310D01*
X133561673Y-100954699D01*
X133740302Y-101133327D01*
X133973691Y-101230000D01*
X135064250Y-101230000D01*
X135223000Y-101071250D01*
X135223000Y-99822000D01*
X135477000Y-99822000D01*
X135477000Y-101071250D01*
X135635750Y-101230000D01*
X136726309Y-101230000D01*
X136959698Y-101133327D01*
X137138327Y-100954699D01*
X137235000Y-100721310D01*
X137235000Y-99980750D01*
X137076250Y-99822000D01*
X135477000Y-99822000D01*
X135223000Y-99822000D01*
X133623750Y-99822000D01*
X133465000Y-99980750D01*
X133247440Y-99980750D01*
X133247440Y-98795000D01*
X133223674Y-98668690D01*
X133465000Y-98668690D01*
X133465000Y-99409250D01*
X133623750Y-99568000D01*
X135223000Y-99568000D01*
X135223000Y-98318750D01*
X135477000Y-98318750D01*
X135477000Y-99568000D01*
X137076250Y-99568000D01*
X137235000Y-99409250D01*
X137235000Y-98668690D01*
X137138327Y-98435301D01*
X136959698Y-98256673D01*
X136726309Y-98160000D01*
X135635750Y-98160000D01*
X135477000Y-98318750D01*
X135223000Y-98318750D01*
X135064250Y-98160000D01*
X133973691Y-98160000D01*
X133740302Y-98256673D01*
X133561673Y-98435301D01*
X133465000Y-98668690D01*
X133223674Y-98668690D01*
X133203162Y-98559683D01*
X133064090Y-98343559D01*
X132851890Y-98198569D01*
X132600000Y-98147560D01*
X132235000Y-98147560D01*
X132235000Y-97432440D01*
X132600000Y-97432440D01*
X132835317Y-97388162D01*
X133051441Y-97249090D01*
X133196431Y-97036890D01*
X133247440Y-96785000D01*
X133247440Y-94985000D01*
X133203162Y-94749683D01*
X133064090Y-94533559D01*
X132851890Y-94388569D01*
X132600000Y-94337560D01*
X130100000Y-94337560D01*
X129864683Y-94381838D01*
X129648559Y-94520910D01*
X129503569Y-94733110D01*
X129452560Y-94985000D01*
X129452560Y-95000000D01*
X126350579Y-95000000D01*
X123434790Y-92084210D01*
X123326236Y-92011677D01*
X123147675Y-91892367D01*
X123091484Y-91881190D01*
X122809000Y-91824999D01*
X122808995Y-91825000D01*
X116840774Y-91825000D01*
X116840989Y-91578204D01*
X116497846Y-90747734D01*
X118857579Y-88388000D01*
X125448560Y-88388000D01*
X125448560Y-89603000D01*
X125492838Y-89838317D01*
X125631910Y-90054441D01*
X125844110Y-90199431D01*
X126096000Y-90250440D01*
X127396000Y-90250440D01*
X127631317Y-90206162D01*
X127847441Y-90067090D01*
X127866634Y-90039000D01*
X132968995Y-90039000D01*
X132969000Y-90039001D01*
X133251484Y-89982810D01*
X133307675Y-89971633D01*
X133594790Y-89779790D01*
X135081534Y-88293045D01*
X135155317Y-88279162D01*
X135371441Y-88140090D01*
X135471482Y-87993674D01*
X135482189Y-88009698D01*
X135947736Y-88320767D01*
X136496887Y-88430000D01*
X136553113Y-88430000D01*
X137102264Y-88320767D01*
X137567811Y-88009698D01*
X137654473Y-87880000D01*
X137795861Y-87880000D01*
X137848910Y-87962441D01*
X137917006Y-88008969D01*
X137774673Y-88151302D01*
X137678000Y-88384691D01*
X137678000Y-88975250D01*
X137836750Y-89134000D01*
X138811000Y-89134000D01*
X138811000Y-89114000D01*
X139065000Y-89114000D01*
X139065000Y-89134000D01*
X139085000Y-89134000D01*
X139085000Y-89388000D01*
X139065000Y-89388000D01*
X139065000Y-89408000D01*
X138811000Y-89408000D01*
X138811000Y-89388000D01*
X137836750Y-89388000D01*
X137678000Y-89546750D01*
X137678000Y-90095000D01*
X128905000Y-90095000D01*
X128836413Y-90108643D01*
X128766485Y-90108643D01*
X128280478Y-90205315D01*
X128152508Y-90258322D01*
X128024537Y-90311329D01*
X127612520Y-90586630D01*
X127416630Y-90782520D01*
X127141329Y-91194538D01*
X127101509Y-91290674D01*
X127035315Y-91450478D01*
X126938642Y-91936486D01*
X126938643Y-92075000D01*
X126938642Y-92213514D01*
X127035315Y-92699522D01*
X127070722Y-92785000D01*
X127141329Y-92955462D01*
X127416630Y-93367480D01*
X127612520Y-93563370D01*
X128024537Y-93838671D01*
X128152507Y-93891677D01*
X128280478Y-93944685D01*
X128766485Y-94041357D01*
X128836413Y-94041357D01*
X128905000Y-94055000D01*
X140843000Y-94055000D01*
X140843000Y-95000000D01*
X137247440Y-95000000D01*
X137247440Y-94985000D01*
X137203162Y-94749683D01*
X137064090Y-94533559D01*
X136851890Y-94388569D01*
X136600000Y-94337560D01*
X134100000Y-94337560D01*
X133864683Y-94381838D01*
X133648559Y-94520910D01*
X133503569Y-94733110D01*
X133452560Y-94985000D01*
X133452560Y-96785000D01*
X133496838Y-97020317D01*
X133635910Y-97236441D01*
X133848110Y-97381431D01*
X134100000Y-97432440D01*
X136600000Y-97432440D01*
X136835317Y-97388162D01*
X137051441Y-97249090D01*
X137196431Y-97036890D01*
X137247440Y-96785000D01*
X137247440Y-96770000D01*
X140843000Y-96770000D01*
X140843000Y-107849200D01*
X104977400Y-107849200D01*
X104977400Y-85121750D01*
X105109000Y-85121750D01*
X105109000Y-86212310D01*
X105205673Y-86445699D01*
X105384302Y-86624327D01*
X105617691Y-86721000D01*
X107333250Y-86721000D01*
X107492000Y-86562250D01*
X107492000Y-84963000D01*
X107746000Y-84963000D01*
X107746000Y-86562250D01*
X107904750Y-86721000D01*
X109620309Y-86721000D01*
X109853698Y-86624327D01*
X110032327Y-86445699D01*
X110129000Y-86212310D01*
X110129000Y-85121750D01*
X109970250Y-84963000D01*
X107746000Y-84963000D01*
X107492000Y-84963000D01*
X105267750Y-84963000D01*
X105109000Y-85121750D01*
X104977400Y-85121750D01*
X104977400Y-83459690D01*
X105109000Y-83459690D01*
X105109000Y-84550250D01*
X105267750Y-84709000D01*
X107492000Y-84709000D01*
X107492000Y-83109750D01*
X107746000Y-83109750D01*
X107746000Y-84709000D01*
X109970250Y-84709000D01*
X110129000Y-84550250D01*
X110129000Y-83459690D01*
X110032327Y-83226301D01*
X109853698Y-83047673D01*
X109620309Y-82951000D01*
X107904750Y-82951000D01*
X107746000Y-83109750D01*
X107492000Y-83109750D01*
X107333250Y-82951000D01*
X105617691Y-82951000D01*
X105384302Y-83047673D01*
X105205673Y-83226301D01*
X105109000Y-83459690D01*
X104977400Y-83459690D01*
X104977400Y-81565750D01*
X105215000Y-81565750D01*
X105215000Y-82056310D01*
X105311673Y-82289699D01*
X105490302Y-82468327D01*
X105723691Y-82565000D01*
X106314250Y-82565000D01*
X106473000Y-82406250D01*
X106473000Y-81407000D01*
X105373750Y-81407000D01*
X105215000Y-81565750D01*
X104977400Y-81565750D01*
X104977400Y-80503690D01*
X105215000Y-80503690D01*
X105215000Y-80994250D01*
X105373750Y-81153000D01*
X106473000Y-81153000D01*
X106473000Y-80153750D01*
X106314250Y-79995000D01*
X105723691Y-79995000D01*
X105490302Y-80091673D01*
X105311673Y-80270301D01*
X105215000Y-80503690D01*
X104977400Y-80503690D01*
X104977400Y-72559310D01*
X112405295Y-72559310D01*
X112405295Y-72783816D01*
X113881693Y-74260213D01*
X114060321Y-74438842D01*
X114293710Y-74535515D01*
X114546329Y-74535514D01*
X114779718Y-74438841D01*
X119616724Y-69601836D01*
X119616724Y-69377329D01*
X117602000Y-67362605D01*
X112405295Y-72559310D01*
X104977400Y-72559310D01*
X104977400Y-70491290D01*
X110249485Y-70491290D01*
X110346158Y-70724679D01*
X110524787Y-70903307D01*
X112001184Y-72379705D01*
X112225690Y-72379705D01*
X117422395Y-67183000D01*
X117781605Y-67183000D01*
X119796329Y-69197724D01*
X120020836Y-69197724D01*
X124857841Y-64360718D01*
X124954514Y-64127329D01*
X124954515Y-63874710D01*
X124857842Y-63641321D01*
X124679213Y-63462693D01*
X123202816Y-61986295D01*
X122978310Y-61986295D01*
X117781605Y-67183000D01*
X117422395Y-67183000D01*
X115407671Y-65168276D01*
X115183164Y-65168276D01*
X110346159Y-70005282D01*
X110249486Y-70238671D01*
X110249485Y-70491290D01*
X104977400Y-70491290D01*
X104977400Y-64764164D01*
X115587276Y-64764164D01*
X115587276Y-64988671D01*
X117602000Y-67003395D01*
X122798705Y-61806690D01*
X122798705Y-61582184D01*
X122502327Y-61285806D01*
X137622612Y-61285806D01*
X137642750Y-62035435D01*
X137890877Y-62634467D01*
X138183680Y-62763715D01*
X139337395Y-61610000D01*
X138183680Y-60456285D01*
X137890877Y-60585533D01*
X137622612Y-61285806D01*
X122502327Y-61285806D01*
X121322307Y-60105787D01*
X121143679Y-59927158D01*
X120910290Y-59830485D01*
X120657671Y-59830486D01*
X120424282Y-59927159D01*
X115587276Y-64764164D01*
X104977400Y-64764164D01*
X104977400Y-58520800D01*
X140843000Y-58520800D01*
X140843000Y-60221500D01*
X140843000Y-60221500D01*
G37*
X140843000Y-60221500D02*
X140784446Y-60162946D01*
X140670714Y-60276678D01*
X140541467Y-59983877D01*
X139841194Y-59715612D01*
X139091565Y-59735750D01*
X138492533Y-59983877D01*
X138363285Y-60276680D01*
X139517000Y-61430395D01*
X139531143Y-61416253D01*
X139710748Y-61595858D01*
X139696605Y-61610000D01*
X139710748Y-61624143D01*
X139531143Y-61803748D01*
X139517000Y-61789605D01*
X138363285Y-62943320D01*
X138492533Y-63236123D01*
X139192806Y-63504388D01*
X139942435Y-63484250D01*
X140541467Y-63236123D01*
X140670714Y-62943322D01*
X140784446Y-63057054D01*
X140843000Y-62998500D01*
X140843000Y-64747946D01*
X140796210Y-64779210D01*
X140796208Y-64779213D01*
X140074835Y-65500586D01*
X139893595Y-65425328D01*
X139143695Y-65424674D01*
X138450628Y-65711043D01*
X137919907Y-66240839D01*
X137632328Y-66933405D01*
X137631674Y-67683305D01*
X137918043Y-68376372D01*
X138447839Y-68907093D01*
X139140405Y-69194672D01*
X139890305Y-69195326D01*
X140583372Y-68908957D01*
X140843000Y-68649782D01*
X140843000Y-70743000D01*
X128016005Y-70743000D01*
X128016000Y-70742999D01*
X127733516Y-70799190D01*
X127677325Y-70810367D01*
X127390210Y-71002210D01*
X127390208Y-71002213D01*
X125612210Y-72780210D01*
X125420367Y-73067325D01*
X125418958Y-73074410D01*
X125352999Y-73406000D01*
X125353000Y-73406005D01*
X125353000Y-76961995D01*
X125352999Y-76962000D01*
X125386681Y-77131325D01*
X125420367Y-77300675D01*
X125522815Y-77454000D01*
X125612210Y-77587790D01*
X125861000Y-77836580D01*
X125861000Y-77941778D01*
X125860683Y-77941838D01*
X125644559Y-78080910D01*
X125499569Y-78293110D01*
X125448560Y-78545000D01*
X125448560Y-80045000D01*
X125492838Y-80280317D01*
X125631910Y-80496441D01*
X125844110Y-80641431D01*
X125857197Y-80644081D01*
X125644559Y-80780910D01*
X125499569Y-80993110D01*
X125448560Y-81245000D01*
X125448560Y-82745000D01*
X125492838Y-82980317D01*
X125631910Y-83196441D01*
X125844110Y-83341431D01*
X126095137Y-83392265D01*
X126120210Y-83429790D01*
X127458672Y-84768251D01*
X127396000Y-84755560D01*
X126096000Y-84755560D01*
X125860683Y-84799838D01*
X125644559Y-84938910D01*
X125499569Y-85151110D01*
X125475898Y-85268000D01*
X124111579Y-85268000D01*
X124075440Y-85231861D01*
X124075440Y-84470000D01*
X124031162Y-84234683D01*
X123892090Y-84018559D01*
X123679890Y-83873569D01*
X123529471Y-83843108D01*
X123555140Y-83817440D01*
X124328000Y-83817440D01*
X124563317Y-83773162D01*
X124779441Y-83634090D01*
X124924431Y-83421890D01*
X124975440Y-83170000D01*
X124975440Y-81570000D01*
X124931162Y-81334683D01*
X124792090Y-81118559D01*
X124579890Y-80973569D01*
X124328000Y-80922560D01*
X123028000Y-80922560D01*
X122792683Y-80966838D01*
X122576559Y-81105910D01*
X122431569Y-81318110D01*
X122424809Y-81351490D01*
X122366327Y-81210301D01*
X122187698Y-81031673D01*
X121954309Y-80935000D01*
X121463750Y-80935000D01*
X121305000Y-81093750D01*
X121305000Y-82243000D01*
X121325000Y-82243000D01*
X121325000Y-82497000D01*
X121305000Y-82497000D01*
X121305000Y-82517000D01*
X121051000Y-82517000D01*
X121051000Y-82497000D01*
X120051750Y-82497000D01*
X119893000Y-82655750D01*
X119893000Y-82959267D01*
X119676326Y-83002366D01*
X119612972Y-83044698D01*
X119389210Y-83194210D01*
X119389208Y-83194213D01*
X116364529Y-86218892D01*
X116391440Y-86086000D01*
X116391440Y-83586000D01*
X116347162Y-83350683D01*
X116208090Y-83134559D01*
X115995890Y-82989569D01*
X115744000Y-82938560D01*
X114754000Y-82938560D01*
X114754000Y-82692580D01*
X114894140Y-82552440D01*
X115665000Y-82552440D01*
X115900317Y-82508162D01*
X116116441Y-82369090D01*
X116261431Y-82156890D01*
X116312440Y-81905000D01*
X116312440Y-81443690D01*
X119893000Y-81443690D01*
X119893000Y-82084250D01*
X120051750Y-82243000D01*
X121051000Y-82243000D01*
X121051000Y-81093750D01*
X120892250Y-80935000D01*
X120401691Y-80935000D01*
X120168302Y-81031673D01*
X119989673Y-81210301D01*
X119893000Y-81443690D01*
X116312440Y-81443690D01*
X116312440Y-80655000D01*
X116268162Y-80419683D01*
X116129090Y-80203559D01*
X115916890Y-80058569D01*
X115665000Y-80007560D01*
X114165000Y-80007560D01*
X113929683Y-80051838D01*
X113713559Y-80190910D01*
X113665866Y-80260711D01*
X113629090Y-80203559D01*
X113416890Y-80058569D01*
X113165000Y-80007560D01*
X111665000Y-80007560D01*
X111429683Y-80051838D01*
X111213559Y-80190910D01*
X111074110Y-80395000D01*
X110653222Y-80395000D01*
X110653162Y-80394683D01*
X110514090Y-80178559D01*
X110301890Y-80033569D01*
X110050000Y-79982560D01*
X108550000Y-79982560D01*
X108314683Y-80026838D01*
X108098559Y-80165910D01*
X107953569Y-80378110D01*
X107946809Y-80411490D01*
X107888327Y-80270301D01*
X107709698Y-80091673D01*
X107476309Y-79995000D01*
X106885750Y-79995000D01*
X106727000Y-80153750D01*
X106727000Y-81153000D01*
X106747000Y-81153000D01*
X106747000Y-81407000D01*
X106727000Y-81407000D01*
X106727000Y-82406250D01*
X106885750Y-82565000D01*
X107476309Y-82565000D01*
X107709698Y-82468327D01*
X107888327Y-82289699D01*
X107944654Y-82153713D01*
X107946838Y-82165317D01*
X108085910Y-82381441D01*
X108298110Y-82526431D01*
X108550000Y-82577440D01*
X110050000Y-82577440D01*
X110285317Y-82533162D01*
X110501441Y-82394090D01*
X110646431Y-82181890D01*
X110649851Y-82165000D01*
X111077721Y-82165000D01*
X111200910Y-82356441D01*
X111413110Y-82501431D01*
X111665000Y-82552440D01*
X112984000Y-82552440D01*
X112984000Y-82938560D01*
X111994000Y-82938560D01*
X111758683Y-82982838D01*
X111542559Y-83121910D01*
X111397569Y-83334110D01*
X111346560Y-83586000D01*
X111346560Y-86086000D01*
X111349864Y-86103557D01*
X110499210Y-86954210D01*
X110472337Y-86994429D01*
X109993204Y-86994011D01*
X107891942Y-87862234D01*
X106282884Y-89468486D01*
X105410995Y-91568229D01*
X105409011Y-93841796D01*
X106277234Y-95943058D01*
X107883486Y-97552116D01*
X109983229Y-98424005D01*
X112256796Y-98425989D01*
X112350939Y-98387090D01*
X120326172Y-106362323D01*
X120523875Y-106497408D01*
X120775037Y-106551892D01*
X121027608Y-106504368D01*
X121241790Y-106362323D01*
X124777323Y-102826790D01*
X124912408Y-102629087D01*
X124966892Y-102377925D01*
X124919368Y-102125354D01*
X124777323Y-101911172D01*
X116803479Y-93937328D01*
X116839005Y-93851771D01*
X116839229Y-93595000D01*
X122442420Y-93595000D01*
X125358208Y-96510787D01*
X125358210Y-96510790D01*
X125645325Y-96702633D01*
X125701516Y-96713810D01*
X125984000Y-96770001D01*
X125984005Y-96770000D01*
X129452560Y-96770000D01*
X129452560Y-96785000D01*
X129496838Y-97020317D01*
X129635910Y-97236441D01*
X129848110Y-97381431D01*
X130100000Y-97432440D01*
X130465000Y-97432440D01*
X130465000Y-98147560D01*
X130100000Y-98147560D01*
X129864683Y-98191838D01*
X129648559Y-98330910D01*
X129503569Y-98543110D01*
X129452560Y-98795000D01*
X129452560Y-100595000D01*
X129496838Y-100830317D01*
X129635910Y-101046441D01*
X129848110Y-101191431D01*
X130100000Y-101242440D01*
X131115000Y-101242440D01*
X131115000Y-101597962D01*
X131014683Y-101616838D01*
X130798559Y-101755910D01*
X130653569Y-101968110D01*
X130602560Y-102220000D01*
X130602560Y-103520000D01*
X130646838Y-103755317D01*
X130785910Y-103971441D01*
X130998110Y-104116431D01*
X131250000Y-104167440D01*
X132750000Y-104167440D01*
X132985317Y-104123162D01*
X133201441Y-103984090D01*
X133346431Y-103771890D01*
X133353191Y-103738510D01*
X133411673Y-103879699D01*
X133590302Y-104058327D01*
X133823691Y-104155000D01*
X134414250Y-104155000D01*
X134573000Y-103996250D01*
X134573000Y-102997000D01*
X134827000Y-102997000D01*
X134827000Y-103996250D01*
X134985750Y-104155000D01*
X135576309Y-104155000D01*
X135809698Y-104058327D01*
X135988327Y-103879699D01*
X136085000Y-103646310D01*
X136085000Y-103155750D01*
X135926250Y-102997000D01*
X134827000Y-102997000D01*
X134573000Y-102997000D01*
X134553000Y-102997000D01*
X134553000Y-102743000D01*
X134573000Y-102743000D01*
X134573000Y-101743750D01*
X134827000Y-101743750D01*
X134827000Y-102743000D01*
X135926250Y-102743000D01*
X136085000Y-102584250D01*
X136085000Y-102093690D01*
X135988327Y-101860301D01*
X135809698Y-101681673D01*
X135576309Y-101585000D01*
X134985750Y-101585000D01*
X134827000Y-101743750D01*
X134573000Y-101743750D01*
X134414250Y-101585000D01*
X133823691Y-101585000D01*
X133590302Y-101681673D01*
X133411673Y-101860301D01*
X133355346Y-101996287D01*
X133353162Y-101984683D01*
X133214090Y-101768559D01*
X133001890Y-101623569D01*
X132885000Y-101599898D01*
X132885000Y-101166192D01*
X133051441Y-101059090D01*
X133196431Y-100846890D01*
X133247440Y-100595000D01*
X133247440Y-99980750D01*
X133465000Y-99980750D01*
X133465000Y-100721310D01*
X133561673Y-100954699D01*
X133740302Y-101133327D01*
X133973691Y-101230000D01*
X135064250Y-101230000D01*
X135223000Y-101071250D01*
X135223000Y-99822000D01*
X135477000Y-99822000D01*
X135477000Y-101071250D01*
X135635750Y-101230000D01*
X136726309Y-101230000D01*
X136959698Y-101133327D01*
X137138327Y-100954699D01*
X137235000Y-100721310D01*
X137235000Y-99980750D01*
X137076250Y-99822000D01*
X135477000Y-99822000D01*
X135223000Y-99822000D01*
X133623750Y-99822000D01*
X133465000Y-99980750D01*
X133247440Y-99980750D01*
X133247440Y-98795000D01*
X133223674Y-98668690D01*
X133465000Y-98668690D01*
X133465000Y-99409250D01*
X133623750Y-99568000D01*
X135223000Y-99568000D01*
X135223000Y-98318750D01*
X135477000Y-98318750D01*
X135477000Y-99568000D01*
X137076250Y-99568000D01*
X137235000Y-99409250D01*
X137235000Y-98668690D01*
X137138327Y-98435301D01*
X136959698Y-98256673D01*
X136726309Y-98160000D01*
X135635750Y-98160000D01*
X135477000Y-98318750D01*
X135223000Y-98318750D01*
X135064250Y-98160000D01*
X133973691Y-98160000D01*
X133740302Y-98256673D01*
X133561673Y-98435301D01*
X133465000Y-98668690D01*
X133223674Y-98668690D01*
X133203162Y-98559683D01*
X133064090Y-98343559D01*
X132851890Y-98198569D01*
X132600000Y-98147560D01*
X132235000Y-98147560D01*
X132235000Y-97432440D01*
X132600000Y-97432440D01*
X132835317Y-97388162D01*
X133051441Y-97249090D01*
X133196431Y-97036890D01*
X133247440Y-96785000D01*
X133247440Y-94985000D01*
X133203162Y-94749683D01*
X133064090Y-94533559D01*
X132851890Y-94388569D01*
X132600000Y-94337560D01*
X130100000Y-94337560D01*
X129864683Y-94381838D01*
X129648559Y-94520910D01*
X129503569Y-94733110D01*
X129452560Y-94985000D01*
X129452560Y-95000000D01*
X126350579Y-95000000D01*
X123434790Y-92084210D01*
X123326236Y-92011677D01*
X123147675Y-91892367D01*
X123091484Y-91881190D01*
X122809000Y-91824999D01*
X122808995Y-91825000D01*
X116840774Y-91825000D01*
X116840989Y-91578204D01*
X116497846Y-90747734D01*
X118857579Y-88388000D01*
X125448560Y-88388000D01*
X125448560Y-89603000D01*
X125492838Y-89838317D01*
X125631910Y-90054441D01*
X125844110Y-90199431D01*
X126096000Y-90250440D01*
X127396000Y-90250440D01*
X127631317Y-90206162D01*
X127847441Y-90067090D01*
X127866634Y-90039000D01*
X132968995Y-90039000D01*
X132969000Y-90039001D01*
X133251484Y-89982810D01*
X133307675Y-89971633D01*
X133594790Y-89779790D01*
X135081534Y-88293045D01*
X135155317Y-88279162D01*
X135371441Y-88140090D01*
X135471482Y-87993674D01*
X135482189Y-88009698D01*
X135947736Y-88320767D01*
X136496887Y-88430000D01*
X136553113Y-88430000D01*
X137102264Y-88320767D01*
X137567811Y-88009698D01*
X137654473Y-87880000D01*
X137795861Y-87880000D01*
X137848910Y-87962441D01*
X137917006Y-88008969D01*
X137774673Y-88151302D01*
X137678000Y-88384691D01*
X137678000Y-88975250D01*
X137836750Y-89134000D01*
X138811000Y-89134000D01*
X138811000Y-89114000D01*
X139065000Y-89114000D01*
X139065000Y-89134000D01*
X139085000Y-89134000D01*
X139085000Y-89388000D01*
X139065000Y-89388000D01*
X139065000Y-89408000D01*
X138811000Y-89408000D01*
X138811000Y-89388000D01*
X137836750Y-89388000D01*
X137678000Y-89546750D01*
X137678000Y-90095000D01*
X128905000Y-90095000D01*
X128836413Y-90108643D01*
X128766485Y-90108643D01*
X128280478Y-90205315D01*
X128152508Y-90258322D01*
X128024537Y-90311329D01*
X127612520Y-90586630D01*
X127416630Y-90782520D01*
X127141329Y-91194538D01*
X127101509Y-91290674D01*
X127035315Y-91450478D01*
X126938642Y-91936486D01*
X126938643Y-92075000D01*
X126938642Y-92213514D01*
X127035315Y-92699522D01*
X127070722Y-92785000D01*
X127141329Y-92955462D01*
X127416630Y-93367480D01*
X127612520Y-93563370D01*
X128024537Y-93838671D01*
X128152507Y-93891677D01*
X128280478Y-93944685D01*
X128766485Y-94041357D01*
X128836413Y-94041357D01*
X128905000Y-94055000D01*
X140843000Y-94055000D01*
X140843000Y-95000000D01*
X137247440Y-95000000D01*
X137247440Y-94985000D01*
X137203162Y-94749683D01*
X137064090Y-94533559D01*
X136851890Y-94388569D01*
X136600000Y-94337560D01*
X134100000Y-94337560D01*
X133864683Y-94381838D01*
X133648559Y-94520910D01*
X133503569Y-94733110D01*
X133452560Y-94985000D01*
X133452560Y-96785000D01*
X133496838Y-97020317D01*
X133635910Y-97236441D01*
X133848110Y-97381431D01*
X134100000Y-97432440D01*
X136600000Y-97432440D01*
X136835317Y-97388162D01*
X137051441Y-97249090D01*
X137196431Y-97036890D01*
X137247440Y-96785000D01*
X137247440Y-96770000D01*
X140843000Y-96770000D01*
X140843000Y-107849200D01*
X104977400Y-107849200D01*
X104977400Y-85121750D01*
X105109000Y-85121750D01*
X105109000Y-86212310D01*
X105205673Y-86445699D01*
X105384302Y-86624327D01*
X105617691Y-86721000D01*
X107333250Y-86721000D01*
X107492000Y-86562250D01*
X107492000Y-84963000D01*
X107746000Y-84963000D01*
X107746000Y-86562250D01*
X107904750Y-86721000D01*
X109620309Y-86721000D01*
X109853698Y-86624327D01*
X110032327Y-86445699D01*
X110129000Y-86212310D01*
X110129000Y-85121750D01*
X109970250Y-84963000D01*
X107746000Y-84963000D01*
X107492000Y-84963000D01*
X105267750Y-84963000D01*
X105109000Y-85121750D01*
X104977400Y-85121750D01*
X104977400Y-83459690D01*
X105109000Y-83459690D01*
X105109000Y-84550250D01*
X105267750Y-84709000D01*
X107492000Y-84709000D01*
X107492000Y-83109750D01*
X107746000Y-83109750D01*
X107746000Y-84709000D01*
X109970250Y-84709000D01*
X110129000Y-84550250D01*
X110129000Y-83459690D01*
X110032327Y-83226301D01*
X109853698Y-83047673D01*
X109620309Y-82951000D01*
X107904750Y-82951000D01*
X107746000Y-83109750D01*
X107492000Y-83109750D01*
X107333250Y-82951000D01*
X105617691Y-82951000D01*
X105384302Y-83047673D01*
X105205673Y-83226301D01*
X105109000Y-83459690D01*
X104977400Y-83459690D01*
X104977400Y-81565750D01*
X105215000Y-81565750D01*
X105215000Y-82056310D01*
X105311673Y-82289699D01*
X105490302Y-82468327D01*
X105723691Y-82565000D01*
X106314250Y-82565000D01*
X106473000Y-82406250D01*
X106473000Y-81407000D01*
X105373750Y-81407000D01*
X105215000Y-81565750D01*
X104977400Y-81565750D01*
X104977400Y-80503690D01*
X105215000Y-80503690D01*
X105215000Y-80994250D01*
X105373750Y-81153000D01*
X106473000Y-81153000D01*
X106473000Y-80153750D01*
X106314250Y-79995000D01*
X105723691Y-79995000D01*
X105490302Y-80091673D01*
X105311673Y-80270301D01*
X105215000Y-80503690D01*
X104977400Y-80503690D01*
X104977400Y-72559310D01*
X112405295Y-72559310D01*
X112405295Y-72783816D01*
X113881693Y-74260213D01*
X114060321Y-74438842D01*
X114293710Y-74535515D01*
X114546329Y-74535514D01*
X114779718Y-74438841D01*
X119616724Y-69601836D01*
X119616724Y-69377329D01*
X117602000Y-67362605D01*
X112405295Y-72559310D01*
X104977400Y-72559310D01*
X104977400Y-70491290D01*
X110249485Y-70491290D01*
X110346158Y-70724679D01*
X110524787Y-70903307D01*
X112001184Y-72379705D01*
X112225690Y-72379705D01*
X117422395Y-67183000D01*
X117781605Y-67183000D01*
X119796329Y-69197724D01*
X120020836Y-69197724D01*
X124857841Y-64360718D01*
X124954514Y-64127329D01*
X124954515Y-63874710D01*
X124857842Y-63641321D01*
X124679213Y-63462693D01*
X123202816Y-61986295D01*
X122978310Y-61986295D01*
X117781605Y-67183000D01*
X117422395Y-67183000D01*
X115407671Y-65168276D01*
X115183164Y-65168276D01*
X110346159Y-70005282D01*
X110249486Y-70238671D01*
X110249485Y-70491290D01*
X104977400Y-70491290D01*
X104977400Y-64764164D01*
X115587276Y-64764164D01*
X115587276Y-64988671D01*
X117602000Y-67003395D01*
X122798705Y-61806690D01*
X122798705Y-61582184D01*
X122502327Y-61285806D01*
X137622612Y-61285806D01*
X137642750Y-62035435D01*
X137890877Y-62634467D01*
X138183680Y-62763715D01*
X139337395Y-61610000D01*
X138183680Y-60456285D01*
X137890877Y-60585533D01*
X137622612Y-61285806D01*
X122502327Y-61285806D01*
X121322307Y-60105787D01*
X121143679Y-59927158D01*
X120910290Y-59830485D01*
X120657671Y-59830486D01*
X120424282Y-59927159D01*
X115587276Y-64764164D01*
X104977400Y-64764164D01*
X104977400Y-58520800D01*
X140843000Y-58520800D01*
X140843000Y-60221500D01*
G36*
X146689000Y-74677579D02*
X146689000Y-79706167D01*
X146516890Y-79588569D01*
X146265000Y-79537560D01*
X144565000Y-79537560D01*
X144329683Y-79581838D01*
X144113559Y-79720910D01*
X143968569Y-79933110D01*
X143917560Y-80185000D01*
X143917560Y-81885000D01*
X143961838Y-82120317D01*
X144000671Y-82180665D01*
X143966178Y-82215098D01*
X143705297Y-82843368D01*
X143704704Y-83523648D01*
X143964487Y-84152372D01*
X143999660Y-84187607D01*
X143968569Y-84233110D01*
X143917560Y-84485000D01*
X143917560Y-86185000D01*
X143961838Y-86420317D01*
X144100910Y-86636441D01*
X144313110Y-86781431D01*
X144387305Y-86796456D01*
X144313559Y-86843910D01*
X144168569Y-87056110D01*
X144117560Y-87308000D01*
X144117560Y-88808000D01*
X144161838Y-89043317D01*
X144300910Y-89259441D01*
X144513110Y-89404431D01*
X144546490Y-89411191D01*
X144405301Y-89469673D01*
X144226673Y-89648302D01*
X144130000Y-89881691D01*
X144130000Y-90472250D01*
X144288750Y-90631000D01*
X145288000Y-90631000D01*
X145288000Y-90611000D01*
X145542000Y-90611000D01*
X145542000Y-90631000D01*
X145562000Y-90631000D01*
X145562000Y-90885000D01*
X145542000Y-90885000D01*
X145542000Y-91984250D01*
X145700750Y-92143000D01*
X146191310Y-92143000D01*
X146424699Y-92046327D01*
X146603327Y-91867698D01*
X146689000Y-91660865D01*
X146689000Y-92089421D01*
X144694210Y-94084210D01*
X144524928Y-94337560D01*
X144070000Y-94337560D01*
X143834683Y-94381838D01*
X143618559Y-94520910D01*
X143473569Y-94733110D01*
X143422560Y-94985000D01*
X143422560Y-95000000D01*
X142367000Y-95000000D01*
X142367000Y-93887739D01*
X142379448Y-93882583D01*
X142485462Y-93838671D01*
X142897480Y-93563370D01*
X143093370Y-93367480D01*
X143368671Y-92955463D01*
X143421678Y-92827492D01*
X143474685Y-92699522D01*
X143571357Y-92213515D01*
X143571357Y-92143587D01*
X143585000Y-92075000D01*
X143585000Y-91043750D01*
X144130000Y-91043750D01*
X144130000Y-91634309D01*
X144226673Y-91867698D01*
X144405301Y-92046327D01*
X144638690Y-92143000D01*
X145129250Y-92143000D01*
X145288000Y-91984250D01*
X145288000Y-90885000D01*
X144288750Y-90885000D01*
X144130000Y-91043750D01*
X143585000Y-91043750D01*
X143585000Y-74295000D01*
X143571357Y-74226413D01*
X143571357Y-74156485D01*
X143474685Y-73670478D01*
X143418770Y-73535488D01*
X143368671Y-73414537D01*
X143093370Y-73002520D01*
X142897480Y-72806630D01*
X142485462Y-72531329D01*
X142441211Y-72513000D01*
X144524420Y-72513000D01*
X146689000Y-74677579D01*
X146689000Y-74677579D01*
G37*
X146689000Y-74677579D02*
X146689000Y-79706167D01*
X146516890Y-79588569D01*
X146265000Y-79537560D01*
X144565000Y-79537560D01*
X144329683Y-79581838D01*
X144113559Y-79720910D01*
X143968569Y-79933110D01*
X143917560Y-80185000D01*
X143917560Y-81885000D01*
X143961838Y-82120317D01*
X144000671Y-82180665D01*
X143966178Y-82215098D01*
X143705297Y-82843368D01*
X143704704Y-83523648D01*
X143964487Y-84152372D01*
X143999660Y-84187607D01*
X143968569Y-84233110D01*
X143917560Y-84485000D01*
X143917560Y-86185000D01*
X143961838Y-86420317D01*
X144100910Y-86636441D01*
X144313110Y-86781431D01*
X144387305Y-86796456D01*
X144313559Y-86843910D01*
X144168569Y-87056110D01*
X144117560Y-87308000D01*
X144117560Y-88808000D01*
X144161838Y-89043317D01*
X144300910Y-89259441D01*
X144513110Y-89404431D01*
X144546490Y-89411191D01*
X144405301Y-89469673D01*
X144226673Y-89648302D01*
X144130000Y-89881691D01*
X144130000Y-90472250D01*
X144288750Y-90631000D01*
X145288000Y-90631000D01*
X145288000Y-90611000D01*
X145542000Y-90611000D01*
X145542000Y-90631000D01*
X145562000Y-90631000D01*
X145562000Y-90885000D01*
X145542000Y-90885000D01*
X145542000Y-91984250D01*
X145700750Y-92143000D01*
X146191310Y-92143000D01*
X146424699Y-92046327D01*
X146603327Y-91867698D01*
X146689000Y-91660865D01*
X146689000Y-92089421D01*
X144694210Y-94084210D01*
X144524928Y-94337560D01*
X144070000Y-94337560D01*
X143834683Y-94381838D01*
X143618559Y-94520910D01*
X143473569Y-94733110D01*
X143422560Y-94985000D01*
X143422560Y-95000000D01*
X142367000Y-95000000D01*
X142367000Y-93887739D01*
X142379448Y-93882583D01*
X142485462Y-93838671D01*
X142897480Y-93563370D01*
X143093370Y-93367480D01*
X143368671Y-92955463D01*
X143421678Y-92827492D01*
X143474685Y-92699522D01*
X143571357Y-92213515D01*
X143571357Y-92143587D01*
X143585000Y-92075000D01*
X143585000Y-91043750D01*
X144130000Y-91043750D01*
X144130000Y-91634309D01*
X144226673Y-91867698D01*
X144405301Y-92046327D01*
X144638690Y-92143000D01*
X145129250Y-92143000D01*
X145288000Y-91984250D01*
X145288000Y-90885000D01*
X144288750Y-90885000D01*
X144130000Y-91043750D01*
X143585000Y-91043750D01*
X143585000Y-74295000D01*
X143571357Y-74226413D01*
X143571357Y-74156485D01*
X143474685Y-73670478D01*
X143418770Y-73535488D01*
X143368671Y-73414537D01*
X143093370Y-73002520D01*
X142897480Y-72806630D01*
X142485462Y-72531329D01*
X142441211Y-72513000D01*
X144524420Y-72513000D01*
X146689000Y-74677579D01*
G36*
X150802910Y-88049441D02*
X151015110Y-88194431D01*
X151267000Y-88245440D01*
X152517000Y-88245440D01*
X152752317Y-88201162D01*
X152851278Y-88137482D01*
X152895110Y-88167431D01*
X153147000Y-88218440D01*
X154192861Y-88218440D01*
X154535421Y-88561000D01*
X151271420Y-91825000D01*
X150685013Y-91825000D01*
X150764000Y-91634309D01*
X150764000Y-91043750D01*
X150605250Y-90885000D01*
X149606000Y-90885000D01*
X149606000Y-90905000D01*
X149352000Y-90905000D01*
X149352000Y-90885000D01*
X149332000Y-90885000D01*
X149332000Y-90631000D01*
X149352000Y-90631000D01*
X149352000Y-90611000D01*
X149606000Y-90611000D01*
X149606000Y-90631000D01*
X150605250Y-90631000D01*
X150764000Y-90472250D01*
X150764000Y-89881691D01*
X150667327Y-89648302D01*
X150488699Y-89469673D01*
X150352713Y-89413346D01*
X150364317Y-89411162D01*
X150580441Y-89272090D01*
X150725431Y-89059890D01*
X150776440Y-88808000D01*
X150776440Y-88008305D01*
X150802910Y-88049441D01*
X150802910Y-88049441D01*
G37*
X150802910Y-88049441D02*
X151015110Y-88194431D01*
X151267000Y-88245440D01*
X152517000Y-88245440D01*
X152752317Y-88201162D01*
X152851278Y-88137482D01*
X152895110Y-88167431D01*
X153147000Y-88218440D01*
X154192861Y-88218440D01*
X154535421Y-88561000D01*
X151271420Y-91825000D01*
X150685013Y-91825000D01*
X150764000Y-91634309D01*
X150764000Y-91043750D01*
X150605250Y-90885000D01*
X149606000Y-90885000D01*
X149606000Y-90905000D01*
X149352000Y-90905000D01*
X149352000Y-90885000D01*
X149332000Y-90885000D01*
X149332000Y-90631000D01*
X149352000Y-90631000D01*
X149352000Y-90611000D01*
X149606000Y-90611000D01*
X149606000Y-90631000D01*
X150605250Y-90631000D01*
X150764000Y-90472250D01*
X150764000Y-89881691D01*
X150667327Y-89648302D01*
X150488699Y-89469673D01*
X150352713Y-89413346D01*
X150364317Y-89411162D01*
X150580441Y-89272090D01*
X150725431Y-89059890D01*
X150776440Y-88808000D01*
X150776440Y-88008305D01*
X150802910Y-88049441D01*
G36*
X158960110Y-81856431D02*
X159212000Y-81907440D01*
X159730858Y-81907440D01*
X159848981Y-81986367D01*
X159873325Y-82002633D01*
X160212000Y-82070000D01*
X160405000Y-82070000D01*
X160405000Y-84858891D01*
X160276090Y-84658559D01*
X160063890Y-84513569D01*
X159812000Y-84462560D01*
X159212000Y-84462560D01*
X158976683Y-84506838D01*
X158877472Y-84570678D01*
X158793890Y-84513569D01*
X158542000Y-84462560D01*
X157942000Y-84462560D01*
X157706683Y-84506838D01*
X157616020Y-84565178D01*
X157398310Y-84475000D01*
X157257750Y-84475000D01*
X157099000Y-84633750D01*
X157099000Y-85758000D01*
X157119000Y-85758000D01*
X157119000Y-86012000D01*
X157099000Y-86012000D01*
X157099000Y-87136250D01*
X157257750Y-87295000D01*
X157398310Y-87295000D01*
X157615122Y-87205194D01*
X157690110Y-87256431D01*
X157942000Y-87307440D01*
X158367392Y-87307440D01*
X158341560Y-87435000D01*
X158341560Y-87550000D01*
X156027579Y-87550000D01*
X155772579Y-87295000D01*
X155829002Y-87295000D01*
X155829002Y-87136252D01*
X155987750Y-87295000D01*
X156128310Y-87295000D01*
X156337000Y-87208558D01*
X156545690Y-87295000D01*
X156686250Y-87295000D01*
X156845000Y-87136250D01*
X156845000Y-86012000D01*
X155829000Y-86012000D01*
X155829000Y-86032000D01*
X155575000Y-86032000D01*
X155575000Y-86012000D01*
X155555000Y-86012000D01*
X155555000Y-85758000D01*
X155575000Y-85758000D01*
X155575000Y-84633750D01*
X155829000Y-84633750D01*
X155829000Y-85758000D01*
X156845000Y-85758000D01*
X156845000Y-84633750D01*
X156686250Y-84475000D01*
X156545690Y-84475000D01*
X156337000Y-84561442D01*
X156128310Y-84475000D01*
X155987750Y-84475000D01*
X155829000Y-84633750D01*
X155575000Y-84633750D01*
X155416250Y-84475000D01*
X155275690Y-84475000D01*
X155094440Y-84550076D01*
X155094440Y-83371000D01*
X155050598Y-83138000D01*
X157268995Y-83138000D01*
X157269000Y-83138001D01*
X157551484Y-83081810D01*
X157607675Y-83070633D01*
X157894790Y-82878790D01*
X158867787Y-81905792D01*
X158867790Y-81905790D01*
X158919370Y-81828595D01*
X158960110Y-81856431D01*
X158960110Y-81856431D01*
G37*
X158960110Y-81856431D02*
X159212000Y-81907440D01*
X159730858Y-81907440D01*
X159848981Y-81986367D01*
X159873325Y-82002633D01*
X160212000Y-82070000D01*
X160405000Y-82070000D01*
X160405000Y-84858891D01*
X160276090Y-84658559D01*
X160063890Y-84513569D01*
X159812000Y-84462560D01*
X159212000Y-84462560D01*
X158976683Y-84506838D01*
X158877472Y-84570678D01*
X158793890Y-84513569D01*
X158542000Y-84462560D01*
X157942000Y-84462560D01*
X157706683Y-84506838D01*
X157616020Y-84565178D01*
X157398310Y-84475000D01*
X157257750Y-84475000D01*
X157099000Y-84633750D01*
X157099000Y-85758000D01*
X157119000Y-85758000D01*
X157119000Y-86012000D01*
X157099000Y-86012000D01*
X157099000Y-87136250D01*
X157257750Y-87295000D01*
X157398310Y-87295000D01*
X157615122Y-87205194D01*
X157690110Y-87256431D01*
X157942000Y-87307440D01*
X158367392Y-87307440D01*
X158341560Y-87435000D01*
X158341560Y-87550000D01*
X156027579Y-87550000D01*
X155772579Y-87295000D01*
X155829002Y-87295000D01*
X155829002Y-87136252D01*
X155987750Y-87295000D01*
X156128310Y-87295000D01*
X156337000Y-87208558D01*
X156545690Y-87295000D01*
X156686250Y-87295000D01*
X156845000Y-87136250D01*
X156845000Y-86012000D01*
X155829000Y-86012000D01*
X155829000Y-86032000D01*
X155575000Y-86032000D01*
X155575000Y-86012000D01*
X155555000Y-86012000D01*
X155555000Y-85758000D01*
X155575000Y-85758000D01*
X155575000Y-84633750D01*
X155829000Y-84633750D01*
X155829000Y-85758000D01*
X156845000Y-85758000D01*
X156845000Y-84633750D01*
X156686250Y-84475000D01*
X156545690Y-84475000D01*
X156337000Y-84561442D01*
X156128310Y-84475000D01*
X155987750Y-84475000D01*
X155829000Y-84633750D01*
X155575000Y-84633750D01*
X155416250Y-84475000D01*
X155275690Y-84475000D01*
X155094440Y-84550076D01*
X155094440Y-83371000D01*
X155050598Y-83138000D01*
X157268995Y-83138000D01*
X157269000Y-83138001D01*
X157551484Y-83081810D01*
X157607675Y-83070633D01*
X157894790Y-82878790D01*
X158867787Y-81905792D01*
X158867790Y-81905790D01*
X158919370Y-81828595D01*
X158960110Y-81856431D01*
G36*
X129032000Y-86868000D02*
X129052000Y-86868000D01*
X129052000Y-87122000D01*
X129032000Y-87122000D01*
X129032000Y-87142000D01*
X128778000Y-87142000D01*
X128778000Y-87122000D01*
X128758000Y-87122000D01*
X128758000Y-86868000D01*
X128778000Y-86868000D01*
X128778000Y-86848000D01*
X129032000Y-86848000D01*
X129032000Y-86868000D01*
X129032000Y-86868000D01*
G37*
X129032000Y-86868000D02*
X129052000Y-86868000D01*
X129052000Y-87122000D01*
X129032000Y-87122000D01*
X129032000Y-87142000D01*
X128778000Y-87142000D01*
X128778000Y-87122000D01*
X128758000Y-87122000D01*
X128758000Y-86868000D01*
X128778000Y-86868000D01*
X128778000Y-86848000D01*
X129032000Y-86848000D01*
X129032000Y-86868000D01*
G36*
X134193690Y-82911000D02*
X134277421Y-82911000D01*
X132602420Y-84586000D01*
X131445005Y-84586000D01*
X131445000Y-84585999D01*
X131258479Y-84623101D01*
X131303579Y-84578000D01*
X132206995Y-84578000D01*
X132207000Y-84578001D01*
X132493557Y-84521000D01*
X132545675Y-84510633D01*
X132832790Y-84318790D01*
X132832791Y-84318789D01*
X133975787Y-83175792D01*
X133975790Y-83175790D01*
X134161598Y-82897707D01*
X134193690Y-82911000D01*
X134193690Y-82911000D01*
G37*
X134193690Y-82911000D02*
X134277421Y-82911000D01*
X132602420Y-84586000D01*
X131445005Y-84586000D01*
X131445000Y-84585999D01*
X131258479Y-84623101D01*
X131303579Y-84578000D01*
X132206995Y-84578000D01*
X132207000Y-84578001D01*
X132493557Y-84521000D01*
X132545675Y-84510633D01*
X132832790Y-84318790D01*
X132832791Y-84318789D01*
X133975787Y-83175792D01*
X133975790Y-83175790D01*
X134161598Y-82897707D01*
X134193690Y-82911000D01*
G36*
X152109838Y-77212317D02*
X152248910Y-77428441D01*
X152461110Y-77573431D01*
X152713000Y-77624440D01*
X154213000Y-77624440D01*
X154448317Y-77580162D01*
X154664441Y-77441090D01*
X154809431Y-77228890D01*
X154812081Y-77215803D01*
X154903113Y-77357270D01*
X154884367Y-77385325D01*
X154882492Y-77394750D01*
X154816999Y-77724000D01*
X154817000Y-77724005D01*
X154817000Y-78143974D01*
X154806699Y-78133673D01*
X154573310Y-78037000D01*
X154082750Y-78037000D01*
X153924000Y-78195750D01*
X153924000Y-79295000D01*
X153944000Y-79295000D01*
X153944000Y-79549000D01*
X153924000Y-79549000D01*
X153924000Y-79569000D01*
X153670000Y-79569000D01*
X153670000Y-79549000D01*
X152670750Y-79549000D01*
X152512000Y-79707750D01*
X152512000Y-80298309D01*
X152608673Y-80531698D01*
X152787301Y-80710327D01*
X152923287Y-80766654D01*
X152911683Y-80768838D01*
X152695559Y-80907910D01*
X152550569Y-81120110D01*
X152499560Y-81372000D01*
X152499560Y-82872000D01*
X152514342Y-82950560D01*
X151267000Y-82950560D01*
X151189192Y-82965201D01*
X151189296Y-82846352D01*
X150929513Y-82217628D01*
X150894340Y-82182393D01*
X150925431Y-82136890D01*
X150976440Y-81885000D01*
X150976440Y-80185000D01*
X150932162Y-79949683D01*
X150793090Y-79733559D01*
X150580890Y-79588569D01*
X150364000Y-79544648D01*
X150364000Y-78545691D01*
X152512000Y-78545691D01*
X152512000Y-79136250D01*
X152670750Y-79295000D01*
X153670000Y-79295000D01*
X153670000Y-78195750D01*
X153511250Y-78037000D01*
X153020690Y-78037000D01*
X152787301Y-78133673D01*
X152608673Y-78312302D01*
X152512000Y-78545691D01*
X150364000Y-78545691D01*
X150364000Y-77408440D01*
X151083000Y-77408440D01*
X151318317Y-77364162D01*
X151534441Y-77225090D01*
X151554317Y-77196000D01*
X152106768Y-77196000D01*
X152109838Y-77212317D01*
X152109838Y-77212317D01*
G37*
X152109838Y-77212317D02*
X152248910Y-77428441D01*
X152461110Y-77573431D01*
X152713000Y-77624440D01*
X154213000Y-77624440D01*
X154448317Y-77580162D01*
X154664441Y-77441090D01*
X154809431Y-77228890D01*
X154812081Y-77215803D01*
X154903113Y-77357270D01*
X154884367Y-77385325D01*
X154882492Y-77394750D01*
X154816999Y-77724000D01*
X154817000Y-77724005D01*
X154817000Y-78143974D01*
X154806699Y-78133673D01*
X154573310Y-78037000D01*
X154082750Y-78037000D01*
X153924000Y-78195750D01*
X153924000Y-79295000D01*
X153944000Y-79295000D01*
X153944000Y-79549000D01*
X153924000Y-79549000D01*
X153924000Y-79569000D01*
X153670000Y-79569000D01*
X153670000Y-79549000D01*
X152670750Y-79549000D01*
X152512000Y-79707750D01*
X152512000Y-80298309D01*
X152608673Y-80531698D01*
X152787301Y-80710327D01*
X152923287Y-80766654D01*
X152911683Y-80768838D01*
X152695559Y-80907910D01*
X152550569Y-81120110D01*
X152499560Y-81372000D01*
X152499560Y-82872000D01*
X152514342Y-82950560D01*
X151267000Y-82950560D01*
X151189192Y-82965201D01*
X151189296Y-82846352D01*
X150929513Y-82217628D01*
X150894340Y-82182393D01*
X150925431Y-82136890D01*
X150976440Y-81885000D01*
X150976440Y-80185000D01*
X150932162Y-79949683D01*
X150793090Y-79733559D01*
X150580890Y-79588569D01*
X150364000Y-79544648D01*
X150364000Y-78545691D01*
X152512000Y-78545691D01*
X152512000Y-79136250D01*
X152670750Y-79295000D01*
X153670000Y-79295000D01*
X153670000Y-78195750D01*
X153511250Y-78037000D01*
X153020690Y-78037000D01*
X152787301Y-78133673D01*
X152608673Y-78312302D01*
X152512000Y-78545691D01*
X150364000Y-78545691D01*
X150364000Y-77408440D01*
X151083000Y-77408440D01*
X151318317Y-77364162D01*
X151534441Y-77225090D01*
X151554317Y-77196000D01*
X152106768Y-77196000D01*
X152109838Y-77212317D01*
G36*
X139065000Y-81808000D02*
X139085000Y-81808000D01*
X139085000Y-82062000D01*
X139065000Y-82062000D01*
X139065000Y-82082000D01*
X138811000Y-82082000D01*
X138811000Y-82062000D01*
X138791000Y-82062000D01*
X138791000Y-81808000D01*
X138811000Y-81808000D01*
X138811000Y-81788000D01*
X139065000Y-81788000D01*
X139065000Y-81808000D01*
X139065000Y-81808000D01*
G37*
X139065000Y-81808000D02*
X139085000Y-81808000D01*
X139085000Y-82062000D01*
X139065000Y-82062000D01*
X139065000Y-82082000D01*
X138811000Y-82082000D01*
X138811000Y-82062000D01*
X138791000Y-82062000D01*
X138791000Y-81808000D01*
X138811000Y-81808000D01*
X138811000Y-81788000D01*
X139065000Y-81788000D01*
X139065000Y-81808000D01*
G36*
X134747000Y-81374000D02*
X134767000Y-81374000D01*
X134767000Y-81628000D01*
X134747000Y-81628000D01*
X134747000Y-81648000D01*
X134493000Y-81648000D01*
X134493000Y-81628000D01*
X134473000Y-81628000D01*
X134473000Y-81374000D01*
X134493000Y-81374000D01*
X134493000Y-81354000D01*
X134747000Y-81354000D01*
X134747000Y-81374000D01*
X134747000Y-81374000D01*
G37*
X134747000Y-81374000D02*
X134767000Y-81374000D01*
X134767000Y-81628000D01*
X134747000Y-81628000D01*
X134747000Y-81648000D01*
X134493000Y-81648000D01*
X134493000Y-81628000D01*
X134473000Y-81628000D01*
X134473000Y-81374000D01*
X134493000Y-81374000D01*
X134493000Y-81354000D01*
X134747000Y-81354000D01*
X134747000Y-81374000D01*
G36*
X145800000Y-69214995D02*
X145799999Y-69215000D01*
X145832289Y-69377329D01*
X145867367Y-69553675D01*
X146040501Y-69812790D01*
X146059210Y-69840790D01*
X146694208Y-70475787D01*
X146694210Y-70475790D01*
X146717408Y-70491290D01*
X146981326Y-70667634D01*
X147320000Y-70735001D01*
X147320005Y-70735000D01*
X160288420Y-70735000D01*
X164850000Y-75296579D01*
X164850000Y-79311861D01*
X164730000Y-79287560D01*
X162930000Y-79287560D01*
X162694683Y-79331838D01*
X162478559Y-79470910D01*
X162333569Y-79683110D01*
X162282560Y-79935000D01*
X162282560Y-80300000D01*
X160578579Y-80300000D01*
X160459440Y-80180860D01*
X160459440Y-79710000D01*
X160415162Y-79474683D01*
X160403288Y-79456231D01*
X160499317Y-79438162D01*
X160715441Y-79299090D01*
X160860431Y-79086890D01*
X160911440Y-78835000D01*
X160911440Y-77335000D01*
X160867162Y-77099683D01*
X160728090Y-76883559D01*
X160659994Y-76837031D01*
X160802327Y-76694698D01*
X160899000Y-76461309D01*
X160899000Y-75870750D01*
X160740250Y-75712000D01*
X159766000Y-75712000D01*
X159766000Y-75732000D01*
X159512000Y-75732000D01*
X159512000Y-75712000D01*
X159492000Y-75712000D01*
X159492000Y-75458000D01*
X159512000Y-75458000D01*
X159512000Y-74358750D01*
X159766000Y-74358750D01*
X159766000Y-75458000D01*
X160740250Y-75458000D01*
X160899000Y-75299250D01*
X160899000Y-74708691D01*
X160802327Y-74475302D01*
X160623699Y-74296673D01*
X160390310Y-74200000D01*
X159924750Y-74200000D01*
X159766000Y-74358750D01*
X159512000Y-74358750D01*
X159353250Y-74200000D01*
X159000000Y-74200000D01*
X159000000Y-73660005D01*
X159000001Y-73660000D01*
X158932633Y-73321325D01*
X158740790Y-73034210D01*
X158740787Y-73034208D01*
X157470790Y-71764210D01*
X157183675Y-71572367D01*
X157127484Y-71561190D01*
X156845000Y-71504999D01*
X156844995Y-71505000D01*
X147686579Y-71505000D01*
X145117680Y-68936100D01*
X145183372Y-68908957D01*
X145714093Y-68379161D01*
X145800000Y-68172274D01*
X145800000Y-69214995D01*
X145800000Y-69214995D01*
G37*
X145800000Y-69214995D02*
X145799999Y-69215000D01*
X145832289Y-69377329D01*
X145867367Y-69553675D01*
X146040501Y-69812790D01*
X146059210Y-69840790D01*
X146694208Y-70475787D01*
X146694210Y-70475790D01*
X146717408Y-70491290D01*
X146981326Y-70667634D01*
X147320000Y-70735001D01*
X147320005Y-70735000D01*
X160288420Y-70735000D01*
X164850000Y-75296579D01*
X164850000Y-79311861D01*
X164730000Y-79287560D01*
X162930000Y-79287560D01*
X162694683Y-79331838D01*
X162478559Y-79470910D01*
X162333569Y-79683110D01*
X162282560Y-79935000D01*
X162282560Y-80300000D01*
X160578579Y-80300000D01*
X160459440Y-80180860D01*
X160459440Y-79710000D01*
X160415162Y-79474683D01*
X160403288Y-79456231D01*
X160499317Y-79438162D01*
X160715441Y-79299090D01*
X160860431Y-79086890D01*
X160911440Y-78835000D01*
X160911440Y-77335000D01*
X160867162Y-77099683D01*
X160728090Y-76883559D01*
X160659994Y-76837031D01*
X160802327Y-76694698D01*
X160899000Y-76461309D01*
X160899000Y-75870750D01*
X160740250Y-75712000D01*
X159766000Y-75712000D01*
X159766000Y-75732000D01*
X159512000Y-75732000D01*
X159512000Y-75712000D01*
X159492000Y-75712000D01*
X159492000Y-75458000D01*
X159512000Y-75458000D01*
X159512000Y-74358750D01*
X159766000Y-74358750D01*
X159766000Y-75458000D01*
X160740250Y-75458000D01*
X160899000Y-75299250D01*
X160899000Y-74708691D01*
X160802327Y-74475302D01*
X160623699Y-74296673D01*
X160390310Y-74200000D01*
X159924750Y-74200000D01*
X159766000Y-74358750D01*
X159512000Y-74358750D01*
X159353250Y-74200000D01*
X159000000Y-74200000D01*
X159000000Y-73660005D01*
X159000001Y-73660000D01*
X158932633Y-73321325D01*
X158740790Y-73034210D01*
X158740787Y-73034208D01*
X157470790Y-71764210D01*
X157183675Y-71572367D01*
X157127484Y-71561190D01*
X156845000Y-71504999D01*
X156844995Y-71505000D01*
X147686579Y-71505000D01*
X145117680Y-68936100D01*
X145183372Y-68908957D01*
X145714093Y-68379161D01*
X145800000Y-68172274D01*
X145800000Y-69214995D01*
G36*
X137678000Y-76823250D02*
X137836750Y-76982000D01*
X138811000Y-76982000D01*
X138811000Y-76962000D01*
X139065000Y-76962000D01*
X139065000Y-76982000D01*
X139085000Y-76982000D01*
X139085000Y-77236000D01*
X139065000Y-77236000D01*
X139065000Y-77256000D01*
X138811000Y-77256000D01*
X138811000Y-77236000D01*
X137836750Y-77236000D01*
X137678000Y-77394750D01*
X137678000Y-77985309D01*
X137774673Y-78218698D01*
X137915910Y-78359936D01*
X137861559Y-78394910D01*
X137724736Y-78595157D01*
X137567811Y-78360302D01*
X137102264Y-78049233D01*
X136553113Y-77940000D01*
X136496887Y-77940000D01*
X135947736Y-78049233D01*
X135482189Y-78360302D01*
X135350000Y-78558137D01*
X135350000Y-78496690D01*
X135253327Y-78263301D01*
X135158525Y-78168500D01*
X135253327Y-78073699D01*
X135350000Y-77840310D01*
X135350000Y-77374750D01*
X135191250Y-77216000D01*
X134092000Y-77216000D01*
X134092000Y-79121000D01*
X134112000Y-79121000D01*
X134112000Y-79375000D01*
X134092000Y-79375000D01*
X134092000Y-79395000D01*
X133838000Y-79395000D01*
X133838000Y-79375000D01*
X133818000Y-79375000D01*
X133818000Y-79121000D01*
X133838000Y-79121000D01*
X133838000Y-77216000D01*
X133818000Y-77216000D01*
X133818000Y-76962000D01*
X133838000Y-76962000D01*
X133838000Y-76942000D01*
X134092000Y-76942000D01*
X134092000Y-76962000D01*
X135191250Y-76962000D01*
X135350000Y-76803250D01*
X135350000Y-76337690D01*
X135324033Y-76275000D01*
X137678000Y-76275000D01*
X137678000Y-76823250D01*
X137678000Y-76823250D01*
G37*
X137678000Y-76823250D02*
X137836750Y-76982000D01*
X138811000Y-76982000D01*
X138811000Y-76962000D01*
X139065000Y-76962000D01*
X139065000Y-76982000D01*
X139085000Y-76982000D01*
X139085000Y-77236000D01*
X139065000Y-77236000D01*
X139065000Y-77256000D01*
X138811000Y-77256000D01*
X138811000Y-77236000D01*
X137836750Y-77236000D01*
X137678000Y-77394750D01*
X137678000Y-77985309D01*
X137774673Y-78218698D01*
X137915910Y-78359936D01*
X137861559Y-78394910D01*
X137724736Y-78595157D01*
X137567811Y-78360302D01*
X137102264Y-78049233D01*
X136553113Y-77940000D01*
X136496887Y-77940000D01*
X135947736Y-78049233D01*
X135482189Y-78360302D01*
X135350000Y-78558137D01*
X135350000Y-78496690D01*
X135253327Y-78263301D01*
X135158525Y-78168500D01*
X135253327Y-78073699D01*
X135350000Y-77840310D01*
X135350000Y-77374750D01*
X135191250Y-77216000D01*
X134092000Y-77216000D01*
X134092000Y-79121000D01*
X134112000Y-79121000D01*
X134112000Y-79375000D01*
X134092000Y-79375000D01*
X134092000Y-79395000D01*
X133838000Y-79395000D01*
X133838000Y-79375000D01*
X133818000Y-79375000D01*
X133818000Y-79121000D01*
X133838000Y-79121000D01*
X133838000Y-77216000D01*
X133818000Y-77216000D01*
X133818000Y-76962000D01*
X133838000Y-76962000D01*
X133838000Y-76942000D01*
X134092000Y-76942000D01*
X134092000Y-76962000D01*
X135191250Y-76962000D01*
X135350000Y-76803250D01*
X135350000Y-76337690D01*
X135324033Y-76275000D01*
X137678000Y-76275000D01*
X137678000Y-76823250D01*
M02*
