G04 #@! TF.FileFunction,Profile,NP*
%FSLAX46Y46*%
G04 Gerber Fmt 4.6, Leading zero omitted, Abs format (unit mm)*
G04 Created by KiCad (PCBNEW 4.0.5) date 12/26/17 18:41:23*
%MOMM*%
%LPD*%
G01*
G04 APERTURE LIST*
%ADD10C,0.100000*%
%ADD11C,0.150000*%
G04 APERTURE END LIST*
D10*
X104895000Y-108435000D02*
G75*
G02X104395000Y-107935000I0J500000D01*
G01*
X183895000Y-107935000D02*
G75*
G02X183395000Y-108435000I-500000J0D01*
G01*
X183395000Y-57935000D02*
G75*
G02X183895000Y-58435000I0J-500000D01*
G01*
X104395000Y-58435000D02*
G75*
G02X104895000Y-57935000I500000J0D01*
G01*
X104895000Y-108435000D02*
X183395000Y-108435000D01*
X104895000Y-57935000D02*
X183395000Y-57935000D01*
X183895000Y-107935000D02*
X183895000Y-58435000D01*
X104395000Y-107935000D02*
X104395000Y-58435000D01*
D11*
X140335000Y-90805000D02*
X128905000Y-90805000D01*
X140335000Y-75565000D02*
X140335000Y-90805000D01*
X128905000Y-75565000D02*
X140335000Y-75565000D01*
X141605000Y-73025000D02*
X128905000Y-73025000D01*
X142875000Y-92075000D02*
X142875000Y-74295000D01*
X128905000Y-93345000D02*
X141605000Y-93345000D01*
X142875000Y-74295000D02*
G75*
G03X141605000Y-73025000I-1270000J0D01*
G01*
X141605000Y-93345000D02*
G75*
G03X142875000Y-92075000I0J1270000D01*
G01*
X128905000Y-90805000D02*
G75*
G03X127635000Y-92075000I0J-1270000D01*
G01*
X127635000Y-92075000D02*
G75*
G03X128905000Y-93345000I1270000J0D01*
G01*
X127635000Y-74295000D02*
G75*
G03X128905000Y-75565000I1270000J0D01*
G01*
X128905000Y-73025000D02*
G75*
G03X127635000Y-74295000I0J-1270000D01*
G01*
M02*
