G04 #@! TF.FileFunction,Copper,L2,Bot,Signal*
%FSLAX46Y46*%
G04 Gerber Fmt 4.6, Leading zero omitted, Abs format (unit mm)*
G04 Created by KiCad (PCBNEW 4.0.7) date 01/03/18 21:35:10*
%MOMM*%
%LPD*%
G01*
G04 APERTURE LIST*
%ADD10C,0.100000*%
%ADD11C,3.000000*%
%ADD12C,0.600000*%
%ADD13C,2.000000*%
%ADD14O,5.080000X2.540000*%
%ADD15C,10.160000*%
%ADD16R,1.300000X1.500000*%
%ADD17R,1.500000X1.300000*%
%ADD18R,1.500000X1.250000*%
%ADD19R,1.250000X1.500000*%
%ADD20R,2.500000X3.750000*%
%ADD21R,0.600000X1.550000*%
%ADD22R,0.800000X0.900000*%
%ADD23R,2.500000X1.800000*%
%ADD24R,1.600000X1.600000*%
%ADD25O,1.600000X1.600000*%
%ADD26R,1.600000X1.300000*%
%ADD27R,1.600000X2.000000*%
%ADD28R,1.800000X2.500000*%
%ADD29R,2.500000X2.500000*%
%ADD30C,2.500000*%
%ADD31R,1.700000X1.700000*%
%ADD32R,2.450000X5.900000*%
%ADD33R,1.560000X0.650000*%
%ADD34C,0.500000*%
%ADD35C,0.254000*%
G04 APERTURE END LIST*
D10*
D11*
X178435000Y-103185000D03*
X109855000Y-103185000D03*
X178435000Y-63185000D03*
X109855000Y-63185000D03*
D12*
X126873000Y-94234000D03*
X109347000Y-86741000D03*
X113792000Y-86995000D03*
X105664000Y-89408000D03*
X125095000Y-88773000D03*
X147447000Y-94234000D03*
X159131000Y-92456000D03*
X146812000Y-107442000D03*
D13*
X155194000Y-100838000D03*
X151384000Y-100838000D03*
X155194000Y-104648000D03*
D14*
X146304000Y-100838000D03*
X146304000Y-104648000D03*
D13*
X151384000Y-104648000D03*
D12*
X167386000Y-70612000D03*
X168148000Y-77216000D03*
X142875000Y-63627000D03*
X181610000Y-96774000D03*
X168402000Y-106426000D03*
X163195000Y-93853000D03*
X164719000Y-104775000D03*
X181610000Y-88519000D03*
X178181000Y-80772000D03*
X170180000Y-82550000D03*
X171577000Y-77978000D03*
X169926000Y-78740000D03*
D10*
G36*
X177405514Y-70364981D02*
X173869981Y-73900514D01*
X163970486Y-64001019D01*
X167506019Y-60465486D01*
X177405514Y-70364981D01*
X177405514Y-70364981D01*
G37*
D15*
X177165000Y-92710000D03*
X177165000Y-73662000D03*
D10*
G36*
X167506019Y-105904514D02*
X163970486Y-102368981D01*
X173869981Y-92469486D01*
X177405514Y-96005019D01*
X167506019Y-105904514D01*
X167506019Y-105904514D01*
G37*
D12*
X151765000Y-82423000D03*
X162179000Y-59944000D03*
X160528000Y-94615000D03*
X155956000Y-90043000D03*
X153924000Y-88646000D03*
X140335000Y-97282000D03*
X142875000Y-97282000D03*
X142875000Y-107442000D03*
X140335000Y-107442000D03*
X117729000Y-94107000D03*
X117221000Y-91059000D03*
X117602000Y-78867000D03*
X126492000Y-84328000D03*
X140462000Y-70358000D03*
X143510000Y-72898000D03*
X140335000Y-94488000D03*
X159512000Y-82296000D03*
X165989000Y-84836000D03*
X145542000Y-68961000D03*
X124714000Y-86106000D03*
X137414000Y-77089000D03*
X137414000Y-89408000D03*
X143891000Y-90741500D03*
X142875000Y-94488000D03*
X163576000Y-87376000D03*
X153797000Y-77851000D03*
X155702000Y-84201000D03*
X105664000Y-83058000D03*
X137541000Y-99695000D03*
X118872000Y-86233000D03*
X139192000Y-80645000D03*
X136398000Y-102870000D03*
X135636000Y-77089000D03*
X151066500Y-90741500D03*
X156972000Y-84201000D03*
X156083000Y-92202000D03*
X159639000Y-74168000D03*
D16*
X145415000Y-88058000D03*
X145415000Y-90758000D03*
X126746000Y-79295000D03*
X126746000Y-81995000D03*
D17*
X132000000Y-102870000D03*
X134700000Y-102870000D03*
D16*
X149479000Y-88058000D03*
X149479000Y-90758000D03*
X119634000Y-81614000D03*
X119634000Y-78914000D03*
D17*
X153463000Y-76327000D03*
X156163000Y-76327000D03*
D16*
X159639000Y-88185000D03*
X159639000Y-90885000D03*
X153797000Y-86821000D03*
X153797000Y-84121000D03*
X126746000Y-86153000D03*
X126746000Y-88853000D03*
X153797000Y-82122000D03*
X153797000Y-79422000D03*
D18*
X131465000Y-77089000D03*
X133965000Y-77089000D03*
D19*
X138938000Y-84435000D03*
X138938000Y-81935000D03*
D20*
X106426000Y-86310000D03*
X106426000Y-80060000D03*
D19*
X117602000Y-84308000D03*
X117602000Y-81808000D03*
X157480000Y-89682000D03*
X157480000Y-92182000D03*
X138938000Y-87015000D03*
X138938000Y-89515000D03*
X138938000Y-79355000D03*
X138938000Y-76855000D03*
X151892000Y-86848000D03*
X151892000Y-84348000D03*
X159639000Y-78085000D03*
X159639000Y-75585000D03*
D18*
X131465000Y-79248000D03*
X133965000Y-79248000D03*
D21*
X159512000Y-85885000D03*
X158242000Y-85885000D03*
X156972000Y-85885000D03*
X155702000Y-85885000D03*
X155702000Y-80485000D03*
X156972000Y-80485000D03*
X158242000Y-80485000D03*
X159512000Y-80485000D03*
D22*
X150683000Y-76311000D03*
X148783000Y-76311000D03*
X149733000Y-74311000D03*
D23*
X149320000Y-95885000D03*
X145320000Y-95885000D03*
D24*
X128905000Y-79375000D03*
D25*
X136525000Y-86995000D03*
X128905000Y-81915000D03*
X136525000Y-84455000D03*
X128905000Y-84455000D03*
X136525000Y-81915000D03*
X128905000Y-86995000D03*
X136525000Y-79375000D03*
D21*
X130810000Y-81501000D03*
X132080000Y-81501000D03*
X133350000Y-81501000D03*
X134620000Y-81501000D03*
X134620000Y-86901000D03*
X133350000Y-86901000D03*
X132080000Y-86901000D03*
X130810000Y-86901000D03*
D26*
X113210000Y-81808000D03*
D27*
X110310000Y-83058000D03*
D26*
X113210000Y-84308000D03*
D23*
X131350000Y-99695000D03*
X135350000Y-99695000D03*
X135350000Y-95885000D03*
X131350000Y-95885000D03*
D28*
X162306000Y-68358000D03*
X162306000Y-72358000D03*
D29*
X148717000Y-67310000D03*
D30*
X144117000Y-67310000D03*
X139517000Y-67310000D03*
X148717000Y-61610000D03*
X144117000Y-61610000D03*
X139517000Y-61610000D03*
D31*
X145415000Y-85335000D03*
X145415000Y-81035000D03*
X149479000Y-85335000D03*
X149479000Y-81035000D03*
D10*
G36*
X114420019Y-73900514D02*
X110884486Y-70364981D01*
X120783981Y-60465486D01*
X124319514Y-64001019D01*
X114420019Y-73900514D01*
X114420019Y-73900514D01*
G37*
D15*
X111125000Y-92710000D03*
X111125000Y-73662000D03*
D10*
G36*
X124319514Y-102368981D02*
X120783981Y-105904514D01*
X110884486Y-96005019D01*
X114420019Y-92469486D01*
X124319514Y-102368981D01*
X124319514Y-102368981D01*
G37*
D18*
X172446000Y-80264000D03*
X169946000Y-80264000D03*
X166350000Y-80264000D03*
X163850000Y-80264000D03*
X165882000Y-72136000D03*
X168382000Y-72136000D03*
D23*
X165640000Y-75184000D03*
X169640000Y-75184000D03*
D32*
X181083000Y-83312000D03*
X175533000Y-83312000D03*
D16*
X135636000Y-65866000D03*
X135636000Y-63166000D03*
D17*
X166450000Y-78232000D03*
X163750000Y-78232000D03*
D16*
X163576000Y-82978000D03*
X163576000Y-85678000D03*
D33*
X167814000Y-85786000D03*
X167814000Y-84836000D03*
X167814000Y-83886000D03*
X170514000Y-83886000D03*
X170514000Y-85786000D03*
D28*
X159766000Y-103600000D03*
X159766000Y-99600000D03*
D16*
X115570000Y-87202000D03*
X115570000Y-84502000D03*
X115570000Y-81487000D03*
X115570000Y-78787000D03*
D34*
X148783000Y-76311000D02*
X147574000Y-76311000D01*
X147574000Y-76311000D02*
X147574000Y-76200000D01*
X135350000Y-95885000D02*
X145320000Y-95885000D01*
X126746000Y-79295000D02*
X126746000Y-77470000D01*
X126746000Y-77470000D02*
X126238000Y-76962000D01*
X145415000Y-81185000D02*
X147574000Y-81185000D01*
X147447000Y-81153000D02*
X147574000Y-81153000D01*
X147542000Y-81153000D02*
X147447000Y-81153000D01*
X147574000Y-81185000D02*
X147542000Y-81153000D01*
X132080000Y-81501000D02*
X132080000Y-80645000D01*
X131465000Y-80030000D02*
X131465000Y-79248000D01*
X132080000Y-80645000D02*
X131465000Y-80030000D01*
X126746000Y-79545000D02*
X126746000Y-79756000D01*
X126746000Y-79756000D02*
X128905000Y-81915000D01*
X128905000Y-81915000D02*
X129921000Y-82931000D01*
X129921000Y-82931000D02*
X131191000Y-82931000D01*
X131191000Y-82931000D02*
X131699000Y-82931000D01*
X131699000Y-82931000D02*
X132080000Y-82550000D01*
X132080000Y-82550000D02*
X132080000Y-81501000D01*
X126535000Y-79756000D02*
X126746000Y-79545000D01*
X147574000Y-90805000D02*
X147574000Y-92710000D01*
X147574000Y-92710000D02*
X147320000Y-92710000D01*
X149225000Y-92710000D02*
X147320000Y-92710000D01*
X155661000Y-88435000D02*
X155661000Y-88687000D01*
X151638000Y-92710000D02*
X155661000Y-88687000D01*
X149225000Y-92710000D02*
X151638000Y-92710000D01*
X145320000Y-94710000D02*
X145320000Y-95885000D01*
X147320000Y-92710000D02*
X145320000Y-94710000D01*
X147574000Y-88900000D02*
X147574000Y-90805000D01*
X147574000Y-90805000D02*
X147574000Y-91122500D01*
X147574000Y-91122500D02*
X147574000Y-91059000D01*
X159639000Y-88435000D02*
X155661000Y-88435000D01*
X155661000Y-88435000D02*
X153797000Y-86571000D01*
X159512000Y-85885000D02*
X159512000Y-88308000D01*
X159512000Y-88308000D02*
X159639000Y-88435000D01*
X152273000Y-86421000D02*
X153647000Y-86421000D01*
X153647000Y-86421000D02*
X153797000Y-86571000D01*
X147574000Y-81153000D02*
X147574000Y-88900000D01*
X147574000Y-88900000D02*
X147574000Y-89154000D01*
X144891000Y-71628000D02*
X147574000Y-74311000D01*
X128016000Y-71628000D02*
X144891000Y-71628000D01*
X126238000Y-73406000D02*
X128016000Y-71628000D01*
X126238000Y-76962000D02*
X126238000Y-73406000D01*
X147574000Y-74311000D02*
X147574000Y-74295000D01*
X147574000Y-74295000D02*
X147574000Y-76200000D01*
X147574000Y-76200000D02*
X147574000Y-81153000D01*
X139192000Y-80645000D02*
X139192000Y-81681000D01*
X139192000Y-81681000D02*
X138938000Y-81935000D01*
X138938000Y-89515000D02*
X138537000Y-89515000D01*
X138537000Y-89515000D02*
X138303000Y-89281000D01*
X138303000Y-89281000D02*
X137287000Y-89281000D01*
X168402000Y-72136000D02*
X168402000Y-71628000D01*
X168402000Y-71628000D02*
X167386000Y-70612000D01*
X167767000Y-84836000D02*
X166243000Y-84836000D01*
X165354000Y-85725000D02*
X163576000Y-85725000D01*
X166243000Y-84836000D02*
X165354000Y-85725000D01*
X128905000Y-86995000D02*
X128905000Y-86868000D01*
X128905000Y-86868000D02*
X131191000Y-84582000D01*
X131191000Y-84582000D02*
X132588000Y-84582000D01*
X132588000Y-84582000D02*
X134620000Y-82550000D01*
X134620000Y-82550000D02*
X134620000Y-81501000D01*
X137795000Y-81407000D02*
X137795000Y-80645000D01*
X137795000Y-80645000D02*
X136525000Y-79375000D01*
X138831000Y-79609000D02*
X137795000Y-80645000D01*
X137795000Y-82677000D02*
X137795000Y-81407000D01*
X137287000Y-83185000D02*
X137795000Y-82677000D01*
X135255000Y-83185000D02*
X137287000Y-83185000D01*
X130810000Y-86106000D02*
X131445000Y-85471000D01*
X131445000Y-85471000D02*
X132969000Y-85471000D01*
X132969000Y-85471000D02*
X135255000Y-83185000D01*
X130810000Y-86901000D02*
X130810000Y-86106000D01*
X138938000Y-79609000D02*
X138831000Y-79609000D01*
X130777000Y-86901000D02*
X130810000Y-86901000D01*
X134620000Y-86901000D02*
X134620000Y-87503000D01*
X134620000Y-87503000D02*
X132969000Y-89154000D01*
X127297000Y-89154000D02*
X126746000Y-88603000D01*
X132969000Y-89154000D02*
X127297000Y-89154000D01*
X136525000Y-86995000D02*
X138704000Y-86995000D01*
X134620000Y-86901000D02*
X136431000Y-86901000D01*
X136431000Y-86901000D02*
X136525000Y-86995000D01*
X134577000Y-86944000D02*
X134620000Y-86901000D01*
X136431000Y-86901000D02*
X136525000Y-86995000D01*
X138704000Y-86995000D02*
X138938000Y-86761000D01*
X157480000Y-89682000D02*
X158436000Y-89682000D01*
X158436000Y-89682000D02*
X159639000Y-90885000D01*
X117602000Y-84181000D02*
X117602000Y-87249000D01*
X117602000Y-87249000D02*
X112141000Y-92710000D01*
X112141000Y-92710000D02*
X111125000Y-92710000D01*
X115570000Y-87202000D02*
X115570000Y-88265000D01*
X115570000Y-88265000D02*
X111125000Y-92710000D01*
X113210000Y-90625000D02*
X111125000Y-92710000D01*
X106934000Y-86183000D02*
X106934000Y-88519000D01*
X106934000Y-88519000D02*
X111125000Y-92710000D01*
X108986000Y-90571000D02*
X111125000Y-92710000D01*
X131350000Y-95885000D02*
X125984000Y-95885000D01*
X125984000Y-95885000D02*
X122809000Y-92710000D01*
X122809000Y-92710000D02*
X111125000Y-92710000D01*
X120904000Y-87503000D02*
X118491000Y-87503000D01*
X132588000Y-88265000D02*
X128397000Y-88265000D01*
X128397000Y-88265000D02*
X127635000Y-87503000D01*
X127635000Y-87503000D02*
X125222000Y-87503000D01*
X133350000Y-87503000D02*
X132588000Y-88265000D01*
X120904000Y-87503000D02*
X125222000Y-87503000D01*
X118491000Y-87503000D02*
X113284000Y-92710000D01*
X113284000Y-92710000D02*
X111125000Y-92710000D01*
X132000000Y-102870000D02*
X132000000Y-100345000D01*
X132000000Y-100345000D02*
X131350000Y-99695000D01*
X131350000Y-99695000D02*
X131350000Y-95885000D01*
X116840000Y-95885000D02*
X113665000Y-92710000D01*
X113665000Y-92710000D02*
X111125000Y-92710000D01*
X111125000Y-92710000D02*
X115697000Y-92710000D01*
X136591000Y-84521000D02*
X136525000Y-84455000D01*
X135255000Y-84455000D02*
X136525000Y-84455000D01*
X133350000Y-86901000D02*
X133350000Y-87503000D01*
X136525000Y-84455000D02*
X138918000Y-84455000D01*
X138918000Y-84455000D02*
X138938000Y-84435000D01*
X133350000Y-86901000D02*
X133350000Y-86360000D01*
X133350000Y-86360000D02*
X135255000Y-84455000D01*
X117602000Y-81681000D02*
X119567000Y-81681000D01*
X119567000Y-81681000D02*
X119634000Y-81614000D01*
X170688000Y-99187000D02*
X170688000Y-102362000D01*
X170688000Y-102362000D02*
X166878000Y-106172000D01*
X161798000Y-104140000D02*
X161798000Y-72866000D01*
X163830000Y-106172000D02*
X161798000Y-104140000D01*
X166878000Y-106172000D02*
X163830000Y-106172000D01*
X161798000Y-72866000D02*
X162306000Y-72358000D01*
X170688000Y-99187000D02*
X177165000Y-92710000D01*
X149479000Y-87673000D02*
X149479000Y-85185000D01*
X149749000Y-85296000D02*
X149860000Y-85185000D01*
X149860000Y-85185000D02*
X149955000Y-85185000D01*
X110310000Y-83058000D02*
X122174000Y-83058000D01*
X123444000Y-83058000D02*
X126539000Y-86153000D01*
X122174000Y-83058000D02*
X123444000Y-83058000D01*
X126539000Y-86153000D02*
X126746000Y-86153000D01*
X126746000Y-86153000D02*
X126539000Y-86153000D01*
X153797000Y-82253000D02*
X157269000Y-82253000D01*
X157269000Y-82253000D02*
X158242000Y-81280000D01*
X158242000Y-81280000D02*
X158242000Y-80485000D01*
X153797000Y-84371000D02*
X152423000Y-84371000D01*
X152423000Y-84371000D02*
X152273000Y-84521000D01*
X153797000Y-82253000D02*
X153797000Y-84371000D01*
X149733000Y-74311000D02*
X149733000Y-80781000D01*
X149733000Y-80781000D02*
X149479000Y-81035000D01*
X150683000Y-76311000D02*
X153697000Y-76311000D01*
X153697000Y-76311000D02*
X153713000Y-76327000D01*
X155913000Y-76327000D02*
X155913000Y-77513000D01*
X155702000Y-77724000D02*
X155702000Y-80485000D01*
X155913000Y-77513000D02*
X155702000Y-77724000D01*
X148336000Y-70358000D02*
X164104000Y-70358000D01*
X148336000Y-70358000D02*
X146558000Y-68580000D01*
X146558000Y-68580000D02*
X146558000Y-66040000D01*
X146558000Y-66040000D02*
X145542000Y-65024000D01*
X164104000Y-70358000D02*
X165882000Y-72136000D01*
X165640000Y-75184000D02*
X165640000Y-72378000D01*
X165640000Y-72378000D02*
X165882000Y-72136000D01*
X166450000Y-78232000D02*
X166450000Y-75994000D01*
X166450000Y-75994000D02*
X165640000Y-75184000D01*
X166350000Y-80264000D02*
X166350000Y-78332000D01*
X166350000Y-78332000D02*
X166450000Y-78232000D01*
X137080000Y-67310000D02*
X135636000Y-65866000D01*
X145542000Y-65024000D02*
X141803000Y-65024000D01*
X139517000Y-67310000D02*
X141803000Y-65024000D01*
X139517000Y-67310000D02*
X137080000Y-67310000D01*
X162306000Y-68358000D02*
X149765000Y-68358000D01*
X149765000Y-68358000D02*
X148717000Y-67310000D01*
X149225000Y-67945000D02*
X148590000Y-67310000D01*
X145415000Y-87673000D02*
X145415000Y-85185000D01*
X133350000Y-81501000D02*
X133350000Y-80899000D01*
X133350000Y-80899000D02*
X132715000Y-80264000D01*
X132715000Y-78339000D02*
X131465000Y-77089000D01*
X132715000Y-80264000D02*
X132715000Y-78339000D01*
X128905000Y-84455000D02*
X128397000Y-84455000D01*
X128397000Y-84455000D02*
X126746000Y-82804000D01*
X126746000Y-82804000D02*
X126746000Y-81745000D01*
X128905000Y-84455000D02*
X130175000Y-84455000D01*
X133350000Y-82550000D02*
X133350000Y-81501000D01*
X132207000Y-83693000D02*
X133350000Y-82550000D01*
X130937000Y-83693000D02*
X132207000Y-83693000D01*
X130175000Y-84455000D02*
X130937000Y-83693000D01*
X149320000Y-95885000D02*
X157480000Y-95885000D01*
X159385000Y-93980000D02*
X160909000Y-92456000D01*
X160909000Y-92456000D02*
X160909000Y-79355000D01*
X160909000Y-79355000D02*
X159639000Y-78085000D01*
X157480000Y-95885000D02*
X159385000Y-93980000D01*
X158115000Y-76561000D02*
X159639000Y-78085000D01*
X159639000Y-78085000D02*
X159365000Y-78085000D01*
X159512000Y-80485000D02*
X159512000Y-78212000D01*
X158115000Y-73660000D02*
X158115000Y-76561000D01*
X156845000Y-72390000D02*
X158115000Y-73660000D01*
X144117000Y-67310000D02*
X144117000Y-69187000D01*
X144117000Y-69187000D02*
X147320000Y-72390000D01*
X147320000Y-72390000D02*
X156845000Y-72390000D01*
X147053000Y-58674000D02*
X142453000Y-58674000D01*
X178816000Y-58674000D02*
X147053000Y-58674000D01*
X182880000Y-62738000D02*
X178816000Y-58674000D01*
X179070000Y-107696000D02*
X182880000Y-103886000D01*
X182880000Y-103886000D02*
X182880000Y-62738000D01*
X157988000Y-107696000D02*
X179070000Y-107696000D01*
X142453000Y-58674000D02*
X139517000Y-61610000D01*
X139517000Y-61610000D02*
X137192000Y-61610000D01*
X137192000Y-61610000D02*
X135636000Y-63166000D01*
X159766000Y-103600000D02*
X159766000Y-105918000D01*
X159766000Y-105918000D02*
X157988000Y-107696000D01*
X146304000Y-104648000D02*
X146304000Y-105156000D01*
X146304000Y-105156000D02*
X148844000Y-107696000D01*
X148844000Y-107696000D02*
X157988000Y-107696000D01*
X144117000Y-61610000D02*
X145176000Y-61610000D01*
X145176000Y-61610000D02*
X147828000Y-64262000D01*
X147828000Y-64262000D02*
X162814000Y-64262000D01*
X162814000Y-64262000D02*
X171450000Y-72898000D01*
X170514000Y-83886000D02*
X170514000Y-85786000D01*
X172446000Y-80264000D02*
X172446000Y-81954000D01*
X172446000Y-81954000D02*
X170514000Y-83886000D01*
X172446000Y-80264000D02*
X172720000Y-80264000D01*
X172720000Y-80264000D02*
X174117000Y-78867000D01*
X174752000Y-79502000D02*
X179324000Y-79502000D01*
X174117000Y-78867000D02*
X174752000Y-79502000D01*
X179324000Y-79502000D02*
X181083000Y-81261000D01*
X181083000Y-81261000D02*
X181083000Y-83312000D01*
X171450000Y-76200000D02*
X174117000Y-78867000D01*
X171450000Y-72898000D02*
X171450000Y-76200000D01*
X163850000Y-80264000D02*
X163850000Y-78332000D01*
X163850000Y-78332000D02*
X163750000Y-78232000D01*
X163576000Y-82978000D02*
X163576000Y-80538000D01*
X163576000Y-80538000D02*
X163850000Y-80264000D01*
X163576000Y-82978000D02*
X166906000Y-82978000D01*
X166906000Y-82978000D02*
X167814000Y-83886000D01*
X169640000Y-75184000D02*
X169640000Y-77502000D01*
X168976000Y-85786000D02*
X167814000Y-85786000D01*
X169164000Y-85598000D02*
X168976000Y-85786000D01*
X169164000Y-83058000D02*
X169164000Y-85598000D01*
X168402000Y-82296000D02*
X169164000Y-83058000D01*
X168402000Y-78740000D02*
X168402000Y-82296000D01*
X169640000Y-77502000D02*
X168402000Y-78740000D01*
X175533000Y-83312000D02*
X175533000Y-84055000D01*
X175533000Y-84055000D02*
X172212000Y-87376000D01*
X172212000Y-87376000D02*
X169404000Y-87376000D01*
X169404000Y-87376000D02*
X167814000Y-85786000D01*
X113210000Y-84308000D02*
X115376000Y-84308000D01*
X115376000Y-84308000D02*
X115570000Y-84502000D01*
X113210000Y-81808000D02*
X115249000Y-81808000D01*
X115249000Y-81808000D02*
X115570000Y-81487000D01*
D35*
G36*
X137709838Y-88000317D02*
X137848910Y-88216441D01*
X137917006Y-88262969D01*
X137774673Y-88405302D01*
X137678000Y-88638691D01*
X137678000Y-89229250D01*
X137836750Y-89388000D01*
X138811000Y-89388000D01*
X138811000Y-89368000D01*
X139065000Y-89368000D01*
X139065000Y-89388000D01*
X139085000Y-89388000D01*
X139085000Y-89642000D01*
X139065000Y-89642000D01*
X139065000Y-89662000D01*
X138811000Y-89662000D01*
X138811000Y-89642000D01*
X137836750Y-89642000D01*
X137678000Y-89800750D01*
X137678000Y-90095000D01*
X128905000Y-90095000D01*
X128836413Y-90108643D01*
X128766485Y-90108643D01*
X128280478Y-90205315D01*
X128152508Y-90258322D01*
X128024537Y-90311329D01*
X127612520Y-90586630D01*
X127416630Y-90782520D01*
X127141329Y-91194538D01*
X127118029Y-91250790D01*
X127035315Y-91450478D01*
X126938642Y-91936486D01*
X126938643Y-92075000D01*
X126938642Y-92213514D01*
X127035315Y-92699522D01*
X127091230Y-92834512D01*
X127141329Y-92955462D01*
X127416630Y-93367480D01*
X127612520Y-93563370D01*
X128024537Y-93838671D01*
X128152507Y-93891677D01*
X128280478Y-93944685D01*
X128766485Y-94041357D01*
X128836413Y-94041357D01*
X128905000Y-94055000D01*
X140843000Y-94055000D01*
X140843000Y-95000000D01*
X137247440Y-95000000D01*
X137247440Y-94985000D01*
X137203162Y-94749683D01*
X137064090Y-94533559D01*
X136851890Y-94388569D01*
X136600000Y-94337560D01*
X134100000Y-94337560D01*
X133864683Y-94381838D01*
X133648559Y-94520910D01*
X133503569Y-94733110D01*
X133452560Y-94985000D01*
X133452560Y-96785000D01*
X133496838Y-97020317D01*
X133635910Y-97236441D01*
X133848110Y-97381431D01*
X134100000Y-97432440D01*
X136600000Y-97432440D01*
X136835317Y-97388162D01*
X137051441Y-97249090D01*
X137196431Y-97036890D01*
X137247440Y-96785000D01*
X137247440Y-96770000D01*
X140843000Y-96770000D01*
X140843000Y-107750000D01*
X105080000Y-107750000D01*
X105080000Y-88813000D01*
X105176000Y-88832440D01*
X106111347Y-88832440D01*
X106116367Y-88857675D01*
X106266678Y-89082633D01*
X106308210Y-89144790D01*
X106457547Y-89294127D01*
X106282884Y-89468486D01*
X105410995Y-91568229D01*
X105409011Y-93841796D01*
X106277234Y-95943058D01*
X107883486Y-97552116D01*
X109983229Y-98424005D01*
X112256796Y-98425989D01*
X112350939Y-98387090D01*
X120326172Y-106362323D01*
X120523875Y-106497408D01*
X120775037Y-106551892D01*
X121027608Y-106504368D01*
X121241790Y-106362323D01*
X124777323Y-102826790D01*
X124912408Y-102629087D01*
X124966892Y-102377925D01*
X124919368Y-102125354D01*
X124777323Y-101911172D01*
X116803479Y-93937328D01*
X116839005Y-93851771D01*
X116839229Y-93595000D01*
X122442420Y-93595000D01*
X125358208Y-96510787D01*
X125358210Y-96510790D01*
X125645325Y-96702633D01*
X125701516Y-96713810D01*
X125984000Y-96770001D01*
X125984005Y-96770000D01*
X129452560Y-96770000D01*
X129452560Y-96785000D01*
X129496838Y-97020317D01*
X129635910Y-97236441D01*
X129848110Y-97381431D01*
X130100000Y-97432440D01*
X130465000Y-97432440D01*
X130465000Y-98147560D01*
X130100000Y-98147560D01*
X129864683Y-98191838D01*
X129648559Y-98330910D01*
X129503569Y-98543110D01*
X129452560Y-98795000D01*
X129452560Y-100595000D01*
X129496838Y-100830317D01*
X129635910Y-101046441D01*
X129848110Y-101191431D01*
X130100000Y-101242440D01*
X131115000Y-101242440D01*
X131115000Y-101597962D01*
X131014683Y-101616838D01*
X130798559Y-101755910D01*
X130653569Y-101968110D01*
X130602560Y-102220000D01*
X130602560Y-103520000D01*
X130646838Y-103755317D01*
X130785910Y-103971441D01*
X130998110Y-104116431D01*
X131250000Y-104167440D01*
X132750000Y-104167440D01*
X132985317Y-104123162D01*
X133201441Y-103984090D01*
X133346431Y-103771890D01*
X133353191Y-103738510D01*
X133411673Y-103879699D01*
X133590302Y-104058327D01*
X133823691Y-104155000D01*
X134414250Y-104155000D01*
X134573000Y-103996250D01*
X134573000Y-102997000D01*
X134827000Y-102997000D01*
X134827000Y-103996250D01*
X134985750Y-104155000D01*
X135576309Y-104155000D01*
X135809698Y-104058327D01*
X135988327Y-103879699D01*
X136085000Y-103646310D01*
X136085000Y-103155750D01*
X135926250Y-102997000D01*
X134827000Y-102997000D01*
X134573000Y-102997000D01*
X134553000Y-102997000D01*
X134553000Y-102743000D01*
X134573000Y-102743000D01*
X134573000Y-101743750D01*
X134827000Y-101743750D01*
X134827000Y-102743000D01*
X135926250Y-102743000D01*
X136085000Y-102584250D01*
X136085000Y-102093690D01*
X135988327Y-101860301D01*
X135809698Y-101681673D01*
X135576309Y-101585000D01*
X134985750Y-101585000D01*
X134827000Y-101743750D01*
X134573000Y-101743750D01*
X134414250Y-101585000D01*
X133823691Y-101585000D01*
X133590302Y-101681673D01*
X133411673Y-101860301D01*
X133355346Y-101996287D01*
X133353162Y-101984683D01*
X133214090Y-101768559D01*
X133001890Y-101623569D01*
X132885000Y-101599898D01*
X132885000Y-101166192D01*
X133051441Y-101059090D01*
X133196431Y-100846890D01*
X133247440Y-100595000D01*
X133247440Y-99980750D01*
X133465000Y-99980750D01*
X133465000Y-100721310D01*
X133561673Y-100954699D01*
X133740302Y-101133327D01*
X133973691Y-101230000D01*
X135064250Y-101230000D01*
X135223000Y-101071250D01*
X135223000Y-99822000D01*
X135477000Y-99822000D01*
X135477000Y-101071250D01*
X135635750Y-101230000D01*
X136726309Y-101230000D01*
X136959698Y-101133327D01*
X137138327Y-100954699D01*
X137235000Y-100721310D01*
X137235000Y-99980750D01*
X137076250Y-99822000D01*
X135477000Y-99822000D01*
X135223000Y-99822000D01*
X133623750Y-99822000D01*
X133465000Y-99980750D01*
X133247440Y-99980750D01*
X133247440Y-98795000D01*
X133223674Y-98668690D01*
X133465000Y-98668690D01*
X133465000Y-99409250D01*
X133623750Y-99568000D01*
X135223000Y-99568000D01*
X135223000Y-98318750D01*
X135477000Y-98318750D01*
X135477000Y-99568000D01*
X137076250Y-99568000D01*
X137235000Y-99409250D01*
X137235000Y-98668690D01*
X137138327Y-98435301D01*
X136959698Y-98256673D01*
X136726309Y-98160000D01*
X135635750Y-98160000D01*
X135477000Y-98318750D01*
X135223000Y-98318750D01*
X135064250Y-98160000D01*
X133973691Y-98160000D01*
X133740302Y-98256673D01*
X133561673Y-98435301D01*
X133465000Y-98668690D01*
X133223674Y-98668690D01*
X133203162Y-98559683D01*
X133064090Y-98343559D01*
X132851890Y-98198569D01*
X132600000Y-98147560D01*
X132235000Y-98147560D01*
X132235000Y-97432440D01*
X132600000Y-97432440D01*
X132835317Y-97388162D01*
X133051441Y-97249090D01*
X133196431Y-97036890D01*
X133247440Y-96785000D01*
X133247440Y-94985000D01*
X133203162Y-94749683D01*
X133064090Y-94533559D01*
X132851890Y-94388569D01*
X132600000Y-94337560D01*
X130100000Y-94337560D01*
X129864683Y-94381838D01*
X129648559Y-94520910D01*
X129503569Y-94733110D01*
X129452560Y-94985000D01*
X129452560Y-95000000D01*
X126350579Y-95000000D01*
X123434790Y-92084210D01*
X123326236Y-92011677D01*
X123147675Y-91892367D01*
X123091484Y-91881190D01*
X122809000Y-91824999D01*
X122808995Y-91825000D01*
X116840774Y-91825000D01*
X116840989Y-91578204D01*
X116497846Y-90747734D01*
X118857579Y-88388000D01*
X125448560Y-88388000D01*
X125448560Y-89603000D01*
X125492838Y-89838317D01*
X125631910Y-90054441D01*
X125844110Y-90199431D01*
X126096000Y-90250440D01*
X127396000Y-90250440D01*
X127631317Y-90206162D01*
X127847441Y-90067090D01*
X127866634Y-90039000D01*
X132968995Y-90039000D01*
X132969000Y-90039001D01*
X133251484Y-89982810D01*
X133307675Y-89971633D01*
X133594790Y-89779790D01*
X135081534Y-88293045D01*
X135155317Y-88279162D01*
X135371441Y-88140090D01*
X135471482Y-87993674D01*
X135482189Y-88009698D01*
X135947736Y-88320767D01*
X136496887Y-88430000D01*
X136553113Y-88430000D01*
X137102264Y-88320767D01*
X137567811Y-88009698D01*
X137654473Y-87880000D01*
X137687199Y-87880000D01*
X137709838Y-88000317D01*
X137709838Y-88000317D01*
G37*
X137709838Y-88000317D02*
X137848910Y-88216441D01*
X137917006Y-88262969D01*
X137774673Y-88405302D01*
X137678000Y-88638691D01*
X137678000Y-89229250D01*
X137836750Y-89388000D01*
X138811000Y-89388000D01*
X138811000Y-89368000D01*
X139065000Y-89368000D01*
X139065000Y-89388000D01*
X139085000Y-89388000D01*
X139085000Y-89642000D01*
X139065000Y-89642000D01*
X139065000Y-89662000D01*
X138811000Y-89662000D01*
X138811000Y-89642000D01*
X137836750Y-89642000D01*
X137678000Y-89800750D01*
X137678000Y-90095000D01*
X128905000Y-90095000D01*
X128836413Y-90108643D01*
X128766485Y-90108643D01*
X128280478Y-90205315D01*
X128152508Y-90258322D01*
X128024537Y-90311329D01*
X127612520Y-90586630D01*
X127416630Y-90782520D01*
X127141329Y-91194538D01*
X127118029Y-91250790D01*
X127035315Y-91450478D01*
X126938642Y-91936486D01*
X126938643Y-92075000D01*
X126938642Y-92213514D01*
X127035315Y-92699522D01*
X127091230Y-92834512D01*
X127141329Y-92955462D01*
X127416630Y-93367480D01*
X127612520Y-93563370D01*
X128024537Y-93838671D01*
X128152507Y-93891677D01*
X128280478Y-93944685D01*
X128766485Y-94041357D01*
X128836413Y-94041357D01*
X128905000Y-94055000D01*
X140843000Y-94055000D01*
X140843000Y-95000000D01*
X137247440Y-95000000D01*
X137247440Y-94985000D01*
X137203162Y-94749683D01*
X137064090Y-94533559D01*
X136851890Y-94388569D01*
X136600000Y-94337560D01*
X134100000Y-94337560D01*
X133864683Y-94381838D01*
X133648559Y-94520910D01*
X133503569Y-94733110D01*
X133452560Y-94985000D01*
X133452560Y-96785000D01*
X133496838Y-97020317D01*
X133635910Y-97236441D01*
X133848110Y-97381431D01*
X134100000Y-97432440D01*
X136600000Y-97432440D01*
X136835317Y-97388162D01*
X137051441Y-97249090D01*
X137196431Y-97036890D01*
X137247440Y-96785000D01*
X137247440Y-96770000D01*
X140843000Y-96770000D01*
X140843000Y-107750000D01*
X105080000Y-107750000D01*
X105080000Y-88813000D01*
X105176000Y-88832440D01*
X106111347Y-88832440D01*
X106116367Y-88857675D01*
X106266678Y-89082633D01*
X106308210Y-89144790D01*
X106457547Y-89294127D01*
X106282884Y-89468486D01*
X105410995Y-91568229D01*
X105409011Y-93841796D01*
X106277234Y-95943058D01*
X107883486Y-97552116D01*
X109983229Y-98424005D01*
X112256796Y-98425989D01*
X112350939Y-98387090D01*
X120326172Y-106362323D01*
X120523875Y-106497408D01*
X120775037Y-106551892D01*
X121027608Y-106504368D01*
X121241790Y-106362323D01*
X124777323Y-102826790D01*
X124912408Y-102629087D01*
X124966892Y-102377925D01*
X124919368Y-102125354D01*
X124777323Y-101911172D01*
X116803479Y-93937328D01*
X116839005Y-93851771D01*
X116839229Y-93595000D01*
X122442420Y-93595000D01*
X125358208Y-96510787D01*
X125358210Y-96510790D01*
X125645325Y-96702633D01*
X125701516Y-96713810D01*
X125984000Y-96770001D01*
X125984005Y-96770000D01*
X129452560Y-96770000D01*
X129452560Y-96785000D01*
X129496838Y-97020317D01*
X129635910Y-97236441D01*
X129848110Y-97381431D01*
X130100000Y-97432440D01*
X130465000Y-97432440D01*
X130465000Y-98147560D01*
X130100000Y-98147560D01*
X129864683Y-98191838D01*
X129648559Y-98330910D01*
X129503569Y-98543110D01*
X129452560Y-98795000D01*
X129452560Y-100595000D01*
X129496838Y-100830317D01*
X129635910Y-101046441D01*
X129848110Y-101191431D01*
X130100000Y-101242440D01*
X131115000Y-101242440D01*
X131115000Y-101597962D01*
X131014683Y-101616838D01*
X130798559Y-101755910D01*
X130653569Y-101968110D01*
X130602560Y-102220000D01*
X130602560Y-103520000D01*
X130646838Y-103755317D01*
X130785910Y-103971441D01*
X130998110Y-104116431D01*
X131250000Y-104167440D01*
X132750000Y-104167440D01*
X132985317Y-104123162D01*
X133201441Y-103984090D01*
X133346431Y-103771890D01*
X133353191Y-103738510D01*
X133411673Y-103879699D01*
X133590302Y-104058327D01*
X133823691Y-104155000D01*
X134414250Y-104155000D01*
X134573000Y-103996250D01*
X134573000Y-102997000D01*
X134827000Y-102997000D01*
X134827000Y-103996250D01*
X134985750Y-104155000D01*
X135576309Y-104155000D01*
X135809698Y-104058327D01*
X135988327Y-103879699D01*
X136085000Y-103646310D01*
X136085000Y-103155750D01*
X135926250Y-102997000D01*
X134827000Y-102997000D01*
X134573000Y-102997000D01*
X134553000Y-102997000D01*
X134553000Y-102743000D01*
X134573000Y-102743000D01*
X134573000Y-101743750D01*
X134827000Y-101743750D01*
X134827000Y-102743000D01*
X135926250Y-102743000D01*
X136085000Y-102584250D01*
X136085000Y-102093690D01*
X135988327Y-101860301D01*
X135809698Y-101681673D01*
X135576309Y-101585000D01*
X134985750Y-101585000D01*
X134827000Y-101743750D01*
X134573000Y-101743750D01*
X134414250Y-101585000D01*
X133823691Y-101585000D01*
X133590302Y-101681673D01*
X133411673Y-101860301D01*
X133355346Y-101996287D01*
X133353162Y-101984683D01*
X133214090Y-101768559D01*
X133001890Y-101623569D01*
X132885000Y-101599898D01*
X132885000Y-101166192D01*
X133051441Y-101059090D01*
X133196431Y-100846890D01*
X133247440Y-100595000D01*
X133247440Y-99980750D01*
X133465000Y-99980750D01*
X133465000Y-100721310D01*
X133561673Y-100954699D01*
X133740302Y-101133327D01*
X133973691Y-101230000D01*
X135064250Y-101230000D01*
X135223000Y-101071250D01*
X135223000Y-99822000D01*
X135477000Y-99822000D01*
X135477000Y-101071250D01*
X135635750Y-101230000D01*
X136726309Y-101230000D01*
X136959698Y-101133327D01*
X137138327Y-100954699D01*
X137235000Y-100721310D01*
X137235000Y-99980750D01*
X137076250Y-99822000D01*
X135477000Y-99822000D01*
X135223000Y-99822000D01*
X133623750Y-99822000D01*
X133465000Y-99980750D01*
X133247440Y-99980750D01*
X133247440Y-98795000D01*
X133223674Y-98668690D01*
X133465000Y-98668690D01*
X133465000Y-99409250D01*
X133623750Y-99568000D01*
X135223000Y-99568000D01*
X135223000Y-98318750D01*
X135477000Y-98318750D01*
X135477000Y-99568000D01*
X137076250Y-99568000D01*
X137235000Y-99409250D01*
X137235000Y-98668690D01*
X137138327Y-98435301D01*
X136959698Y-98256673D01*
X136726309Y-98160000D01*
X135635750Y-98160000D01*
X135477000Y-98318750D01*
X135223000Y-98318750D01*
X135064250Y-98160000D01*
X133973691Y-98160000D01*
X133740302Y-98256673D01*
X133561673Y-98435301D01*
X133465000Y-98668690D01*
X133223674Y-98668690D01*
X133203162Y-98559683D01*
X133064090Y-98343559D01*
X132851890Y-98198569D01*
X132600000Y-98147560D01*
X132235000Y-98147560D01*
X132235000Y-97432440D01*
X132600000Y-97432440D01*
X132835317Y-97388162D01*
X133051441Y-97249090D01*
X133196431Y-97036890D01*
X133247440Y-96785000D01*
X133247440Y-94985000D01*
X133203162Y-94749683D01*
X133064090Y-94533559D01*
X132851890Y-94388569D01*
X132600000Y-94337560D01*
X130100000Y-94337560D01*
X129864683Y-94381838D01*
X129648559Y-94520910D01*
X129503569Y-94733110D01*
X129452560Y-94985000D01*
X129452560Y-95000000D01*
X126350579Y-95000000D01*
X123434790Y-92084210D01*
X123326236Y-92011677D01*
X123147675Y-91892367D01*
X123091484Y-91881190D01*
X122809000Y-91824999D01*
X122808995Y-91825000D01*
X116840774Y-91825000D01*
X116840989Y-91578204D01*
X116497846Y-90747734D01*
X118857579Y-88388000D01*
X125448560Y-88388000D01*
X125448560Y-89603000D01*
X125492838Y-89838317D01*
X125631910Y-90054441D01*
X125844110Y-90199431D01*
X126096000Y-90250440D01*
X127396000Y-90250440D01*
X127631317Y-90206162D01*
X127847441Y-90067090D01*
X127866634Y-90039000D01*
X132968995Y-90039000D01*
X132969000Y-90039001D01*
X133251484Y-89982810D01*
X133307675Y-89971633D01*
X133594790Y-89779790D01*
X135081534Y-88293045D01*
X135155317Y-88279162D01*
X135371441Y-88140090D01*
X135471482Y-87993674D01*
X135482189Y-88009698D01*
X135947736Y-88320767D01*
X136496887Y-88430000D01*
X136553113Y-88430000D01*
X137102264Y-88320767D01*
X137567811Y-88009698D01*
X137654473Y-87880000D01*
X137687199Y-87880000D01*
X137709838Y-88000317D01*
G36*
X156207560Y-90432000D02*
X156251838Y-90667317D01*
X156390910Y-90883441D01*
X156459006Y-90929969D01*
X156316673Y-91072302D01*
X156220000Y-91305691D01*
X156220000Y-91896250D01*
X156378750Y-92055000D01*
X157353000Y-92055000D01*
X157353000Y-92035000D01*
X157607000Y-92035000D01*
X157607000Y-92055000D01*
X157627000Y-92055000D01*
X157627000Y-92309000D01*
X157607000Y-92309000D01*
X157607000Y-93408250D01*
X157765750Y-93567000D01*
X158231310Y-93567000D01*
X158464699Y-93470327D01*
X158643327Y-93291698D01*
X158740000Y-93058309D01*
X158740000Y-92467750D01*
X158581252Y-92309002D01*
X158740000Y-92309002D01*
X158740000Y-92232016D01*
X158989000Y-92282440D01*
X159830981Y-92282440D01*
X158759210Y-93354210D01*
X158759208Y-93354213D01*
X157113420Y-95000000D01*
X151217440Y-95000000D01*
X151217440Y-94985000D01*
X151173162Y-94749683D01*
X151034090Y-94533559D01*
X150821890Y-94388569D01*
X150570000Y-94337560D01*
X148070000Y-94337560D01*
X147834683Y-94381838D01*
X147618559Y-94520910D01*
X147473569Y-94733110D01*
X147422560Y-94985000D01*
X147422560Y-96785000D01*
X147466838Y-97020317D01*
X147605910Y-97236441D01*
X147818110Y-97381431D01*
X148070000Y-97432440D01*
X150570000Y-97432440D01*
X150805317Y-97388162D01*
X151021441Y-97249090D01*
X151166431Y-97036890D01*
X151217440Y-96785000D01*
X151217440Y-96770000D01*
X157479995Y-96770000D01*
X157480000Y-96770001D01*
X157762484Y-96713810D01*
X157818675Y-96702633D01*
X158105790Y-96510790D01*
X158105791Y-96510789D01*
X160010787Y-94605792D01*
X160010790Y-94605790D01*
X160913000Y-93703579D01*
X160913000Y-97764991D01*
X160792310Y-97715000D01*
X160051750Y-97715000D01*
X159893000Y-97873750D01*
X159893000Y-99473000D01*
X159913000Y-99473000D01*
X159913000Y-99727000D01*
X159893000Y-99727000D01*
X159893000Y-101326250D01*
X160051750Y-101485000D01*
X160792310Y-101485000D01*
X160913000Y-101435009D01*
X160913000Y-101752579D01*
X160666000Y-101702560D01*
X158866000Y-101702560D01*
X158630683Y-101746838D01*
X158414559Y-101885910D01*
X158269569Y-102098110D01*
X158218560Y-102350000D01*
X158218560Y-104850000D01*
X158262838Y-105085317D01*
X158401910Y-105301441D01*
X158614110Y-105446431D01*
X158866000Y-105497440D01*
X158881000Y-105497440D01*
X158881000Y-105551421D01*
X157621420Y-106811000D01*
X149210579Y-106811000D01*
X148630387Y-106230808D01*
X148983240Y-105995038D01*
X149396193Y-105377012D01*
X149476795Y-104971795D01*
X149748716Y-104971795D01*
X149997106Y-105572943D01*
X150456637Y-106033278D01*
X151057352Y-106282716D01*
X151707795Y-106283284D01*
X152308943Y-106034894D01*
X152769278Y-105575363D01*
X153018716Y-104974648D01*
X153018718Y-104971795D01*
X153558716Y-104971795D01*
X153807106Y-105572943D01*
X154266637Y-106033278D01*
X154867352Y-106282716D01*
X155517795Y-106283284D01*
X156118943Y-106034894D01*
X156579278Y-105575363D01*
X156828716Y-104974648D01*
X156829284Y-104324205D01*
X156580894Y-103723057D01*
X156121363Y-103262722D01*
X155520648Y-103013284D01*
X154870205Y-103012716D01*
X154269057Y-103261106D01*
X153808722Y-103720637D01*
X153559284Y-104321352D01*
X153558716Y-104971795D01*
X153018718Y-104971795D01*
X153019284Y-104324205D01*
X152770894Y-103723057D01*
X152311363Y-103262722D01*
X151710648Y-103013284D01*
X151060205Y-103012716D01*
X150459057Y-103261106D01*
X149998722Y-103720637D01*
X149749284Y-104321352D01*
X149748716Y-104971795D01*
X149476795Y-104971795D01*
X149541202Y-104648000D01*
X149396193Y-103918988D01*
X148983240Y-103300962D01*
X148365214Y-102888009D01*
X147636202Y-102743000D01*
X147701000Y-102743000D01*
X148420345Y-102549390D01*
X149010841Y-102095236D01*
X149382591Y-101449679D01*
X149431493Y-101260781D01*
X149315626Y-100965000D01*
X146431000Y-100965000D01*
X146431000Y-102743000D01*
X146177000Y-102743000D01*
X146177000Y-100965000D01*
X143292374Y-100965000D01*
X143176507Y-101260781D01*
X143225409Y-101449679D01*
X143597159Y-102095236D01*
X144187655Y-102549390D01*
X144907000Y-102743000D01*
X144971798Y-102743000D01*
X144242786Y-102888009D01*
X143624760Y-103300962D01*
X143211807Y-103918988D01*
X143066798Y-104648000D01*
X143211807Y-105377012D01*
X143624760Y-105995038D01*
X144242786Y-106407991D01*
X144971798Y-106553000D01*
X146449420Y-106553000D01*
X147646421Y-107750000D01*
X142367000Y-107750000D01*
X142367000Y-100415219D01*
X143176507Y-100415219D01*
X143292374Y-100711000D01*
X146177000Y-100711000D01*
X146177000Y-98933000D01*
X146431000Y-98933000D01*
X146431000Y-100711000D01*
X149315626Y-100711000D01*
X149431493Y-100415219D01*
X149382591Y-100226321D01*
X149186471Y-99885750D01*
X158231000Y-99885750D01*
X158231000Y-100976309D01*
X158327673Y-101209698D01*
X158506301Y-101388327D01*
X158739690Y-101485000D01*
X159480250Y-101485000D01*
X159639000Y-101326250D01*
X159639000Y-99727000D01*
X158389750Y-99727000D01*
X158231000Y-99885750D01*
X149186471Y-99885750D01*
X149010841Y-99580764D01*
X148420345Y-99126610D01*
X147701000Y-98933000D01*
X146431000Y-98933000D01*
X146177000Y-98933000D01*
X144907000Y-98933000D01*
X144187655Y-99126610D01*
X143597159Y-99580764D01*
X143225409Y-100226321D01*
X143176507Y-100415219D01*
X142367000Y-100415219D01*
X142367000Y-98223691D01*
X158231000Y-98223691D01*
X158231000Y-99314250D01*
X158389750Y-99473000D01*
X159639000Y-99473000D01*
X159639000Y-97873750D01*
X159480250Y-97715000D01*
X158739690Y-97715000D01*
X158506301Y-97811673D01*
X158327673Y-97990302D01*
X158231000Y-98223691D01*
X142367000Y-98223691D01*
X142367000Y-96770000D01*
X143422560Y-96770000D01*
X143422560Y-96785000D01*
X143466838Y-97020317D01*
X143605910Y-97236441D01*
X143818110Y-97381431D01*
X144070000Y-97432440D01*
X146570000Y-97432440D01*
X146805317Y-97388162D01*
X147021441Y-97249090D01*
X147166431Y-97036890D01*
X147217440Y-96785000D01*
X147217440Y-94985000D01*
X147173162Y-94749683D01*
X147034090Y-94533559D01*
X146864141Y-94417438D01*
X147686579Y-93595000D01*
X151637995Y-93595000D01*
X151638000Y-93595001D01*
X151920484Y-93538810D01*
X151976675Y-93527633D01*
X152263790Y-93335790D01*
X152263791Y-93335789D01*
X153131829Y-92467750D01*
X156220000Y-92467750D01*
X156220000Y-93058309D01*
X156316673Y-93291698D01*
X156495301Y-93470327D01*
X156728690Y-93567000D01*
X157194250Y-93567000D01*
X157353000Y-93408250D01*
X157353000Y-92309000D01*
X156378750Y-92309000D01*
X156220000Y-92467750D01*
X153131829Y-92467750D01*
X156207560Y-89392019D01*
X156207560Y-90432000D01*
X156207560Y-90432000D01*
G37*
X156207560Y-90432000D02*
X156251838Y-90667317D01*
X156390910Y-90883441D01*
X156459006Y-90929969D01*
X156316673Y-91072302D01*
X156220000Y-91305691D01*
X156220000Y-91896250D01*
X156378750Y-92055000D01*
X157353000Y-92055000D01*
X157353000Y-92035000D01*
X157607000Y-92035000D01*
X157607000Y-92055000D01*
X157627000Y-92055000D01*
X157627000Y-92309000D01*
X157607000Y-92309000D01*
X157607000Y-93408250D01*
X157765750Y-93567000D01*
X158231310Y-93567000D01*
X158464699Y-93470327D01*
X158643327Y-93291698D01*
X158740000Y-93058309D01*
X158740000Y-92467750D01*
X158581252Y-92309002D01*
X158740000Y-92309002D01*
X158740000Y-92232016D01*
X158989000Y-92282440D01*
X159830981Y-92282440D01*
X158759210Y-93354210D01*
X158759208Y-93354213D01*
X157113420Y-95000000D01*
X151217440Y-95000000D01*
X151217440Y-94985000D01*
X151173162Y-94749683D01*
X151034090Y-94533559D01*
X150821890Y-94388569D01*
X150570000Y-94337560D01*
X148070000Y-94337560D01*
X147834683Y-94381838D01*
X147618559Y-94520910D01*
X147473569Y-94733110D01*
X147422560Y-94985000D01*
X147422560Y-96785000D01*
X147466838Y-97020317D01*
X147605910Y-97236441D01*
X147818110Y-97381431D01*
X148070000Y-97432440D01*
X150570000Y-97432440D01*
X150805317Y-97388162D01*
X151021441Y-97249090D01*
X151166431Y-97036890D01*
X151217440Y-96785000D01*
X151217440Y-96770000D01*
X157479995Y-96770000D01*
X157480000Y-96770001D01*
X157762484Y-96713810D01*
X157818675Y-96702633D01*
X158105790Y-96510790D01*
X158105791Y-96510789D01*
X160010787Y-94605792D01*
X160010790Y-94605790D01*
X160913000Y-93703579D01*
X160913000Y-97764991D01*
X160792310Y-97715000D01*
X160051750Y-97715000D01*
X159893000Y-97873750D01*
X159893000Y-99473000D01*
X159913000Y-99473000D01*
X159913000Y-99727000D01*
X159893000Y-99727000D01*
X159893000Y-101326250D01*
X160051750Y-101485000D01*
X160792310Y-101485000D01*
X160913000Y-101435009D01*
X160913000Y-101752579D01*
X160666000Y-101702560D01*
X158866000Y-101702560D01*
X158630683Y-101746838D01*
X158414559Y-101885910D01*
X158269569Y-102098110D01*
X158218560Y-102350000D01*
X158218560Y-104850000D01*
X158262838Y-105085317D01*
X158401910Y-105301441D01*
X158614110Y-105446431D01*
X158866000Y-105497440D01*
X158881000Y-105497440D01*
X158881000Y-105551421D01*
X157621420Y-106811000D01*
X149210579Y-106811000D01*
X148630387Y-106230808D01*
X148983240Y-105995038D01*
X149396193Y-105377012D01*
X149476795Y-104971795D01*
X149748716Y-104971795D01*
X149997106Y-105572943D01*
X150456637Y-106033278D01*
X151057352Y-106282716D01*
X151707795Y-106283284D01*
X152308943Y-106034894D01*
X152769278Y-105575363D01*
X153018716Y-104974648D01*
X153018718Y-104971795D01*
X153558716Y-104971795D01*
X153807106Y-105572943D01*
X154266637Y-106033278D01*
X154867352Y-106282716D01*
X155517795Y-106283284D01*
X156118943Y-106034894D01*
X156579278Y-105575363D01*
X156828716Y-104974648D01*
X156829284Y-104324205D01*
X156580894Y-103723057D01*
X156121363Y-103262722D01*
X155520648Y-103013284D01*
X154870205Y-103012716D01*
X154269057Y-103261106D01*
X153808722Y-103720637D01*
X153559284Y-104321352D01*
X153558716Y-104971795D01*
X153018718Y-104971795D01*
X153019284Y-104324205D01*
X152770894Y-103723057D01*
X152311363Y-103262722D01*
X151710648Y-103013284D01*
X151060205Y-103012716D01*
X150459057Y-103261106D01*
X149998722Y-103720637D01*
X149749284Y-104321352D01*
X149748716Y-104971795D01*
X149476795Y-104971795D01*
X149541202Y-104648000D01*
X149396193Y-103918988D01*
X148983240Y-103300962D01*
X148365214Y-102888009D01*
X147636202Y-102743000D01*
X147701000Y-102743000D01*
X148420345Y-102549390D01*
X149010841Y-102095236D01*
X149382591Y-101449679D01*
X149431493Y-101260781D01*
X149315626Y-100965000D01*
X146431000Y-100965000D01*
X146431000Y-102743000D01*
X146177000Y-102743000D01*
X146177000Y-100965000D01*
X143292374Y-100965000D01*
X143176507Y-101260781D01*
X143225409Y-101449679D01*
X143597159Y-102095236D01*
X144187655Y-102549390D01*
X144907000Y-102743000D01*
X144971798Y-102743000D01*
X144242786Y-102888009D01*
X143624760Y-103300962D01*
X143211807Y-103918988D01*
X143066798Y-104648000D01*
X143211807Y-105377012D01*
X143624760Y-105995038D01*
X144242786Y-106407991D01*
X144971798Y-106553000D01*
X146449420Y-106553000D01*
X147646421Y-107750000D01*
X142367000Y-107750000D01*
X142367000Y-100415219D01*
X143176507Y-100415219D01*
X143292374Y-100711000D01*
X146177000Y-100711000D01*
X146177000Y-98933000D01*
X146431000Y-98933000D01*
X146431000Y-100711000D01*
X149315626Y-100711000D01*
X149431493Y-100415219D01*
X149382591Y-100226321D01*
X149186471Y-99885750D01*
X158231000Y-99885750D01*
X158231000Y-100976309D01*
X158327673Y-101209698D01*
X158506301Y-101388327D01*
X158739690Y-101485000D01*
X159480250Y-101485000D01*
X159639000Y-101326250D01*
X159639000Y-99727000D01*
X158389750Y-99727000D01*
X158231000Y-99885750D01*
X149186471Y-99885750D01*
X149010841Y-99580764D01*
X148420345Y-99126610D01*
X147701000Y-98933000D01*
X146431000Y-98933000D01*
X146177000Y-98933000D01*
X144907000Y-98933000D01*
X144187655Y-99126610D01*
X143597159Y-99580764D01*
X143225409Y-100226321D01*
X143176507Y-100415219D01*
X142367000Y-100415219D01*
X142367000Y-98223691D01*
X158231000Y-98223691D01*
X158231000Y-99314250D01*
X158389750Y-99473000D01*
X159639000Y-99473000D01*
X159639000Y-97873750D01*
X159480250Y-97715000D01*
X158739690Y-97715000D01*
X158506301Y-97811673D01*
X158327673Y-97990302D01*
X158231000Y-98223691D01*
X142367000Y-98223691D01*
X142367000Y-96770000D01*
X143422560Y-96770000D01*
X143422560Y-96785000D01*
X143466838Y-97020317D01*
X143605910Y-97236441D01*
X143818110Y-97381431D01*
X144070000Y-97432440D01*
X146570000Y-97432440D01*
X146805317Y-97388162D01*
X147021441Y-97249090D01*
X147166431Y-97036890D01*
X147217440Y-96785000D01*
X147217440Y-94985000D01*
X147173162Y-94749683D01*
X147034090Y-94533559D01*
X146864141Y-94417438D01*
X147686579Y-93595000D01*
X151637995Y-93595000D01*
X151638000Y-93595001D01*
X151920484Y-93538810D01*
X151976675Y-93527633D01*
X152263790Y-93335790D01*
X152263791Y-93335789D01*
X153131829Y-92467750D01*
X156220000Y-92467750D01*
X156220000Y-93058309D01*
X156316673Y-93291698D01*
X156495301Y-93470327D01*
X156728690Y-93567000D01*
X157194250Y-93567000D01*
X157353000Y-93408250D01*
X157353000Y-92309000D01*
X156378750Y-92309000D01*
X156220000Y-92467750D01*
X153131829Y-92467750D01*
X156207560Y-89392019D01*
X156207560Y-90432000D01*
G36*
X181995000Y-103519421D02*
X178703420Y-106811000D01*
X167484020Y-106811000D01*
X167503790Y-106797790D01*
X167890874Y-106410706D01*
X167963828Y-106362323D01*
X175937672Y-98388479D01*
X176023229Y-98424005D01*
X178296796Y-98425989D01*
X180398058Y-97557766D01*
X181995000Y-95963609D01*
X181995000Y-103519421D01*
X181995000Y-103519421D01*
G37*
X181995000Y-103519421D02*
X178703420Y-106811000D01*
X167484020Y-106811000D01*
X167503790Y-106797790D01*
X167890874Y-106410706D01*
X167963828Y-106362323D01*
X175937672Y-98388479D01*
X176023229Y-98424005D01*
X178296796Y-98425989D01*
X180398058Y-97557766D01*
X181995000Y-95963609D01*
X181995000Y-103519421D01*
G36*
X179210560Y-80640140D02*
X179210560Y-86262000D01*
X179254838Y-86497317D01*
X179393910Y-86713441D01*
X179606110Y-86858431D01*
X179858000Y-86909440D01*
X181995000Y-86909440D01*
X181995000Y-89459145D01*
X180406514Y-87867884D01*
X178306771Y-86995995D01*
X176033204Y-86994011D01*
X173931942Y-87862234D01*
X172322884Y-89468486D01*
X171450995Y-91568229D01*
X171449011Y-93841796D01*
X171487910Y-93935939D01*
X163512677Y-101911172D01*
X163377592Y-102108875D01*
X163323108Y-102360037D01*
X163370632Y-102612608D01*
X163512677Y-102826790D01*
X165972887Y-105287000D01*
X164196579Y-105287000D01*
X162683000Y-103773420D01*
X162683000Y-87014665D01*
X162799690Y-87063000D01*
X163290250Y-87063000D01*
X163449000Y-86904250D01*
X163449000Y-85805000D01*
X163703000Y-85805000D01*
X163703000Y-86904250D01*
X163861750Y-87063000D01*
X164352310Y-87063000D01*
X164585699Y-86966327D01*
X164764327Y-86787698D01*
X164861000Y-86554309D01*
X164861000Y-85963750D01*
X164702250Y-85805000D01*
X163703000Y-85805000D01*
X163449000Y-85805000D01*
X163429000Y-85805000D01*
X163429000Y-85551000D01*
X163449000Y-85551000D01*
X163449000Y-85531000D01*
X163703000Y-85531000D01*
X163703000Y-85551000D01*
X164702250Y-85551000D01*
X164861000Y-85392250D01*
X164861000Y-84801691D01*
X164764327Y-84568302D01*
X164585699Y-84389673D01*
X164449713Y-84333346D01*
X164461317Y-84331162D01*
X164677441Y-84192090D01*
X164822431Y-83979890D01*
X164846102Y-83863000D01*
X166386560Y-83863000D01*
X166386560Y-84211000D01*
X166412919Y-84351086D01*
X166399000Y-84384690D01*
X166399000Y-84550250D01*
X166557750Y-84709000D01*
X166638051Y-84709000D01*
X166782110Y-84807431D01*
X166919120Y-84835176D01*
X166798683Y-84857838D01*
X166635257Y-84963000D01*
X166557750Y-84963000D01*
X166399000Y-85121750D01*
X166399000Y-85287310D01*
X166414268Y-85324171D01*
X166386560Y-85461000D01*
X166386560Y-86111000D01*
X166430838Y-86346317D01*
X166569910Y-86562441D01*
X166782110Y-86707431D01*
X167034000Y-86758440D01*
X167534860Y-86758440D01*
X168778208Y-88001787D01*
X168778210Y-88001790D01*
X168966261Y-88127441D01*
X169065326Y-88193634D01*
X169404000Y-88261001D01*
X169404005Y-88261000D01*
X172211995Y-88261000D01*
X172212000Y-88261001D01*
X172512824Y-88201162D01*
X172550675Y-88193633D01*
X172837790Y-88001790D01*
X174011577Y-86828003D01*
X174056110Y-86858431D01*
X174308000Y-86909440D01*
X176758000Y-86909440D01*
X176993317Y-86865162D01*
X177209441Y-86726090D01*
X177354431Y-86513890D01*
X177405440Y-86262000D01*
X177405440Y-80387000D01*
X178957420Y-80387000D01*
X179210560Y-80640140D01*
X179210560Y-80640140D01*
G37*
X179210560Y-80640140D02*
X179210560Y-86262000D01*
X179254838Y-86497317D01*
X179393910Y-86713441D01*
X179606110Y-86858431D01*
X179858000Y-86909440D01*
X181995000Y-86909440D01*
X181995000Y-89459145D01*
X180406514Y-87867884D01*
X178306771Y-86995995D01*
X176033204Y-86994011D01*
X173931942Y-87862234D01*
X172322884Y-89468486D01*
X171450995Y-91568229D01*
X171449011Y-93841796D01*
X171487910Y-93935939D01*
X163512677Y-101911172D01*
X163377592Y-102108875D01*
X163323108Y-102360037D01*
X163370632Y-102612608D01*
X163512677Y-102826790D01*
X165972887Y-105287000D01*
X164196579Y-105287000D01*
X162683000Y-103773420D01*
X162683000Y-87014665D01*
X162799690Y-87063000D01*
X163290250Y-87063000D01*
X163449000Y-86904250D01*
X163449000Y-85805000D01*
X163703000Y-85805000D01*
X163703000Y-86904250D01*
X163861750Y-87063000D01*
X164352310Y-87063000D01*
X164585699Y-86966327D01*
X164764327Y-86787698D01*
X164861000Y-86554309D01*
X164861000Y-85963750D01*
X164702250Y-85805000D01*
X163703000Y-85805000D01*
X163449000Y-85805000D01*
X163429000Y-85805000D01*
X163429000Y-85551000D01*
X163449000Y-85551000D01*
X163449000Y-85531000D01*
X163703000Y-85531000D01*
X163703000Y-85551000D01*
X164702250Y-85551000D01*
X164861000Y-85392250D01*
X164861000Y-84801691D01*
X164764327Y-84568302D01*
X164585699Y-84389673D01*
X164449713Y-84333346D01*
X164461317Y-84331162D01*
X164677441Y-84192090D01*
X164822431Y-83979890D01*
X164846102Y-83863000D01*
X166386560Y-83863000D01*
X166386560Y-84211000D01*
X166412919Y-84351086D01*
X166399000Y-84384690D01*
X166399000Y-84550250D01*
X166557750Y-84709000D01*
X166638051Y-84709000D01*
X166782110Y-84807431D01*
X166919120Y-84835176D01*
X166798683Y-84857838D01*
X166635257Y-84963000D01*
X166557750Y-84963000D01*
X166399000Y-85121750D01*
X166399000Y-85287310D01*
X166414268Y-85324171D01*
X166386560Y-85461000D01*
X166386560Y-86111000D01*
X166430838Y-86346317D01*
X166569910Y-86562441D01*
X166782110Y-86707431D01*
X167034000Y-86758440D01*
X167534860Y-86758440D01*
X168778208Y-88001787D01*
X168778210Y-88001790D01*
X168966261Y-88127441D01*
X169065326Y-88193634D01*
X169404000Y-88261001D01*
X169404005Y-88261000D01*
X172211995Y-88261000D01*
X172212000Y-88261001D01*
X172512824Y-88201162D01*
X172550675Y-88193633D01*
X172837790Y-88001790D01*
X174011577Y-86828003D01*
X174056110Y-86858431D01*
X174308000Y-86909440D01*
X176758000Y-86909440D01*
X176993317Y-86865162D01*
X177209441Y-86726090D01*
X177354431Y-86513890D01*
X177405440Y-86262000D01*
X177405440Y-80387000D01*
X178957420Y-80387000D01*
X179210560Y-80640140D01*
G36*
X146689000Y-74677579D02*
X146689000Y-79706167D01*
X146516890Y-79588569D01*
X146265000Y-79537560D01*
X144565000Y-79537560D01*
X144329683Y-79581838D01*
X144113559Y-79720910D01*
X143968569Y-79933110D01*
X143917560Y-80185000D01*
X143917560Y-81885000D01*
X143961838Y-82120317D01*
X144000671Y-82180665D01*
X143966178Y-82215098D01*
X143705297Y-82843368D01*
X143704704Y-83523648D01*
X143964487Y-84152372D01*
X143999660Y-84187607D01*
X143968569Y-84233110D01*
X143917560Y-84485000D01*
X143917560Y-86185000D01*
X143961838Y-86420317D01*
X144100910Y-86636441D01*
X144313110Y-86781431D01*
X144387305Y-86796456D01*
X144313559Y-86843910D01*
X144168569Y-87056110D01*
X144117560Y-87308000D01*
X144117560Y-88808000D01*
X144161838Y-89043317D01*
X144300910Y-89259441D01*
X144513110Y-89404431D01*
X144546490Y-89411191D01*
X144405301Y-89469673D01*
X144226673Y-89648302D01*
X144130000Y-89881691D01*
X144130000Y-90472250D01*
X144288750Y-90631000D01*
X145288000Y-90631000D01*
X145288000Y-90611000D01*
X145542000Y-90611000D01*
X145542000Y-90631000D01*
X145562000Y-90631000D01*
X145562000Y-90885000D01*
X145542000Y-90885000D01*
X145542000Y-91984250D01*
X145700750Y-92143000D01*
X146191310Y-92143000D01*
X146424699Y-92046327D01*
X146603327Y-91867698D01*
X146689000Y-91660865D01*
X146689000Y-92089421D01*
X144694210Y-94084210D01*
X144524928Y-94337560D01*
X144070000Y-94337560D01*
X143834683Y-94381838D01*
X143618559Y-94520910D01*
X143473569Y-94733110D01*
X143422560Y-94985000D01*
X143422560Y-95000000D01*
X142367000Y-95000000D01*
X142367000Y-93887739D01*
X142379448Y-93882583D01*
X142485462Y-93838671D01*
X142897480Y-93563370D01*
X143093370Y-93367480D01*
X143368671Y-92955463D01*
X143435271Y-92794675D01*
X143474685Y-92699522D01*
X143571357Y-92213515D01*
X143571357Y-92143587D01*
X143585000Y-92075000D01*
X143585000Y-91043750D01*
X144130000Y-91043750D01*
X144130000Y-91634309D01*
X144226673Y-91867698D01*
X144405301Y-92046327D01*
X144638690Y-92143000D01*
X145129250Y-92143000D01*
X145288000Y-91984250D01*
X145288000Y-90885000D01*
X144288750Y-90885000D01*
X144130000Y-91043750D01*
X143585000Y-91043750D01*
X143585000Y-74295000D01*
X143571357Y-74226413D01*
X143571357Y-74156485D01*
X143474685Y-73670478D01*
X143418770Y-73535488D01*
X143368671Y-73414537D01*
X143093370Y-73002520D01*
X142897480Y-72806630D01*
X142485462Y-72531329D01*
X142441211Y-72513000D01*
X144524420Y-72513000D01*
X146689000Y-74677579D01*
X146689000Y-74677579D01*
G37*
X146689000Y-74677579D02*
X146689000Y-79706167D01*
X146516890Y-79588569D01*
X146265000Y-79537560D01*
X144565000Y-79537560D01*
X144329683Y-79581838D01*
X144113559Y-79720910D01*
X143968569Y-79933110D01*
X143917560Y-80185000D01*
X143917560Y-81885000D01*
X143961838Y-82120317D01*
X144000671Y-82180665D01*
X143966178Y-82215098D01*
X143705297Y-82843368D01*
X143704704Y-83523648D01*
X143964487Y-84152372D01*
X143999660Y-84187607D01*
X143968569Y-84233110D01*
X143917560Y-84485000D01*
X143917560Y-86185000D01*
X143961838Y-86420317D01*
X144100910Y-86636441D01*
X144313110Y-86781431D01*
X144387305Y-86796456D01*
X144313559Y-86843910D01*
X144168569Y-87056110D01*
X144117560Y-87308000D01*
X144117560Y-88808000D01*
X144161838Y-89043317D01*
X144300910Y-89259441D01*
X144513110Y-89404431D01*
X144546490Y-89411191D01*
X144405301Y-89469673D01*
X144226673Y-89648302D01*
X144130000Y-89881691D01*
X144130000Y-90472250D01*
X144288750Y-90631000D01*
X145288000Y-90631000D01*
X145288000Y-90611000D01*
X145542000Y-90611000D01*
X145542000Y-90631000D01*
X145562000Y-90631000D01*
X145562000Y-90885000D01*
X145542000Y-90885000D01*
X145542000Y-91984250D01*
X145700750Y-92143000D01*
X146191310Y-92143000D01*
X146424699Y-92046327D01*
X146603327Y-91867698D01*
X146689000Y-91660865D01*
X146689000Y-92089421D01*
X144694210Y-94084210D01*
X144524928Y-94337560D01*
X144070000Y-94337560D01*
X143834683Y-94381838D01*
X143618559Y-94520910D01*
X143473569Y-94733110D01*
X143422560Y-94985000D01*
X143422560Y-95000000D01*
X142367000Y-95000000D01*
X142367000Y-93887739D01*
X142379448Y-93882583D01*
X142485462Y-93838671D01*
X142897480Y-93563370D01*
X143093370Y-93367480D01*
X143368671Y-92955463D01*
X143435271Y-92794675D01*
X143474685Y-92699522D01*
X143571357Y-92213515D01*
X143571357Y-92143587D01*
X143585000Y-92075000D01*
X143585000Y-91043750D01*
X144130000Y-91043750D01*
X144130000Y-91634309D01*
X144226673Y-91867698D01*
X144405301Y-92046327D01*
X144638690Y-92143000D01*
X145129250Y-92143000D01*
X145288000Y-91984250D01*
X145288000Y-90885000D01*
X144288750Y-90885000D01*
X144130000Y-91043750D01*
X143585000Y-91043750D01*
X143585000Y-74295000D01*
X143571357Y-74226413D01*
X143571357Y-74156485D01*
X143474685Y-73670478D01*
X143418770Y-73535488D01*
X143368671Y-73414537D01*
X143093370Y-73002520D01*
X142897480Y-72806630D01*
X142485462Y-72531329D01*
X142441211Y-72513000D01*
X144524420Y-72513000D01*
X146689000Y-74677579D01*
G36*
X150802910Y-88049441D02*
X151015110Y-88194431D01*
X151267000Y-88245440D01*
X152517000Y-88245440D01*
X152752317Y-88201162D01*
X152851278Y-88137482D01*
X152895110Y-88167431D01*
X153147000Y-88218440D01*
X154192861Y-88218440D01*
X154535421Y-88561000D01*
X151271420Y-91825000D01*
X150685013Y-91825000D01*
X150764000Y-91634309D01*
X150764000Y-91043750D01*
X150605250Y-90885000D01*
X149606000Y-90885000D01*
X149606000Y-90905000D01*
X149352000Y-90905000D01*
X149352000Y-90885000D01*
X149332000Y-90885000D01*
X149332000Y-90631000D01*
X149352000Y-90631000D01*
X149352000Y-90611000D01*
X149606000Y-90611000D01*
X149606000Y-90631000D01*
X150605250Y-90631000D01*
X150764000Y-90472250D01*
X150764000Y-89881691D01*
X150667327Y-89648302D01*
X150488699Y-89469673D01*
X150352713Y-89413346D01*
X150364317Y-89411162D01*
X150580441Y-89272090D01*
X150725431Y-89059890D01*
X150776440Y-88808000D01*
X150776440Y-88008305D01*
X150802910Y-88049441D01*
X150802910Y-88049441D01*
G37*
X150802910Y-88049441D02*
X151015110Y-88194431D01*
X151267000Y-88245440D01*
X152517000Y-88245440D01*
X152752317Y-88201162D01*
X152851278Y-88137482D01*
X152895110Y-88167431D01*
X153147000Y-88218440D01*
X154192861Y-88218440D01*
X154535421Y-88561000D01*
X151271420Y-91825000D01*
X150685013Y-91825000D01*
X150764000Y-91634309D01*
X150764000Y-91043750D01*
X150605250Y-90885000D01*
X149606000Y-90885000D01*
X149606000Y-90905000D01*
X149352000Y-90905000D01*
X149352000Y-90885000D01*
X149332000Y-90885000D01*
X149332000Y-90631000D01*
X149352000Y-90631000D01*
X149352000Y-90611000D01*
X149606000Y-90611000D01*
X149606000Y-90631000D01*
X150605250Y-90631000D01*
X150764000Y-90472250D01*
X150764000Y-89881691D01*
X150667327Y-89648302D01*
X150488699Y-89469673D01*
X150352713Y-89413346D01*
X150364317Y-89411162D01*
X150580441Y-89272090D01*
X150725431Y-89059890D01*
X150776440Y-88808000D01*
X150776440Y-88008305D01*
X150802910Y-88049441D01*
G36*
X140843000Y-59032421D02*
X140074835Y-59800586D01*
X139893595Y-59725328D01*
X139143695Y-59724674D01*
X138450628Y-60011043D01*
X137919907Y-60540839D01*
X137843437Y-60725000D01*
X137192000Y-60725000D01*
X136853325Y-60792367D01*
X136566210Y-60984210D01*
X136566208Y-60984213D01*
X135781860Y-61768560D01*
X134986000Y-61768560D01*
X134750683Y-61812838D01*
X134534559Y-61951910D01*
X134389569Y-62164110D01*
X134338560Y-62416000D01*
X134338560Y-63916000D01*
X134382838Y-64151317D01*
X134521910Y-64367441D01*
X134734110Y-64512431D01*
X134747197Y-64515081D01*
X134534559Y-64651910D01*
X134389569Y-64864110D01*
X134338560Y-65116000D01*
X134338560Y-66616000D01*
X134382838Y-66851317D01*
X134521910Y-67067441D01*
X134734110Y-67212431D01*
X134986000Y-67263440D01*
X135781861Y-67263440D01*
X136454208Y-67935787D01*
X136454210Y-67935790D01*
X136741325Y-68127633D01*
X137080000Y-68195000D01*
X137843102Y-68195000D01*
X137918043Y-68376372D01*
X138447839Y-68907093D01*
X139140405Y-69194672D01*
X139890305Y-69195326D01*
X140583372Y-68908957D01*
X140843000Y-68649782D01*
X140843000Y-70743000D01*
X128016005Y-70743000D01*
X128016000Y-70742999D01*
X127733516Y-70799190D01*
X127677325Y-70810367D01*
X127390210Y-71002210D01*
X127390208Y-71002213D01*
X125612210Y-72780210D01*
X125420367Y-73067325D01*
X125418958Y-73074410D01*
X125352999Y-73406000D01*
X125353000Y-73406005D01*
X125353000Y-76961995D01*
X125352999Y-76962000D01*
X125389328Y-77144633D01*
X125420367Y-77300675D01*
X125518138Y-77447000D01*
X125612210Y-77587790D01*
X125861000Y-77836580D01*
X125861000Y-77941778D01*
X125860683Y-77941838D01*
X125644559Y-78080910D01*
X125499569Y-78293110D01*
X125448560Y-78545000D01*
X125448560Y-80045000D01*
X125492838Y-80280317D01*
X125631910Y-80496441D01*
X125844110Y-80641431D01*
X125857197Y-80644081D01*
X125644559Y-80780910D01*
X125499569Y-80993110D01*
X125448560Y-81245000D01*
X125448560Y-82745000D01*
X125492838Y-82980317D01*
X125631910Y-83196441D01*
X125844110Y-83341431D01*
X126095137Y-83392265D01*
X126120210Y-83429790D01*
X127458672Y-84768251D01*
X127396000Y-84755560D01*
X126393139Y-84755560D01*
X124069790Y-82432210D01*
X123967706Y-82364000D01*
X123782675Y-82240367D01*
X123720502Y-82228000D01*
X123444000Y-82172999D01*
X123443995Y-82173000D01*
X120931440Y-82173000D01*
X120931440Y-80864000D01*
X120887162Y-80628683D01*
X120748090Y-80412559D01*
X120535890Y-80267569D01*
X120502510Y-80260809D01*
X120643699Y-80202327D01*
X120822327Y-80023698D01*
X120919000Y-79790309D01*
X120919000Y-79199750D01*
X120760250Y-79041000D01*
X119761000Y-79041000D01*
X119761000Y-79061000D01*
X119507000Y-79061000D01*
X119507000Y-79041000D01*
X118507750Y-79041000D01*
X118349000Y-79199750D01*
X118349000Y-79790309D01*
X118445673Y-80023698D01*
X118624301Y-80202327D01*
X118760287Y-80258654D01*
X118748683Y-80260838D01*
X118532559Y-80399910D01*
X118486757Y-80466944D01*
X118478890Y-80461569D01*
X118227000Y-80410560D01*
X116977000Y-80410560D01*
X116787474Y-80446222D01*
X116684090Y-80285559D01*
X116471890Y-80140569D01*
X116438510Y-80133809D01*
X116579699Y-80075327D01*
X116758327Y-79896698D01*
X116855000Y-79663309D01*
X116855000Y-79072750D01*
X116696250Y-78914000D01*
X115697000Y-78914000D01*
X115697000Y-78934000D01*
X115443000Y-78934000D01*
X115443000Y-78914000D01*
X114443750Y-78914000D01*
X114285000Y-79072750D01*
X114285000Y-79663309D01*
X114381673Y-79896698D01*
X114560301Y-80075327D01*
X114696287Y-80131654D01*
X114684683Y-80133838D01*
X114468559Y-80272910D01*
X114323569Y-80485110D01*
X114302471Y-80589297D01*
X114261890Y-80561569D01*
X114010000Y-80510560D01*
X112410000Y-80510560D01*
X112174683Y-80554838D01*
X111958559Y-80693910D01*
X111813569Y-80906110D01*
X111762560Y-81158000D01*
X111762560Y-82173000D01*
X111757440Y-82173000D01*
X111757440Y-82058000D01*
X111713162Y-81822683D01*
X111574090Y-81606559D01*
X111361890Y-81461569D01*
X111110000Y-81410560D01*
X109510000Y-81410560D01*
X109274683Y-81454838D01*
X109058559Y-81593910D01*
X108913569Y-81806110D01*
X108862560Y-82058000D01*
X108862560Y-84058000D01*
X108906838Y-84293317D01*
X109045910Y-84509441D01*
X109258110Y-84654431D01*
X109510000Y-84705440D01*
X111110000Y-84705440D01*
X111345317Y-84661162D01*
X111561441Y-84522090D01*
X111706431Y-84309890D01*
X111757440Y-84058000D01*
X111757440Y-83943000D01*
X111762560Y-83943000D01*
X111762560Y-84958000D01*
X111806838Y-85193317D01*
X111945910Y-85409441D01*
X112158110Y-85554431D01*
X112410000Y-85605440D01*
X114010000Y-85605440D01*
X114245317Y-85561162D01*
X114329499Y-85506992D01*
X114455910Y-85703441D01*
X114668110Y-85848431D01*
X114681197Y-85851081D01*
X114468559Y-85987910D01*
X114323569Y-86200110D01*
X114272560Y-86452000D01*
X114272560Y-87828871D01*
X112266771Y-86995995D01*
X109993204Y-86994011D01*
X108323440Y-87683943D01*
X108323440Y-84435000D01*
X108279162Y-84199683D01*
X108140090Y-83983559D01*
X107927890Y-83838569D01*
X107676000Y-83787560D01*
X105176000Y-83787560D01*
X105080000Y-83805624D01*
X105080000Y-82570000D01*
X106140250Y-82570000D01*
X106299000Y-82411250D01*
X106299000Y-80187000D01*
X106553000Y-80187000D01*
X106553000Y-82411250D01*
X106711750Y-82570000D01*
X107802310Y-82570000D01*
X108035699Y-82473327D01*
X108214327Y-82294698D01*
X108311000Y-82061309D01*
X108311000Y-80345750D01*
X108152250Y-80187000D01*
X106553000Y-80187000D01*
X106299000Y-80187000D01*
X106279000Y-80187000D01*
X106279000Y-79933000D01*
X106299000Y-79933000D01*
X106299000Y-77708750D01*
X106553000Y-77708750D01*
X106553000Y-79933000D01*
X108152250Y-79933000D01*
X108311000Y-79774250D01*
X108311000Y-78058691D01*
X108249697Y-77910691D01*
X114285000Y-77910691D01*
X114285000Y-78501250D01*
X114443750Y-78660000D01*
X115443000Y-78660000D01*
X115443000Y-77560750D01*
X115697000Y-77560750D01*
X115697000Y-78660000D01*
X116696250Y-78660000D01*
X116855000Y-78501250D01*
X116855000Y-78037691D01*
X118349000Y-78037691D01*
X118349000Y-78628250D01*
X118507750Y-78787000D01*
X119507000Y-78787000D01*
X119507000Y-77687750D01*
X119761000Y-77687750D01*
X119761000Y-78787000D01*
X120760250Y-78787000D01*
X120919000Y-78628250D01*
X120919000Y-78037691D01*
X120822327Y-77804302D01*
X120643699Y-77625673D01*
X120410310Y-77529000D01*
X119919750Y-77529000D01*
X119761000Y-77687750D01*
X119507000Y-77687750D01*
X119348250Y-77529000D01*
X118857690Y-77529000D01*
X118624301Y-77625673D01*
X118445673Y-77804302D01*
X118349000Y-78037691D01*
X116855000Y-78037691D01*
X116855000Y-77910691D01*
X116758327Y-77677302D01*
X116579699Y-77498673D01*
X116346310Y-77402000D01*
X115855750Y-77402000D01*
X115697000Y-77560750D01*
X115443000Y-77560750D01*
X115284250Y-77402000D01*
X114793690Y-77402000D01*
X114560301Y-77498673D01*
X114381673Y-77677302D01*
X114285000Y-77910691D01*
X108249697Y-77910691D01*
X108214327Y-77825302D01*
X108035699Y-77646673D01*
X107802310Y-77550000D01*
X106711750Y-77550000D01*
X106553000Y-77708750D01*
X106299000Y-77708750D01*
X106140250Y-77550000D01*
X105080000Y-77550000D01*
X105080000Y-72559310D01*
X112405295Y-72559310D01*
X112405295Y-72783816D01*
X113881693Y-74260213D01*
X114060321Y-74438842D01*
X114293710Y-74535515D01*
X114546329Y-74535514D01*
X114779718Y-74438841D01*
X119616724Y-69601836D01*
X119616724Y-69377329D01*
X117602000Y-67362605D01*
X112405295Y-72559310D01*
X105080000Y-72559310D01*
X105080000Y-70491290D01*
X110249485Y-70491290D01*
X110346158Y-70724679D01*
X110524787Y-70903307D01*
X112001184Y-72379705D01*
X112225690Y-72379705D01*
X117422395Y-67183000D01*
X117781605Y-67183000D01*
X119796329Y-69197724D01*
X120020836Y-69197724D01*
X124857841Y-64360718D01*
X124954514Y-64127329D01*
X124954515Y-63874710D01*
X124857842Y-63641321D01*
X124679213Y-63462693D01*
X123202816Y-61986295D01*
X122978310Y-61986295D01*
X117781605Y-67183000D01*
X117422395Y-67183000D01*
X115407671Y-65168276D01*
X115183164Y-65168276D01*
X110346159Y-70005282D01*
X110249486Y-70238671D01*
X110249485Y-70491290D01*
X105080000Y-70491290D01*
X105080000Y-64764164D01*
X115587276Y-64764164D01*
X115587276Y-64988671D01*
X117602000Y-67003395D01*
X122798705Y-61806690D01*
X122798705Y-61582184D01*
X121322307Y-60105787D01*
X121143679Y-59927158D01*
X120910290Y-59830485D01*
X120657671Y-59830486D01*
X120424282Y-59927159D01*
X115587276Y-64764164D01*
X105080000Y-64764164D01*
X105080000Y-58620000D01*
X140843000Y-58620000D01*
X140843000Y-59032421D01*
X140843000Y-59032421D01*
G37*
X140843000Y-59032421D02*
X140074835Y-59800586D01*
X139893595Y-59725328D01*
X139143695Y-59724674D01*
X138450628Y-60011043D01*
X137919907Y-60540839D01*
X137843437Y-60725000D01*
X137192000Y-60725000D01*
X136853325Y-60792367D01*
X136566210Y-60984210D01*
X136566208Y-60984213D01*
X135781860Y-61768560D01*
X134986000Y-61768560D01*
X134750683Y-61812838D01*
X134534559Y-61951910D01*
X134389569Y-62164110D01*
X134338560Y-62416000D01*
X134338560Y-63916000D01*
X134382838Y-64151317D01*
X134521910Y-64367441D01*
X134734110Y-64512431D01*
X134747197Y-64515081D01*
X134534559Y-64651910D01*
X134389569Y-64864110D01*
X134338560Y-65116000D01*
X134338560Y-66616000D01*
X134382838Y-66851317D01*
X134521910Y-67067441D01*
X134734110Y-67212431D01*
X134986000Y-67263440D01*
X135781861Y-67263440D01*
X136454208Y-67935787D01*
X136454210Y-67935790D01*
X136741325Y-68127633D01*
X137080000Y-68195000D01*
X137843102Y-68195000D01*
X137918043Y-68376372D01*
X138447839Y-68907093D01*
X139140405Y-69194672D01*
X139890305Y-69195326D01*
X140583372Y-68908957D01*
X140843000Y-68649782D01*
X140843000Y-70743000D01*
X128016005Y-70743000D01*
X128016000Y-70742999D01*
X127733516Y-70799190D01*
X127677325Y-70810367D01*
X127390210Y-71002210D01*
X127390208Y-71002213D01*
X125612210Y-72780210D01*
X125420367Y-73067325D01*
X125418958Y-73074410D01*
X125352999Y-73406000D01*
X125353000Y-73406005D01*
X125353000Y-76961995D01*
X125352999Y-76962000D01*
X125389328Y-77144633D01*
X125420367Y-77300675D01*
X125518138Y-77447000D01*
X125612210Y-77587790D01*
X125861000Y-77836580D01*
X125861000Y-77941778D01*
X125860683Y-77941838D01*
X125644559Y-78080910D01*
X125499569Y-78293110D01*
X125448560Y-78545000D01*
X125448560Y-80045000D01*
X125492838Y-80280317D01*
X125631910Y-80496441D01*
X125844110Y-80641431D01*
X125857197Y-80644081D01*
X125644559Y-80780910D01*
X125499569Y-80993110D01*
X125448560Y-81245000D01*
X125448560Y-82745000D01*
X125492838Y-82980317D01*
X125631910Y-83196441D01*
X125844110Y-83341431D01*
X126095137Y-83392265D01*
X126120210Y-83429790D01*
X127458672Y-84768251D01*
X127396000Y-84755560D01*
X126393139Y-84755560D01*
X124069790Y-82432210D01*
X123967706Y-82364000D01*
X123782675Y-82240367D01*
X123720502Y-82228000D01*
X123444000Y-82172999D01*
X123443995Y-82173000D01*
X120931440Y-82173000D01*
X120931440Y-80864000D01*
X120887162Y-80628683D01*
X120748090Y-80412559D01*
X120535890Y-80267569D01*
X120502510Y-80260809D01*
X120643699Y-80202327D01*
X120822327Y-80023698D01*
X120919000Y-79790309D01*
X120919000Y-79199750D01*
X120760250Y-79041000D01*
X119761000Y-79041000D01*
X119761000Y-79061000D01*
X119507000Y-79061000D01*
X119507000Y-79041000D01*
X118507750Y-79041000D01*
X118349000Y-79199750D01*
X118349000Y-79790309D01*
X118445673Y-80023698D01*
X118624301Y-80202327D01*
X118760287Y-80258654D01*
X118748683Y-80260838D01*
X118532559Y-80399910D01*
X118486757Y-80466944D01*
X118478890Y-80461569D01*
X118227000Y-80410560D01*
X116977000Y-80410560D01*
X116787474Y-80446222D01*
X116684090Y-80285559D01*
X116471890Y-80140569D01*
X116438510Y-80133809D01*
X116579699Y-80075327D01*
X116758327Y-79896698D01*
X116855000Y-79663309D01*
X116855000Y-79072750D01*
X116696250Y-78914000D01*
X115697000Y-78914000D01*
X115697000Y-78934000D01*
X115443000Y-78934000D01*
X115443000Y-78914000D01*
X114443750Y-78914000D01*
X114285000Y-79072750D01*
X114285000Y-79663309D01*
X114381673Y-79896698D01*
X114560301Y-80075327D01*
X114696287Y-80131654D01*
X114684683Y-80133838D01*
X114468559Y-80272910D01*
X114323569Y-80485110D01*
X114302471Y-80589297D01*
X114261890Y-80561569D01*
X114010000Y-80510560D01*
X112410000Y-80510560D01*
X112174683Y-80554838D01*
X111958559Y-80693910D01*
X111813569Y-80906110D01*
X111762560Y-81158000D01*
X111762560Y-82173000D01*
X111757440Y-82173000D01*
X111757440Y-82058000D01*
X111713162Y-81822683D01*
X111574090Y-81606559D01*
X111361890Y-81461569D01*
X111110000Y-81410560D01*
X109510000Y-81410560D01*
X109274683Y-81454838D01*
X109058559Y-81593910D01*
X108913569Y-81806110D01*
X108862560Y-82058000D01*
X108862560Y-84058000D01*
X108906838Y-84293317D01*
X109045910Y-84509441D01*
X109258110Y-84654431D01*
X109510000Y-84705440D01*
X111110000Y-84705440D01*
X111345317Y-84661162D01*
X111561441Y-84522090D01*
X111706431Y-84309890D01*
X111757440Y-84058000D01*
X111757440Y-83943000D01*
X111762560Y-83943000D01*
X111762560Y-84958000D01*
X111806838Y-85193317D01*
X111945910Y-85409441D01*
X112158110Y-85554431D01*
X112410000Y-85605440D01*
X114010000Y-85605440D01*
X114245317Y-85561162D01*
X114329499Y-85506992D01*
X114455910Y-85703441D01*
X114668110Y-85848431D01*
X114681197Y-85851081D01*
X114468559Y-85987910D01*
X114323569Y-86200110D01*
X114272560Y-86452000D01*
X114272560Y-87828871D01*
X112266771Y-86995995D01*
X109993204Y-86994011D01*
X108323440Y-87683943D01*
X108323440Y-84435000D01*
X108279162Y-84199683D01*
X108140090Y-83983559D01*
X107927890Y-83838569D01*
X107676000Y-83787560D01*
X105176000Y-83787560D01*
X105080000Y-83805624D01*
X105080000Y-82570000D01*
X106140250Y-82570000D01*
X106299000Y-82411250D01*
X106299000Y-80187000D01*
X106553000Y-80187000D01*
X106553000Y-82411250D01*
X106711750Y-82570000D01*
X107802310Y-82570000D01*
X108035699Y-82473327D01*
X108214327Y-82294698D01*
X108311000Y-82061309D01*
X108311000Y-80345750D01*
X108152250Y-80187000D01*
X106553000Y-80187000D01*
X106299000Y-80187000D01*
X106279000Y-80187000D01*
X106279000Y-79933000D01*
X106299000Y-79933000D01*
X106299000Y-77708750D01*
X106553000Y-77708750D01*
X106553000Y-79933000D01*
X108152250Y-79933000D01*
X108311000Y-79774250D01*
X108311000Y-78058691D01*
X108249697Y-77910691D01*
X114285000Y-77910691D01*
X114285000Y-78501250D01*
X114443750Y-78660000D01*
X115443000Y-78660000D01*
X115443000Y-77560750D01*
X115697000Y-77560750D01*
X115697000Y-78660000D01*
X116696250Y-78660000D01*
X116855000Y-78501250D01*
X116855000Y-78037691D01*
X118349000Y-78037691D01*
X118349000Y-78628250D01*
X118507750Y-78787000D01*
X119507000Y-78787000D01*
X119507000Y-77687750D01*
X119761000Y-77687750D01*
X119761000Y-78787000D01*
X120760250Y-78787000D01*
X120919000Y-78628250D01*
X120919000Y-78037691D01*
X120822327Y-77804302D01*
X120643699Y-77625673D01*
X120410310Y-77529000D01*
X119919750Y-77529000D01*
X119761000Y-77687750D01*
X119507000Y-77687750D01*
X119348250Y-77529000D01*
X118857690Y-77529000D01*
X118624301Y-77625673D01*
X118445673Y-77804302D01*
X118349000Y-78037691D01*
X116855000Y-78037691D01*
X116855000Y-77910691D01*
X116758327Y-77677302D01*
X116579699Y-77498673D01*
X116346310Y-77402000D01*
X115855750Y-77402000D01*
X115697000Y-77560750D01*
X115443000Y-77560750D01*
X115284250Y-77402000D01*
X114793690Y-77402000D01*
X114560301Y-77498673D01*
X114381673Y-77677302D01*
X114285000Y-77910691D01*
X108249697Y-77910691D01*
X108214327Y-77825302D01*
X108035699Y-77646673D01*
X107802310Y-77550000D01*
X106711750Y-77550000D01*
X106553000Y-77708750D01*
X106299000Y-77708750D01*
X106140250Y-77550000D01*
X105080000Y-77550000D01*
X105080000Y-72559310D01*
X112405295Y-72559310D01*
X112405295Y-72783816D01*
X113881693Y-74260213D01*
X114060321Y-74438842D01*
X114293710Y-74535515D01*
X114546329Y-74535514D01*
X114779718Y-74438841D01*
X119616724Y-69601836D01*
X119616724Y-69377329D01*
X117602000Y-67362605D01*
X112405295Y-72559310D01*
X105080000Y-72559310D01*
X105080000Y-70491290D01*
X110249485Y-70491290D01*
X110346158Y-70724679D01*
X110524787Y-70903307D01*
X112001184Y-72379705D01*
X112225690Y-72379705D01*
X117422395Y-67183000D01*
X117781605Y-67183000D01*
X119796329Y-69197724D01*
X120020836Y-69197724D01*
X124857841Y-64360718D01*
X124954514Y-64127329D01*
X124954515Y-63874710D01*
X124857842Y-63641321D01*
X124679213Y-63462693D01*
X123202816Y-61986295D01*
X122978310Y-61986295D01*
X117781605Y-67183000D01*
X117422395Y-67183000D01*
X115407671Y-65168276D01*
X115183164Y-65168276D01*
X110346159Y-70005282D01*
X110249486Y-70238671D01*
X110249485Y-70491290D01*
X105080000Y-70491290D01*
X105080000Y-64764164D01*
X115587276Y-64764164D01*
X115587276Y-64988671D01*
X117602000Y-67003395D01*
X122798705Y-61806690D01*
X122798705Y-61582184D01*
X121322307Y-60105787D01*
X121143679Y-59927158D01*
X120910290Y-59830485D01*
X120657671Y-59830486D01*
X120424282Y-59927159D01*
X115587276Y-64764164D01*
X105080000Y-64764164D01*
X105080000Y-58620000D01*
X140843000Y-58620000D01*
X140843000Y-59032421D01*
G36*
X158960110Y-81856431D02*
X159212000Y-81907440D01*
X159812000Y-81907440D01*
X160024000Y-81867549D01*
X160024000Y-84505491D01*
X159812000Y-84462560D01*
X159212000Y-84462560D01*
X158976683Y-84506838D01*
X158877472Y-84570678D01*
X158793890Y-84513569D01*
X158542000Y-84462560D01*
X157942000Y-84462560D01*
X157706683Y-84506838D01*
X157616020Y-84565178D01*
X157398310Y-84475000D01*
X157257750Y-84475000D01*
X157099000Y-84633750D01*
X157099000Y-85758000D01*
X157119000Y-85758000D01*
X157119000Y-86012000D01*
X157099000Y-86012000D01*
X157099000Y-87136250D01*
X157257750Y-87295000D01*
X157398310Y-87295000D01*
X157615122Y-87205194D01*
X157690110Y-87256431D01*
X157942000Y-87307440D01*
X158367392Y-87307440D01*
X158341560Y-87435000D01*
X158341560Y-87550000D01*
X156027579Y-87550000D01*
X155772579Y-87295000D01*
X155829002Y-87295000D01*
X155829002Y-87136252D01*
X155987750Y-87295000D01*
X156128310Y-87295000D01*
X156337000Y-87208558D01*
X156545690Y-87295000D01*
X156686250Y-87295000D01*
X156845000Y-87136250D01*
X156845000Y-86012000D01*
X155829000Y-86012000D01*
X155829000Y-86032000D01*
X155575000Y-86032000D01*
X155575000Y-86012000D01*
X155555000Y-86012000D01*
X155555000Y-85758000D01*
X155575000Y-85758000D01*
X155575000Y-84633750D01*
X155829000Y-84633750D01*
X155829000Y-85758000D01*
X156845000Y-85758000D01*
X156845000Y-84633750D01*
X156686250Y-84475000D01*
X156545690Y-84475000D01*
X156337000Y-84561442D01*
X156128310Y-84475000D01*
X155987750Y-84475000D01*
X155829000Y-84633750D01*
X155575000Y-84633750D01*
X155416250Y-84475000D01*
X155275690Y-84475000D01*
X155094440Y-84550076D01*
X155094440Y-83371000D01*
X155050598Y-83138000D01*
X157268995Y-83138000D01*
X157269000Y-83138001D01*
X157551484Y-83081810D01*
X157607675Y-83070633D01*
X157894790Y-82878790D01*
X158867787Y-81905792D01*
X158867790Y-81905790D01*
X158919370Y-81828595D01*
X158960110Y-81856431D01*
X158960110Y-81856431D01*
G37*
X158960110Y-81856431D02*
X159212000Y-81907440D01*
X159812000Y-81907440D01*
X160024000Y-81867549D01*
X160024000Y-84505491D01*
X159812000Y-84462560D01*
X159212000Y-84462560D01*
X158976683Y-84506838D01*
X158877472Y-84570678D01*
X158793890Y-84513569D01*
X158542000Y-84462560D01*
X157942000Y-84462560D01*
X157706683Y-84506838D01*
X157616020Y-84565178D01*
X157398310Y-84475000D01*
X157257750Y-84475000D01*
X157099000Y-84633750D01*
X157099000Y-85758000D01*
X157119000Y-85758000D01*
X157119000Y-86012000D01*
X157099000Y-86012000D01*
X157099000Y-87136250D01*
X157257750Y-87295000D01*
X157398310Y-87295000D01*
X157615122Y-87205194D01*
X157690110Y-87256431D01*
X157942000Y-87307440D01*
X158367392Y-87307440D01*
X158341560Y-87435000D01*
X158341560Y-87550000D01*
X156027579Y-87550000D01*
X155772579Y-87295000D01*
X155829002Y-87295000D01*
X155829002Y-87136252D01*
X155987750Y-87295000D01*
X156128310Y-87295000D01*
X156337000Y-87208558D01*
X156545690Y-87295000D01*
X156686250Y-87295000D01*
X156845000Y-87136250D01*
X156845000Y-86012000D01*
X155829000Y-86012000D01*
X155829000Y-86032000D01*
X155575000Y-86032000D01*
X155575000Y-86012000D01*
X155555000Y-86012000D01*
X155555000Y-85758000D01*
X155575000Y-85758000D01*
X155575000Y-84633750D01*
X155829000Y-84633750D01*
X155829000Y-85758000D01*
X156845000Y-85758000D01*
X156845000Y-84633750D01*
X156686250Y-84475000D01*
X156545690Y-84475000D01*
X156337000Y-84561442D01*
X156128310Y-84475000D01*
X155987750Y-84475000D01*
X155829000Y-84633750D01*
X155575000Y-84633750D01*
X155416250Y-84475000D01*
X155275690Y-84475000D01*
X155094440Y-84550076D01*
X155094440Y-83371000D01*
X155050598Y-83138000D01*
X157268995Y-83138000D01*
X157269000Y-83138001D01*
X157551484Y-83081810D01*
X157607675Y-83070633D01*
X157894790Y-82878790D01*
X158867787Y-81905792D01*
X158867790Y-81905790D01*
X158919370Y-81828595D01*
X158960110Y-81856431D01*
G36*
X129032000Y-86868000D02*
X129052000Y-86868000D01*
X129052000Y-87122000D01*
X129032000Y-87122000D01*
X129032000Y-87142000D01*
X128778000Y-87142000D01*
X128778000Y-87122000D01*
X128758000Y-87122000D01*
X128758000Y-86868000D01*
X128778000Y-86868000D01*
X128778000Y-86848000D01*
X129032000Y-86848000D01*
X129032000Y-86868000D01*
X129032000Y-86868000D01*
G37*
X129032000Y-86868000D02*
X129052000Y-86868000D01*
X129052000Y-87122000D01*
X129032000Y-87122000D01*
X129032000Y-87142000D01*
X128778000Y-87142000D01*
X128778000Y-87122000D01*
X128758000Y-87122000D01*
X128758000Y-86868000D01*
X128778000Y-86868000D01*
X128778000Y-86848000D01*
X129032000Y-86848000D01*
X129032000Y-86868000D01*
G36*
X125448560Y-86314139D02*
X125448560Y-86618000D01*
X118491005Y-86618000D01*
X118491000Y-86617999D01*
X118487000Y-86618795D01*
X118487000Y-85645279D01*
X118678441Y-85522090D01*
X118823431Y-85309890D01*
X118874440Y-85058000D01*
X118874440Y-83943000D01*
X123077420Y-83943000D01*
X125448560Y-86314139D01*
X125448560Y-86314139D01*
G37*
X125448560Y-86314139D02*
X125448560Y-86618000D01*
X118491005Y-86618000D01*
X118491000Y-86617999D01*
X118487000Y-86618795D01*
X118487000Y-85645279D01*
X118678441Y-85522090D01*
X118823431Y-85309890D01*
X118874440Y-85058000D01*
X118874440Y-83943000D01*
X123077420Y-83943000D01*
X125448560Y-86314139D01*
G36*
X134193690Y-82911000D02*
X134277421Y-82911000D01*
X132602420Y-84586000D01*
X131445005Y-84586000D01*
X131445000Y-84585999D01*
X131258479Y-84623101D01*
X131303579Y-84578000D01*
X132206995Y-84578000D01*
X132207000Y-84578001D01*
X132493557Y-84521000D01*
X132545675Y-84510633D01*
X132832790Y-84318790D01*
X132832791Y-84318789D01*
X133975787Y-83175792D01*
X133975790Y-83175790D01*
X134161598Y-82897707D01*
X134193690Y-82911000D01*
X134193690Y-82911000D01*
G37*
X134193690Y-82911000D02*
X134277421Y-82911000D01*
X132602420Y-84586000D01*
X131445005Y-84586000D01*
X131445000Y-84585999D01*
X131258479Y-84623101D01*
X131303579Y-84578000D01*
X132206995Y-84578000D01*
X132207000Y-84578001D01*
X132493557Y-84521000D01*
X132545675Y-84510633D01*
X132832790Y-84318790D01*
X132832791Y-84318789D01*
X133975787Y-83175792D01*
X133975790Y-83175790D01*
X134161598Y-82897707D01*
X134193690Y-82911000D01*
G36*
X152109838Y-77212317D02*
X152248910Y-77428441D01*
X152461110Y-77573431D01*
X152713000Y-77624440D01*
X154213000Y-77624440D01*
X154448317Y-77580162D01*
X154664441Y-77441090D01*
X154809431Y-77228890D01*
X154812081Y-77215803D01*
X154903113Y-77357270D01*
X154884367Y-77385325D01*
X154881050Y-77402000D01*
X154816999Y-77724000D01*
X154817000Y-77724005D01*
X154817000Y-78143974D01*
X154806699Y-78133673D01*
X154573310Y-78037000D01*
X154082750Y-78037000D01*
X153924000Y-78195750D01*
X153924000Y-79295000D01*
X153944000Y-79295000D01*
X153944000Y-79549000D01*
X153924000Y-79549000D01*
X153924000Y-79569000D01*
X153670000Y-79569000D01*
X153670000Y-79549000D01*
X152670750Y-79549000D01*
X152512000Y-79707750D01*
X152512000Y-80298309D01*
X152608673Y-80531698D01*
X152787301Y-80710327D01*
X152923287Y-80766654D01*
X152911683Y-80768838D01*
X152695559Y-80907910D01*
X152550569Y-81120110D01*
X152499560Y-81372000D01*
X152499560Y-82872000D01*
X152514342Y-82950560D01*
X151267000Y-82950560D01*
X151189192Y-82965201D01*
X151189296Y-82846352D01*
X150929513Y-82217628D01*
X150894340Y-82182393D01*
X150925431Y-82136890D01*
X150976440Y-81885000D01*
X150976440Y-80185000D01*
X150932162Y-79949683D01*
X150793090Y-79733559D01*
X150618000Y-79613925D01*
X150618000Y-78545691D01*
X152512000Y-78545691D01*
X152512000Y-79136250D01*
X152670750Y-79295000D01*
X153670000Y-79295000D01*
X153670000Y-78195750D01*
X153511250Y-78037000D01*
X153020690Y-78037000D01*
X152787301Y-78133673D01*
X152608673Y-78312302D01*
X152512000Y-78545691D01*
X150618000Y-78545691D01*
X150618000Y-77408440D01*
X151083000Y-77408440D01*
X151318317Y-77364162D01*
X151534441Y-77225090D01*
X151554317Y-77196000D01*
X152106768Y-77196000D01*
X152109838Y-77212317D01*
X152109838Y-77212317D01*
G37*
X152109838Y-77212317D02*
X152248910Y-77428441D01*
X152461110Y-77573431D01*
X152713000Y-77624440D01*
X154213000Y-77624440D01*
X154448317Y-77580162D01*
X154664441Y-77441090D01*
X154809431Y-77228890D01*
X154812081Y-77215803D01*
X154903113Y-77357270D01*
X154884367Y-77385325D01*
X154881050Y-77402000D01*
X154816999Y-77724000D01*
X154817000Y-77724005D01*
X154817000Y-78143974D01*
X154806699Y-78133673D01*
X154573310Y-78037000D01*
X154082750Y-78037000D01*
X153924000Y-78195750D01*
X153924000Y-79295000D01*
X153944000Y-79295000D01*
X153944000Y-79549000D01*
X153924000Y-79549000D01*
X153924000Y-79569000D01*
X153670000Y-79569000D01*
X153670000Y-79549000D01*
X152670750Y-79549000D01*
X152512000Y-79707750D01*
X152512000Y-80298309D01*
X152608673Y-80531698D01*
X152787301Y-80710327D01*
X152923287Y-80766654D01*
X152911683Y-80768838D01*
X152695559Y-80907910D01*
X152550569Y-81120110D01*
X152499560Y-81372000D01*
X152499560Y-82872000D01*
X152514342Y-82950560D01*
X151267000Y-82950560D01*
X151189192Y-82965201D01*
X151189296Y-82846352D01*
X150929513Y-82217628D01*
X150894340Y-82182393D01*
X150925431Y-82136890D01*
X150976440Y-81885000D01*
X150976440Y-80185000D01*
X150932162Y-79949683D01*
X150793090Y-79733559D01*
X150618000Y-79613925D01*
X150618000Y-78545691D01*
X152512000Y-78545691D01*
X152512000Y-79136250D01*
X152670750Y-79295000D01*
X153670000Y-79295000D01*
X153670000Y-78195750D01*
X153511250Y-78037000D01*
X153020690Y-78037000D01*
X152787301Y-78133673D01*
X152608673Y-78312302D01*
X152512000Y-78545691D01*
X150618000Y-78545691D01*
X150618000Y-77408440D01*
X151083000Y-77408440D01*
X151318317Y-77364162D01*
X151534441Y-77225090D01*
X151554317Y-77196000D01*
X152106768Y-77196000D01*
X152109838Y-77212317D01*
G36*
X170824210Y-76825790D02*
X172865421Y-78867000D01*
X172740860Y-78991560D01*
X171696000Y-78991560D01*
X171460683Y-79035838D01*
X171244559Y-79174910D01*
X171198031Y-79243006D01*
X171055698Y-79100673D01*
X170822309Y-79004000D01*
X170231750Y-79004000D01*
X170073000Y-79162750D01*
X170073000Y-80137000D01*
X170093000Y-80137000D01*
X170093000Y-80391000D01*
X170073000Y-80391000D01*
X170073000Y-81365250D01*
X170231750Y-81524000D01*
X170822309Y-81524000D01*
X171055698Y-81427327D01*
X171196936Y-81286090D01*
X171231910Y-81340441D01*
X171444110Y-81485431D01*
X171561000Y-81509102D01*
X171561000Y-81587421D01*
X170234860Y-82913560D01*
X170020269Y-82913560D01*
X169981633Y-82719326D01*
X169981633Y-82719325D01*
X169789790Y-82432210D01*
X169789787Y-82432208D01*
X169287000Y-81929420D01*
X169287000Y-81524000D01*
X169660250Y-81524000D01*
X169819000Y-81365250D01*
X169819000Y-80391000D01*
X169799000Y-80391000D01*
X169799000Y-80137000D01*
X169819000Y-80137000D01*
X169819000Y-79162750D01*
X169660250Y-79004000D01*
X169389580Y-79004000D01*
X170265787Y-78127792D01*
X170265790Y-78127790D01*
X170457633Y-77840675D01*
X170525000Y-77502000D01*
X170525000Y-76731440D01*
X170761168Y-76731440D01*
X170824210Y-76825790D01*
X170824210Y-76825790D01*
G37*
X170824210Y-76825790D02*
X172865421Y-78867000D01*
X172740860Y-78991560D01*
X171696000Y-78991560D01*
X171460683Y-79035838D01*
X171244559Y-79174910D01*
X171198031Y-79243006D01*
X171055698Y-79100673D01*
X170822309Y-79004000D01*
X170231750Y-79004000D01*
X170073000Y-79162750D01*
X170073000Y-80137000D01*
X170093000Y-80137000D01*
X170093000Y-80391000D01*
X170073000Y-80391000D01*
X170073000Y-81365250D01*
X170231750Y-81524000D01*
X170822309Y-81524000D01*
X171055698Y-81427327D01*
X171196936Y-81286090D01*
X171231910Y-81340441D01*
X171444110Y-81485431D01*
X171561000Y-81509102D01*
X171561000Y-81587421D01*
X170234860Y-82913560D01*
X170020269Y-82913560D01*
X169981633Y-82719326D01*
X169981633Y-82719325D01*
X169789790Y-82432210D01*
X169789787Y-82432208D01*
X169287000Y-81929420D01*
X169287000Y-81524000D01*
X169660250Y-81524000D01*
X169819000Y-81365250D01*
X169819000Y-80391000D01*
X169799000Y-80391000D01*
X169799000Y-80137000D01*
X169819000Y-80137000D01*
X169819000Y-79162750D01*
X169660250Y-79004000D01*
X169389580Y-79004000D01*
X170265787Y-78127792D01*
X170265790Y-78127790D01*
X170457633Y-77840675D01*
X170525000Y-77502000D01*
X170525000Y-76731440D01*
X170761168Y-76731440D01*
X170824210Y-76825790D01*
G36*
X139065000Y-81808000D02*
X139085000Y-81808000D01*
X139085000Y-82062000D01*
X139065000Y-82062000D01*
X139065000Y-82082000D01*
X138811000Y-82082000D01*
X138811000Y-82062000D01*
X138791000Y-82062000D01*
X138791000Y-81808000D01*
X138811000Y-81808000D01*
X138811000Y-81788000D01*
X139065000Y-81788000D01*
X139065000Y-81808000D01*
X139065000Y-81808000D01*
G37*
X139065000Y-81808000D02*
X139085000Y-81808000D01*
X139085000Y-82062000D01*
X139065000Y-82062000D01*
X139065000Y-82082000D01*
X138811000Y-82082000D01*
X138811000Y-82062000D01*
X138791000Y-82062000D01*
X138791000Y-81808000D01*
X138811000Y-81808000D01*
X138811000Y-81788000D01*
X139065000Y-81788000D01*
X139065000Y-81808000D01*
G36*
X134747000Y-81374000D02*
X134767000Y-81374000D01*
X134767000Y-81628000D01*
X134747000Y-81628000D01*
X134747000Y-81648000D01*
X134493000Y-81648000D01*
X134493000Y-81628000D01*
X134473000Y-81628000D01*
X134473000Y-81374000D01*
X134493000Y-81374000D01*
X134493000Y-81354000D01*
X134747000Y-81354000D01*
X134747000Y-81374000D01*
X134747000Y-81374000D01*
G37*
X134747000Y-81374000D02*
X134767000Y-81374000D01*
X134767000Y-81628000D01*
X134747000Y-81628000D01*
X134747000Y-81648000D01*
X134493000Y-81648000D01*
X134493000Y-81628000D01*
X134473000Y-81628000D01*
X134473000Y-81374000D01*
X134493000Y-81374000D01*
X134493000Y-81354000D01*
X134747000Y-81354000D01*
X134747000Y-81374000D01*
G36*
X181995000Y-63104579D02*
X181995000Y-79714560D01*
X180788140Y-79714560D01*
X179949790Y-78876210D01*
X179922222Y-78857790D01*
X179662675Y-78684367D01*
X179593836Y-78670674D01*
X179324000Y-78616999D01*
X179323995Y-78617000D01*
X175118579Y-78617000D01*
X174742790Y-78241210D01*
X174742787Y-78241208D01*
X172335000Y-75833420D01*
X172335000Y-73263559D01*
X173510282Y-74438841D01*
X173743671Y-74535514D01*
X173996290Y-74535515D01*
X174229679Y-74438842D01*
X174408307Y-74260213D01*
X175884705Y-72783816D01*
X175884705Y-72559310D01*
X170688000Y-67362605D01*
X170673858Y-67376748D01*
X170494253Y-67197143D01*
X170508395Y-67183000D01*
X170867605Y-67183000D01*
X176064310Y-72379705D01*
X176288816Y-72379705D01*
X177765213Y-70903307D01*
X177943842Y-70724679D01*
X178040515Y-70491290D01*
X178040514Y-70238671D01*
X177943841Y-70005282D01*
X173106836Y-65168276D01*
X172882329Y-65168276D01*
X170867605Y-67183000D01*
X170508395Y-67183000D01*
X165311690Y-61986295D01*
X165087184Y-61986295D01*
X163610787Y-63462693D01*
X163438279Y-63635200D01*
X163242931Y-63504674D01*
X163152675Y-63444367D01*
X163096484Y-63433190D01*
X162814000Y-63376999D01*
X162813995Y-63377000D01*
X149376676Y-63377000D01*
X149783372Y-63208957D01*
X150314093Y-62679161D01*
X150601672Y-61986595D01*
X150602024Y-61582184D01*
X165491295Y-61582184D01*
X165491295Y-61806690D01*
X170688000Y-67003395D01*
X172702724Y-64988671D01*
X172702724Y-64764164D01*
X167865718Y-59927159D01*
X167632329Y-59830486D01*
X167379710Y-59830485D01*
X167146321Y-59927158D01*
X166967693Y-60105787D01*
X165491295Y-61582184D01*
X150602024Y-61582184D01*
X150602326Y-61236695D01*
X150315957Y-60543628D01*
X149786161Y-60012907D01*
X149093595Y-59725328D01*
X148343695Y-59724674D01*
X147650628Y-60011043D01*
X147119907Y-60540839D01*
X146832328Y-61233405D01*
X146831674Y-61983305D01*
X146853354Y-62035774D01*
X145965747Y-61148167D01*
X145715957Y-60543628D01*
X145186161Y-60012907D01*
X144493595Y-59725328D01*
X143743695Y-59724674D01*
X143050628Y-60011043D01*
X142519907Y-60540839D01*
X142367000Y-60909079D01*
X142367000Y-60011579D01*
X142819579Y-59559000D01*
X178449420Y-59559000D01*
X181995000Y-63104579D01*
X181995000Y-63104579D01*
G37*
X181995000Y-63104579D02*
X181995000Y-79714560D01*
X180788140Y-79714560D01*
X179949790Y-78876210D01*
X179922222Y-78857790D01*
X179662675Y-78684367D01*
X179593836Y-78670674D01*
X179324000Y-78616999D01*
X179323995Y-78617000D01*
X175118579Y-78617000D01*
X174742790Y-78241210D01*
X174742787Y-78241208D01*
X172335000Y-75833420D01*
X172335000Y-73263559D01*
X173510282Y-74438841D01*
X173743671Y-74535514D01*
X173996290Y-74535515D01*
X174229679Y-74438842D01*
X174408307Y-74260213D01*
X175884705Y-72783816D01*
X175884705Y-72559310D01*
X170688000Y-67362605D01*
X170673858Y-67376748D01*
X170494253Y-67197143D01*
X170508395Y-67183000D01*
X170867605Y-67183000D01*
X176064310Y-72379705D01*
X176288816Y-72379705D01*
X177765213Y-70903307D01*
X177943842Y-70724679D01*
X178040515Y-70491290D01*
X178040514Y-70238671D01*
X177943841Y-70005282D01*
X173106836Y-65168276D01*
X172882329Y-65168276D01*
X170867605Y-67183000D01*
X170508395Y-67183000D01*
X165311690Y-61986295D01*
X165087184Y-61986295D01*
X163610787Y-63462693D01*
X163438279Y-63635200D01*
X163242931Y-63504674D01*
X163152675Y-63444367D01*
X163096484Y-63433190D01*
X162814000Y-63376999D01*
X162813995Y-63377000D01*
X149376676Y-63377000D01*
X149783372Y-63208957D01*
X150314093Y-62679161D01*
X150601672Y-61986595D01*
X150602024Y-61582184D01*
X165491295Y-61582184D01*
X165491295Y-61806690D01*
X170688000Y-67003395D01*
X172702724Y-64988671D01*
X172702724Y-64764164D01*
X167865718Y-59927159D01*
X167632329Y-59830486D01*
X167379710Y-59830485D01*
X167146321Y-59927158D01*
X166967693Y-60105787D01*
X165491295Y-61582184D01*
X150602024Y-61582184D01*
X150602326Y-61236695D01*
X150315957Y-60543628D01*
X149786161Y-60012907D01*
X149093595Y-59725328D01*
X148343695Y-59724674D01*
X147650628Y-60011043D01*
X147119907Y-60540839D01*
X146832328Y-61233405D01*
X146831674Y-61983305D01*
X146853354Y-62035774D01*
X145965747Y-61148167D01*
X145715957Y-60543628D01*
X145186161Y-60012907D01*
X144493595Y-59725328D01*
X143743695Y-59724674D01*
X143050628Y-60011043D01*
X142519907Y-60540839D01*
X142367000Y-60909079D01*
X142367000Y-60011579D01*
X142819579Y-59559000D01*
X178449420Y-59559000D01*
X181995000Y-63104579D01*
G36*
X137678000Y-76569250D02*
X137836750Y-76728000D01*
X138811000Y-76728000D01*
X138811000Y-76708000D01*
X139065000Y-76708000D01*
X139065000Y-76728000D01*
X139085000Y-76728000D01*
X139085000Y-76982000D01*
X139065000Y-76982000D01*
X139065000Y-77002000D01*
X138811000Y-77002000D01*
X138811000Y-76982000D01*
X137836750Y-76982000D01*
X137678000Y-77140750D01*
X137678000Y-77731309D01*
X137774673Y-77964698D01*
X137915910Y-78105936D01*
X137861559Y-78140910D01*
X137716569Y-78353110D01*
X137680853Y-78529481D01*
X137567811Y-78360302D01*
X137102264Y-78049233D01*
X136553113Y-77940000D01*
X136496887Y-77940000D01*
X135947736Y-78049233D01*
X135482189Y-78360302D01*
X135350000Y-78558137D01*
X135350000Y-78496690D01*
X135253327Y-78263301D01*
X135158525Y-78168500D01*
X135253327Y-78073699D01*
X135350000Y-77840310D01*
X135350000Y-77374750D01*
X135191250Y-77216000D01*
X134092000Y-77216000D01*
X134092000Y-79121000D01*
X134112000Y-79121000D01*
X134112000Y-79375000D01*
X134092000Y-79375000D01*
X134092000Y-79395000D01*
X133838000Y-79395000D01*
X133838000Y-79375000D01*
X133818000Y-79375000D01*
X133818000Y-79121000D01*
X133838000Y-79121000D01*
X133838000Y-77216000D01*
X133818000Y-77216000D01*
X133818000Y-76962000D01*
X133838000Y-76962000D01*
X133838000Y-76942000D01*
X134092000Y-76942000D01*
X134092000Y-76962000D01*
X135191250Y-76962000D01*
X135350000Y-76803250D01*
X135350000Y-76337690D01*
X135324033Y-76275000D01*
X137678000Y-76275000D01*
X137678000Y-76569250D01*
X137678000Y-76569250D01*
G37*
X137678000Y-76569250D02*
X137836750Y-76728000D01*
X138811000Y-76728000D01*
X138811000Y-76708000D01*
X139065000Y-76708000D01*
X139065000Y-76728000D01*
X139085000Y-76728000D01*
X139085000Y-76982000D01*
X139065000Y-76982000D01*
X139065000Y-77002000D01*
X138811000Y-77002000D01*
X138811000Y-76982000D01*
X137836750Y-76982000D01*
X137678000Y-77140750D01*
X137678000Y-77731309D01*
X137774673Y-77964698D01*
X137915910Y-78105936D01*
X137861559Y-78140910D01*
X137716569Y-78353110D01*
X137680853Y-78529481D01*
X137567811Y-78360302D01*
X137102264Y-78049233D01*
X136553113Y-77940000D01*
X136496887Y-77940000D01*
X135947736Y-78049233D01*
X135482189Y-78360302D01*
X135350000Y-78558137D01*
X135350000Y-78496690D01*
X135253327Y-78263301D01*
X135158525Y-78168500D01*
X135253327Y-78073699D01*
X135350000Y-77840310D01*
X135350000Y-77374750D01*
X135191250Y-77216000D01*
X134092000Y-77216000D01*
X134092000Y-79121000D01*
X134112000Y-79121000D01*
X134112000Y-79375000D01*
X134092000Y-79375000D01*
X134092000Y-79395000D01*
X133838000Y-79395000D01*
X133838000Y-79375000D01*
X133818000Y-79375000D01*
X133818000Y-79121000D01*
X133838000Y-79121000D01*
X133838000Y-77216000D01*
X133818000Y-77216000D01*
X133818000Y-76962000D01*
X133838000Y-76962000D01*
X133838000Y-76942000D01*
X134092000Y-76942000D01*
X134092000Y-76962000D01*
X135191250Y-76962000D01*
X135350000Y-76803250D01*
X135350000Y-76337690D01*
X135324033Y-76275000D01*
X137678000Y-76275000D01*
X137678000Y-76569250D01*
G36*
X145673000Y-68579995D02*
X145672999Y-68580000D01*
X145726374Y-68848326D01*
X145740367Y-68918675D01*
X145802351Y-69011441D01*
X145932210Y-69205790D01*
X147710208Y-70983787D01*
X147710210Y-70983790D01*
X147997325Y-71175633D01*
X148053516Y-71186810D01*
X148336000Y-71243001D01*
X148336005Y-71243000D01*
X160758560Y-71243000D01*
X160758560Y-73608000D01*
X160802838Y-73843317D01*
X160913000Y-74014514D01*
X160913000Y-78107421D01*
X160911440Y-78105861D01*
X160911440Y-77335000D01*
X160867162Y-77099683D01*
X160728090Y-76883559D01*
X160659994Y-76837031D01*
X160802327Y-76694698D01*
X160899000Y-76461309D01*
X160899000Y-75870750D01*
X160740250Y-75712000D01*
X159766000Y-75712000D01*
X159766000Y-75732000D01*
X159512000Y-75732000D01*
X159512000Y-75712000D01*
X159492000Y-75712000D01*
X159492000Y-75458000D01*
X159512000Y-75458000D01*
X159512000Y-74358750D01*
X159766000Y-74358750D01*
X159766000Y-75458000D01*
X160740250Y-75458000D01*
X160899000Y-75299250D01*
X160899000Y-74708691D01*
X160802327Y-74475302D01*
X160623699Y-74296673D01*
X160390310Y-74200000D01*
X159924750Y-74200000D01*
X159766000Y-74358750D01*
X159512000Y-74358750D01*
X159353250Y-74200000D01*
X159000000Y-74200000D01*
X159000000Y-73660005D01*
X159000001Y-73660000D01*
X158932633Y-73321325D01*
X158917934Y-73299327D01*
X158740790Y-73034210D01*
X158740787Y-73034208D01*
X157470790Y-71764210D01*
X157422900Y-71732211D01*
X157183675Y-71572367D01*
X157123347Y-71560367D01*
X156845000Y-71504999D01*
X156844995Y-71505000D01*
X147686579Y-71505000D01*
X145117680Y-68936100D01*
X145183372Y-68908957D01*
X145673000Y-68420182D01*
X145673000Y-68579995D01*
X145673000Y-68579995D01*
G37*
X145673000Y-68579995D02*
X145672999Y-68580000D01*
X145726374Y-68848326D01*
X145740367Y-68918675D01*
X145802351Y-69011441D01*
X145932210Y-69205790D01*
X147710208Y-70983787D01*
X147710210Y-70983790D01*
X147997325Y-71175633D01*
X148053516Y-71186810D01*
X148336000Y-71243001D01*
X148336005Y-71243000D01*
X160758560Y-71243000D01*
X160758560Y-73608000D01*
X160802838Y-73843317D01*
X160913000Y-74014514D01*
X160913000Y-78107421D01*
X160911440Y-78105861D01*
X160911440Y-77335000D01*
X160867162Y-77099683D01*
X160728090Y-76883559D01*
X160659994Y-76837031D01*
X160802327Y-76694698D01*
X160899000Y-76461309D01*
X160899000Y-75870750D01*
X160740250Y-75712000D01*
X159766000Y-75712000D01*
X159766000Y-75732000D01*
X159512000Y-75732000D01*
X159512000Y-75712000D01*
X159492000Y-75712000D01*
X159492000Y-75458000D01*
X159512000Y-75458000D01*
X159512000Y-74358750D01*
X159766000Y-74358750D01*
X159766000Y-75458000D01*
X160740250Y-75458000D01*
X160899000Y-75299250D01*
X160899000Y-74708691D01*
X160802327Y-74475302D01*
X160623699Y-74296673D01*
X160390310Y-74200000D01*
X159924750Y-74200000D01*
X159766000Y-74358750D01*
X159512000Y-74358750D01*
X159353250Y-74200000D01*
X159000000Y-74200000D01*
X159000000Y-73660005D01*
X159000001Y-73660000D01*
X158932633Y-73321325D01*
X158917934Y-73299327D01*
X158740790Y-73034210D01*
X158740787Y-73034208D01*
X157470790Y-71764210D01*
X157422900Y-71732211D01*
X157183675Y-71572367D01*
X157123347Y-71560367D01*
X156845000Y-71504999D01*
X156844995Y-71505000D01*
X147686579Y-71505000D01*
X145117680Y-68936100D01*
X145183372Y-68908957D01*
X145673000Y-68420182D01*
X145673000Y-68579995D01*
G36*
X168509000Y-72009000D02*
X168529000Y-72009000D01*
X168529000Y-72263000D01*
X168509000Y-72263000D01*
X168509000Y-73237250D01*
X168667750Y-73396000D01*
X169258309Y-73396000D01*
X169491698Y-73299327D01*
X169670327Y-73120699D01*
X169767000Y-72887310D01*
X169767000Y-72466579D01*
X170565000Y-73264579D01*
X170565000Y-73636560D01*
X168390000Y-73636560D01*
X168154683Y-73680838D01*
X167938559Y-73819910D01*
X167793569Y-74032110D01*
X167742560Y-74284000D01*
X167742560Y-76084000D01*
X167786838Y-76319317D01*
X167925910Y-76535441D01*
X168138110Y-76680431D01*
X168390000Y-76731440D01*
X168755000Y-76731440D01*
X168755000Y-77135421D01*
X167847440Y-78042980D01*
X167847440Y-77582000D01*
X167803162Y-77346683D01*
X167664090Y-77130559D01*
X167451890Y-76985569D01*
X167335000Y-76961898D01*
X167335000Y-76552235D01*
X167341441Y-76548090D01*
X167486431Y-76335890D01*
X167537440Y-76084000D01*
X167537440Y-74284000D01*
X167493162Y-74048683D01*
X167354090Y-73832559D01*
X167141890Y-73687569D01*
X166890000Y-73636560D01*
X166525000Y-73636560D01*
X166525000Y-73408440D01*
X166632000Y-73408440D01*
X166867317Y-73364162D01*
X167083441Y-73225090D01*
X167129969Y-73156994D01*
X167272302Y-73299327D01*
X167505691Y-73396000D01*
X168096250Y-73396000D01*
X168255000Y-73237250D01*
X168255000Y-72263000D01*
X168235000Y-72263000D01*
X168235000Y-72009000D01*
X168255000Y-72009000D01*
X168255000Y-71989000D01*
X168509000Y-71989000D01*
X168509000Y-72009000D01*
X168509000Y-72009000D01*
G37*
X168509000Y-72009000D02*
X168529000Y-72009000D01*
X168529000Y-72263000D01*
X168509000Y-72263000D01*
X168509000Y-73237250D01*
X168667750Y-73396000D01*
X169258309Y-73396000D01*
X169491698Y-73299327D01*
X169670327Y-73120699D01*
X169767000Y-72887310D01*
X169767000Y-72466579D01*
X170565000Y-73264579D01*
X170565000Y-73636560D01*
X168390000Y-73636560D01*
X168154683Y-73680838D01*
X167938559Y-73819910D01*
X167793569Y-74032110D01*
X167742560Y-74284000D01*
X167742560Y-76084000D01*
X167786838Y-76319317D01*
X167925910Y-76535441D01*
X168138110Y-76680431D01*
X168390000Y-76731440D01*
X168755000Y-76731440D01*
X168755000Y-77135421D01*
X167847440Y-78042980D01*
X167847440Y-77582000D01*
X167803162Y-77346683D01*
X167664090Y-77130559D01*
X167451890Y-76985569D01*
X167335000Y-76961898D01*
X167335000Y-76552235D01*
X167341441Y-76548090D01*
X167486431Y-76335890D01*
X167537440Y-76084000D01*
X167537440Y-74284000D01*
X167493162Y-74048683D01*
X167354090Y-73832559D01*
X167141890Y-73687569D01*
X166890000Y-73636560D01*
X166525000Y-73636560D01*
X166525000Y-73408440D01*
X166632000Y-73408440D01*
X166867317Y-73364162D01*
X167083441Y-73225090D01*
X167129969Y-73156994D01*
X167272302Y-73299327D01*
X167505691Y-73396000D01*
X168096250Y-73396000D01*
X168255000Y-73237250D01*
X168255000Y-72263000D01*
X168235000Y-72263000D01*
X168235000Y-72009000D01*
X168255000Y-72009000D01*
X168255000Y-71989000D01*
X168509000Y-71989000D01*
X168509000Y-72009000D01*
G36*
X142518043Y-62676372D02*
X143047839Y-63207093D01*
X143740405Y-63494672D01*
X144490305Y-63495326D01*
X145183372Y-63208957D01*
X145353523Y-63039103D01*
X147202208Y-64887787D01*
X147202210Y-64887790D01*
X147489325Y-65079633D01*
X147828000Y-65147000D01*
X162447420Y-65147000D01*
X168254998Y-70954577D01*
X168254998Y-71034748D01*
X168096250Y-70876000D01*
X167505691Y-70876000D01*
X167272302Y-70972673D01*
X167131064Y-71113910D01*
X167096090Y-71059559D01*
X166883890Y-70914569D01*
X166632000Y-70863560D01*
X165861139Y-70863560D01*
X164729790Y-69732210D01*
X164442675Y-69540367D01*
X164368809Y-69525674D01*
X164104000Y-69472999D01*
X164103995Y-69473000D01*
X163853440Y-69473000D01*
X163853440Y-67108000D01*
X163809162Y-66872683D01*
X163670090Y-66656559D01*
X163457890Y-66511569D01*
X163206000Y-66460560D01*
X161406000Y-66460560D01*
X161170683Y-66504838D01*
X160954559Y-66643910D01*
X160809569Y-66856110D01*
X160758560Y-67108000D01*
X160758560Y-67473000D01*
X150614440Y-67473000D01*
X150614440Y-66060000D01*
X150570162Y-65824683D01*
X150431090Y-65608559D01*
X150218890Y-65463569D01*
X149967000Y-65412560D01*
X147467000Y-65412560D01*
X147231683Y-65456838D01*
X147218109Y-65465573D01*
X147183790Y-65414210D01*
X147183787Y-65414208D01*
X146167790Y-64398210D01*
X146111679Y-64360718D01*
X145880675Y-64206367D01*
X145824484Y-64195190D01*
X145542000Y-64138999D01*
X145541995Y-64139000D01*
X142367000Y-64139000D01*
X142367000Y-62310819D01*
X142518043Y-62676372D01*
X142518043Y-62676372D01*
G37*
X142518043Y-62676372D02*
X143047839Y-63207093D01*
X143740405Y-63494672D01*
X144490305Y-63495326D01*
X145183372Y-63208957D01*
X145353523Y-63039103D01*
X147202208Y-64887787D01*
X147202210Y-64887790D01*
X147489325Y-65079633D01*
X147828000Y-65147000D01*
X162447420Y-65147000D01*
X168254998Y-70954577D01*
X168254998Y-71034748D01*
X168096250Y-70876000D01*
X167505691Y-70876000D01*
X167272302Y-70972673D01*
X167131064Y-71113910D01*
X167096090Y-71059559D01*
X166883890Y-70914569D01*
X166632000Y-70863560D01*
X165861139Y-70863560D01*
X164729790Y-69732210D01*
X164442675Y-69540367D01*
X164368809Y-69525674D01*
X164104000Y-69472999D01*
X164103995Y-69473000D01*
X163853440Y-69473000D01*
X163853440Y-67108000D01*
X163809162Y-66872683D01*
X163670090Y-66656559D01*
X163457890Y-66511569D01*
X163206000Y-66460560D01*
X161406000Y-66460560D01*
X161170683Y-66504838D01*
X160954559Y-66643910D01*
X160809569Y-66856110D01*
X160758560Y-67108000D01*
X160758560Y-67473000D01*
X150614440Y-67473000D01*
X150614440Y-66060000D01*
X150570162Y-65824683D01*
X150431090Y-65608559D01*
X150218890Y-65463569D01*
X149967000Y-65412560D01*
X147467000Y-65412560D01*
X147231683Y-65456838D01*
X147218109Y-65465573D01*
X147183790Y-65414210D01*
X147183787Y-65414208D01*
X146167790Y-64398210D01*
X146111679Y-64360718D01*
X145880675Y-64206367D01*
X145824484Y-64195190D01*
X145542000Y-64138999D01*
X145541995Y-64139000D01*
X142367000Y-64139000D01*
X142367000Y-62310819D01*
X142518043Y-62676372D01*
M02*
