G04 #@! TF.FileFunction,Legend,Bot*
%FSLAX46Y46*%
G04 Gerber Fmt 4.6, Leading zero omitted, Abs format (unit mm)*
G04 Created by KiCad (PCBNEW 4.0.5) date 12/16/17 21:51:33*
%MOMM*%
%LPD*%
G01*
G04 APERTURE LIST*
%ADD10C,0.100000*%
%ADD11C,0.120000*%
%ADD12C,0.150000*%
G04 APERTURE END LIST*
D10*
D11*
X146295000Y-90008000D02*
X146295000Y-88808000D01*
X144535000Y-88808000D02*
X144535000Y-90008000D01*
X127626000Y-81245000D02*
X127626000Y-80045000D01*
X125866000Y-80045000D02*
X125866000Y-81245000D01*
X133950000Y-101990000D02*
X132750000Y-101990000D01*
X132750000Y-103750000D02*
X133950000Y-103750000D01*
X150359000Y-90008000D02*
X150359000Y-88808000D01*
X148599000Y-88808000D02*
X148599000Y-90008000D01*
X107350000Y-82160000D02*
X108550000Y-82160000D01*
X108550000Y-80400000D02*
X107350000Y-80400000D01*
X155413000Y-75447000D02*
X154213000Y-75447000D01*
X154213000Y-77207000D02*
X155413000Y-77207000D01*
X160519000Y-90135000D02*
X160519000Y-88935000D01*
X158759000Y-88935000D02*
X158759000Y-90135000D01*
X152917000Y-84871000D02*
X152917000Y-86071000D01*
X154677000Y-86071000D02*
X154677000Y-84871000D01*
X127626000Y-88103000D02*
X127626000Y-86903000D01*
X125866000Y-86903000D02*
X125866000Y-88103000D01*
X152917000Y-80172000D02*
X152917000Y-81372000D01*
X154677000Y-81372000D02*
X154677000Y-80172000D01*
X133215000Y-77939000D02*
X132215000Y-77939000D01*
X132215000Y-76239000D02*
X133215000Y-76239000D01*
X139788000Y-82685000D02*
X139788000Y-83685000D01*
X138088000Y-83685000D02*
X138088000Y-82685000D01*
X116044000Y-82986000D02*
X107744000Y-82986000D01*
X116044000Y-86686000D02*
X107744000Y-86686000D01*
X116044000Y-82986000D02*
X116044000Y-86686000D01*
X113165000Y-80430000D02*
X114165000Y-80430000D01*
X114165000Y-82130000D02*
X113165000Y-82130000D01*
X156630000Y-92702000D02*
X156630000Y-91702000D01*
X158330000Y-91702000D02*
X158330000Y-92702000D01*
X138088000Y-88511000D02*
X138088000Y-87511000D01*
X139788000Y-87511000D02*
X139788000Y-88511000D01*
X139788000Y-77859000D02*
X139788000Y-78859000D01*
X138088000Y-78859000D02*
X138088000Y-77859000D01*
X152742000Y-85098000D02*
X152742000Y-86098000D01*
X151042000Y-86098000D02*
X151042000Y-85098000D01*
X160489000Y-76335000D02*
X160489000Y-77335000D01*
X158789000Y-77335000D02*
X158789000Y-76335000D01*
X133215000Y-80098000D02*
X132215000Y-80098000D01*
X132215000Y-78398000D02*
X133215000Y-78398000D01*
X162180000Y-79785000D02*
X165480000Y-79785000D01*
X165480000Y-79785000D02*
X165480000Y-85185000D01*
X162180000Y-79785000D02*
X162180000Y-85185000D01*
D12*
X160182000Y-85260000D02*
X160132000Y-85260000D01*
X160182000Y-81110000D02*
X160037000Y-81110000D01*
X155032000Y-81110000D02*
X155177000Y-81110000D01*
X155032000Y-85260000D02*
X155177000Y-85260000D01*
X160182000Y-85260000D02*
X160182000Y-81110000D01*
X155032000Y-85260000D02*
X155032000Y-81110000D01*
X160132000Y-85260000D02*
X160132000Y-86660000D01*
D11*
X148153000Y-74551000D02*
X149083000Y-74551000D01*
X151313000Y-74551000D02*
X150383000Y-74551000D01*
X151313000Y-74551000D02*
X151313000Y-76711000D01*
X148153000Y-74551000D02*
X148153000Y-76011000D01*
X150720000Y-94235000D02*
X150720000Y-97535000D01*
X150720000Y-97535000D02*
X145320000Y-97535000D01*
X150720000Y-94235000D02*
X145320000Y-94235000D01*
D12*
X130140000Y-82126000D02*
X130190000Y-82126000D01*
X130140000Y-86276000D02*
X130285000Y-86276000D01*
X135290000Y-86276000D02*
X135145000Y-86276000D01*
X135290000Y-82126000D02*
X135145000Y-82126000D01*
X130140000Y-82126000D02*
X130140000Y-86276000D01*
X135290000Y-82126000D02*
X135290000Y-86276000D01*
X130190000Y-82126000D02*
X130190000Y-80726000D01*
D11*
X120348000Y-82010000D02*
X119968000Y-82010000D01*
X124888000Y-82010000D02*
X124508000Y-82010000D01*
X122848000Y-82010000D02*
X122008000Y-82010000D01*
X124888000Y-85630000D02*
X123608000Y-85630000D01*
X121248000Y-85630000D02*
X119968000Y-85630000D01*
X124888000Y-82010000D02*
X124888000Y-85630000D01*
X119968000Y-82010000D02*
X119968000Y-85630000D01*
X123008000Y-83960000D02*
X123348000Y-84290000D01*
X123608000Y-84550000D02*
X124148000Y-85090000D01*
X123108000Y-83860000D02*
X123538000Y-84290000D01*
X123608000Y-84350000D02*
X124238000Y-84990000D01*
X123599731Y-85279507D02*
G75*
G03X123628000Y-85280000I28269J809507D01*
G01*
X123611862Y-85277923D02*
G75*
G03X122838000Y-84300000I16138J807923D01*
G01*
X129950000Y-101345000D02*
X129950000Y-98045000D01*
X129950000Y-98045000D02*
X135350000Y-98045000D01*
X129950000Y-101345000D02*
X135350000Y-101345000D01*
X136750000Y-94235000D02*
X136750000Y-97535000D01*
X136750000Y-97535000D02*
X131350000Y-97535000D01*
X136750000Y-94235000D02*
X131350000Y-94235000D01*
X165990000Y-79785000D02*
X169290000Y-79785000D01*
X169290000Y-79785000D02*
X169290000Y-85185000D01*
X165990000Y-79785000D02*
X165990000Y-85185000D01*
X146365000Y-86285000D02*
X144465000Y-86285000D01*
X144465000Y-86285000D02*
X144465000Y-81585000D01*
X146365000Y-86285000D02*
X146365000Y-81585000D01*
X150429000Y-86285000D02*
X148529000Y-86285000D01*
X148529000Y-86285000D02*
X148529000Y-81585000D01*
X150429000Y-86285000D02*
X150429000Y-81585000D01*
D12*
X144167381Y-88765143D02*
X143691190Y-88431809D01*
X144167381Y-88193714D02*
X143167381Y-88193714D01*
X143167381Y-88574667D01*
X143215000Y-88669905D01*
X143262619Y-88717524D01*
X143357857Y-88765143D01*
X143500714Y-88765143D01*
X143595952Y-88717524D01*
X143643571Y-88669905D01*
X143691190Y-88574667D01*
X143691190Y-88193714D01*
X144167381Y-89717524D02*
X144167381Y-89146095D01*
X144167381Y-89431809D02*
X143167381Y-89431809D01*
X143310238Y-89336571D01*
X143405476Y-89241333D01*
X143453095Y-89146095D01*
X143167381Y-90336571D02*
X143167381Y-90431810D01*
X143215000Y-90527048D01*
X143262619Y-90574667D01*
X143357857Y-90622286D01*
X143548333Y-90669905D01*
X143786429Y-90669905D01*
X143976905Y-90622286D01*
X144072143Y-90574667D01*
X144119762Y-90527048D01*
X144167381Y-90431810D01*
X144167381Y-90336571D01*
X144119762Y-90241333D01*
X144072143Y-90193714D01*
X143976905Y-90146095D01*
X143786429Y-90098476D01*
X143548333Y-90098476D01*
X143357857Y-90146095D01*
X143262619Y-90193714D01*
X143215000Y-90241333D01*
X143167381Y-90336571D01*
X127198381Y-77049334D02*
X126722190Y-76716000D01*
X127198381Y-76477905D02*
X126198381Y-76477905D01*
X126198381Y-76858858D01*
X126246000Y-76954096D01*
X126293619Y-77001715D01*
X126388857Y-77049334D01*
X126531714Y-77049334D01*
X126626952Y-77001715D01*
X126674571Y-76954096D01*
X126722190Y-76858858D01*
X126722190Y-76477905D01*
X127198381Y-77525524D02*
X127198381Y-77716000D01*
X127150762Y-77811239D01*
X127103143Y-77858858D01*
X126960286Y-77954096D01*
X126769810Y-78001715D01*
X126388857Y-78001715D01*
X126293619Y-77954096D01*
X126246000Y-77906477D01*
X126198381Y-77811239D01*
X126198381Y-77620762D01*
X126246000Y-77525524D01*
X126293619Y-77477905D01*
X126388857Y-77430286D01*
X126626952Y-77430286D01*
X126722190Y-77477905D01*
X126769810Y-77525524D01*
X126817429Y-77620762D01*
X126817429Y-77811239D01*
X126769810Y-77906477D01*
X126722190Y-77954096D01*
X126626952Y-78001715D01*
X137072666Y-103322381D02*
X137406000Y-102846190D01*
X137644095Y-103322381D02*
X137644095Y-102322381D01*
X137263142Y-102322381D01*
X137167904Y-102370000D01*
X137120285Y-102417619D01*
X137072666Y-102512857D01*
X137072666Y-102655714D01*
X137120285Y-102750952D01*
X137167904Y-102798571D01*
X137263142Y-102846190D01*
X137644095Y-102846190D01*
X136501238Y-102750952D02*
X136596476Y-102703333D01*
X136644095Y-102655714D01*
X136691714Y-102560476D01*
X136691714Y-102512857D01*
X136644095Y-102417619D01*
X136596476Y-102370000D01*
X136501238Y-102322381D01*
X136310761Y-102322381D01*
X136215523Y-102370000D01*
X136167904Y-102417619D01*
X136120285Y-102512857D01*
X136120285Y-102560476D01*
X136167904Y-102655714D01*
X136215523Y-102703333D01*
X136310761Y-102750952D01*
X136501238Y-102750952D01*
X136596476Y-102798571D01*
X136644095Y-102846190D01*
X136691714Y-102941429D01*
X136691714Y-103131905D01*
X136644095Y-103227143D01*
X136596476Y-103274762D01*
X136501238Y-103322381D01*
X136310761Y-103322381D01*
X136215523Y-103274762D01*
X136167904Y-103227143D01*
X136120285Y-103131905D01*
X136120285Y-102941429D01*
X136167904Y-102846190D01*
X136215523Y-102798571D01*
X136310761Y-102750952D01*
X148231381Y-89241334D02*
X147755190Y-88908000D01*
X148231381Y-88669905D02*
X147231381Y-88669905D01*
X147231381Y-89050858D01*
X147279000Y-89146096D01*
X147326619Y-89193715D01*
X147421857Y-89241334D01*
X147564714Y-89241334D01*
X147659952Y-89193715D01*
X147707571Y-89146096D01*
X147755190Y-89050858D01*
X147755190Y-88669905D01*
X147231381Y-89574667D02*
X147231381Y-90241334D01*
X148231381Y-89812762D01*
X106211666Y-79827381D02*
X106545000Y-79351190D01*
X106783095Y-79827381D02*
X106783095Y-78827381D01*
X106402142Y-78827381D01*
X106306904Y-78875000D01*
X106259285Y-78922619D01*
X106211666Y-79017857D01*
X106211666Y-79160714D01*
X106259285Y-79255952D01*
X106306904Y-79303571D01*
X106402142Y-79351190D01*
X106783095Y-79351190D01*
X105354523Y-78827381D02*
X105545000Y-78827381D01*
X105640238Y-78875000D01*
X105687857Y-78922619D01*
X105783095Y-79065476D01*
X105830714Y-79255952D01*
X105830714Y-79636905D01*
X105783095Y-79732143D01*
X105735476Y-79779762D01*
X105640238Y-79827381D01*
X105449761Y-79827381D01*
X105354523Y-79779762D01*
X105306904Y-79732143D01*
X105259285Y-79636905D01*
X105259285Y-79398810D01*
X105306904Y-79303571D01*
X105354523Y-79255952D01*
X105449761Y-79208333D01*
X105640238Y-79208333D01*
X105735476Y-79255952D01*
X105783095Y-79303571D01*
X105830714Y-79398810D01*
X154979666Y-75001381D02*
X155313000Y-74525190D01*
X155551095Y-75001381D02*
X155551095Y-74001381D01*
X155170142Y-74001381D01*
X155074904Y-74049000D01*
X155027285Y-74096619D01*
X154979666Y-74191857D01*
X154979666Y-74334714D01*
X155027285Y-74429952D01*
X155074904Y-74477571D01*
X155170142Y-74525190D01*
X155551095Y-74525190D01*
X154074904Y-74001381D02*
X154551095Y-74001381D01*
X154598714Y-74477571D01*
X154551095Y-74429952D01*
X154455857Y-74382333D01*
X154217761Y-74382333D01*
X154122523Y-74429952D01*
X154074904Y-74477571D01*
X154027285Y-74572810D01*
X154027285Y-74810905D01*
X154074904Y-74906143D01*
X154122523Y-74953762D01*
X154217761Y-75001381D01*
X154455857Y-75001381D01*
X154551095Y-74953762D01*
X154598714Y-74906143D01*
X160091381Y-93051334D02*
X159615190Y-92718000D01*
X160091381Y-92479905D02*
X159091381Y-92479905D01*
X159091381Y-92860858D01*
X159139000Y-92956096D01*
X159186619Y-93003715D01*
X159281857Y-93051334D01*
X159424714Y-93051334D01*
X159519952Y-93003715D01*
X159567571Y-92956096D01*
X159615190Y-92860858D01*
X159615190Y-92479905D01*
X159424714Y-93908477D02*
X160091381Y-93908477D01*
X159043762Y-93670381D02*
X159758048Y-93432286D01*
X159758048Y-94051334D01*
X154249381Y-88733334D02*
X153773190Y-88400000D01*
X154249381Y-88161905D02*
X153249381Y-88161905D01*
X153249381Y-88542858D01*
X153297000Y-88638096D01*
X153344619Y-88685715D01*
X153439857Y-88733334D01*
X153582714Y-88733334D01*
X153677952Y-88685715D01*
X153725571Y-88638096D01*
X153773190Y-88542858D01*
X153773190Y-88161905D01*
X153249381Y-89066667D02*
X153249381Y-89685715D01*
X153630333Y-89352381D01*
X153630333Y-89495239D01*
X153677952Y-89590477D01*
X153725571Y-89638096D01*
X153820810Y-89685715D01*
X154058905Y-89685715D01*
X154154143Y-89638096D01*
X154201762Y-89590477D01*
X154249381Y-89495239D01*
X154249381Y-89209524D01*
X154201762Y-89114286D01*
X154154143Y-89066667D01*
X127198381Y-83907334D02*
X126722190Y-83574000D01*
X127198381Y-83335905D02*
X126198381Y-83335905D01*
X126198381Y-83716858D01*
X126246000Y-83812096D01*
X126293619Y-83859715D01*
X126388857Y-83907334D01*
X126531714Y-83907334D01*
X126626952Y-83859715D01*
X126674571Y-83812096D01*
X126722190Y-83716858D01*
X126722190Y-83335905D01*
X126293619Y-84288286D02*
X126246000Y-84335905D01*
X126198381Y-84431143D01*
X126198381Y-84669239D01*
X126246000Y-84764477D01*
X126293619Y-84812096D01*
X126388857Y-84859715D01*
X126484095Y-84859715D01*
X126626952Y-84812096D01*
X127198381Y-84240667D01*
X127198381Y-84859715D01*
X152471381Y-80605334D02*
X151995190Y-80272000D01*
X152471381Y-80033905D02*
X151471381Y-80033905D01*
X151471381Y-80414858D01*
X151519000Y-80510096D01*
X151566619Y-80557715D01*
X151661857Y-80605334D01*
X151804714Y-80605334D01*
X151899952Y-80557715D01*
X151947571Y-80510096D01*
X151995190Y-80414858D01*
X151995190Y-80033905D01*
X152471381Y-81557715D02*
X152471381Y-80986286D01*
X152471381Y-81272000D02*
X151471381Y-81272000D01*
X151614238Y-81176762D01*
X151709476Y-81081524D01*
X151757095Y-80986286D01*
X129674857Y-76811143D02*
X129722476Y-76858762D01*
X129865333Y-76906381D01*
X129960571Y-76906381D01*
X130103429Y-76858762D01*
X130198667Y-76763524D01*
X130246286Y-76668286D01*
X130293905Y-76477810D01*
X130293905Y-76334952D01*
X130246286Y-76144476D01*
X130198667Y-76049238D01*
X130103429Y-75954000D01*
X129960571Y-75906381D01*
X129865333Y-75906381D01*
X129722476Y-75954000D01*
X129674857Y-76001619D01*
X128722476Y-76906381D02*
X129293905Y-76906381D01*
X129008191Y-76906381D02*
X129008191Y-75906381D01*
X129103429Y-76049238D01*
X129198667Y-76144476D01*
X129293905Y-76192095D01*
X128103429Y-75906381D02*
X128008190Y-75906381D01*
X127912952Y-75954000D01*
X127865333Y-76001619D01*
X127817714Y-76096857D01*
X127770095Y-76287333D01*
X127770095Y-76525429D01*
X127817714Y-76715905D01*
X127865333Y-76811143D01*
X127912952Y-76858762D01*
X128008190Y-76906381D01*
X128103429Y-76906381D01*
X128198667Y-76858762D01*
X128246286Y-76811143D01*
X128293905Y-76715905D01*
X128341524Y-76525429D01*
X128341524Y-76287333D01*
X128293905Y-76096857D01*
X128246286Y-76001619D01*
X128198667Y-75954000D01*
X128103429Y-75906381D01*
X137918000Y-83068334D02*
X137951333Y-83035000D01*
X137984667Y-82935000D01*
X137984667Y-82868334D01*
X137951333Y-82768334D01*
X137884667Y-82701667D01*
X137818000Y-82668334D01*
X137684667Y-82635000D01*
X137584667Y-82635000D01*
X137451333Y-82668334D01*
X137384667Y-82701667D01*
X137318000Y-82768334D01*
X137284667Y-82868334D01*
X137284667Y-82935000D01*
X137318000Y-83035000D01*
X137351333Y-83068334D01*
X137584667Y-83468334D02*
X137551333Y-83401667D01*
X137518000Y-83368334D01*
X137451333Y-83335000D01*
X137418000Y-83335000D01*
X137351333Y-83368334D01*
X137318000Y-83401667D01*
X137284667Y-83468334D01*
X137284667Y-83601667D01*
X137318000Y-83668334D01*
X137351333Y-83701667D01*
X137418000Y-83735000D01*
X137451333Y-83735000D01*
X137518000Y-83701667D01*
X137551333Y-83668334D01*
X137584667Y-83601667D01*
X137584667Y-83468334D01*
X137618000Y-83401667D01*
X137651333Y-83368334D01*
X137718000Y-83335000D01*
X137851333Y-83335000D01*
X137918000Y-83368334D01*
X137951333Y-83401667D01*
X137984667Y-83468334D01*
X137984667Y-83601667D01*
X137951333Y-83668334D01*
X137918000Y-83701667D01*
X137851333Y-83735000D01*
X137718000Y-83735000D01*
X137651333Y-83701667D01*
X137618000Y-83668334D01*
X137584667Y-83601667D01*
X117514666Y-85193143D02*
X117562285Y-85240762D01*
X117705142Y-85288381D01*
X117800380Y-85288381D01*
X117943238Y-85240762D01*
X118038476Y-85145524D01*
X118086095Y-85050286D01*
X118133714Y-84859810D01*
X118133714Y-84716952D01*
X118086095Y-84526476D01*
X118038476Y-84431238D01*
X117943238Y-84336000D01*
X117800380Y-84288381D01*
X117705142Y-84288381D01*
X117562285Y-84336000D01*
X117514666Y-84383619D01*
X117038476Y-85288381D02*
X116848000Y-85288381D01*
X116752761Y-85240762D01*
X116705142Y-85193143D01*
X116609904Y-85050286D01*
X116562285Y-84859810D01*
X116562285Y-84478857D01*
X116609904Y-84383619D01*
X116657523Y-84336000D01*
X116752761Y-84288381D01*
X116943238Y-84288381D01*
X117038476Y-84336000D01*
X117086095Y-84383619D01*
X117133714Y-84478857D01*
X117133714Y-84716952D01*
X117086095Y-84812190D01*
X117038476Y-84859810D01*
X116943238Y-84907429D01*
X116752761Y-84907429D01*
X116657523Y-84859810D01*
X116609904Y-84812190D01*
X116562285Y-84716952D01*
X155725714Y-102798571D02*
X155582857Y-102846190D01*
X155535238Y-102893810D01*
X155487619Y-102989048D01*
X155487619Y-103131905D01*
X155535238Y-103227143D01*
X155582857Y-103274762D01*
X155678095Y-103322381D01*
X156059048Y-103322381D01*
X156059048Y-102322381D01*
X155725714Y-102322381D01*
X155630476Y-102370000D01*
X155582857Y-102417619D01*
X155535238Y-102512857D01*
X155535238Y-102608095D01*
X155582857Y-102703333D01*
X155630476Y-102750952D01*
X155725714Y-102798571D01*
X156059048Y-102798571D01*
X155201905Y-102322381D02*
X154630476Y-102322381D01*
X154916191Y-103322381D02*
X154916191Y-102322381D01*
X153773333Y-103322381D02*
X154344762Y-103322381D01*
X154059048Y-103322381D02*
X154059048Y-102322381D01*
X154154286Y-102465238D01*
X154249524Y-102560476D01*
X154344762Y-102608095D01*
X151891905Y-98567857D02*
X150368095Y-98567857D01*
X151891905Y-107457857D02*
X150368095Y-107457857D01*
X151130000Y-108219762D02*
X151130000Y-106695952D01*
X115736666Y-79732143D02*
X115784285Y-79779762D01*
X115927142Y-79827381D01*
X116022380Y-79827381D01*
X116165238Y-79779762D01*
X116260476Y-79684524D01*
X116308095Y-79589286D01*
X116355714Y-79398810D01*
X116355714Y-79255952D01*
X116308095Y-79065476D01*
X116260476Y-78970238D01*
X116165238Y-78875000D01*
X116022380Y-78827381D01*
X115927142Y-78827381D01*
X115784285Y-78875000D01*
X115736666Y-78922619D01*
X115403333Y-78827381D02*
X114736666Y-78827381D01*
X115165238Y-79827381D01*
X157837143Y-95591334D02*
X157884762Y-95543715D01*
X157932381Y-95400858D01*
X157932381Y-95305620D01*
X157884762Y-95162762D01*
X157789524Y-95067524D01*
X157694286Y-95019905D01*
X157503810Y-94972286D01*
X157360952Y-94972286D01*
X157170476Y-95019905D01*
X157075238Y-95067524D01*
X156980000Y-95162762D01*
X156932381Y-95305620D01*
X156932381Y-95400858D01*
X156980000Y-95543715D01*
X157027619Y-95591334D01*
X156932381Y-96448477D02*
X156932381Y-96258000D01*
X156980000Y-96162762D01*
X157027619Y-96115143D01*
X157170476Y-96019905D01*
X157360952Y-95972286D01*
X157741905Y-95972286D01*
X157837143Y-96019905D01*
X157884762Y-96067524D01*
X157932381Y-96162762D01*
X157932381Y-96353239D01*
X157884762Y-96448477D01*
X157837143Y-96496096D01*
X157741905Y-96543715D01*
X157503810Y-96543715D01*
X157408571Y-96496096D01*
X157360952Y-96448477D01*
X157313333Y-96353239D01*
X157313333Y-96162762D01*
X157360952Y-96067524D01*
X157408571Y-96019905D01*
X157503810Y-95972286D01*
X137771143Y-89114334D02*
X137818762Y-89066715D01*
X137866381Y-88923858D01*
X137866381Y-88828620D01*
X137818762Y-88685762D01*
X137723524Y-88590524D01*
X137628286Y-88542905D01*
X137437810Y-88495286D01*
X137294952Y-88495286D01*
X137104476Y-88542905D01*
X137009238Y-88590524D01*
X136914000Y-88685762D01*
X136866381Y-88828620D01*
X136866381Y-88923858D01*
X136914000Y-89066715D01*
X136961619Y-89114334D01*
X136866381Y-90019096D02*
X136866381Y-89542905D01*
X137342571Y-89495286D01*
X137294952Y-89542905D01*
X137247333Y-89638143D01*
X137247333Y-89876239D01*
X137294952Y-89971477D01*
X137342571Y-90019096D01*
X137437810Y-90066715D01*
X137675905Y-90066715D01*
X137771143Y-90019096D01*
X137818762Y-89971477D01*
X137866381Y-89876239D01*
X137866381Y-89638143D01*
X137818762Y-89542905D01*
X137771143Y-89495286D01*
X137644143Y-77049334D02*
X137691762Y-77001715D01*
X137739381Y-76858858D01*
X137739381Y-76763620D01*
X137691762Y-76620762D01*
X137596524Y-76525524D01*
X137501286Y-76477905D01*
X137310810Y-76430286D01*
X137167952Y-76430286D01*
X136977476Y-76477905D01*
X136882238Y-76525524D01*
X136787000Y-76620762D01*
X136739381Y-76763620D01*
X136739381Y-76858858D01*
X136787000Y-77001715D01*
X136834619Y-77049334D01*
X137072714Y-77906477D02*
X137739381Y-77906477D01*
X136691762Y-77668381D02*
X137406048Y-77430286D01*
X137406048Y-78049334D01*
X152249143Y-88733334D02*
X152296762Y-88685715D01*
X152344381Y-88542858D01*
X152344381Y-88447620D01*
X152296762Y-88304762D01*
X152201524Y-88209524D01*
X152106286Y-88161905D01*
X151915810Y-88114286D01*
X151772952Y-88114286D01*
X151582476Y-88161905D01*
X151487238Y-88209524D01*
X151392000Y-88304762D01*
X151344381Y-88447620D01*
X151344381Y-88542858D01*
X151392000Y-88685715D01*
X151439619Y-88733334D01*
X151344381Y-89066667D02*
X151344381Y-89685715D01*
X151725333Y-89352381D01*
X151725333Y-89495239D01*
X151772952Y-89590477D01*
X151820571Y-89638096D01*
X151915810Y-89685715D01*
X152153905Y-89685715D01*
X152249143Y-89638096D01*
X152296762Y-89590477D01*
X152344381Y-89495239D01*
X152344381Y-89209524D01*
X152296762Y-89114286D01*
X152249143Y-89066667D01*
X161746143Y-76668334D02*
X161793762Y-76620715D01*
X161841381Y-76477858D01*
X161841381Y-76382620D01*
X161793762Y-76239762D01*
X161698524Y-76144524D01*
X161603286Y-76096905D01*
X161412810Y-76049286D01*
X161269952Y-76049286D01*
X161079476Y-76096905D01*
X160984238Y-76144524D01*
X160889000Y-76239762D01*
X160841381Y-76382620D01*
X160841381Y-76477858D01*
X160889000Y-76620715D01*
X160936619Y-76668334D01*
X160936619Y-77049286D02*
X160889000Y-77096905D01*
X160841381Y-77192143D01*
X160841381Y-77430239D01*
X160889000Y-77525477D01*
X160936619Y-77573096D01*
X161031857Y-77620715D01*
X161127095Y-77620715D01*
X161269952Y-77573096D01*
X161841381Y-77001667D01*
X161841381Y-77620715D01*
X129706666Y-78081143D02*
X129754285Y-78128762D01*
X129897142Y-78176381D01*
X129992380Y-78176381D01*
X130135238Y-78128762D01*
X130230476Y-78033524D01*
X130278095Y-77938286D01*
X130325714Y-77747810D01*
X130325714Y-77604952D01*
X130278095Y-77414476D01*
X130230476Y-77319238D01*
X130135238Y-77224000D01*
X129992380Y-77176381D01*
X129897142Y-77176381D01*
X129754285Y-77224000D01*
X129706666Y-77271619D01*
X128754285Y-78176381D02*
X129325714Y-78176381D01*
X129040000Y-78176381D02*
X129040000Y-77176381D01*
X129135238Y-77319238D01*
X129230476Y-77414476D01*
X129325714Y-77462095D01*
X164282381Y-77874905D02*
X163282381Y-77874905D01*
X163282381Y-78113000D01*
X163330000Y-78255858D01*
X163425238Y-78351096D01*
X163520476Y-78398715D01*
X163710952Y-78446334D01*
X163853810Y-78446334D01*
X164044286Y-78398715D01*
X164139524Y-78351096D01*
X164234762Y-78255858D01*
X164282381Y-78113000D01*
X164282381Y-77874905D01*
X163615714Y-79303477D02*
X164282381Y-79303477D01*
X163234762Y-79065381D02*
X163949048Y-78827286D01*
X163949048Y-79446334D01*
X160488381Y-82423095D02*
X161297905Y-82423095D01*
X161393143Y-82470714D01*
X161440762Y-82518333D01*
X161488381Y-82613571D01*
X161488381Y-82804048D01*
X161440762Y-82899286D01*
X161393143Y-82946905D01*
X161297905Y-82994524D01*
X160488381Y-82994524D01*
X160583619Y-83423095D02*
X160536000Y-83470714D01*
X160488381Y-83565952D01*
X160488381Y-83804048D01*
X160536000Y-83899286D01*
X160583619Y-83946905D01*
X160678857Y-83994524D01*
X160774095Y-83994524D01*
X160916952Y-83946905D01*
X161488381Y-83375476D01*
X161488381Y-83994524D01*
X147740619Y-75215762D02*
X147693000Y-75120524D01*
X147597762Y-75025286D01*
X147454905Y-74882429D01*
X147407286Y-74787190D01*
X147407286Y-74691952D01*
X147645381Y-74739571D02*
X147597762Y-74644333D01*
X147502524Y-74549095D01*
X147312048Y-74501476D01*
X146978714Y-74501476D01*
X146788238Y-74549095D01*
X146693000Y-74644333D01*
X146645381Y-74739571D01*
X146645381Y-74930048D01*
X146693000Y-75025286D01*
X146788238Y-75120524D01*
X146978714Y-75168143D01*
X147312048Y-75168143D01*
X147502524Y-75120524D01*
X147597762Y-75025286D01*
X147645381Y-74930048D01*
X147645381Y-74739571D01*
X147645381Y-76120524D02*
X147645381Y-75549095D01*
X147645381Y-75834809D02*
X146645381Y-75834809D01*
X146788238Y-75739571D01*
X146883476Y-75644333D01*
X146931095Y-75549095D01*
X152757095Y-96337381D02*
X152757095Y-95337381D01*
X152519000Y-95337381D01*
X152376142Y-95385000D01*
X152280904Y-95480238D01*
X152233285Y-95575476D01*
X152185666Y-95765952D01*
X152185666Y-95908810D01*
X152233285Y-96099286D01*
X152280904Y-96194524D01*
X152376142Y-96289762D01*
X152519000Y-96337381D01*
X152757095Y-96337381D01*
X151852333Y-95337381D02*
X151233285Y-95337381D01*
X151566619Y-95718333D01*
X151423761Y-95718333D01*
X151328523Y-95765952D01*
X151280904Y-95813571D01*
X151233285Y-95908810D01*
X151233285Y-96146905D01*
X151280904Y-96242143D01*
X151328523Y-96289762D01*
X151423761Y-96337381D01*
X151709476Y-96337381D01*
X151804714Y-96289762D01*
X151852333Y-96242143D01*
X132167381Y-88392095D02*
X132976905Y-88392095D01*
X133072143Y-88439714D01*
X133119762Y-88487333D01*
X133167381Y-88582571D01*
X133167381Y-88773048D01*
X133119762Y-88868286D01*
X133072143Y-88915905D01*
X132976905Y-88963524D01*
X132167381Y-88963524D01*
X133167381Y-89963524D02*
X133167381Y-89392095D01*
X133167381Y-89677809D02*
X132167381Y-89677809D01*
X132310238Y-89582571D01*
X132405476Y-89487333D01*
X132453095Y-89392095D01*
X123023238Y-80772381D02*
X123356572Y-80296190D01*
X123594667Y-80772381D02*
X123594667Y-79772381D01*
X123213714Y-79772381D01*
X123118476Y-79820000D01*
X123070857Y-79867619D01*
X123023238Y-79962857D01*
X123023238Y-80105714D01*
X123070857Y-80200952D01*
X123118476Y-80248571D01*
X123213714Y-80296190D01*
X123594667Y-80296190D01*
X122737524Y-79772381D02*
X122404191Y-80772381D01*
X122070857Y-79772381D01*
X121213714Y-80772381D02*
X121785143Y-80772381D01*
X121499429Y-80772381D02*
X121499429Y-79772381D01*
X121594667Y-79915238D01*
X121689905Y-80010476D01*
X121785143Y-80058095D01*
X138660095Y-100147381D02*
X138660095Y-99147381D01*
X138422000Y-99147381D01*
X138279142Y-99195000D01*
X138183904Y-99290238D01*
X138136285Y-99385476D01*
X138088666Y-99575952D01*
X138088666Y-99718810D01*
X138136285Y-99909286D01*
X138183904Y-100004524D01*
X138279142Y-100099762D01*
X138422000Y-100147381D01*
X138660095Y-100147381D01*
X137231523Y-99147381D02*
X137422000Y-99147381D01*
X137517238Y-99195000D01*
X137564857Y-99242619D01*
X137660095Y-99385476D01*
X137707714Y-99575952D01*
X137707714Y-99956905D01*
X137660095Y-100052143D01*
X137612476Y-100099762D01*
X137517238Y-100147381D01*
X137326761Y-100147381D01*
X137231523Y-100099762D01*
X137183904Y-100052143D01*
X137136285Y-99956905D01*
X137136285Y-99718810D01*
X137183904Y-99623571D01*
X137231523Y-99575952D01*
X137326761Y-99528333D01*
X137517238Y-99528333D01*
X137612476Y-99575952D01*
X137660095Y-99623571D01*
X137707714Y-99718810D01*
X138660095Y-96337381D02*
X138660095Y-95337381D01*
X138422000Y-95337381D01*
X138279142Y-95385000D01*
X138183904Y-95480238D01*
X138136285Y-95575476D01*
X138088666Y-95765952D01*
X138088666Y-95908810D01*
X138136285Y-96099286D01*
X138183904Y-96194524D01*
X138279142Y-96289762D01*
X138422000Y-96337381D01*
X138660095Y-96337381D01*
X137707714Y-95432619D02*
X137660095Y-95385000D01*
X137564857Y-95337381D01*
X137326761Y-95337381D01*
X137231523Y-95385000D01*
X137183904Y-95432619D01*
X137136285Y-95527857D01*
X137136285Y-95623095D01*
X137183904Y-95765952D01*
X137755333Y-96337381D01*
X137136285Y-96337381D01*
X168092381Y-78001905D02*
X167092381Y-78001905D01*
X167092381Y-78240000D01*
X167140000Y-78382858D01*
X167235238Y-78478096D01*
X167330476Y-78525715D01*
X167520952Y-78573334D01*
X167663810Y-78573334D01*
X167854286Y-78525715D01*
X167949524Y-78478096D01*
X168044762Y-78382858D01*
X168092381Y-78240000D01*
X168092381Y-78001905D01*
X168092381Y-79525715D02*
X168092381Y-78954286D01*
X168092381Y-79240000D02*
X167092381Y-79240000D01*
X167235238Y-79144762D01*
X167330476Y-79049524D01*
X167378095Y-78954286D01*
X145867381Y-78255905D02*
X144867381Y-78255905D01*
X144867381Y-78494000D01*
X144915000Y-78636858D01*
X145010238Y-78732096D01*
X145105476Y-78779715D01*
X145295952Y-78827334D01*
X145438810Y-78827334D01*
X145629286Y-78779715D01*
X145724524Y-78732096D01*
X145819762Y-78636858D01*
X145867381Y-78494000D01*
X145867381Y-78255905D01*
X144867381Y-79160667D02*
X144867381Y-79827334D01*
X145867381Y-79398762D01*
X149931381Y-78255905D02*
X148931381Y-78255905D01*
X148931381Y-78494000D01*
X148979000Y-78636858D01*
X149074238Y-78732096D01*
X149169476Y-78779715D01*
X149359952Y-78827334D01*
X149502810Y-78827334D01*
X149693286Y-78779715D01*
X149788524Y-78732096D01*
X149883762Y-78636858D01*
X149931381Y-78494000D01*
X149931381Y-78255905D01*
X148931381Y-79732096D02*
X148931381Y-79255905D01*
X149407571Y-79208286D01*
X149359952Y-79255905D01*
X149312333Y-79351143D01*
X149312333Y-79589239D01*
X149359952Y-79684477D01*
X149407571Y-79732096D01*
X149502810Y-79779715D01*
X149740905Y-79779715D01*
X149836143Y-79732096D01*
X149883762Y-79684477D01*
X149931381Y-79589239D01*
X149931381Y-79351143D01*
X149883762Y-79255905D01*
X149836143Y-79208286D01*
M02*
