  0
SECTION
  2
HEADER
  9
$ANGBASE
  50
0.0
  9
$ANGDIR
  70
  1
  9
$MEASUREMENT
  70
0
  0
ENDSEC
  0
SECTION
  2
TABLES
  0
TABLE
  2
LTYPE
  70
1
  0
LTYPE
  2
CONTINUOUS
  70
0
  3
Solid line
  72
65
  73
0
  40
0.0
  0
ENDTAB
  0
TABLE
  2
STYLE
  70
4
  0
STYLE
  2
KICAD
  70
0
  40
0
  41
1
  42
1
  50
0
  71
0
  3
isocp.shx
  0
STYLE
  2
KICADB
  70
0
  40
0
  41
1
  42
1
  50
0
  71
0
  3
isocp.shx
  0
STYLE
  2
KICADI
  70
0
  40
0
  41
1
  42
1
  50
15
  71
0
  3
isocp.shx
  0
STYLE
  2
KICADBI
  70
0
  40
0
  41
1
  42
1
  50
15
  71
0
  3
isocp.shx
  0
ENDTAB
  0
TABLE
  2
LAYER
  70
30
  0
LAYER
  2
BLACK
  70
0
  62
7
  6
CONTINUOUS
  0
LAYER
  2
GRAY1
  70
0
  62
251
  6
CONTINUOUS
  0
LAYER
  2
GRAY2
  70
0
  62
8
  6
CONTINUOUS
  0
LAYER
  2
GRAY3
  70
0
  62
9
  6
CONTINUOUS
  0
LAYER
  2
WHITE
  70
0
  62
7
  6
CONTINUOUS
  0
LAYER
  2
LYELLOW
  70
0
  62
51
  6
CONTINUOUS
  0
LAYER
  2
BLUE1
  70
0
  62
178
  6
CONTINUOUS
  0
LAYER
  2
GREEN1
  70
0
  62
98
  6
CONTINUOUS
  0
LAYER
  2
CYAN1
  70
0
  62
138
  6
CONTINUOUS
  0
LAYER
  2
RED1
  70
0
  62
18
  6
CONTINUOUS
  0
LAYER
  2
MAGENTA1
  70
0
  62
228
  6
CONTINUOUS
  0
LAYER
  2
BROWN1
  70
0
  62
58
  6
CONTINUOUS
  0
LAYER
  2
BLUE2
  70
0
  62
5
  6
CONTINUOUS
  0
LAYER
  2
GREEN2
  70
0
  62
3
  6
CONTINUOUS
  0
LAYER
  2
CYAN2
  70
0
  62
4
  6
CONTINUOUS
  0
LAYER
  2
RED2
  70
0
  62
1
  6
CONTINUOUS
  0
LAYER
  2
MAGENTA2
  70
0
  62
6
  6
CONTINUOUS
  0
LAYER
  2
BROWN2
  70
0
  62
54
  6
CONTINUOUS
  0
LAYER
  2
BLUE3
  70
0
  62
171
  6
CONTINUOUS
  0
LAYER
  2
GREEN3
  70
0
  62
91
  6
CONTINUOUS
  0
LAYER
  2
CYAN3
  70
0
  62
131
  6
CONTINUOUS
  0
LAYER
  2
RED3
  70
0
  62
11
  6
CONTINUOUS
  0
LAYER
  2
MAGENTA3
  70
0
  62
221
  6
CONTINUOUS
  0
LAYER
  2
YELLOW3
  70
0
  62
2
  6
CONTINUOUS
  0
LAYER
  2
BLUE4
  70
0
  62
5
  6
CONTINUOUS
  0
LAYER
  2
GREEN4
  70
0
  62
3
  6
CONTINUOUS
  0
LAYER
  2
CYAN4
  70
0
  62
4
  6
CONTINUOUS
  0
LAYER
  2
RED4
  70
0
  62
1
  6
CONTINUOUS
  0
LAYER
  2
MAGENTA4
  70
0
  62
6
  6
CONTINUOUS
  0
LAYER
  2
YELLOW4
  70
0
  62
2
  6
CONTINUOUS
  0
ENDTAB
  0
ENDSEC
  0
SECTION
  2
ENTITIES
0
LINE
8
Black
10
183.399
20
-57.8858
11
183.404
21
-57.8858
0
LINE
8
Black
10
183.404
20
-57.8858
11
183.575
21
-57.9159
0
LINE
8
Black
10
183.575
20
-57.9159
11
183.575
21
-57.9159
0
LINE
8
Black
10
183.575
20
-57.9159
11
183.584
21
-57.9193
0
LINE
8
Black
10
183.584
20
-57.9193
11
183.591
21
-57.9219
0
LINE
8
Black
10
183.591
20
-57.9219
11
183.591
21
-57.9219
0
LINE
8
Black
10
183.591
20
-57.9219
11
183.741
21
-58.0087
0
LINE
8
Black
10
183.741
20
-58.0087
11
183.741
21
-58.0087
0
LINE
8
Black
10
183.741
20
-58.0087
11
183.748
21
-58.0143
0
LINE
8
Black
10
183.748
20
-58.0143
11
183.755
21
-58.0198
0
LINE
8
Black
10
183.755
20
-58.0198
11
183.755
21
-58.0198
0
LINE
8
Black
10
183.755
20
-58.0198
11
183.866
21
-58.1529
0
LINE
8
Black
10
183.866
20
-58.1529
11
183.866
21
-58.1529
0
LINE
8
Black
10
183.866
20
-58.1529
11
183.875
21
-58.1679
0
LINE
8
Black
10
183.875
20
-58.1679
11
183.934
21
-58.3311
0
LINE
8
Black
10
183.934
20
-58.3311
11
183.936
21
-58.3375
0
LINE
8
Black
10
183.936
20
-58.3375
11
183.937
21
-58.3438
0
LINE
8
Black
10
183.937
20
-58.3438
11
183.945
21
-58.4306
0
LINE
8
Black
10
183.945
20
-58.4306
11
183.945
21
-58.4328
0
LINE
8
Black
10
183.945
20
-58.4328
11
183.945
21
-58.435
0
LINE
8
Black
10
183.945
20
-58.435
11
183.945
21
-107.935
0
LINE
8
Black
10
183.945
20
-107.935
11
183.944
21
-107.939
0
LINE
8
Black
10
183.944
20
-107.939
11
183.944
21
-107.944
0
LINE
8
Black
10
183.944
20
-107.944
11
183.914
21
-108.115
0
LINE
8
Black
10
183.914
20
-108.115
11
183.914
21
-108.115
0
LINE
8
Black
10
183.914
20
-108.115
11
183.911
21
-108.124
0
LINE
8
Black
10
183.911
20
-108.124
11
183.908
21
-108.131
0
LINE
8
Black
10
183.908
20
-108.131
11
183.908
21
-108.131
0
LINE
8
Black
10
183.908
20
-108.131
11
183.821
21
-108.281
0
LINE
8
Black
10
183.821
20
-108.281
11
183.81
21
-108.295
0
LINE
8
Black
10
183.81
20
-108.295
11
183.81
21
-108.295
0
LINE
8
Black
10
183.81
20
-108.295
11
183.677
21
-108.406
0
LINE
8
Black
10
183.677
20
-108.406
11
183.677
21
-108.406
0
LINE
8
Black
10
183.677
20
-108.406
11
183.662
21
-108.415
0
LINE
8
Black
10
183.662
20
-108.415
11
183.499
21
-108.474
0
LINE
8
Black
10
183.499
20
-108.474
11
183.492
21
-108.476
0
LINE
8
Black
10
183.492
20
-108.476
11
183.486
21
-108.477
0
LINE
8
Black
10
183.486
20
-108.477
11
183.399
21
-108.485
0
LINE
8
Black
10
183.399
20
-108.485
11
183.397
21
-108.485
0
LINE
8
Black
10
183.397
20
-108.485
11
183.395
21
-108.485
0
LINE
8
Black
10
183.395
20
-108.485
11
104.895
21
-108.485
0
LINE
8
Black
10
104.895
20
-108.485
11
104.891
21
-108.484
0
LINE
8
Black
10
104.891
20
-108.484
11
104.886
21
-108.484
0
LINE
8
Black
10
104.886
20
-108.484
11
104.715
21
-108.454
0
LINE
8
Black
10
104.715
20
-108.454
11
104.715
21
-108.454
0
LINE
8
Black
10
104.715
20
-108.454
11
104.706
21
-108.451
0
LINE
8
Black
10
104.706
20
-108.451
11
104.699
21
-108.448
0
LINE
8
Black
10
104.699
20
-108.448
11
104.699
21
-108.448
0
LINE
8
Black
10
104.699
20
-108.448
11
104.549
21
-108.361
0
LINE
8
Black
10
104.549
20
-108.361
11
104.535
21
-108.35
0
LINE
8
Black
10
104.535
20
-108.35
11
104.535
21
-108.35
0
LINE
8
Black
10
104.535
20
-108.35
11
104.424
21
-108.217
0
LINE
8
Black
10
104.424
20
-108.217
11
104.424
21
-108.217
0
LINE
8
Black
10
104.424
20
-108.217
11
104.415
21
-108.202
0
LINE
8
Black
10
104.415
20
-108.202
11
104.356
21
-108.039
0
LINE
8
Black
10
104.356
20
-108.039
11
104.354
21
-108.032
0
LINE
8
Black
10
104.354
20
-108.032
11
104.353
21
-108.026
0
LINE
8
Black
10
104.353
20
-108.026
11
104.345
21
-107.939
0
LINE
8
Black
10
104.345
20
-107.939
11
104.345
21
-107.937
0
LINE
8
Black
10
104.345
20
-107.937
11
104.345
21
-107.935
0
LINE
8
Black
10
104.345
20
-107.935
11
104.345
21
-58.435
0
LINE
8
Black
10
104.345
20
-58.435
11
104.346
21
-58.4307
0
LINE
8
Black
10
104.346
20
-58.4307
11
104.346
21
-58.4263
0
LINE
8
Black
10
104.346
20
-58.4263
11
104.376
21
-58.2553
0
LINE
8
Black
10
104.376
20
-58.2553
11
104.376
21
-58.2553
0
LINE
8
Black
10
104.376
20
-58.2553
11
104.379
21
-58.2459
0
LINE
8
Black
10
104.379
20
-58.2459
11
104.382
21
-58.239
0
LINE
8
Black
10
104.382
20
-58.239
11
104.382
21
-58.239
0
LINE
8
Black
10
104.382
20
-58.239
11
104.469
21
-58.0886
0
LINE
8
Black
10
104.469
20
-58.0886
11
104.469
21
-58.0886
0
LINE
8
Black
10
104.469
20
-58.0886
11
104.474
21
-58.082
0
LINE
8
Black
10
104.474
20
-58.082
11
104.48
21
-58.0753
0
LINE
8
Black
10
104.48
20
-58.0753
11
104.48
21
-58.0753
0
LINE
8
Black
10
104.48
20
-58.0753
11
104.613
21
-57.9637
0
LINE
8
Black
10
104.613
20
-57.9637
11
104.613
21
-57.9637
0
LINE
8
Black
10
104.613
20
-57.9637
11
104.628
21
-57.955
0
LINE
8
Black
10
104.628
20
-57.955
11
104.791
21
-57.8956
0
LINE
8
Black
10
104.791
20
-57.8956
11
104.798
21
-57.8945
0
LINE
8
Black
10
104.798
20
-57.8945
11
104.804
21
-57.8928
0
LINE
8
Black
10
104.804
20
-57.8928
11
104.891
21
-57.8852
0
LINE
8
Black
10
104.891
20
-57.8852
11
104.893
21
-57.8854
0
LINE
8
Black
10
104.893
20
-57.8854
11
104.895
21
-57.885
0
LINE
8
Black
10
104.895
20
-57.885
11
183.395
21
-57.885
0
LINE
8
Black
10
183.395
20
-57.885
11
183.399
21
-57.8858
0
LINE
8
Black
10
104.897
20
-57.985
11
104.819
21
-57.9918
0
LINE
8
Black
10
104.819
20
-57.9918
11
104.67
21
-58.046
0
LINE
8
Black
10
104.67
20
-58.046
11
104.551
21
-58.1462
0
LINE
8
Black
10
104.551
20
-58.1462
11
104.473
21
-58.2814
0
LINE
8
Black
10
104.473
20
-58.2814
11
104.445
21
-58.4394
0
LINE
8
Black
10
104.445
20
-58.4394
11
104.445
21
-107.933
0
LINE
8
Black
10
104.445
20
-107.933
11
104.452
21
-108.011
0
LINE
8
Black
10
104.452
20
-108.011
11
104.506
21
-108.16
0
LINE
8
Black
10
104.506
20
-108.16
11
104.606
21
-108.279
0
LINE
8
Black
10
104.606
20
-108.279
11
104.741
21
-108.357
0
LINE
8
Black
10
104.741
20
-108.357
11
104.899
21
-108.385
0
LINE
8
Black
10
104.899
20
-108.385
11
183.393
21
-108.385
0
LINE
8
Black
10
183.393
20
-108.385
11
183.471
21
-108.378
0
LINE
8
Black
10
183.471
20
-108.378
11
183.62
21
-108.324
0
LINE
8
Black
10
183.62
20
-108.324
11
183.739
21
-108.224
0
LINE
8
Black
10
183.739
20
-108.224
11
183.817
21
-108.089
0
LINE
8
Black
10
183.817
20
-108.089
11
183.845
21
-107.931
0
LINE
8
Black
10
183.845
20
-107.931
11
183.845
21
-58.4372
0
LINE
8
Black
10
183.845
20
-58.4372
11
183.838
21
-58.3591
0
LINE
8
Black
10
183.838
20
-58.3591
11
183.784
21
-58.2104
0
LINE
8
Black
10
183.784
20
-58.2104
11
183.684
21
-58.0909
0
LINE
8
Black
10
183.684
20
-58.0909
11
183.549
21
-58.0129
0
LINE
8
Black
10
183.549
20
-58.0129
11
183.391
21
-57.985
0
LINE
8
Black
10
183.391
20
-57.985
11
104.897
21
-57.985
0
LINE
8
Black
10
141.611
20
-72.9511
11
141.618
21
-72.9511
0
LINE
8
Black
10
141.618
20
-72.9511
11
142.052
21
-73.0277
0
LINE
8
Black
10
142.052
20
-73.0277
11
142.077
21
-73.0366
0
LINE
8
Black
10
142.077
20
-73.0366
11
142.077
21
-73.0366
0
LINE
8
Black
10
142.077
20
-73.0366
11
142.459
21
-73.2572
0
LINE
8
Black
10
142.459
20
-73.2572
11
142.479
21
-73.2739
0
LINE
8
Black
10
142.479
20
-73.2739
11
142.479
21
-73.2739
0
LINE
8
Black
10
142.479
20
-73.2739
11
142.762
21
-73.6118
0
LINE
8
Black
10
142.762
20
-73.6118
11
142.762
21
-73.6118
0
LINE
8
Black
10
142.762
20
-73.6118
11
142.775
21
-73.6343
0
LINE
8
Black
10
142.775
20
-73.6343
11
142.926
21
-74.0488
0
LINE
8
Black
10
142.926
20
-74.0488
11
142.928
21
-74.0585
0
LINE
8
Black
10
142.928
20
-74.0585
11
142.93
21
-74.0679
0
LINE
8
Black
10
142.93
20
-74.0679
11
142.95
21
-74.2885
0
LINE
8
Black
10
142.95
20
-74.2885
11
142.949
21
-74.2918
0
LINE
8
Black
10
142.949
20
-74.2918
11
142.95
21
-74.295
0
LINE
8
Black
10
142.95
20
-74.295
11
142.95
21
-92.075
0
LINE
8
Black
10
142.95
20
-92.075
11
142.949
21
-92.0815
0
LINE
8
Black
10
142.949
20
-92.0815
11
142.949
21
-92.088
0
LINE
8
Black
10
142.949
20
-92.088
11
142.872
21
-92.5224
0
LINE
8
Black
10
142.872
20
-92.5224
11
142.863
21
-92.5469
0
LINE
8
Black
10
142.863
20
-92.5469
11
142.643
21
-92.9288
0
LINE
8
Black
10
142.643
20
-92.9288
11
142.626
21
-92.9488
0
LINE
8
Black
10
142.626
20
-92.9488
11
142.626
21
-92.9488
0
LINE
8
Black
10
142.626
20
-92.9488
11
142.288
21
-93.2323
0
LINE
8
Black
10
142.288
20
-93.2323
11
142.288
21
-93.2323
0
LINE
8
Black
10
142.288
20
-93.2323
11
142.266
21
-93.2453
0
LINE
8
Black
10
142.266
20
-93.2453
11
141.851
21
-93.3962
0
LINE
8
Black
10
141.851
20
-93.3962
11
141.842
21
-93.3979
0
LINE
8
Black
10
141.842
20
-93.3979
11
141.832
21
-93.4004
0
LINE
8
Black
10
141.832
20
-93.4004
11
141.612
21
-93.4197
0
LINE
8
Black
10
141.612
20
-93.4197
11
141.608
21
-93.4194
0
LINE
8
Black
10
141.608
20
-93.4194
11
141.605
21
-93.42
0
LINE
8
Black
10
141.605
20
-93.42
11
128.905
21
-93.42
0
LINE
8
Black
10
128.905
20
-93.42
11
128.899
21
-93.4189
0
LINE
8
Black
10
128.899
20
-93.4189
11
128.892
21
-93.4189
0
LINE
8
Black
10
128.892
20
-93.4189
11
128.458
21
-93.3423
0
LINE
8
Black
10
128.458
20
-93.3423
11
128.433
21
-93.3334
0
LINE
8
Black
10
128.433
20
-93.3334
11
128.051
21
-93.1128
0
LINE
8
Black
10
128.051
20
-93.1128
11
128.031
21
-93.0961
0
LINE
8
Black
10
128.031
20
-93.0961
11
128.031
21
-93.0961
0
LINE
8
Black
10
128.031
20
-93.0961
11
127.748
21
-92.7582
0
LINE
8
Black
10
127.748
20
-92.7582
11
127.748
21
-92.7582
0
LINE
8
Black
10
127.748
20
-92.7582
11
127.735
21
-92.7357
0
LINE
8
Black
10
127.735
20
-92.7357
11
127.584
21
-92.3212
0
LINE
8
Black
10
127.584
20
-92.3212
11
127.582
21
-92.3115
0
LINE
8
Black
10
127.582
20
-92.3115
11
127.58
21
-92.3021
0
LINE
8
Black
10
127.58
20
-92.3021
11
127.56
21
-92.0815
0
LINE
8
Black
10
127.56
20
-92.0815
11
127.561
21
-92.0718
0
LINE
8
Black
10
127.561
20
-92.0718
11
127.561
21
-92.062
0
LINE
8
Black
10
127.561
20
-92.062
11
127.638
21
-91.6276
0
LINE
8
Black
10
127.638
20
-91.6276
11
127.647
21
-91.6031
0
LINE
8
Black
10
127.647
20
-91.6031
11
127.647
21
-91.6031
0
LINE
8
Black
10
127.647
20
-91.6031
11
127.867
21
-91.2212
0
LINE
8
Black
10
127.867
20
-91.2212
11
127.884
21
-91.2012
0
LINE
8
Black
10
127.884
20
-91.2012
11
127.884
21
-91.2012
0
LINE
8
Black
10
127.884
20
-91.2012
11
128.222
21
-90.9177
0
LINE
8
Black
10
128.222
20
-90.9177
11
128.222
21
-90.9177
0
LINE
8
Black
10
128.222
20
-90.9177
11
128.244
21
-90.9047
0
LINE
8
Black
10
128.244
20
-90.9047
11
128.659
21
-90.7538
0
LINE
8
Black
10
128.659
20
-90.7538
11
128.668
21
-90.7521
0
LINE
8
Black
10
128.668
20
-90.7521
11
128.678
21
-90.7496
0
LINE
8
Black
10
128.678
20
-90.7496
11
128.898
21
-90.7303
0
LINE
8
Black
10
128.898
20
-90.7303
11
128.902
21
-90.7306
0
LINE
8
Black
10
128.902
20
-90.7306
11
128.905
21
-90.73
0
LINE
8
Black
10
128.905
20
-90.73
11
140.26
21
-90.73
0
LINE
8
Black
10
140.26
20
-90.73
11
140.26
21
-75.64
0
LINE
8
Black
10
140.26
20
-75.64
11
128.905
21
-75.64
0
LINE
8
Black
10
128.905
20
-75.64
11
128.899
21
-75.6389
0
LINE
8
Black
10
128.899
20
-75.6389
11
128.892
21
-75.6389
0
LINE
8
Black
10
128.892
20
-75.6389
11
128.458
21
-75.5623
0
LINE
8
Black
10
128.458
20
-75.5623
11
128.433
21
-75.5534
0
LINE
8
Black
10
128.433
20
-75.5534
11
128.051
21
-75.3328
0
LINE
8
Black
10
128.051
20
-75.3328
11
128.031
21
-75.3161
0
LINE
8
Black
10
128.031
20
-75.3161
11
128.031
21
-75.3161
0
LINE
8
Black
10
128.031
20
-75.3161
11
127.748
21
-74.9782
0
LINE
8
Black
10
127.748
20
-74.9782
11
127.748
21
-74.9782
0
LINE
8
Black
10
127.748
20
-74.9782
11
127.735
21
-74.9557
0
LINE
8
Black
10
127.735
20
-74.9557
11
127.584
21
-74.5412
0
LINE
8
Black
10
127.584
20
-74.5412
11
127.582
21
-74.5315
0
LINE
8
Black
10
127.582
20
-74.5315
11
127.58
21
-74.5221
0
LINE
8
Black
10
127.58
20
-74.5221
11
127.56
21
-74.3015
0
LINE
8
Black
10
127.56
20
-74.3015
11
127.561
21
-74.2918
0
LINE
8
Black
10
127.561
20
-74.2918
11
127.561
21
-74.282
0
LINE
8
Black
10
127.561
20
-74.282
11
127.638
21
-73.8476
0
LINE
8
Black
10
127.638
20
-73.8476
11
127.647
21
-73.8231
0
LINE
8
Black
10
127.647
20
-73.8231
11
127.647
21
-73.8231
0
LINE
8
Black
10
127.647
20
-73.8231
11
127.867
21
-73.4412
0
LINE
8
Black
10
127.867
20
-73.4412
11
127.884
21
-73.4212
0
LINE
8
Black
10
127.884
20
-73.4212
11
127.884
21
-73.4212
0
LINE
8
Black
10
127.884
20
-73.4212
11
128.222
21
-73.1377
0
LINE
8
Black
10
128.222
20
-73.1377
11
128.222
21
-73.1377
0
LINE
8
Black
10
128.222
20
-73.1377
11
128.244
21
-73.1247
0
LINE
8
Black
10
128.244
20
-73.1247
11
128.659
21
-72.9738
0
LINE
8
Black
10
128.659
20
-72.9738
11
128.668
21
-72.9721
0
LINE
8
Black
10
128.668
20
-72.9721
11
128.678
21
-72.9696
0
LINE
8
Black
10
128.678
20
-72.9696
11
128.898
21
-72.9503
0
LINE
8
Black
10
128.898
20
-72.9503
11
128.902
21
-72.9506
0
LINE
8
Black
10
128.902
20
-72.9506
11
128.905
21
-72.95
0
LINE
8
Black
10
128.905
20
-72.95
11
141.605
21
-72.95
0
LINE
8
Black
10
141.605
20
-72.95
11
141.611
21
-72.9511
0
LINE
8
Black
10
128.908
20
-73.1
11
128.701
21
-73.1181
0
LINE
8
Black
10
128.701
20
-73.1181
11
128.308
21
-73.2611
0
LINE
8
Black
10
128.308
20
-73.2611
11
127.99
21
-73.5276
0
LINE
8
Black
10
127.99
20
-73.5276
11
127.783
21
-73.8867
0
LINE
8
Black
10
127.783
20
-73.8867
11
127.711
21
-74.2983
0
LINE
8
Black
10
127.711
20
-74.2983
11
127.728
21
-74.4992
0
LINE
8
Black
10
127.728
20
-74.4992
11
127.871
21
-74.8919
0
LINE
8
Black
10
127.871
20
-74.8919
11
128.138
21
-75.2095
0
LINE
8
Black
10
128.138
20
-75.2095
11
128.497
21
-75.4168
0
LINE
8
Black
10
128.497
20
-75.4168
11
128.912
21
-75.49
0
LINE
8
Black
10
128.912
20
-75.49
11
140.335
21
-75.49
0
LINE
8
Black
10
140.335
20
-75.49
11
140.341
21
-75.4911
0
LINE
8
Black
10
140.341
20
-75.4911
11
140.348
21
-75.4911
0
LINE
8
Black
10
140.348
20
-75.4911
11
140.354
21
-75.4934
0
LINE
8
Black
10
140.354
20
-75.4934
11
140.361
21
-75.4945
0
LINE
8
Black
10
140.361
20
-75.4945
11
140.366
21
-75.4978
0
LINE
8
Black
10
140.366
20
-75.4978
11
140.373
21
-75.5
0
LINE
8
Black
10
140.373
20
-75.5
11
140.378
21
-75.5043
0
LINE
8
Black
10
140.378
20
-75.5043
11
140.383
21
-75.5075
0
LINE
8
Black
10
140.383
20
-75.5075
11
140.387
21
-75.5126
0
LINE
8
Black
10
140.387
20
-75.5126
11
140.392
21
-75.5168
0
LINE
8
Black
10
140.392
20
-75.5168
11
140.396
21
-75.5225
0
LINE
8
Black
10
140.396
20
-75.5225
11
140.4
21
-75.5275
0
LINE
8
Black
10
140.4
20
-75.5275
11
140.402
21
-75.5337
0
LINE
8
Black
10
140.402
20
-75.5337
11
140.405
21
-75.5393
0
LINE
8
Black
10
140.405
20
-75.5393
11
140.407
21
-75.5458
0
LINE
8
Black
10
140.407
20
-75.5458
11
140.409
21
-75.552
0
LINE
8
Black
10
140.409
20
-75.552
11
140.409
21
-75.5585
0
LINE
8
Black
10
140.409
20
-75.5585
11
140.41
21
-75.565
0
LINE
8
Black
10
140.41
20
-75.565
11
140.41
21
-90.805
0
LINE
8
Black
10
140.41
20
-90.805
11
140.409
21
-90.8115
0
LINE
8
Black
10
140.409
20
-90.8115
11
140.409
21
-90.818
0
LINE
8
Black
10
140.409
20
-90.818
11
140.407
21
-90.8242
0
LINE
8
Black
10
140.407
20
-90.8242
11
140.405
21
-90.8307
0
LINE
8
Black
10
140.405
20
-90.8307
11
140.402
21
-90.8363
0
LINE
8
Black
10
140.402
20
-90.8363
11
140.4
21
-90.8425
0
LINE
8
Black
10
140.4
20
-90.8425
11
140.396
21
-90.8475
0
LINE
8
Black
10
140.396
20
-90.8475
11
140.392
21
-90.8532
0
LINE
8
Black
10
140.392
20
-90.8532
11
140.387
21
-90.8574
0
LINE
8
Black
10
140.387
20
-90.8574
11
140.383
21
-90.8625
0
LINE
8
Black
10
140.383
20
-90.8625
11
140.378
21
-90.8657
0
LINE
8
Black
10
140.378
20
-90.8657
11
140.373
21
-90.87
0
LINE
8
Black
10
140.373
20
-90.87
11
140.366
21
-90.8722
0
LINE
8
Black
10
140.366
20
-90.8722
11
140.361
21
-90.8755
0
LINE
8
Black
10
140.361
20
-90.8755
11
140.354
21
-90.8766
0
LINE
8
Black
10
140.354
20
-90.8766
11
140.348
21
-90.8789
0
LINE
8
Black
10
140.348
20
-90.8789
11
140.341
21
-90.8789
0
LINE
8
Black
10
140.341
20
-90.8789
11
140.335
21
-90.88
0
LINE
8
Black
10
140.335
20
-90.88
11
128.908
21
-90.88
0
LINE
8
Black
10
128.908
20
-90.88
11
128.701
21
-90.8981
0
LINE
8
Black
10
128.701
20
-90.8981
11
128.308
21
-91.0411
0
LINE
8
Black
10
128.308
20
-91.0411
11
127.99
21
-91.3076
0
LINE
8
Black
10
127.99
20
-91.3076
11
127.783
21
-91.6667
0
LINE
8
Black
10
127.783
20
-91.6667
11
127.711
21
-92.0783
0
LINE
8
Black
10
127.711
20
-92.0783
11
127.728
21
-92.2792
0
LINE
8
Black
10
127.728
20
-92.2792
11
127.871
21
-92.6719
0
LINE
8
Black
10
127.871
20
-92.6719
11
128.138
21
-92.9895
0
LINE
8
Black
10
128.138
20
-92.9895
11
128.497
21
-93.1968
0
LINE
8
Black
10
128.497
20
-93.1968
11
128.912
21
-93.27
0
LINE
8
Black
10
128.912
20
-93.27
11
141.602
21
-93.27
0
LINE
8
Black
10
141.602
20
-93.27
11
141.809
21
-93.2519
0
LINE
8
Black
10
141.809
20
-93.2519
11
142.202
21
-93.1089
0
LINE
8
Black
10
142.202
20
-93.1089
11
142.52
21
-92.8424
0
LINE
8
Black
10
142.52
20
-92.8424
11
142.727
21
-92.4833
0
LINE
8
Black
10
142.727
20
-92.4833
11
142.8
21
-92.0684
0
LINE
8
Black
10
142.8
20
-92.0684
11
142.8
21
-74.2983
0
LINE
8
Black
10
142.8
20
-74.2983
11
142.782
21
-74.0908
0
LINE
8
Black
10
142.782
20
-74.0908
11
142.639
21
-73.6981
0
LINE
8
Black
10
142.639
20
-73.6981
11
142.372
21
-73.3805
0
LINE
8
Black
10
142.372
20
-73.3805
11
142.013
21
-73.1732
0
LINE
8
Black
10
142.013
20
-73.1732
11
141.598
21
-73.1
0
LINE
8
Black
10
141.598
20
-73.1
11
128.908
21
-73.1
  0
ENDSEC
  0
EOF
