  0
SECTION
  2
HEADER
  9
$ANGBASE
  50
0.0
  9
$ANGDIR
  70
  1
  9
$MEASUREMENT
  70
0
  0
ENDSEC
  0
SECTION
  2
TABLES
  0
TABLE
  2
LTYPE
  70
1
  0
LTYPE
  2
CONTINUOUS
  70
0
  3
Solid line
  72
65
  73
0
  40
0.0
  0
ENDTAB
  0
TABLE
  2
STYLE
  70
4
  0
STYLE
  2
KICAD
  70
0
  40
0
  41
1
  42
1
  50
0
  71
0
  3
isocp.shx
  0
STYLE
  2
KICADB
  70
0
  40
0
  41
1
  42
1
  50
0
  71
0
  3
isocp.shx
  0
STYLE
  2
KICADI
  70
0
  40
0
  41
1
  42
1
  50
15
  71
0
  3
isocp.shx
  0
STYLE
  2
KICADBI
  70
0
  40
0
  41
1
  42
1
  50
15
  71
0
  3
isocp.shx
  0
ENDTAB
  0
TABLE
  2
LAYER
  70
30
  0
LAYER
  2
BLACK
  70
0
  62
7
  6
CONTINUOUS
  0
LAYER
  2
GRAY1
  70
0
  62
251
  6
CONTINUOUS
  0
LAYER
  2
GRAY2
  70
0
  62
8
  6
CONTINUOUS
  0
LAYER
  2
GRAY3
  70
0
  62
9
  6
CONTINUOUS
  0
LAYER
  2
WHITE
  70
0
  62
7
  6
CONTINUOUS
  0
LAYER
  2
LYELLOW
  70
0
  62
51
  6
CONTINUOUS
  0
LAYER
  2
BLUE1
  70
0
  62
178
  6
CONTINUOUS
  0
LAYER
  2
GREEN1
  70
0
  62
98
  6
CONTINUOUS
  0
LAYER
  2
CYAN1
  70
0
  62
138
  6
CONTINUOUS
  0
LAYER
  2
RED1
  70
0
  62
18
  6
CONTINUOUS
  0
LAYER
  2
MAGENTA1
  70
0
  62
228
  6
CONTINUOUS
  0
LAYER
  2
BROWN1
  70
0
  62
58
  6
CONTINUOUS
  0
LAYER
  2
BLUE2
  70
0
  62
5
  6
CONTINUOUS
  0
LAYER
  2
GREEN2
  70
0
  62
3
  6
CONTINUOUS
  0
LAYER
  2
CYAN2
  70
0
  62
4
  6
CONTINUOUS
  0
LAYER
  2
RED2
  70
0
  62
1
  6
CONTINUOUS
  0
LAYER
  2
MAGENTA2
  70
0
  62
6
  6
CONTINUOUS
  0
LAYER
  2
BROWN2
  70
0
  62
54
  6
CONTINUOUS
  0
LAYER
  2
BLUE3
  70
0
  62
171
  6
CONTINUOUS
  0
LAYER
  2
GREEN3
  70
0
  62
91
  6
CONTINUOUS
  0
LAYER
  2
CYAN3
  70
0
  62
131
  6
CONTINUOUS
  0
LAYER
  2
RED3
  70
0
  62
11
  6
CONTINUOUS
  0
LAYER
  2
MAGENTA3
  70
0
  62
221
  6
CONTINUOUS
  0
LAYER
  2
YELLOW3
  70
0
  62
2
  6
CONTINUOUS
  0
LAYER
  2
BLUE4
  70
0
  62
5
  6
CONTINUOUS
  0
LAYER
  2
GREEN4
  70
0
  62
3
  6
CONTINUOUS
  0
LAYER
  2
CYAN4
  70
0
  62
4
  6
CONTINUOUS
  0
LAYER
  2
RED4
  70
0
  62
1
  6
CONTINUOUS
  0
LAYER
  2
MAGENTA4
  70
0
  62
6
  6
CONTINUOUS
  0
LAYER
  2
YELLOW4
  70
0
  62
2
  6
CONTINUOUS
  0
ENDTAB
  0
ENDSEC
  0
SECTION
  2
ENTITIES
0
ARC
8
Black
10
104.895
20
-107.935
40
0.5
50
180
51
270
0
ARC
8
Black
10
183.395
20
-107.935
40
0.5
50
-90
51
-0
0
ARC
8
Black
10
183.395
20
-58.435
40
0.5
50
-0
51
90
0
ARC
8
Black
10
104.895
20
-58.435
40
0.5
50
90
51
180
0
LINE
8
Black
10
104.895
20
-108.485
11
183.395
21
-108.485
0
LINE
8
Black
10
104.895
20
-108.385
11
183.395
21
-108.385
0
ARC
8
Black
10
183.395
20
-108.435
40
0.05
50
270
51
450
0
ARC
8
Black
10
104.895
20
-108.435
40
0.05
50
90
51
270
0
LINE
8
Black
10
104.895
20
-57.985
11
183.395
21
-57.985
0
LINE
8
Black
10
104.895
20
-57.885
11
183.395
21
-57.885
0
ARC
8
Black
10
183.395
20
-57.935
40
0.05
50
270
51
450
0
ARC
8
Black
10
104.895
20
-57.935
40
0.05
50
90
51
270
0
LINE
8
Black
10
183.945
20
-107.935
11
183.945
21
-58.435
0
LINE
8
Black
10
183.845
20
-107.935
11
183.845
21
-58.435
0
ARC
8
Black
10
183.895
20
-58.435
40
0.05
50
360
51
540
0
ARC
8
Black
10
183.895
20
-107.935
40
0.05
50
180
51
360
0
LINE
8
Black
10
104.445
20
-107.935
11
104.445
21
-58.435
0
LINE
8
Black
10
104.345
20
-107.935
11
104.345
21
-58.435
0
ARC
8
Black
10
104.395
20
-58.435
40
0.05
50
360
51
540
0
ARC
8
Black
10
104.395
20
-107.935
40
0.05
50
180
51
360
0
LINE
8
Black
10
128.905
20
-90.88
11
140.335
21
-90.88
0
LINE
8
Black
10
128.905
20
-90.73
11
140.335
21
-90.73
0
ARC
8
Black
10
140.335
20
-90.805
40
0.075
50
270
51
450
0
ARC
8
Black
10
128.905
20
-90.805
40
0.075
50
90
51
270
0
LINE
8
Black
10
140.41
20
-90.805
11
140.41
21
-75.565
0
LINE
8
Black
10
140.26
20
-90.805
11
140.26
21
-75.565
0
ARC
8
Black
10
140.335
20
-75.565
40
0.075
50
360
51
540
0
ARC
8
Black
10
140.335
20
-90.805
40
0.075
50
180
51
360
0
LINE
8
Black
10
128.905
20
-75.64
11
140.335
21
-75.64
0
LINE
8
Black
10
128.905
20
-75.49
11
140.335
21
-75.49
0
ARC
8
Black
10
140.335
20
-75.565
40
0.075
50
270
51
450
0
ARC
8
Black
10
128.905
20
-75.565
40
0.075
50
90
51
270
0
LINE
8
Black
10
128.905
20
-73.1
11
141.605
21
-73.1
0
LINE
8
Black
10
128.905
20
-72.95
11
141.605
21
-72.95
0
ARC
8
Black
10
141.605
20
-73.025
40
0.075
50
270
51
450
0
ARC
8
Black
10
128.905
20
-73.025
40
0.075
50
90
51
270
0
LINE
8
Black
10
142.95
20
-92.075
11
142.95
21
-74.295
0
LINE
8
Black
10
142.8
20
-92.075
11
142.8
21
-74.295
0
ARC
8
Black
10
142.875
20
-74.295
40
0.075
50
360
51
540
0
ARC
8
Black
10
142.875
20
-92.075
40
0.075
50
180
51
360
0
LINE
8
Black
10
128.905
20
-93.42
11
141.605
21
-93.42
0
LINE
8
Black
10
128.905
20
-93.27
11
141.605
21
-93.27
0
ARC
8
Black
10
141.605
20
-93.345
40
0.075
50
270
51
450
0
ARC
8
Black
10
128.905
20
-93.345
40
0.075
50
90
51
270
0
ARC
8
Black
10
141.605
20
-74.295
40
1.27
50
-0
51
90
0
ARC
8
Black
10
141.605
20
-92.075
40
1.27
50
-90
51
-0
0
ARC
8
Black
10
128.905
20
-92.075
40
1.27
50
90
51
180
0
ARC
8
Black
10
128.905
20
-92.075
40
1.27
50
-180
51
-90
0
ARC
8
Black
10
128.905
20
-74.295
40
1.27
50
-180
51
-90
0
ARC
8
Black
10
128.905
20
-74.295
40
1.27
50
90
51
180
0
LINE
8
Black
10
105.514
20
-82.908
11
105.814
21
-83.208
0
LINE
8
Black
10
105.814
20
-82.908
11
105.514
21
-83.208
0
LINE
8
Black
10
105.514
20
-89.258
11
105.814
21
-89.558
0
LINE
8
Black
10
105.814
20
-89.258
11
105.514
21
-89.558
0
LINE
8
Black
10
109.07
20
-86.718
11
109.37
21
-87.018
0
LINE
8
Black
10
109.37
20
-86.718
11
109.07
21
-87.018
0
LINE
8
Black
10
111.864
20
-86.464
11
112.164
21
-86.764
0
LINE
8
Black
10
112.164
20
-86.464
11
111.864
21
-86.764
0
LINE
8
Black
10
113.007
20
-79.987
11
113.307
21
-80.287
0
LINE
8
Black
10
113.307
20
-79.987
11
113.007
21
-80.287
0
LINE
8
Black
10
116.69
20
-87.226
11
116.99
21
-87.526
0
LINE
8
Black
10
116.99
20
-87.226
11
116.69
21
-87.526
0
LINE
8
Black
10
117.071
20
-90.909
11
117.371
21
-91.209
0
LINE
8
Black
10
117.371
20
-90.909
11
117.071
21
-91.209
0
LINE
8
Black
10
117.198
20
-84.178
11
117.498
21
-84.478
0
LINE
8
Black
10
117.498
20
-84.178
11
117.198
21
-84.478
0
LINE
8
Black
10
117.452
20
-76.812
11
117.752
21
-77.112
0
LINE
8
Black
10
117.752
20
-76.812
11
117.452
21
-77.112
0
LINE
8
Black
10
117.579
20
-93.957
11
117.879
21
-94.257
0
LINE
8
Black
10
117.879
20
-93.957
11
117.579
21
-94.257
0
LINE
8
Black
10
124.564
20
-85.956
11
124.864
21
-86.256
0
LINE
8
Black
10
124.864
20
-85.956
11
124.564
21
-86.256
0
LINE
8
Black
10
126.342
20
-84.178
11
126.642
21
-84.478
0
LINE
8
Black
10
126.642
20
-84.178
11
126.342
21
-84.478
0
LINE
8
Black
10
135.486
20
-76.939
11
135.786
21
-77.239
0
LINE
8
Black
10
135.786
20
-76.939
11
135.486
21
-77.239
0
LINE
8
Black
10
136.248
20
-102.72
11
136.548
21
-103.02
0
LINE
8
Black
10
136.548
20
-102.72
11
136.248
21
-103.02
0
LINE
8
Black
10
137.264
20
-76.939
11
137.564
21
-77.239
0
LINE
8
Black
10
137.564
20
-76.939
11
137.264
21
-77.239
0
LINE
8
Black
10
137.264
20
-89.258
11
137.564
21
-89.558
0
LINE
8
Black
10
137.564
20
-89.258
11
137.264
21
-89.558
0
LINE
8
Black
10
137.391
20
-99.545
11
137.691
21
-99.845
0
LINE
8
Black
10
137.691
20
-99.545
11
137.391
21
-99.845
0
LINE
8
Black
10
139.042
20
-80.495
11
139.342
21
-80.795
0
LINE
8
Black
10
139.342
20
-80.495
11
139.042
21
-80.795
0
LINE
8
Black
10
140.185
20
-94.338
11
140.485
21
-94.638
0
LINE
8
Black
10
140.485
20
-94.338
11
140.185
21
-94.638
0
LINE
8
Black
10
140.185
20
-97.132
11
140.485
21
-97.432
0
LINE
8
Black
10
140.485
20
-97.132
11
140.185
21
-97.432
0
LINE
8
Black
10
140.185
20
-107.292
11
140.485
21
-107.592
0
LINE
8
Black
10
140.485
20
-107.292
11
140.185
21
-107.592
0
LINE
8
Black
10
140.312
20
-70.208
11
140.612
21
-70.508
0
LINE
8
Black
10
140.612
20
-70.208
11
140.312
21
-70.508
0
LINE
8
Black
10
142.725
20
-63.477
11
143.025
21
-63.777
0
LINE
8
Black
10
143.025
20
-63.477
11
142.725
21
-63.777
0
LINE
8
Black
10
142.725
20
-94.338
11
143.025
21
-94.638
0
LINE
8
Black
10
143.025
20
-94.338
11
142.725
21
-94.638
0
LINE
8
Black
10
142.725
20
-97.132
11
143.025
21
-97.432
0
LINE
8
Black
10
143.025
20
-97.132
11
142.725
21
-97.432
0
LINE
8
Black
10
142.725
20
-107.292
11
143.025
21
-107.592
0
LINE
8
Black
10
143.025
20
-107.292
11
142.725
21
-107.592
0
LINE
8
Black
10
143.36
20
-72.748
11
143.66
21
-73.048
0
LINE
8
Black
10
143.66
20
-72.748
11
143.36
21
-73.048
0
LINE
8
Black
10
143.741
20
-90.5915
11
144.041
21
-90.8915
0
LINE
8
Black
10
144.041
20
-90.5915
11
143.741
21
-90.8915
0
LINE
8
Black
10
145.392
20
-68.811
11
145.692
21
-69.111
0
LINE
8
Black
10
145.692
20
-68.811
11
145.392
21
-69.111
0
LINE
8
Black
10
146.662
20
-107.292
11
146.962
21
-107.592
0
LINE
8
Black
10
146.962
20
-107.292
11
146.662
21
-107.592
0
LINE
8
Black
10
147.297
20
-94.084
11
147.597
21
-94.384
0
LINE
8
Black
10
147.597
20
-94.084
11
147.297
21
-94.384
0
LINE
8
Black
10
150.916
20
-90.5915
11
151.216
21
-90.8915
0
LINE
8
Black
10
151.216
20
-90.5915
11
150.916
21
-90.8915
0
LINE
8
Black
10
151.615
20
-82.273
11
151.915
21
-82.573
0
LINE
8
Black
10
151.915
20
-82.273
11
151.615
21
-82.573
0
LINE
8
Black
10
153.647
20
-77.701
11
153.947
21
-78.001
0
LINE
8
Black
10
153.947
20
-77.701
11
153.647
21
-78.001
0
LINE
8
Black
10
153.774
20
-88.496
11
154.074
21
-88.796
0
LINE
8
Black
10
154.074
20
-88.496
11
153.774
21
-88.796
0
LINE
8
Black
10
155.552
20
-84.051
11
155.852
21
-84.351
0
LINE
8
Black
10
155.852
20
-84.051
11
155.552
21
-84.351
0
LINE
8
Black
10
155.806
20
-89.893
11
156.106
21
-90.193
0
LINE
8
Black
10
156.106
20
-89.893
11
155.806
21
-90.193
0
LINE
8
Black
10
155.933
20
-92.052
11
156.233
21
-92.352
0
LINE
8
Black
10
156.233
20
-92.052
11
155.933
21
-92.352
0
LINE
8
Black
10
156.822
20
-84.051
11
157.122
21
-84.351
0
LINE
8
Black
10
157.122
20
-84.051
11
156.822
21
-84.351
0
LINE
8
Black
10
158.981
20
-92.306
11
159.281
21
-92.606
0
LINE
8
Black
10
159.281
20
-92.306
11
158.981
21
-92.606
0
LINE
8
Black
10
159.362
20
-82.146
11
159.662
21
-82.446
0
LINE
8
Black
10
159.662
20
-82.146
11
159.362
21
-82.446
0
LINE
8
Black
10
159.489
20
-74.018
11
159.789
21
-74.318
0
LINE
8
Black
10
159.789
20
-74.018
11
159.489
21
-74.318
0
LINE
8
Black
10
160.378
20
-94.465
11
160.678
21
-94.765
0
LINE
8
Black
10
160.678
20
-94.465
11
160.378
21
-94.765
0
LINE
8
Black
10
162.029
20
-59.794
11
162.329
21
-60.094
0
LINE
8
Black
10
162.329
20
-59.794
11
162.029
21
-60.094
0
LINE
8
Black
10
163.045
20
-93.703
11
163.345
21
-94.003
0
LINE
8
Black
10
163.345
20
-93.703
11
163.045
21
-94.003
0
LINE
8
Black
10
163.426
20
-87.226
11
163.726
21
-87.526
0
LINE
8
Black
10
163.726
20
-87.226
11
163.426
21
-87.526
0
LINE
8
Black
10
164.569
20
-104.625
11
164.869
21
-104.925
0
LINE
8
Black
10
164.869
20
-104.625
11
164.569
21
-104.925
0
LINE
8
Black
10
165.839
20
-84.686
11
166.139
21
-84.986
0
LINE
8
Black
10
166.139
20
-84.686
11
165.839
21
-84.986
0
LINE
8
Black
10
167.236
20
-70.462
11
167.536
21
-70.762
0
LINE
8
Black
10
167.536
20
-70.462
11
167.236
21
-70.762
0
LINE
8
Black
10
167.998
20
-77.066
11
168.298
21
-77.366
0
LINE
8
Black
10
168.298
20
-77.066
11
167.998
21
-77.366
0
LINE
8
Black
10
168.252
20
-106.276
11
168.552
21
-106.576
0
LINE
8
Black
10
168.552
20
-106.276
11
168.252
21
-106.576
0
LINE
8
Black
10
169.776
20
-78.59
11
170.076
21
-78.89
0
LINE
8
Black
10
170.076
20
-78.59
11
169.776
21
-78.89
0
LINE
8
Black
10
170.03
20
-82.4
11
170.33
21
-82.7
0
LINE
8
Black
10
170.33
20
-82.4
11
170.03
21
-82.7
0
LINE
8
Black
10
171.427
20
-77.828
11
171.727
21
-78.128
0
LINE
8
Black
10
171.727
20
-77.828
11
171.427
21
-78.128
0
LINE
8
Black
10
178.031
20
-80.622
11
178.331
21
-80.922
0
LINE
8
Black
10
178.331
20
-80.622
11
178.031
21
-80.922
0
LINE
8
Black
10
181.46
20
-88.369
11
181.76
21
-88.669
0
LINE
8
Black
10
181.76
20
-88.369
11
181.46
21
-88.669
0
LINE
8
Black
10
181.46
20
-96.624
11
181.76
21
-96.924
0
LINE
8
Black
10
181.76
20
-96.624
11
181.46
21
-96.924
0
CIRCLE
8
Black
10
128.905
20
-79.375
40
0.4
0
CIRCLE
8
Black
10
128.905
20
-81.915
40
0.4
0
CIRCLE
8
Black
10
128.905
20
-84.455
40
0.4
0
CIRCLE
8
Black
10
128.905
20
-86.995
40
0.4
0
CIRCLE
8
Black
10
136.525
20
-79.375
40
0.4
0
CIRCLE
8
Black
10
136.525
20
-81.915
40
0.4
0
CIRCLE
8
Black
10
136.525
20
-84.455
40
0.4
0
CIRCLE
8
Black
10
136.525
20
-86.995
40
0.4
0
LINE
8
Black
10
151.384
20
-100.088
11
151.384
21
-101.588
0
LINE
8
Black
10
150.634
20
-100.838
11
152.134
21
-100.838
0
LINE
8
Black
10
151.384
20
-103.898
11
151.384
21
-105.398
0
LINE
8
Black
10
150.634
20
-104.648
11
152.134
21
-104.648
0
LINE
8
Black
10
155.194
20
-100.088
11
155.194
21
-101.588
0
LINE
8
Black
10
154.444
20
-100.838
11
155.944
21
-100.838
0
LINE
8
Black
10
155.194
20
-103.898
11
155.194
21
-105.398
0
LINE
8
Black
10
154.444
20
-104.648
11
155.944
21
-104.648
0
LINE
8
Black
10
140.1
20
-62.1934
11
140.1
21
-61.0266
0
LINE
8
Black
10
140.1
20
-61.0266
11
138.934
21
-61.0266
0
LINE
8
Black
10
138.934
20
-61.0266
11
138.934
21
-62.1934
0
LINE
8
Black
10
138.934
20
-62.1934
11
140.1
21
-62.1934
0
LINE
8
Black
10
140.1
20
-67.8934
11
140.1
21
-66.7266
0
LINE
8
Black
10
140.1
20
-66.7266
11
138.934
21
-66.7266
0
LINE
8
Black
10
138.934
20
-66.7266
11
138.934
21
-67.8934
0
LINE
8
Black
10
138.934
20
-67.8934
11
140.1
21
-67.8934
0
LINE
8
Black
10
144.7
20
-62.1934
11
144.7
21
-61.0266
0
LINE
8
Black
10
144.7
20
-61.0266
11
143.534
21
-61.0266
0
LINE
8
Black
10
143.534
20
-61.0266
11
143.534
21
-62.1934
0
LINE
8
Black
10
143.534
20
-62.1934
11
144.7
21
-62.1934
0
LINE
8
Black
10
144.7
20
-67.8934
11
144.7
21
-66.7266
0
LINE
8
Black
10
144.7
20
-66.7266
11
143.534
21
-66.7266
0
LINE
8
Black
10
143.534
20
-66.7266
11
143.534
21
-67.8934
0
LINE
8
Black
10
143.534
20
-67.8934
11
144.7
21
-67.8934
0
LINE
8
Black
10
149.3
20
-62.1934
11
149.3
21
-61.0266
0
LINE
8
Black
10
149.3
20
-61.0266
11
148.134
21
-61.0266
0
LINE
8
Black
10
148.134
20
-61.0266
11
148.134
21
-62.1934
0
LINE
8
Black
10
148.134
20
-62.1934
11
149.3
21
-62.1934
0
LINE
8
Black
10
149.3
20
-67.8934
11
149.3
21
-66.7266
0
LINE
8
Black
10
149.3
20
-66.7266
11
148.134
21
-66.7266
0
LINE
8
Black
10
148.134
20
-66.7266
11
148.134
21
-67.8934
0
LINE
8
Black
10
148.134
20
-67.8934
11
149.3
21
-67.8934
0
LINE
8
Black
10
109.855
20
-64.535
11
111.205
21
-63.185
0
LINE
8
Black
10
111.205
20
-63.185
11
109.855
21
-61.835
0
LINE
8
Black
10
109.855
20
-61.835
11
108.505
21
-63.185
0
LINE
8
Black
10
108.505
20
-63.185
11
109.855
21
-64.535
0
LINE
8
Black
10
109.855
20
-104.535
11
111.205
21
-103.185
0
LINE
8
Black
10
111.205
20
-103.185
11
109.855
21
-101.835
0
LINE
8
Black
10
109.855
20
-101.835
11
108.505
21
-103.185
0
LINE
8
Black
10
108.505
20
-103.185
11
109.855
21
-104.535
0
LINE
8
Black
10
178.435
20
-64.535
11
179.785
21
-63.185
0
LINE
8
Black
10
179.785
20
-63.185
11
178.435
21
-61.835
0
LINE
8
Black
10
178.435
20
-61.835
11
177.085
21
-63.185
0
LINE
8
Black
10
177.085
20
-63.185
11
178.435
21
-64.535
0
LINE
8
Black
10
178.435
20
-104.535
11
179.785
21
-103.185
0
LINE
8
Black
10
179.785
20
-103.185
11
178.435
21
-101.835
0
LINE
8
Black
10
178.435
20
-101.835
11
177.085
21
-103.185
0
LINE
8
Black
10
177.085
20
-103.185
11
178.435
21
-104.535
0
LINE
8
Black
10
108.075
20
-70.612
11
114.175
21
-76.712
0
LINE
8
Black
10
114.175
20
-70.612
11
108.075
21
-76.712
0
CIRCLE
8
Black
10
111.125
20
-73.662
40
3.05
0
LINE
8
Black
10
108.075
20
-89.66
11
114.175
21
-95.76
0
LINE
8
Black
10
114.175
20
-89.66
11
108.075
21
-95.76
0
CIRCLE
8
Black
10
111.125
20
-92.71
40
3.05
0
LINE
8
Black
10
174.115
20
-70.612
11
180.215
21
-76.712
0
LINE
8
Black
10
180.215
20
-70.612
11
174.115
21
-76.712
0
CIRCLE
8
Black
10
177.165
20
-73.662
40
3.05
0
LINE
8
Black
10
174.115
20
-89.66
11
180.215
21
-95.76
0
LINE
8
Black
10
180.215
20
-89.66
11
174.115
21
-95.76
0
CIRCLE
8
Black
10
177.165
20
-92.71
40
3.05
0
LINE
8
Black
10
107.059
20
-113.142
11
107.059
21
-110.142
0
LINE
8
Black
10
107.059
20
-110.142
11
107.774
21
-110.142
0
LINE
8
Black
10
107.774
20
-110.142
11
108.202
21
-110.285
0
LINE
8
Black
10
108.202
20
-110.285
11
108.488
21
-110.571
0
LINE
8
Black
10
108.488
20
-110.571
11
108.631
21
-110.856
0
LINE
8
Black
10
108.631
20
-110.856
11
108.774
21
-111.428
0
LINE
8
Black
10
108.774
20
-111.428
11
108.774
21
-111.856
0
LINE
8
Black
10
108.774
20
-111.856
11
108.631
21
-112.428
0
LINE
8
Black
10
108.631
20
-112.428
11
108.488
21
-112.714
0
LINE
8
Black
10
108.488
20
-112.714
11
108.202
21
-112.999
0
LINE
8
Black
10
108.202
20
-112.999
11
107.774
21
-113.142
0
LINE
8
Black
10
107.774
20
-113.142
11
107.059
21
-113.142
0
LINE
8
Black
10
110.059
20
-113.142
11
110.059
21
-111.142
0
LINE
8
Black
10
110.059
20
-111.714
11
110.202
21
-111.428
0
LINE
8
Black
10
110.202
20
-111.428
11
110.345
21
-111.285
0
LINE
8
Black
10
110.345
20
-111.285
11
110.631
21
-111.142
0
LINE
8
Black
10
110.631
20
-111.142
11
110.916
21
-111.142
0
LINE
8
Black
10
111.916
20
-113.142
11
111.916
21
-111.142
0
LINE
8
Black
10
111.916
20
-110.142
11
111.774
21
-110.285
0
LINE
8
Black
10
111.774
20
-110.285
11
111.916
21
-110.428
0
LINE
8
Black
10
111.916
20
-110.428
11
112.059
21
-110.285
0
LINE
8
Black
10
112.059
20
-110.285
11
111.916
21
-110.142
0
LINE
8
Black
10
111.916
20
-110.142
11
111.916
21
-110.428
0
LINE
8
Black
10
113.774
20
-113.142
11
113.488
21
-112.999
0
LINE
8
Black
10
113.488
20
-112.999
11
113.345
21
-112.714
0
LINE
8
Black
10
113.345
20
-112.714
11
113.345
21
-110.142
0
LINE
8
Black
10
115.345
20
-113.142
11
115.059
21
-112.999
0
LINE
8
Black
10
115.059
20
-112.999
11
114.916
21
-112.714
0
LINE
8
Black
10
114.916
20
-112.714
11
114.916
21
-110.142
0
LINE
8
Black
10
118.774
20
-113.142
11
118.774
21
-110.142
0
LINE
8
Black
10
118.774
20
-110.142
11
119.774
21
-112.285
0
LINE
8
Black
10
119.774
20
-112.285
11
120.774
21
-110.142
0
LINE
8
Black
10
120.774
20
-110.142
11
120.774
21
-113.142
0
LINE
8
Black
10
123.488
20
-113.142
11
123.488
21
-111.571
0
LINE
8
Black
10
123.488
20
-111.571
11
123.345
21
-111.285
0
LINE
8
Black
10
123.345
20
-111.285
11
123.059
21
-111.142
0
LINE
8
Black
10
123.059
20
-111.142
11
122.488
21
-111.142
0
LINE
8
Black
10
122.488
20
-111.142
11
122.202
21
-111.285
0
LINE
8
Black
10
123.488
20
-112.999
11
123.202
21
-113.142
0
LINE
8
Black
10
123.202
20
-113.142
11
122.488
21
-113.142
0
LINE
8
Black
10
122.488
20
-113.142
11
122.202
21
-112.999
0
LINE
8
Black
10
122.202
20
-112.999
11
122.059
21
-112.714
0
LINE
8
Black
10
122.059
20
-112.714
11
122.059
21
-112.428
0
LINE
8
Black
10
122.059
20
-112.428
11
122.202
21
-112.142
0
LINE
8
Black
10
122.202
20
-112.142
11
122.488
21
-111.999
0
LINE
8
Black
10
122.488
20
-111.999
11
123.202
21
-111.999
0
LINE
8
Black
10
123.202
20
-111.999
11
123.488
21
-111.856
0
LINE
8
Black
10
124.916
20
-111.142
11
124.916
21
-114.142
0
LINE
8
Black
10
124.916
20
-111.285
11
125.202
21
-111.142
0
LINE
8
Black
10
125.202
20
-111.142
11
125.774
21
-111.142
0
LINE
8
Black
10
125.774
20
-111.142
11
126.059
21
-111.285
0
LINE
8
Black
10
126.059
20
-111.285
11
126.202
21
-111.428
0
LINE
8
Black
10
126.202
20
-111.428
11
126.345
21
-111.714
0
LINE
8
Black
10
126.345
20
-111.714
11
126.345
21
-112.571
0
LINE
8
Black
10
126.345
20
-112.571
11
126.202
21
-112.856
0
LINE
8
Black
10
126.202
20
-112.856
11
126.059
21
-112.999
0
LINE
8
Black
10
126.059
20
-112.999
11
125.774
21
-113.142
0
LINE
8
Black
10
125.774
20
-113.142
11
125.202
21
-113.142
0
LINE
8
Black
10
125.202
20
-113.142
11
124.916
21
-112.999
0
LINE
8
Black
10
127.631
20
-112.856
11
127.774
21
-112.999
0
LINE
8
Black
10
127.774
20
-112.999
11
127.631
21
-113.142
0
LINE
8
Black
10
127.631
20
-113.142
11
127.488
21
-112.999
0
LINE
8
Black
10
127.488
20
-112.999
11
127.631
21
-112.856
0
LINE
8
Black
10
127.631
20
-112.856
11
127.631
21
-113.142
0
LINE
8
Black
10
127.631
20
-111.285
11
127.774
21
-111.428
0
LINE
8
Black
10
127.774
20
-111.428
11
127.631
21
-111.571
0
LINE
8
Black
10
127.631
20
-111.571
11
127.488
21
-111.428
0
LINE
8
Black
10
127.488
20
-111.428
11
127.631
21
-111.285
0
LINE
8
Black
10
127.631
20
-111.285
11
127.631
21
-111.571
0
LINE
8
Black
10
104.045
20
-117.935
11
104.345
21
-118.235
0
LINE
8
Black
10
104.345
20
-117.935
11
104.045
21
-118.235
0
LINE
8
Black
10
107.631
20
-116.442
11
107.916
21
-116.442
0
LINE
8
Black
10
107.916
20
-116.442
11
108.202
21
-116.585
0
LINE
8
Black
10
108.202
20
-116.585
11
108.345
21
-116.728
0
LINE
8
Black
10
108.345
20
-116.728
11
108.488
21
-117.014
0
LINE
8
Black
10
108.488
20
-117.014
11
108.631
21
-117.585
0
LINE
8
Black
10
108.631
20
-117.585
11
108.631
21
-118.299
0
LINE
8
Black
10
108.631
20
-118.299
11
108.488
21
-118.871
0
LINE
8
Black
10
108.488
20
-118.871
11
108.345
21
-119.156
0
LINE
8
Black
10
108.345
20
-119.156
11
108.202
21
-119.299
0
LINE
8
Black
10
108.202
20
-119.299
11
107.916
21
-119.442
0
LINE
8
Black
10
107.916
20
-119.442
11
107.631
21
-119.442
0
LINE
8
Black
10
107.631
20
-119.442
11
107.345
21
-119.299
0
LINE
8
Black
10
107.345
20
-119.299
11
107.202
21
-119.156
0
LINE
8
Black
10
107.202
20
-119.156
11
107.059
21
-118.871
0
LINE
8
Black
10
107.059
20
-118.871
11
106.916
21
-118.299
0
LINE
8
Black
10
106.916
20
-118.299
11
106.916
21
-117.585
0
LINE
8
Black
10
106.916
20
-117.585
11
107.059
21
-117.014
0
LINE
8
Black
10
107.059
20
-117.014
11
107.202
21
-116.728
0
LINE
8
Black
10
107.202
20
-116.728
11
107.345
21
-116.585
0
LINE
8
Black
10
107.345
20
-116.585
11
107.631
21
-116.442
0
LINE
8
Black
10
109.916
20
-119.156
11
110.059
21
-119.299
0
LINE
8
Black
10
110.059
20
-119.299
11
109.916
21
-119.442
0
LINE
8
Black
10
109.916
20
-119.442
11
109.774
21
-119.299
0
LINE
8
Black
10
109.774
20
-119.299
11
109.916
21
-119.156
0
LINE
8
Black
10
109.916
20
-119.156
11
109.916
21
-119.442
0
LINE
8
Black
10
111.059
20
-116.442
11
112.916
21
-116.442
0
LINE
8
Black
10
112.916
20
-116.442
11
111.916
21
-117.585
0
LINE
8
Black
10
111.916
20
-117.585
11
112.345
21
-117.585
0
LINE
8
Black
10
112.345
20
-117.585
11
112.631
21
-117.728
0
LINE
8
Black
10
112.631
20
-117.728
11
112.774
21
-117.871
0
LINE
8
Black
10
112.774
20
-117.871
11
112.916
21
-118.156
0
LINE
8
Black
10
112.916
20
-118.156
11
112.916
21
-118.871
0
LINE
8
Black
10
112.916
20
-118.871
11
112.774
21
-119.156
0
LINE
8
Black
10
112.774
20
-119.156
11
112.631
21
-119.299
0
LINE
8
Black
10
112.631
20
-119.299
11
112.345
21
-119.442
0
LINE
8
Black
10
112.345
20
-119.442
11
111.488
21
-119.442
0
LINE
8
Black
10
111.488
20
-119.442
11
111.202
21
-119.299
0
LINE
8
Black
10
111.202
20
-119.299
11
111.059
21
-119.156
0
LINE
8
Black
10
114.774
20
-116.442
11
115.059
21
-116.442
0
LINE
8
Black
10
115.059
20
-116.442
11
115.345
21
-116.585
0
LINE
8
Black
10
115.345
20
-116.585
11
115.488
21
-116.728
0
LINE
8
Black
10
115.488
20
-116.728
11
115.631
21
-117.014
0
LINE
8
Black
10
115.631
20
-117.014
11
115.774
21
-117.585
0
LINE
8
Black
10
115.774
20
-117.585
11
115.774
21
-118.299
0
LINE
8
Black
10
115.774
20
-118.299
11
115.631
21
-118.871
0
LINE
8
Black
10
115.631
20
-118.871
11
115.488
21
-119.156
0
LINE
8
Black
10
115.488
20
-119.156
11
115.345
21
-119.299
0
LINE
8
Black
10
115.345
20
-119.299
11
115.059
21
-119.442
0
LINE
8
Black
10
115.059
20
-119.442
11
114.774
21
-119.442
0
LINE
8
Black
10
114.774
20
-119.442
11
114.488
21
-119.299
0
LINE
8
Black
10
114.488
20
-119.299
11
114.345
21
-119.156
0
LINE
8
Black
10
114.345
20
-119.156
11
114.202
21
-118.871
0
LINE
8
Black
10
114.202
20
-118.871
11
114.059
21
-118.299
0
LINE
8
Black
10
114.059
20
-118.299
11
114.059
21
-117.585
0
LINE
8
Black
10
114.059
20
-117.585
11
114.202
21
-117.014
0
LINE
8
Black
10
114.202
20
-117.014
11
114.345
21
-116.728
0
LINE
8
Black
10
114.345
20
-116.728
11
114.488
21
-116.585
0
LINE
8
Black
10
114.488
20
-116.585
11
114.774
21
-116.442
0
LINE
8
Black
10
117.059
20
-119.442
11
117.059
21
-117.442
0
LINE
8
Black
10
117.059
20
-117.728
11
117.202
21
-117.585
0
LINE
8
Black
10
117.202
20
-117.585
11
117.488
21
-117.442
0
LINE
8
Black
10
117.488
20
-117.442
11
117.916
21
-117.442
0
LINE
8
Black
10
117.916
20
-117.442
11
118.202
21
-117.585
0
LINE
8
Black
10
118.202
20
-117.585
11
118.345
21
-117.871
0
LINE
8
Black
10
118.345
20
-117.871
11
118.345
21
-119.442
0
LINE
8
Black
10
118.345
20
-117.871
11
118.488
21
-117.585
0
LINE
8
Black
10
118.488
20
-117.585
11
118.774
21
-117.442
0
LINE
8
Black
10
118.774
20
-117.442
11
119.202
21
-117.442
0
LINE
8
Black
10
119.202
20
-117.442
11
119.488
21
-117.585
0
LINE
8
Black
10
119.488
20
-117.585
11
119.631
21
-117.871
0
LINE
8
Black
10
119.631
20
-117.871
11
119.631
21
-119.442
0
LINE
8
Black
10
121.059
20
-119.442
11
121.059
21
-117.442
0
LINE
8
Black
10
121.059
20
-117.728
11
121.202
21
-117.585
0
LINE
8
Black
10
121.202
20
-117.585
11
121.488
21
-117.442
0
LINE
8
Black
10
121.488
20
-117.442
11
121.916
21
-117.442
0
LINE
8
Black
10
121.916
20
-117.442
11
122.202
21
-117.585
0
LINE
8
Black
10
122.202
20
-117.585
11
122.345
21
-117.871
0
LINE
8
Black
10
122.345
20
-117.871
11
122.345
21
-119.442
0
LINE
8
Black
10
122.345
20
-117.871
11
122.488
21
-117.585
0
LINE
8
Black
10
122.488
20
-117.585
11
122.774
21
-117.442
0
LINE
8
Black
10
122.774
20
-117.442
11
123.202
21
-117.442
0
LINE
8
Black
10
123.202
20
-117.442
11
123.488
21
-117.585
0
LINE
8
Black
10
123.488
20
-117.585
11
123.631
21
-117.871
0
LINE
8
Black
10
123.631
20
-117.871
11
123.631
21
-119.442
0
LINE
8
Black
10
129.488
20
-116.299
11
126.916
21
-120.156
0
LINE
8
Black
10
133.345
20
-116.442
11
133.631
21
-116.442
0
LINE
8
Black
10
133.631
20
-116.442
11
133.916
21
-116.585
0
LINE
8
Black
10
133.916
20
-116.585
11
134.059
21
-116.728
0
LINE
8
Black
10
134.059
20
-116.728
11
134.202
21
-117.014
0
LINE
8
Black
10
134.202
20
-117.014
11
134.345
21
-117.585
0
LINE
8
Black
10
134.345
20
-117.585
11
134.345
21
-118.299
0
LINE
8
Black
10
134.345
20
-118.299
11
134.202
21
-118.871
0
LINE
8
Black
10
134.202
20
-118.871
11
134.059
21
-119.156
0
LINE
8
Black
10
134.059
20
-119.156
11
133.916
21
-119.299
0
LINE
8
Black
10
133.916
20
-119.299
11
133.631
21
-119.442
0
LINE
8
Black
10
133.631
20
-119.442
11
133.345
21
-119.442
0
LINE
8
Black
10
133.345
20
-119.442
11
133.059
21
-119.299
0
LINE
8
Black
10
133.059
20
-119.299
11
132.916
21
-119.156
0
LINE
8
Black
10
132.916
20
-119.156
11
132.774
21
-118.871
0
LINE
8
Black
10
132.774
20
-118.871
11
132.631
21
-118.299
0
LINE
8
Black
10
132.631
20
-118.299
11
132.631
21
-117.585
0
LINE
8
Black
10
132.631
20
-117.585
11
132.774
21
-117.014
0
LINE
8
Black
10
132.774
20
-117.014
11
132.916
21
-116.728
0
LINE
8
Black
10
132.916
20
-116.728
11
133.059
21
-116.585
0
LINE
8
Black
10
133.059
20
-116.585
11
133.345
21
-116.442
0
LINE
8
Black
10
135.631
20
-119.156
11
135.774
21
-119.299
0
LINE
8
Black
10
135.774
20
-119.299
11
135.631
21
-119.442
0
LINE
8
Black
10
135.631
20
-119.442
11
135.488
21
-119.299
0
LINE
8
Black
10
135.488
20
-119.299
11
135.631
21
-119.156
0
LINE
8
Black
10
135.631
20
-119.156
11
135.631
21
-119.442
0
LINE
8
Black
10
137.631
20
-116.442
11
137.916
21
-116.442
0
LINE
8
Black
10
137.916
20
-116.442
11
138.202
21
-116.585
0
LINE
8
Black
10
138.202
20
-116.585
11
138.345
21
-116.728
0
LINE
8
Black
10
138.345
20
-116.728
11
138.488
21
-117.014
0
LINE
8
Black
10
138.488
20
-117.014
11
138.631
21
-117.585
0
LINE
8
Black
10
138.631
20
-117.585
11
138.631
21
-118.299
0
LINE
8
Black
10
138.631
20
-118.299
11
138.488
21
-118.871
0
LINE
8
Black
10
138.488
20
-118.871
11
138.345
21
-119.156
0
LINE
8
Black
10
138.345
20
-119.156
11
138.202
21
-119.299
0
LINE
8
Black
10
138.202
20
-119.299
11
137.916
21
-119.442
0
LINE
8
Black
10
137.916
20
-119.442
11
137.631
21
-119.442
0
LINE
8
Black
10
137.631
20
-119.442
11
137.345
21
-119.299
0
LINE
8
Black
10
137.345
20
-119.299
11
137.202
21
-119.156
0
LINE
8
Black
10
137.202
20
-119.156
11
137.059
21
-118.871
0
LINE
8
Black
10
137.059
20
-118.871
11
136.916
21
-118.299
0
LINE
8
Black
10
136.916
20
-118.299
11
136.916
21
-117.585
0
LINE
8
Black
10
136.916
20
-117.585
11
137.059
21
-117.014
0
LINE
8
Black
10
137.059
20
-117.014
11
137.202
21
-116.728
0
LINE
8
Black
10
137.202
20
-116.728
11
137.345
21
-116.585
0
LINE
8
Black
10
137.345
20
-116.585
11
137.631
21
-116.442
0
LINE
8
Black
10
141.488
20
-119.442
11
139.774
21
-119.442
0
LINE
8
Black
10
140.631
20
-119.442
11
140.631
21
-116.442
0
LINE
8
Black
10
140.631
20
-116.442
11
140.345
21
-116.871
0
LINE
8
Black
10
140.345
20
-116.871
11
140.059
21
-117.156
0
LINE
8
Black
10
140.059
20
-117.156
11
139.774
21
-117.299
0
LINE
8
Black
10
142.631
20
-116.728
11
142.774
21
-116.585
0
LINE
8
Black
10
142.774
20
-116.585
11
143.059
21
-116.442
0
LINE
8
Black
10
143.059
20
-116.442
11
143.774
21
-116.442
0
LINE
8
Black
10
143.774
20
-116.442
11
144.059
21
-116.585
0
LINE
8
Black
10
144.059
20
-116.585
11
144.202
21
-116.728
0
LINE
8
Black
10
144.202
20
-116.728
11
144.345
21
-117.014
0
LINE
8
Black
10
144.345
20
-117.014
11
144.345
21
-117.299
0
LINE
8
Black
10
144.345
20
-117.299
11
144.202
21
-117.728
0
LINE
8
Black
10
144.202
20
-117.728
11
142.488
21
-119.442
0
LINE
8
Black
10
142.488
20
-119.442
11
144.345
21
-119.442
0
LINE
8
Black
10
145.488
20
-116.442
11
145.488
21
-117.014
0
LINE
8
Black
10
146.631
20
-116.442
11
146.631
21
-117.014
0
LINE
8
Black
10
151.059
20
-120.585
11
150.916
21
-120.442
0
LINE
8
Black
10
150.916
20
-120.442
11
150.631
21
-120.014
0
LINE
8
Black
10
150.631
20
-120.014
11
150.488
21
-119.728
0
LINE
8
Black
10
150.488
20
-119.728
11
150.345
21
-119.299
0
LINE
8
Black
10
150.345
20
-119.299
11
150.202
21
-118.585
0
LINE
8
Black
10
150.202
20
-118.585
11
150.202
21
-118.014
0
LINE
8
Black
10
150.202
20
-118.014
11
150.345
21
-117.299
0
LINE
8
Black
10
150.345
20
-117.299
11
150.488
21
-116.871
0
LINE
8
Black
10
150.488
20
-116.871
11
150.631
21
-116.585
0
LINE
8
Black
10
150.631
20
-116.585
11
150.916
21
-116.156
0
LINE
8
Black
10
150.916
20
-116.156
11
151.059
21
-116.014
0
LINE
8
Black
10
153.631
20
-116.442
11
152.202
21
-116.442
0
LINE
8
Black
10
152.202
20
-116.442
11
152.059
21
-117.871
0
LINE
8
Black
10
152.059
20
-117.871
11
152.202
21
-117.728
0
LINE
8
Black
10
152.202
20
-117.728
11
152.488
21
-117.585
0
LINE
8
Black
10
152.488
20
-117.585
11
153.202
21
-117.585
0
LINE
8
Black
10
153.202
20
-117.585
11
153.488
21
-117.728
0
LINE
8
Black
10
153.488
20
-117.728
11
153.631
21
-117.871
0
LINE
8
Black
10
153.631
20
-117.871
11
153.774
21
-118.156
0
LINE
8
Black
10
153.774
20
-118.156
11
153.774
21
-118.871
0
LINE
8
Black
10
153.774
20
-118.871
11
153.631
21
-119.156
0
LINE
8
Black
10
153.631
20
-119.156
11
153.488
21
-119.299
0
LINE
8
Black
10
153.488
20
-119.299
11
153.202
21
-119.442
0
LINE
8
Black
10
153.202
20
-119.442
11
152.488
21
-119.442
0
LINE
8
Black
10
152.488
20
-119.442
11
152.202
21
-119.299
0
LINE
8
Black
10
152.202
20
-119.299
11
152.059
21
-119.156
0
LINE
8
Black
10
154.774
20
-116.442
11
156.774
21
-116.442
0
LINE
8
Black
10
156.774
20
-116.442
11
155.488
21
-119.442
0
LINE
8
Black
10
160.202
20
-119.442
11
160.202
21
-116.442
0
LINE
8
Black
10
161.488
20
-119.442
11
161.488
21
-117.871
0
LINE
8
Black
10
161.488
20
-117.871
11
161.345
21
-117.585
0
LINE
8
Black
10
161.345
20
-117.585
11
161.059
21
-117.442
0
LINE
8
Black
10
161.059
20
-117.442
11
160.631
21
-117.442
0
LINE
8
Black
10
160.631
20
-117.442
11
160.345
21
-117.585
0
LINE
8
Black
10
160.345
20
-117.585
11
160.202
21
-117.728
0
LINE
8
Black
10
163.345
20
-119.442
11
163.059
21
-119.299
0
LINE
8
Black
10
163.059
20
-119.299
11
162.916
21
-119.156
0
LINE
8
Black
10
162.916
20
-119.156
11
162.774
21
-118.871
0
LINE
8
Black
10
162.774
20
-118.871
11
162.774
21
-118.014
0
LINE
8
Black
10
162.774
20
-118.014
11
162.916
21
-117.728
0
LINE
8
Black
10
162.916
20
-117.728
11
163.059
21
-117.585
0
LINE
8
Black
10
163.059
20
-117.585
11
163.345
21
-117.442
0
LINE
8
Black
10
163.345
20
-117.442
11
163.774
21
-117.442
0
LINE
8
Black
10
163.774
20
-117.442
11
164.059
21
-117.585
0
LINE
8
Black
10
164.059
20
-117.585
11
164.202
21
-117.728
0
LINE
8
Black
10
164.202
20
-117.728
11
164.345
21
-118.014
0
LINE
8
Black
10
164.345
20
-118.014
11
164.345
21
-118.871
0
LINE
8
Black
10
164.345
20
-118.871
11
164.202
21
-119.156
0
LINE
8
Black
10
164.202
20
-119.156
11
164.059
21
-119.299
0
LINE
8
Black
10
164.059
20
-119.299
11
163.774
21
-119.442
0
LINE
8
Black
10
163.774
20
-119.442
11
163.345
21
-119.442
0
LINE
8
Black
10
166.059
20
-119.442
11
165.774
21
-119.299
0
LINE
8
Black
10
165.774
20
-119.299
11
165.631
21
-119.014
0
LINE
8
Black
10
165.631
20
-119.014
11
165.631
21
-116.442
0
LINE
8
Black
10
168.345
20
-119.299
11
168.059
21
-119.442
0
LINE
8
Black
10
168.059
20
-119.442
11
167.488
21
-119.442
0
LINE
8
Black
10
167.488
20
-119.442
11
167.202
21
-119.299
0
LINE
8
Black
10
167.202
20
-119.299
11
167.059
21
-119.014
0
LINE
8
Black
10
167.059
20
-119.014
11
167.059
21
-117.871
0
LINE
8
Black
10
167.059
20
-117.871
11
167.202
21
-117.585
0
LINE
8
Black
10
167.202
20
-117.585
11
167.488
21
-117.442
0
LINE
8
Black
10
167.488
20
-117.442
11
168.059
21
-117.442
0
LINE
8
Black
10
168.059
20
-117.442
11
168.345
21
-117.585
0
LINE
8
Black
10
168.345
20
-117.585
11
168.488
21
-117.871
0
LINE
8
Black
10
168.488
20
-117.871
11
168.488
21
-118.156
0
LINE
8
Black
10
168.488
20
-118.156
11
167.059
21
-118.442
0
LINE
8
Black
10
169.631
20
-119.299
11
169.916
21
-119.442
0
LINE
8
Black
10
169.916
20
-119.442
11
170.488
21
-119.442
0
LINE
8
Black
10
170.488
20
-119.442
11
170.774
21
-119.299
0
LINE
8
Black
10
170.774
20
-119.299
11
170.916
21
-119.014
0
LINE
8
Black
10
170.916
20
-119.014
11
170.916
21
-118.871
0
LINE
8
Black
10
170.916
20
-118.871
11
170.774
21
-118.585
0
LINE
8
Black
10
170.774
20
-118.585
11
170.488
21
-118.442
0
LINE
8
Black
10
170.488
20
-118.442
11
170.059
21
-118.442
0
LINE
8
Black
10
170.059
20
-118.442
11
169.774
21
-118.299
0
LINE
8
Black
10
169.774
20
-118.299
11
169.631
21
-118.014
0
LINE
8
Black
10
169.631
20
-118.014
11
169.631
21
-117.871
0
LINE
8
Black
10
169.631
20
-117.871
11
169.774
21
-117.585
0
LINE
8
Black
10
169.774
20
-117.585
11
170.059
21
-117.442
0
LINE
8
Black
10
170.059
20
-117.442
11
170.488
21
-117.442
0
LINE
8
Black
10
170.488
20
-117.442
11
170.774
21
-117.585
0
LINE
8
Black
10
171.916
20
-120.585
11
172.059
21
-120.442
0
LINE
8
Black
10
172.059
20
-120.442
11
172.345
21
-120.014
0
LINE
8
Black
10
172.345
20
-120.014
11
172.488
21
-119.728
0
LINE
8
Black
10
172.488
20
-119.728
11
172.631
21
-119.299
0
LINE
8
Black
10
172.631
20
-119.299
11
172.774
21
-118.585
0
LINE
8
Black
10
172.774
20
-118.585
11
172.774
21
-118.014
0
LINE
8
Black
10
172.774
20
-118.014
11
172.631
21
-117.299
0
LINE
8
Black
10
172.631
20
-117.299
11
172.488
21
-116.871
0
LINE
8
Black
10
172.488
20
-116.871
11
172.345
21
-116.585
0
LINE
8
Black
10
172.345
20
-116.585
11
172.059
21
-116.156
0
LINE
8
Black
10
172.059
20
-116.156
11
171.916
21
-116.014
0
CIRCLE
8
Black
10
103.945
20
-122.045
40
0.4
0
LINE
8
Black
10
107.631
20
-120.402
11
107.916
21
-120.402
0
LINE
8
Black
10
107.916
20
-120.402
11
108.202
21
-120.545
0
LINE
8
Black
10
108.202
20
-120.545
11
108.345
21
-120.688
0
LINE
8
Black
10
108.345
20
-120.688
11
108.488
21
-120.974
0
LINE
8
Black
10
108.488
20
-120.974
11
108.631
21
-121.545
0
LINE
8
Black
10
108.631
20
-121.545
11
108.631
21
-122.259
0
LINE
8
Black
10
108.631
20
-122.259
11
108.488
21
-122.831
0
LINE
8
Black
10
108.488
20
-122.831
11
108.345
21
-123.116
0
LINE
8
Black
10
108.345
20
-123.116
11
108.202
21
-123.259
0
LINE
8
Black
10
108.202
20
-123.259
11
107.916
21
-123.402
0
LINE
8
Black
10
107.916
20
-123.402
11
107.631
21
-123.402
0
LINE
8
Black
10
107.631
20
-123.402
11
107.345
21
-123.259
0
LINE
8
Black
10
107.345
20
-123.259
11
107.202
21
-123.116
0
LINE
8
Black
10
107.202
20
-123.116
11
107.059
21
-122.831
0
LINE
8
Black
10
107.059
20
-122.831
11
106.916
21
-122.259
0
LINE
8
Black
10
106.916
20
-122.259
11
106.916
21
-121.545
0
LINE
8
Black
10
106.916
20
-121.545
11
107.059
21
-120.974
0
LINE
8
Black
10
107.059
20
-120.974
11
107.202
21
-120.688
0
LINE
8
Black
10
107.202
20
-120.688
11
107.345
21
-120.545
0
LINE
8
Black
10
107.345
20
-120.545
11
107.631
21
-120.402
0
LINE
8
Black
10
109.916
20
-123.116
11
110.059
21
-123.259
0
LINE
8
Black
10
110.059
20
-123.259
11
109.916
21
-123.402
0
LINE
8
Black
10
109.916
20
-123.402
11
109.774
21
-123.259
0
LINE
8
Black
10
109.774
20
-123.259
11
109.916
21
-123.116
0
LINE
8
Black
10
109.916
20
-123.116
11
109.916
21
-123.402
0
LINE
8
Black
10
111.774
20
-121.688
11
111.488
21
-121.545
0
LINE
8
Black
10
111.488
20
-121.545
11
111.345
21
-121.402
0
LINE
8
Black
10
111.345
20
-121.402
11
111.202
21
-121.116
0
LINE
8
Black
10
111.202
20
-121.116
11
111.202
21
-120.974
0
LINE
8
Black
10
111.202
20
-120.974
11
111.345
21
-120.688
0
LINE
8
Black
10
111.345
20
-120.688
11
111.488
21
-120.545
0
LINE
8
Black
10
111.488
20
-120.545
11
111.774
21
-120.402
0
LINE
8
Black
10
111.774
20
-120.402
11
112.345
21
-120.402
0
LINE
8
Black
10
112.345
20
-120.402
11
112.631
21
-120.545
0
LINE
8
Black
10
112.631
20
-120.545
11
112.774
21
-120.688
0
LINE
8
Black
10
112.774
20
-120.688
11
112.916
21
-120.974
0
LINE
8
Black
10
112.916
20
-120.974
11
112.916
21
-121.116
0
LINE
8
Black
10
112.916
20
-121.116
11
112.774
21
-121.402
0
LINE
8
Black
10
112.774
20
-121.402
11
112.631
21
-121.545
0
LINE
8
Black
10
112.631
20
-121.545
11
112.345
21
-121.688
0
LINE
8
Black
10
112.345
20
-121.688
11
111.774
21
-121.688
0
LINE
8
Black
10
111.774
20
-121.688
11
111.488
21
-121.831
0
LINE
8
Black
10
111.488
20
-121.831
11
111.345
21
-121.974
0
LINE
8
Black
10
111.345
20
-121.974
11
111.202
21
-122.259
0
LINE
8
Black
10
111.202
20
-122.259
11
111.202
21
-122.831
0
LINE
8
Black
10
111.202
20
-122.831
11
111.345
21
-123.116
0
LINE
8
Black
10
111.345
20
-123.116
11
111.488
21
-123.259
0
LINE
8
Black
10
111.488
20
-123.259
11
111.774
21
-123.402
0
LINE
8
Black
10
111.774
20
-123.402
11
112.345
21
-123.402
0
LINE
8
Black
10
112.345
20
-123.402
11
112.631
21
-123.259
0
LINE
8
Black
10
112.631
20
-123.259
11
112.774
21
-123.116
0
LINE
8
Black
10
112.774
20
-123.116
11
112.916
21
-122.831
0
LINE
8
Black
10
112.916
20
-122.831
11
112.916
21
-122.259
0
LINE
8
Black
10
112.916
20
-122.259
11
112.774
21
-121.974
0
LINE
8
Black
10
112.774
20
-121.974
11
112.631
21
-121.831
0
LINE
8
Black
10
112.631
20
-121.831
11
112.345
21
-121.688
0
LINE
8
Black
10
114.774
20
-120.402
11
115.059
21
-120.402
0
LINE
8
Black
10
115.059
20
-120.402
11
115.345
21
-120.545
0
LINE
8
Black
10
115.345
20
-120.545
11
115.488
21
-120.688
0
LINE
8
Black
10
115.488
20
-120.688
11
115.631
21
-120.974
0
LINE
8
Black
10
115.631
20
-120.974
11
115.774
21
-121.545
0
LINE
8
Black
10
115.774
20
-121.545
11
115.774
21
-122.259
0
LINE
8
Black
10
115.774
20
-122.259
11
115.631
21
-122.831
0
LINE
8
Black
10
115.631
20
-122.831
11
115.488
21
-123.116
0
LINE
8
Black
10
115.488
20
-123.116
11
115.345
21
-123.259
0
LINE
8
Black
10
115.345
20
-123.259
11
115.059
21
-123.402
0
LINE
8
Black
10
115.059
20
-123.402
11
114.774
21
-123.402
0
LINE
8
Black
10
114.774
20
-123.402
11
114.488
21
-123.259
0
LINE
8
Black
10
114.488
20
-123.259
11
114.345
21
-123.116
0
LINE
8
Black
10
114.345
20
-123.116
11
114.202
21
-122.831
0
LINE
8
Black
10
114.202
20
-122.831
11
114.059
21
-122.259
0
LINE
8
Black
10
114.059
20
-122.259
11
114.059
21
-121.545
0
LINE
8
Black
10
114.059
20
-121.545
11
114.202
21
-120.974
0
LINE
8
Black
10
114.202
20
-120.974
11
114.345
21
-120.688
0
LINE
8
Black
10
114.345
20
-120.688
11
114.488
21
-120.545
0
LINE
8
Black
10
114.488
20
-120.545
11
114.774
21
-120.402
0
LINE
8
Black
10
117.059
20
-123.402
11
117.059
21
-121.402
0
LINE
8
Black
10
117.059
20
-121.688
11
117.202
21
-121.545
0
LINE
8
Black
10
117.202
20
-121.545
11
117.488
21
-121.402
0
LINE
8
Black
10
117.488
20
-121.402
11
117.916
21
-121.402
0
LINE
8
Black
10
117.916
20
-121.402
11
118.202
21
-121.545
0
LINE
8
Black
10
118.202
20
-121.545
11
118.345
21
-121.831
0
LINE
8
Black
10
118.345
20
-121.831
11
118.345
21
-123.402
0
LINE
8
Black
10
118.345
20
-121.831
11
118.488
21
-121.545
0
LINE
8
Black
10
118.488
20
-121.545
11
118.774
21
-121.402
0
LINE
8
Black
10
118.774
20
-121.402
11
119.202
21
-121.402
0
LINE
8
Black
10
119.202
20
-121.402
11
119.488
21
-121.545
0
LINE
8
Black
10
119.488
20
-121.545
11
119.631
21
-121.831
0
LINE
8
Black
10
119.631
20
-121.831
11
119.631
21
-123.402
0
LINE
8
Black
10
121.059
20
-123.402
11
121.059
21
-121.402
0
LINE
8
Black
10
121.059
20
-121.688
11
121.202
21
-121.545
0
LINE
8
Black
10
121.202
20
-121.545
11
121.488
21
-121.402
0
LINE
8
Black
10
121.488
20
-121.402
11
121.916
21
-121.402
0
LINE
8
Black
10
121.916
20
-121.402
11
122.202
21
-121.545
0
LINE
8
Black
10
122.202
20
-121.545
11
122.345
21
-121.831
0
LINE
8
Black
10
122.345
20
-121.831
11
122.345
21
-123.402
0
LINE
8
Black
10
122.345
20
-121.831
11
122.488
21
-121.545
0
LINE
8
Black
10
122.488
20
-121.545
11
122.774
21
-121.402
0
LINE
8
Black
10
122.774
20
-121.402
11
123.202
21
-121.402
0
LINE
8
Black
10
123.202
20
-121.402
11
123.488
21
-121.545
0
LINE
8
Black
10
123.488
20
-121.545
11
123.631
21
-121.831
0
LINE
8
Black
10
123.631
20
-121.831
11
123.631
21
-123.402
0
LINE
8
Black
10
129.488
20
-120.259
11
126.916
21
-124.116
0
LINE
8
Black
10
133.345
20
-120.402
11
133.631
21
-120.402
0
LINE
8
Black
10
133.631
20
-120.402
11
133.916
21
-120.545
0
LINE
8
Black
10
133.916
20
-120.545
11
134.059
21
-120.688
0
LINE
8
Black
10
134.059
20
-120.688
11
134.202
21
-120.974
0
LINE
8
Black
10
134.202
20
-120.974
11
134.345
21
-121.545
0
LINE
8
Black
10
134.345
20
-121.545
11
134.345
21
-122.259
0
LINE
8
Black
10
134.345
20
-122.259
11
134.202
21
-122.831
0
LINE
8
Black
10
134.202
20
-122.831
11
134.059
21
-123.116
0
LINE
8
Black
10
134.059
20
-123.116
11
133.916
21
-123.259
0
LINE
8
Black
10
133.916
20
-123.259
11
133.631
21
-123.402
0
LINE
8
Black
10
133.631
20
-123.402
11
133.345
21
-123.402
0
LINE
8
Black
10
133.345
20
-123.402
11
133.059
21
-123.259
0
LINE
8
Black
10
133.059
20
-123.259
11
132.916
21
-123.116
0
LINE
8
Black
10
132.916
20
-123.116
11
132.774
21
-122.831
0
LINE
8
Black
10
132.774
20
-122.831
11
132.631
21
-122.259
0
LINE
8
Black
10
132.631
20
-122.259
11
132.631
21
-121.545
0
LINE
8
Black
10
132.631
20
-121.545
11
132.774
21
-120.974
0
LINE
8
Black
10
132.774
20
-120.974
11
132.916
21
-120.688
0
LINE
8
Black
10
132.916
20
-120.688
11
133.059
21
-120.545
0
LINE
8
Black
10
133.059
20
-120.545
11
133.345
21
-120.402
0
LINE
8
Black
10
135.631
20
-123.116
11
135.774
21
-123.259
0
LINE
8
Black
10
135.774
20
-123.259
11
135.631
21
-123.402
0
LINE
8
Black
10
135.631
20
-123.402
11
135.488
21
-123.259
0
LINE
8
Black
10
135.488
20
-123.259
11
135.631
21
-123.116
0
LINE
8
Black
10
135.631
20
-123.116
11
135.631
21
-123.402
0
LINE
8
Black
10
137.631
20
-120.402
11
137.916
21
-120.402
0
LINE
8
Black
10
137.916
20
-120.402
11
138.202
21
-120.545
0
LINE
8
Black
10
138.202
20
-120.545
11
138.345
21
-120.688
0
LINE
8
Black
10
138.345
20
-120.688
11
138.488
21
-120.974
0
LINE
8
Black
10
138.488
20
-120.974
11
138.631
21
-121.545
0
LINE
8
Black
10
138.631
20
-121.545
11
138.631
21
-122.259
0
LINE
8
Black
10
138.631
20
-122.259
11
138.488
21
-122.831
0
LINE
8
Black
10
138.488
20
-122.831
11
138.345
21
-123.116
0
LINE
8
Black
10
138.345
20
-123.116
11
138.202
21
-123.259
0
LINE
8
Black
10
138.202
20
-123.259
11
137.916
21
-123.402
0
LINE
8
Black
10
137.916
20
-123.402
11
137.631
21
-123.402
0
LINE
8
Black
10
137.631
20
-123.402
11
137.345
21
-123.259
0
LINE
8
Black
10
137.345
20
-123.259
11
137.202
21
-123.116
0
LINE
8
Black
10
137.202
20
-123.116
11
137.059
21
-122.831
0
LINE
8
Black
10
137.059
20
-122.831
11
136.916
21
-122.259
0
LINE
8
Black
10
136.916
20
-122.259
11
136.916
21
-121.545
0
LINE
8
Black
10
136.916
20
-121.545
11
137.059
21
-120.974
0
LINE
8
Black
10
137.059
20
-120.974
11
137.202
21
-120.688
0
LINE
8
Black
10
137.202
20
-120.688
11
137.345
21
-120.545
0
LINE
8
Black
10
137.345
20
-120.545
11
137.631
21
-120.402
0
LINE
8
Black
10
139.631
20
-120.402
11
141.488
21
-120.402
0
LINE
8
Black
10
141.488
20
-120.402
11
140.488
21
-121.545
0
LINE
8
Black
10
140.488
20
-121.545
11
140.916
21
-121.545
0
LINE
8
Black
10
140.916
20
-121.545
11
141.202
21
-121.688
0
LINE
8
Black
10
141.202
20
-121.688
11
141.345
21
-121.831
0
LINE
8
Black
10
141.345
20
-121.831
11
141.488
21
-122.116
0
LINE
8
Black
10
141.488
20
-122.116
11
141.488
21
-122.831
0
LINE
8
Black
10
141.488
20
-122.831
11
141.345
21
-123.116
0
LINE
8
Black
10
141.345
20
-123.116
11
141.202
21
-123.259
0
LINE
8
Black
10
141.202
20
-123.259
11
140.916
21
-123.402
0
LINE
8
Black
10
140.916
20
-123.402
11
140.059
21
-123.402
0
LINE
8
Black
10
140.059
20
-123.402
11
139.774
21
-123.259
0
LINE
8
Black
10
139.774
20
-123.259
11
139.631
21
-123.116
0
LINE
8
Black
10
144.345
20
-123.402
11
142.631
21
-123.402
0
LINE
8
Black
10
143.488
20
-123.402
11
143.488
21
-120.402
0
LINE
8
Black
10
143.488
20
-120.402
11
143.202
21
-120.831
0
LINE
8
Black
10
143.202
20
-120.831
11
142.916
21
-121.116
0
LINE
8
Black
10
142.916
20
-121.116
11
142.631
21
-121.259
0
LINE
8
Black
10
145.488
20
-120.402
11
145.488
21
-120.974
0
LINE
8
Black
10
146.631
20
-120.402
11
146.631
21
-120.974
0
LINE
8
Black
10
151.059
20
-124.545
11
150.916
21
-124.402
0
LINE
8
Black
10
150.916
20
-124.402
11
150.631
21
-123.974
0
LINE
8
Black
10
150.631
20
-123.974
11
150.488
21
-123.688
0
LINE
8
Black
10
150.488
20
-123.688
11
150.345
21
-123.259
0
LINE
8
Black
10
150.345
20
-123.259
11
150.202
21
-122.545
0
LINE
8
Black
10
150.202
20
-122.545
11
150.202
21
-121.974
0
LINE
8
Black
10
150.202
20
-121.974
11
150.345
21
-121.259
0
LINE
8
Black
10
150.345
20
-121.259
11
150.488
21
-120.831
0
LINE
8
Black
10
150.488
20
-120.831
11
150.631
21
-120.545
0
LINE
8
Black
10
150.631
20
-120.545
11
150.916
21
-120.116
0
LINE
8
Black
10
150.916
20
-120.116
11
151.059
21
-119.974
0
LINE
8
Black
10
152.631
20
-121.688
11
152.345
21
-121.545
0
LINE
8
Black
10
152.345
20
-121.545
11
152.202
21
-121.402
0
LINE
8
Black
10
152.202
20
-121.402
11
152.059
21
-121.116
0
LINE
8
Black
10
152.059
20
-121.116
11
152.059
21
-120.974
0
LINE
8
Black
10
152.059
20
-120.974
11
152.202
21
-120.688
0
LINE
8
Black
10
152.202
20
-120.688
11
152.345
21
-120.545
0
LINE
8
Black
10
152.345
20
-120.545
11
152.631
21
-120.402
0
LINE
8
Black
10
152.631
20
-120.402
11
153.202
21
-120.402
0
LINE
8
Black
10
153.202
20
-120.402
11
153.488
21
-120.545
0
LINE
8
Black
10
153.488
20
-120.545
11
153.631
21
-120.688
0
LINE
8
Black
10
153.631
20
-120.688
11
153.774
21
-120.974
0
LINE
8
Black
10
153.774
20
-120.974
11
153.774
21
-121.116
0
LINE
8
Black
10
153.774
20
-121.116
11
153.631
21
-121.402
0
LINE
8
Black
10
153.631
20
-121.402
11
153.488
21
-121.545
0
LINE
8
Black
10
153.488
20
-121.545
11
153.202
21
-121.688
0
LINE
8
Black
10
153.202
20
-121.688
11
152.631
21
-121.688
0
LINE
8
Black
10
152.631
20
-121.688
11
152.345
21
-121.831
0
LINE
8
Black
10
152.345
20
-121.831
11
152.202
21
-121.974
0
LINE
8
Black
10
152.202
20
-121.974
11
152.059
21
-122.259
0
LINE
8
Black
10
152.059
20
-122.259
11
152.059
21
-122.831
0
LINE
8
Black
10
152.059
20
-122.831
11
152.202
21
-123.116
0
LINE
8
Black
10
152.202
20
-123.116
11
152.345
21
-123.259
0
LINE
8
Black
10
152.345
20
-123.259
11
152.631
21
-123.402
0
LINE
8
Black
10
152.631
20
-123.402
11
153.202
21
-123.402
0
LINE
8
Black
10
153.202
20
-123.402
11
153.488
21
-123.259
0
LINE
8
Black
10
153.488
20
-123.259
11
153.631
21
-123.116
0
LINE
8
Black
10
153.631
20
-123.116
11
153.774
21
-122.831
0
LINE
8
Black
10
153.774
20
-122.831
11
153.774
21
-122.259
0
LINE
8
Black
10
153.774
20
-122.259
11
153.631
21
-121.974
0
LINE
8
Black
10
153.631
20
-121.974
11
153.488
21
-121.831
0
LINE
8
Black
10
153.488
20
-121.831
11
153.202
21
-121.688
0
LINE
8
Black
10
157.345
20
-123.402
11
157.345
21
-120.402
0
LINE
8
Black
10
158.631
20
-123.402
11
158.631
21
-121.831
0
LINE
8
Black
10
158.631
20
-121.831
11
158.488
21
-121.545
0
LINE
8
Black
10
158.488
20
-121.545
11
158.202
21
-121.402
0
LINE
8
Black
10
158.202
20
-121.402
11
157.774
21
-121.402
0
LINE
8
Black
10
157.774
20
-121.402
11
157.488
21
-121.545
0
LINE
8
Black
10
157.488
20
-121.545
11
157.345
21
-121.688
0
LINE
8
Black
10
160.488
20
-123.402
11
160.202
21
-123.259
0
LINE
8
Black
10
160.202
20
-123.259
11
160.059
21
-123.116
0
LINE
8
Black
10
160.059
20
-123.116
11
159.916
21
-122.831
0
LINE
8
Black
10
159.916
20
-122.831
11
159.916
21
-121.974
0
LINE
8
Black
10
159.916
20
-121.974
11
160.059
21
-121.688
0
LINE
8
Black
10
160.059
20
-121.688
11
160.202
21
-121.545
0
LINE
8
Black
10
160.202
20
-121.545
11
160.488
21
-121.402
0
LINE
8
Black
10
160.488
20
-121.402
11
160.916
21
-121.402
0
LINE
8
Black
10
160.916
20
-121.402
11
161.202
21
-121.545
0
LINE
8
Black
10
161.202
20
-121.545
11
161.345
21
-121.688
0
LINE
8
Black
10
161.345
20
-121.688
11
161.488
21
-121.974
0
LINE
8
Black
10
161.488
20
-121.974
11
161.488
21
-122.831
0
LINE
8
Black
10
161.488
20
-122.831
11
161.345
21
-123.116
0
LINE
8
Black
10
161.345
20
-123.116
11
161.202
21
-123.259
0
LINE
8
Black
10
161.202
20
-123.259
11
160.916
21
-123.402
0
LINE
8
Black
10
160.916
20
-123.402
11
160.488
21
-123.402
0
LINE
8
Black
10
163.202
20
-123.402
11
162.916
21
-123.259
0
LINE
8
Black
10
162.916
20
-123.259
11
162.774
21
-122.974
0
LINE
8
Black
10
162.774
20
-122.974
11
162.774
21
-120.402
0
LINE
8
Black
10
165.488
20
-123.259
11
165.202
21
-123.402
0
LINE
8
Black
10
165.202
20
-123.402
11
164.631
21
-123.402
0
LINE
8
Black
10
164.631
20
-123.402
11
164.345
21
-123.259
0
LINE
8
Black
10
164.345
20
-123.259
11
164.202
21
-122.974
0
LINE
8
Black
10
164.202
20
-122.974
11
164.202
21
-121.831
0
LINE
8
Black
10
164.202
20
-121.831
11
164.345
21
-121.545
0
LINE
8
Black
10
164.345
20
-121.545
11
164.631
21
-121.402
0
LINE
8
Black
10
164.631
20
-121.402
11
165.202
21
-121.402
0
LINE
8
Black
10
165.202
20
-121.402
11
165.488
21
-121.545
0
LINE
8
Black
10
165.488
20
-121.545
11
165.631
21
-121.831
0
LINE
8
Black
10
165.631
20
-121.831
11
165.631
21
-122.116
0
LINE
8
Black
10
165.631
20
-122.116
11
164.202
21
-122.402
0
LINE
8
Black
10
166.774
20
-123.259
11
167.059
21
-123.402
0
LINE
8
Black
10
167.059
20
-123.402
11
167.631
21
-123.402
0
LINE
8
Black
10
167.631
20
-123.402
11
167.916
21
-123.259
0
LINE
8
Black
10
167.916
20
-123.259
11
168.059
21
-122.974
0
LINE
8
Black
10
168.059
20
-122.974
11
168.059
21
-122.831
0
LINE
8
Black
10
168.059
20
-122.831
11
167.916
21
-122.545
0
LINE
8
Black
10
167.916
20
-122.545
11
167.631
21
-122.402
0
LINE
8
Black
10
167.631
20
-122.402
11
167.202
21
-122.402
0
LINE
8
Black
10
167.202
20
-122.402
11
166.916
21
-122.259
0
LINE
8
Black
10
166.916
20
-122.259
11
166.774
21
-121.974
0
LINE
8
Black
10
166.774
20
-121.974
11
166.774
21
-121.831
0
LINE
8
Black
10
166.774
20
-121.831
11
166.916
21
-121.545
0
LINE
8
Black
10
166.916
20
-121.545
11
167.202
21
-121.402
0
LINE
8
Black
10
167.202
20
-121.402
11
167.631
21
-121.402
0
LINE
8
Black
10
167.631
20
-121.402
11
167.916
21
-121.545
0
LINE
8
Black
10
169.059
20
-124.545
11
169.202
21
-124.402
0
LINE
8
Black
10
169.202
20
-124.402
11
169.488
21
-123.974
0
LINE
8
Black
10
169.488
20
-123.974
11
169.631
21
-123.688
0
LINE
8
Black
10
169.631
20
-123.688
11
169.774
21
-123.259
0
LINE
8
Black
10
169.774
20
-123.259
11
169.916
21
-122.545
0
LINE
8
Black
10
169.916
20
-122.545
11
169.916
21
-121.974
0
LINE
8
Black
10
169.916
20
-121.974
11
169.774
21
-121.259
0
LINE
8
Black
10
169.774
20
-121.259
11
169.631
21
-120.831
0
LINE
8
Black
10
169.631
20
-120.831
11
169.488
21
-120.545
0
LINE
8
Black
10
169.488
20
-120.545
11
169.202
21
-120.116
0
LINE
8
Black
10
169.202
20
-120.116
11
169.059
21
-119.974
0
LINE
8
Black
10
103.595
20
-125.255
11
103.595
21
-126.755
0
LINE
8
Black
10
102.845
20
-126.005
11
104.345
21
-126.005
0
LINE
8
Black
10
108.631
20
-127.362
11
106.916
21
-127.362
0
LINE
8
Black
10
107.774
20
-127.362
11
107.774
21
-124.362
0
LINE
8
Black
10
107.774
20
-124.362
11
107.488
21
-124.791
0
LINE
8
Black
10
107.488
20
-124.791
11
107.202
21
-125.076
0
LINE
8
Black
10
107.202
20
-125.076
11
106.916
21
-125.219
0
LINE
8
Black
10
109.916
20
-127.076
11
110.059
21
-127.219
0
LINE
8
Black
10
110.059
20
-127.219
11
109.916
21
-127.362
0
LINE
8
Black
10
109.916
20
-127.362
11
109.774
21
-127.219
0
LINE
8
Black
10
109.774
20
-127.219
11
109.916
21
-127.076
0
LINE
8
Black
10
109.916
20
-127.076
11
109.916
21
-127.362
0
LINE
8
Black
10
112.774
20
-124.362
11
111.345
21
-124.362
0
LINE
8
Black
10
111.345
20
-124.362
11
111.202
21
-125.791
0
LINE
8
Black
10
111.202
20
-125.791
11
111.345
21
-125.648
0
LINE
8
Black
10
111.345
20
-125.648
11
111.631
21
-125.505
0
LINE
8
Black
10
111.631
20
-125.505
11
112.345
21
-125.505
0
LINE
8
Black
10
112.345
20
-125.505
11
112.631
21
-125.648
0
LINE
8
Black
10
112.631
20
-125.648
11
112.774
21
-125.791
0
LINE
8
Black
10
112.774
20
-125.791
11
112.916
21
-126.076
0
LINE
8
Black
10
112.916
20
-126.076
11
112.916
21
-126.791
0
LINE
8
Black
10
112.916
20
-126.791
11
112.774
21
-127.076
0
LINE
8
Black
10
112.774
20
-127.076
11
112.631
21
-127.219
0
LINE
8
Black
10
112.631
20
-127.219
11
112.345
21
-127.362
0
LINE
8
Black
10
112.345
20
-127.362
11
111.631
21
-127.362
0
LINE
8
Black
10
111.631
20
-127.362
11
111.345
21
-127.219
0
LINE
8
Black
10
111.345
20
-127.219
11
111.202
21
-127.076
0
LINE
8
Black
10
114.774
20
-124.362
11
115.059
21
-124.362
0
LINE
8
Black
10
115.059
20
-124.362
11
115.345
21
-124.505
0
LINE
8
Black
10
115.345
20
-124.505
11
115.488
21
-124.648
0
LINE
8
Black
10
115.488
20
-124.648
11
115.631
21
-124.934
0
LINE
8
Black
10
115.631
20
-124.934
11
115.774
21
-125.505
0
LINE
8
Black
10
115.774
20
-125.505
11
115.774
21
-126.219
0
LINE
8
Black
10
115.774
20
-126.219
11
115.631
21
-126.791
0
LINE
8
Black
10
115.631
20
-126.791
11
115.488
21
-127.076
0
LINE
8
Black
10
115.488
20
-127.076
11
115.345
21
-127.219
0
LINE
8
Black
10
115.345
20
-127.219
11
115.059
21
-127.362
0
LINE
8
Black
10
115.059
20
-127.362
11
114.774
21
-127.362
0
LINE
8
Black
10
114.774
20
-127.362
11
114.488
21
-127.219
0
LINE
8
Black
10
114.488
20
-127.219
11
114.345
21
-127.076
0
LINE
8
Black
10
114.345
20
-127.076
11
114.202
21
-126.791
0
LINE
8
Black
10
114.202
20
-126.791
11
114.059
21
-126.219
0
LINE
8
Black
10
114.059
20
-126.219
11
114.059
21
-125.505
0
LINE
8
Black
10
114.059
20
-125.505
11
114.202
21
-124.934
0
LINE
8
Black
10
114.202
20
-124.934
11
114.345
21
-124.648
0
LINE
8
Black
10
114.345
20
-124.648
11
114.488
21
-124.505
0
LINE
8
Black
10
114.488
20
-124.505
11
114.774
21
-124.362
0
LINE
8
Black
10
117.059
20
-127.362
11
117.059
21
-125.362
0
LINE
8
Black
10
117.059
20
-125.648
11
117.202
21
-125.505
0
LINE
8
Black
10
117.202
20
-125.505
11
117.488
21
-125.362
0
LINE
8
Black
10
117.488
20
-125.362
11
117.916
21
-125.362
0
LINE
8
Black
10
117.916
20
-125.362
11
118.202
21
-125.505
0
LINE
8
Black
10
118.202
20
-125.505
11
118.345
21
-125.791
0
LINE
8
Black
10
118.345
20
-125.791
11
118.345
21
-127.362
0
LINE
8
Black
10
118.345
20
-125.791
11
118.488
21
-125.505
0
LINE
8
Black
10
118.488
20
-125.505
11
118.774
21
-125.362
0
LINE
8
Black
10
118.774
20
-125.362
11
119.202
21
-125.362
0
LINE
8
Black
10
119.202
20
-125.362
11
119.488
21
-125.505
0
LINE
8
Black
10
119.488
20
-125.505
11
119.631
21
-125.791
0
LINE
8
Black
10
119.631
20
-125.791
11
119.631
21
-127.362
0
LINE
8
Black
10
121.059
20
-127.362
11
121.059
21
-125.362
0
LINE
8
Black
10
121.059
20
-125.648
11
121.202
21
-125.505
0
LINE
8
Black
10
121.202
20
-125.505
11
121.488
21
-125.362
0
LINE
8
Black
10
121.488
20
-125.362
11
121.916
21
-125.362
0
LINE
8
Black
10
121.916
20
-125.362
11
122.202
21
-125.505
0
LINE
8
Black
10
122.202
20
-125.505
11
122.345
21
-125.791
0
LINE
8
Black
10
122.345
20
-125.791
11
122.345
21
-127.362
0
LINE
8
Black
10
122.345
20
-125.791
11
122.488
21
-125.505
0
LINE
8
Black
10
122.488
20
-125.505
11
122.774
21
-125.362
0
LINE
8
Black
10
122.774
20
-125.362
11
123.202
21
-125.362
0
LINE
8
Black
10
123.202
20
-125.362
11
123.488
21
-125.505
0
LINE
8
Black
10
123.488
20
-125.505
11
123.631
21
-125.791
0
LINE
8
Black
10
123.631
20
-125.791
11
123.631
21
-127.362
0
LINE
8
Black
10
129.488
20
-124.219
11
126.916
21
-128.076
0
LINE
8
Black
10
133.345
20
-124.362
11
133.631
21
-124.362
0
LINE
8
Black
10
133.631
20
-124.362
11
133.916
21
-124.505
0
LINE
8
Black
10
133.916
20
-124.505
11
134.059
21
-124.648
0
LINE
8
Black
10
134.059
20
-124.648
11
134.202
21
-124.934
0
LINE
8
Black
10
134.202
20
-124.934
11
134.345
21
-125.505
0
LINE
8
Black
10
134.345
20
-125.505
11
134.345
21
-126.219
0
LINE
8
Black
10
134.345
20
-126.219
11
134.202
21
-126.791
0
LINE
8
Black
10
134.202
20
-126.791
11
134.059
21
-127.076
0
LINE
8
Black
10
134.059
20
-127.076
11
133.916
21
-127.219
0
LINE
8
Black
10
133.916
20
-127.219
11
133.631
21
-127.362
0
LINE
8
Black
10
133.631
20
-127.362
11
133.345
21
-127.362
0
LINE
8
Black
10
133.345
20
-127.362
11
133.059
21
-127.219
0
LINE
8
Black
10
133.059
20
-127.219
11
132.916
21
-127.076
0
LINE
8
Black
10
132.916
20
-127.076
11
132.774
21
-126.791
0
LINE
8
Black
10
132.774
20
-126.791
11
132.631
21
-126.219
0
LINE
8
Black
10
132.631
20
-126.219
11
132.631
21
-125.505
0
LINE
8
Black
10
132.631
20
-125.505
11
132.774
21
-124.934
0
LINE
8
Black
10
132.774
20
-124.934
11
132.916
21
-124.648
0
LINE
8
Black
10
132.916
20
-124.648
11
133.059
21
-124.505
0
LINE
8
Black
10
133.059
20
-124.505
11
133.345
21
-124.362
0
LINE
8
Black
10
135.631
20
-127.076
11
135.774
21
-127.219
0
LINE
8
Black
10
135.774
20
-127.219
11
135.631
21
-127.362
0
LINE
8
Black
10
135.631
20
-127.362
11
135.488
21
-127.219
0
LINE
8
Black
10
135.488
20
-127.219
11
135.631
21
-127.076
0
LINE
8
Black
10
135.631
20
-127.076
11
135.631
21
-127.362
0
LINE
8
Black
10
137.631
20
-124.362
11
137.916
21
-124.362
0
LINE
8
Black
10
137.916
20
-124.362
11
138.202
21
-124.505
0
LINE
8
Black
10
138.202
20
-124.505
11
138.345
21
-124.648
0
LINE
8
Black
10
138.345
20
-124.648
11
138.488
21
-124.934
0
LINE
8
Black
10
138.488
20
-124.934
11
138.631
21
-125.505
0
LINE
8
Black
10
138.631
20
-125.505
11
138.631
21
-126.219
0
LINE
8
Black
10
138.631
20
-126.219
11
138.488
21
-126.791
0
LINE
8
Black
10
138.488
20
-126.791
11
138.345
21
-127.076
0
LINE
8
Black
10
138.345
20
-127.076
11
138.202
21
-127.219
0
LINE
8
Black
10
138.202
20
-127.219
11
137.916
21
-127.362
0
LINE
8
Black
10
137.916
20
-127.362
11
137.631
21
-127.362
0
LINE
8
Black
10
137.631
20
-127.362
11
137.345
21
-127.219
0
LINE
8
Black
10
137.345
20
-127.219
11
137.202
21
-127.076
0
LINE
8
Black
10
137.202
20
-127.076
11
137.059
21
-126.791
0
LINE
8
Black
10
137.059
20
-126.791
11
136.916
21
-126.219
0
LINE
8
Black
10
136.916
20
-126.219
11
136.916
21
-125.505
0
LINE
8
Black
10
136.916
20
-125.505
11
137.059
21
-124.934
0
LINE
8
Black
10
137.059
20
-124.934
11
137.202
21
-124.648
0
LINE
8
Black
10
137.202
20
-124.648
11
137.345
21
-124.505
0
LINE
8
Black
10
137.345
20
-124.505
11
137.631
21
-124.362
0
LINE
8
Black
10
141.345
20
-124.362
11
139.916
21
-124.362
0
LINE
8
Black
10
139.916
20
-124.362
11
139.774
21
-125.791
0
LINE
8
Black
10
139.774
20
-125.791
11
139.916
21
-125.648
0
LINE
8
Black
10
139.916
20
-125.648
11
140.202
21
-125.505
0
LINE
8
Black
10
140.202
20
-125.505
11
140.916
21
-125.505
0
LINE
8
Black
10
140.916
20
-125.505
11
141.202
21
-125.648
0
LINE
8
Black
10
141.202
20
-125.648
11
141.345
21
-125.791
0
LINE
8
Black
10
141.345
20
-125.791
11
141.488
21
-126.076
0
LINE
8
Black
10
141.488
20
-126.076
11
141.488
21
-126.791
0
LINE
8
Black
10
141.488
20
-126.791
11
141.345
21
-127.076
0
LINE
8
Black
10
141.345
20
-127.076
11
141.202
21
-127.219
0
LINE
8
Black
10
141.202
20
-127.219
11
140.916
21
-127.362
0
LINE
8
Black
10
140.916
20
-127.362
11
140.202
21
-127.362
0
LINE
8
Black
10
140.202
20
-127.362
11
139.916
21
-127.219
0
LINE
8
Black
10
139.916
20
-127.219
11
139.774
21
-127.076
0
LINE
8
Black
10
142.916
20
-127.362
11
143.488
21
-127.362
0
LINE
8
Black
10
143.488
20
-127.362
11
143.774
21
-127.219
0
LINE
8
Black
10
143.774
20
-127.219
11
143.916
21
-127.076
0
LINE
8
Black
10
143.916
20
-127.076
11
144.202
21
-126.648
0
LINE
8
Black
10
144.202
20
-126.648
11
144.345
21
-126.076
0
LINE
8
Black
10
144.345
20
-126.076
11
144.345
21
-124.934
0
LINE
8
Black
10
144.345
20
-124.934
11
144.202
21
-124.648
0
LINE
8
Black
10
144.202
20
-124.648
11
144.059
21
-124.505
0
LINE
8
Black
10
144.059
20
-124.505
11
143.774
21
-124.362
0
LINE
8
Black
10
143.774
20
-124.362
11
143.202
21
-124.362
0
LINE
8
Black
10
143.202
20
-124.362
11
142.916
21
-124.505
0
LINE
8
Black
10
142.916
20
-124.505
11
142.774
21
-124.648
0
LINE
8
Black
10
142.774
20
-124.648
11
142.631
21
-124.934
0
LINE
8
Black
10
142.631
20
-124.934
11
142.631
21
-125.648
0
LINE
8
Black
10
142.631
20
-125.648
11
142.774
21
-125.934
0
LINE
8
Black
10
142.774
20
-125.934
11
142.916
21
-126.076
0
LINE
8
Black
10
142.916
20
-126.076
11
143.202
21
-126.219
0
LINE
8
Black
10
143.202
20
-126.219
11
143.774
21
-126.219
0
LINE
8
Black
10
143.774
20
-126.219
11
144.059
21
-126.076
0
LINE
8
Black
10
144.059
20
-126.076
11
144.202
21
-125.934
0
LINE
8
Black
10
144.202
20
-125.934
11
144.345
21
-125.648
0
LINE
8
Black
10
145.488
20
-124.362
11
145.488
21
-124.934
0
LINE
8
Black
10
146.631
20
-124.362
11
146.631
21
-124.934
0
LINE
8
Black
10
151.059
20
-128.505
11
150.916
21
-128.362
0
LINE
8
Black
10
150.916
20
-128.362
11
150.631
21
-127.934
0
LINE
8
Black
10
150.631
20
-127.934
11
150.488
21
-127.648
0
LINE
8
Black
10
150.488
20
-127.648
11
150.345
21
-127.219
0
LINE
8
Black
10
150.345
20
-127.219
11
150.202
21
-126.505
0
LINE
8
Black
10
150.202
20
-126.505
11
150.202
21
-125.934
0
LINE
8
Black
10
150.202
20
-125.934
11
150.345
21
-125.219
0
LINE
8
Black
10
150.345
20
-125.219
11
150.488
21
-124.791
0
LINE
8
Black
10
150.488
20
-124.791
11
150.631
21
-124.505
0
LINE
8
Black
10
150.631
20
-124.505
11
150.916
21
-124.076
0
LINE
8
Black
10
150.916
20
-124.076
11
151.059
21
-123.934
0
LINE
8
Black
10
153.488
20
-125.362
11
153.488
21
-127.362
0
LINE
8
Black
10
152.774
20
-124.219
11
152.059
21
-126.362
0
LINE
8
Black
10
152.059
20
-126.362
11
153.916
21
-126.362
0
LINE
8
Black
10
157.345
20
-127.362
11
157.345
21
-124.362
0
LINE
8
Black
10
158.631
20
-127.362
11
158.631
21
-125.791
0
LINE
8
Black
10
158.631
20
-125.791
11
158.488
21
-125.505
0
LINE
8
Black
10
158.488
20
-125.505
11
158.202
21
-125.362
0
LINE
8
Black
10
158.202
20
-125.362
11
157.774
21
-125.362
0
LINE
8
Black
10
157.774
20
-125.362
11
157.488
21
-125.505
0
LINE
8
Black
10
157.488
20
-125.505
11
157.345
21
-125.648
0
LINE
8
Black
10
160.488
20
-127.362
11
160.202
21
-127.219
0
LINE
8
Black
10
160.202
20
-127.219
11
160.059
21
-127.076
0
LINE
8
Black
10
160.059
20
-127.076
11
159.916
21
-126.791
0
LINE
8
Black
10
159.916
20
-126.791
11
159.916
21
-125.934
0
LINE
8
Black
10
159.916
20
-125.934
11
160.059
21
-125.648
0
LINE
8
Black
10
160.059
20
-125.648
11
160.202
21
-125.505
0
LINE
8
Black
10
160.202
20
-125.505
11
160.488
21
-125.362
0
LINE
8
Black
10
160.488
20
-125.362
11
160.916
21
-125.362
0
LINE
8
Black
10
160.916
20
-125.362
11
161.202
21
-125.505
0
LINE
8
Black
10
161.202
20
-125.505
11
161.345
21
-125.648
0
LINE
8
Black
10
161.345
20
-125.648
11
161.488
21
-125.934
0
LINE
8
Black
10
161.488
20
-125.934
11
161.488
21
-126.791
0
LINE
8
Black
10
161.488
20
-126.791
11
161.345
21
-127.076
0
LINE
8
Black
10
161.345
20
-127.076
11
161.202
21
-127.219
0
LINE
8
Black
10
161.202
20
-127.219
11
160.916
21
-127.362
0
LINE
8
Black
10
160.916
20
-127.362
11
160.488
21
-127.362
0
LINE
8
Black
10
163.202
20
-127.362
11
162.916
21
-127.219
0
LINE
8
Black
10
162.916
20
-127.219
11
162.774
21
-126.934
0
LINE
8
Black
10
162.774
20
-126.934
11
162.774
21
-124.362
0
LINE
8
Black
10
165.488
20
-127.219
11
165.202
21
-127.362
0
LINE
8
Black
10
165.202
20
-127.362
11
164.631
21
-127.362
0
LINE
8
Black
10
164.631
20
-127.362
11
164.345
21
-127.219
0
LINE
8
Black
10
164.345
20
-127.219
11
164.202
21
-126.934
0
LINE
8
Black
10
164.202
20
-126.934
11
164.202
21
-125.791
0
LINE
8
Black
10
164.202
20
-125.791
11
164.345
21
-125.505
0
LINE
8
Black
10
164.345
20
-125.505
11
164.631
21
-125.362
0
LINE
8
Black
10
164.631
20
-125.362
11
165.202
21
-125.362
0
LINE
8
Black
10
165.202
20
-125.362
11
165.488
21
-125.505
0
LINE
8
Black
10
165.488
20
-125.505
11
165.631
21
-125.791
0
LINE
8
Black
10
165.631
20
-125.791
11
165.631
21
-126.076
0
LINE
8
Black
10
165.631
20
-126.076
11
164.202
21
-126.362
0
LINE
8
Black
10
166.774
20
-127.219
11
167.059
21
-127.362
0
LINE
8
Black
10
167.059
20
-127.362
11
167.631
21
-127.362
0
LINE
8
Black
10
167.631
20
-127.362
11
167.916
21
-127.219
0
LINE
8
Black
10
167.916
20
-127.219
11
168.059
21
-126.934
0
LINE
8
Black
10
168.059
20
-126.934
11
168.059
21
-126.791
0
LINE
8
Black
10
168.059
20
-126.791
11
167.916
21
-126.505
0
LINE
8
Black
10
167.916
20
-126.505
11
167.631
21
-126.362
0
LINE
8
Black
10
167.631
20
-126.362
11
167.202
21
-126.362
0
LINE
8
Black
10
167.202
20
-126.362
11
166.916
21
-126.219
0
LINE
8
Black
10
166.916
20
-126.219
11
166.774
21
-125.934
0
LINE
8
Black
10
166.774
20
-125.934
11
166.774
21
-125.791
0
LINE
8
Black
10
166.774
20
-125.791
11
166.916
21
-125.505
0
LINE
8
Black
10
166.916
20
-125.505
11
167.202
21
-125.362
0
LINE
8
Black
10
167.202
20
-125.362
11
167.631
21
-125.362
0
LINE
8
Black
10
167.631
20
-125.362
11
167.916
21
-125.505
0
LINE
8
Black
10
169.059
20
-128.505
11
169.202
21
-128.362
0
LINE
8
Black
10
169.202
20
-128.362
11
169.488
21
-127.934
0
LINE
8
Black
10
169.488
20
-127.934
11
169.631
21
-127.648
0
LINE
8
Black
10
169.631
20
-127.648
11
169.774
21
-127.219
0
LINE
8
Black
10
169.774
20
-127.219
11
169.916
21
-126.505
0
LINE
8
Black
10
169.916
20
-126.505
11
169.916
21
-125.934
0
LINE
8
Black
10
169.916
20
-125.934
11
169.774
21
-125.219
0
LINE
8
Black
10
169.774
20
-125.219
11
169.631
21
-124.791
0
LINE
8
Black
10
169.631
20
-124.791
11
169.488
21
-124.505
0
LINE
8
Black
10
169.488
20
-124.505
11
169.202
21
-124.076
0
LINE
8
Black
10
169.202
20
-124.076
11
169.059
21
-123.934
0
LINE
8
Black
10
104.103
20
-130.548
11
104.103
21
-129.382
0
LINE
8
Black
10
104.103
20
-129.382
11
102.937
21
-129.382
0
LINE
8
Black
10
102.937
20
-129.382
11
102.937
21
-130.548
0
LINE
8
Black
10
102.937
20
-130.548
11
104.103
21
-130.548
0
LINE
8
Black
10
108.631
20
-131.322
11
106.916
21
-131.322
0
LINE
8
Black
10
107.774
20
-131.322
11
107.774
21
-128.322
0
LINE
8
Black
10
107.774
20
-128.322
11
107.488
21
-128.751
0
LINE
8
Black
10
107.488
20
-128.751
11
107.202
21
-129.036
0
LINE
8
Black
10
107.202
20
-129.036
11
106.916
21
-129.179
0
LINE
8
Black
10
109.916
20
-131.036
11
110.059
21
-131.179
0
LINE
8
Black
10
110.059
20
-131.179
11
109.916
21
-131.322
0
LINE
8
Black
10
109.916
20
-131.322
11
109.774
21
-131.179
0
LINE
8
Black
10
109.774
20
-131.179
11
109.916
21
-131.036
0
LINE
8
Black
10
109.916
20
-131.036
11
109.916
21
-131.322
0
LINE
8
Black
10
112.631
20
-128.322
11
112.059
21
-128.322
0
LINE
8
Black
10
112.059
20
-128.322
11
111.774
21
-128.465
0
LINE
8
Black
10
111.774
20
-128.465
11
111.631
21
-128.608
0
LINE
8
Black
10
111.631
20
-128.608
11
111.345
21
-129.036
0
LINE
8
Black
10
111.345
20
-129.036
11
111.202
21
-129.608
0
LINE
8
Black
10
111.202
20
-129.608
11
111.202
21
-130.751
0
LINE
8
Black
10
111.202
20
-130.751
11
111.345
21
-131.036
0
LINE
8
Black
10
111.345
20
-131.036
11
111.488
21
-131.179
0
LINE
8
Black
10
111.488
20
-131.179
11
111.774
21
-131.322
0
LINE
8
Black
10
111.774
20
-131.322
11
112.345
21
-131.322
0
LINE
8
Black
10
112.345
20
-131.322
11
112.631
21
-131.179
0
LINE
8
Black
10
112.631
20
-131.179
11
112.774
21
-131.036
0
LINE
8
Black
10
112.774
20
-131.036
11
112.916
21
-130.751
0
LINE
8
Black
10
112.916
20
-130.751
11
112.916
21
-130.036
0
LINE
8
Black
10
112.916
20
-130.036
11
112.774
21
-129.751
0
LINE
8
Black
10
112.774
20
-129.751
11
112.631
21
-129.608
0
LINE
8
Black
10
112.631
20
-129.608
11
112.345
21
-129.465
0
LINE
8
Black
10
112.345
20
-129.465
11
111.774
21
-129.465
0
LINE
8
Black
10
111.774
20
-129.465
11
111.488
21
-129.608
0
LINE
8
Black
10
111.488
20
-129.608
11
111.345
21
-129.751
0
LINE
8
Black
10
111.345
20
-129.751
11
111.202
21
-130.036
0
LINE
8
Black
10
115.631
20
-128.322
11
114.202
21
-128.322
0
LINE
8
Black
10
114.202
20
-128.322
11
114.059
21
-129.751
0
LINE
8
Black
10
114.059
20
-129.751
11
114.202
21
-129.608
0
LINE
8
Black
10
114.202
20
-129.608
11
114.488
21
-129.465
0
LINE
8
Black
10
114.488
20
-129.465
11
115.202
21
-129.465
0
LINE
8
Black
10
115.202
20
-129.465
11
115.488
21
-129.608
0
LINE
8
Black
10
115.488
20
-129.608
11
115.631
21
-129.751
0
LINE
8
Black
10
115.631
20
-129.751
11
115.774
21
-130.036
0
LINE
8
Black
10
115.774
20
-130.036
11
115.774
21
-130.751
0
LINE
8
Black
10
115.774
20
-130.751
11
115.631
21
-131.036
0
LINE
8
Black
10
115.631
20
-131.036
11
115.488
21
-131.179
0
LINE
8
Black
10
115.488
20
-131.179
11
115.202
21
-131.322
0
LINE
8
Black
10
115.202
20
-131.322
11
114.488
21
-131.322
0
LINE
8
Black
10
114.488
20
-131.322
11
114.202
21
-131.179
0
LINE
8
Black
10
114.202
20
-131.179
11
114.059
21
-131.036
0
LINE
8
Black
10
117.059
20
-131.322
11
117.059
21
-129.322
0
LINE
8
Black
10
117.059
20
-129.608
11
117.202
21
-129.465
0
LINE
8
Black
10
117.202
20
-129.465
11
117.488
21
-129.322
0
LINE
8
Black
10
117.488
20
-129.322
11
117.916
21
-129.322
0
LINE
8
Black
10
117.916
20
-129.322
11
118.202
21
-129.465
0
LINE
8
Black
10
118.202
20
-129.465
11
118.345
21
-129.751
0
LINE
8
Black
10
118.345
20
-129.751
11
118.345
21
-131.322
0
LINE
8
Black
10
118.345
20
-129.751
11
118.488
21
-129.465
0
LINE
8
Black
10
118.488
20
-129.465
11
118.774
21
-129.322
0
LINE
8
Black
10
118.774
20
-129.322
11
119.202
21
-129.322
0
LINE
8
Black
10
119.202
20
-129.322
11
119.488
21
-129.465
0
LINE
8
Black
10
119.488
20
-129.465
11
119.631
21
-129.751
0
LINE
8
Black
10
119.631
20
-129.751
11
119.631
21
-131.322
0
LINE
8
Black
10
121.059
20
-131.322
11
121.059
21
-129.322
0
LINE
8
Black
10
121.059
20
-129.608
11
121.202
21
-129.465
0
LINE
8
Black
10
121.202
20
-129.465
11
121.488
21
-129.322
0
LINE
8
Black
10
121.488
20
-129.322
11
121.916
21
-129.322
0
LINE
8
Black
10
121.916
20
-129.322
11
122.202
21
-129.465
0
LINE
8
Black
10
122.202
20
-129.465
11
122.345
21
-129.751
0
LINE
8
Black
10
122.345
20
-129.751
11
122.345
21
-131.322
0
LINE
8
Black
10
122.345
20
-129.751
11
122.488
21
-129.465
0
LINE
8
Black
10
122.488
20
-129.465
11
122.774
21
-129.322
0
LINE
8
Black
10
122.774
20
-129.322
11
123.202
21
-129.322
0
LINE
8
Black
10
123.202
20
-129.322
11
123.488
21
-129.465
0
LINE
8
Black
10
123.488
20
-129.465
11
123.631
21
-129.751
0
LINE
8
Black
10
123.631
20
-129.751
11
123.631
21
-131.322
0
LINE
8
Black
10
129.488
20
-128.179
11
126.916
21
-132.036
0
LINE
8
Black
10
133.345
20
-128.322
11
133.631
21
-128.322
0
LINE
8
Black
10
133.631
20
-128.322
11
133.916
21
-128.465
0
LINE
8
Black
10
133.916
20
-128.465
11
134.059
21
-128.608
0
LINE
8
Black
10
134.059
20
-128.608
11
134.202
21
-128.894
0
LINE
8
Black
10
134.202
20
-128.894
11
134.345
21
-129.465
0
LINE
8
Black
10
134.345
20
-129.465
11
134.345
21
-130.179
0
LINE
8
Black
10
134.345
20
-130.179
11
134.202
21
-130.751
0
LINE
8
Black
10
134.202
20
-130.751
11
134.059
21
-131.036
0
LINE
8
Black
10
134.059
20
-131.036
11
133.916
21
-131.179
0
LINE
8
Black
10
133.916
20
-131.179
11
133.631
21
-131.322
0
LINE
8
Black
10
133.631
20
-131.322
11
133.345
21
-131.322
0
LINE
8
Black
10
133.345
20
-131.322
11
133.059
21
-131.179
0
LINE
8
Black
10
133.059
20
-131.179
11
132.916
21
-131.036
0
LINE
8
Black
10
132.916
20
-131.036
11
132.774
21
-130.751
0
LINE
8
Black
10
132.774
20
-130.751
11
132.631
21
-130.179
0
LINE
8
Black
10
132.631
20
-130.179
11
132.631
21
-129.465
0
LINE
8
Black
10
132.631
20
-129.465
11
132.774
21
-128.894
0
LINE
8
Black
10
132.774
20
-128.894
11
132.916
21
-128.608
0
LINE
8
Black
10
132.916
20
-128.608
11
133.059
21
-128.465
0
LINE
8
Black
10
133.059
20
-128.465
11
133.345
21
-128.322
0
LINE
8
Black
10
135.631
20
-131.036
11
135.774
21
-131.179
0
LINE
8
Black
10
135.774
20
-131.179
11
135.631
21
-131.322
0
LINE
8
Black
10
135.631
20
-131.322
11
135.488
21
-131.179
0
LINE
8
Black
10
135.488
20
-131.179
11
135.631
21
-131.036
0
LINE
8
Black
10
135.631
20
-131.036
11
135.631
21
-131.322
0
LINE
8
Black
10
137.631
20
-128.322
11
137.916
21
-128.322
0
LINE
8
Black
10
137.916
20
-128.322
11
138.202
21
-128.465
0
LINE
8
Black
10
138.202
20
-128.465
11
138.345
21
-128.608
0
LINE
8
Black
10
138.345
20
-128.608
11
138.488
21
-128.894
0
LINE
8
Black
10
138.488
20
-128.894
11
138.631
21
-129.465
0
LINE
8
Black
10
138.631
20
-129.465
11
138.631
21
-130.179
0
LINE
8
Black
10
138.631
20
-130.179
11
138.488
21
-130.751
0
LINE
8
Black
10
138.488
20
-130.751
11
138.345
21
-131.036
0
LINE
8
Black
10
138.345
20
-131.036
11
138.202
21
-131.179
0
LINE
8
Black
10
138.202
20
-131.179
11
137.916
21
-131.322
0
LINE
8
Black
10
137.916
20
-131.322
11
137.631
21
-131.322
0
LINE
8
Black
10
137.631
20
-131.322
11
137.345
21
-131.179
0
LINE
8
Black
10
137.345
20
-131.179
11
137.202
21
-131.036
0
LINE
8
Black
10
137.202
20
-131.036
11
137.059
21
-130.751
0
LINE
8
Black
10
137.059
20
-130.751
11
136.916
21
-130.179
0
LINE
8
Black
10
136.916
20
-130.179
11
136.916
21
-129.465
0
LINE
8
Black
10
136.916
20
-129.465
11
137.059
21
-128.894
0
LINE
8
Black
10
137.059
20
-128.894
11
137.202
21
-128.608
0
LINE
8
Black
10
137.202
20
-128.608
11
137.345
21
-128.465
0
LINE
8
Black
10
137.345
20
-128.465
11
137.631
21
-128.322
0
LINE
8
Black
10
141.202
20
-128.322
11
140.631
21
-128.322
0
LINE
8
Black
10
140.631
20
-128.322
11
140.345
21
-128.465
0
LINE
8
Black
10
140.345
20
-128.465
11
140.202
21
-128.608
0
LINE
8
Black
10
140.202
20
-128.608
11
139.916
21
-129.036
0
LINE
8
Black
10
139.916
20
-129.036
11
139.774
21
-129.608
0
LINE
8
Black
10
139.774
20
-129.608
11
139.774
21
-130.751
0
LINE
8
Black
10
139.774
20
-130.751
11
139.916
21
-131.036
0
LINE
8
Black
10
139.916
20
-131.036
11
140.059
21
-131.179
0
LINE
8
Black
10
140.059
20
-131.179
11
140.345
21
-131.322
0
LINE
8
Black
10
140.345
20
-131.322
11
140.916
21
-131.322
0
LINE
8
Black
10
140.916
20
-131.322
11
141.202
21
-131.179
0
LINE
8
Black
10
141.202
20
-131.179
11
141.345
21
-131.036
0
LINE
8
Black
10
141.345
20
-131.036
11
141.488
21
-130.751
0
LINE
8
Black
10
141.488
20
-130.751
11
141.488
21
-130.036
0
LINE
8
Black
10
141.488
20
-130.036
11
141.345
21
-129.751
0
LINE
8
Black
10
141.345
20
-129.751
11
141.202
21
-129.608
0
LINE
8
Black
10
141.202
20
-129.608
11
140.916
21
-129.465
0
LINE
8
Black
10
140.916
20
-129.465
11
140.345
21
-129.465
0
LINE
8
Black
10
140.345
20
-129.465
11
140.059
21
-129.608
0
LINE
8
Black
10
140.059
20
-129.608
11
139.916
21
-129.751
0
LINE
8
Black
10
139.916
20
-129.751
11
139.774
21
-130.036
0
LINE
8
Black
10
144.202
20
-128.322
11
142.774
21
-128.322
0
LINE
8
Black
10
142.774
20
-128.322
11
142.631
21
-129.751
0
LINE
8
Black
10
142.631
20
-129.751
11
142.774
21
-129.608
0
LINE
8
Black
10
142.774
20
-129.608
11
143.059
21
-129.465
0
LINE
8
Black
10
143.059
20
-129.465
11
143.774
21
-129.465
0
LINE
8
Black
10
143.774
20
-129.465
11
144.059
21
-129.608
0
LINE
8
Black
10
144.059
20
-129.608
11
144.202
21
-129.751
0
LINE
8
Black
10
144.202
20
-129.751
11
144.345
21
-130.036
0
LINE
8
Black
10
144.345
20
-130.036
11
144.345
21
-130.751
0
LINE
8
Black
10
144.345
20
-130.751
11
144.202
21
-131.036
0
LINE
8
Black
10
144.202
20
-131.036
11
144.059
21
-131.179
0
LINE
8
Black
10
144.059
20
-131.179
11
143.774
21
-131.322
0
LINE
8
Black
10
143.774
20
-131.322
11
143.059
21
-131.322
0
LINE
8
Black
10
143.059
20
-131.322
11
142.774
21
-131.179
0
LINE
8
Black
10
142.774
20
-131.179
11
142.631
21
-131.036
0
LINE
8
Black
10
145.488
20
-128.322
11
145.488
21
-128.894
0
LINE
8
Black
10
146.631
20
-128.322
11
146.631
21
-128.894
0
LINE
8
Black
10
151.059
20
-132.465
11
150.916
21
-132.322
0
LINE
8
Black
10
150.916
20
-132.322
11
150.631
21
-131.894
0
LINE
8
Black
10
150.631
20
-131.894
11
150.488
21
-131.608
0
LINE
8
Black
10
150.488
20
-131.608
11
150.345
21
-131.179
0
LINE
8
Black
10
150.345
20
-131.179
11
150.202
21
-130.465
0
LINE
8
Black
10
150.202
20
-130.465
11
150.202
21
-129.894
0
LINE
8
Black
10
150.202
20
-129.894
11
150.345
21
-129.179
0
LINE
8
Black
10
150.345
20
-129.179
11
150.488
21
-128.751
0
LINE
8
Black
10
150.488
20
-128.751
11
150.631
21
-128.465
0
LINE
8
Black
10
150.631
20
-128.465
11
150.916
21
-128.036
0
LINE
8
Black
10
150.916
20
-128.036
11
151.059
21
-127.894
0
LINE
8
Black
10
153.488
20
-128.322
11
152.916
21
-128.322
0
LINE
8
Black
10
152.916
20
-128.322
11
152.631
21
-128.465
0
LINE
8
Black
10
152.631
20
-128.465
11
152.488
21
-128.608
0
LINE
8
Black
10
152.488
20
-128.608
11
152.202
21
-129.036
0
LINE
8
Black
10
152.202
20
-129.036
11
152.059
21
-129.608
0
LINE
8
Black
10
152.059
20
-129.608
11
152.059
21
-130.751
0
LINE
8
Black
10
152.059
20
-130.751
11
152.202
21
-131.036
0
LINE
8
Black
10
152.202
20
-131.036
11
152.345
21
-131.179
0
LINE
8
Black
10
152.345
20
-131.179
11
152.631
21
-131.322
0
LINE
8
Black
10
152.631
20
-131.322
11
153.202
21
-131.322
0
LINE
8
Black
10
153.202
20
-131.322
11
153.488
21
-131.179
0
LINE
8
Black
10
153.488
20
-131.179
11
153.631
21
-131.036
0
LINE
8
Black
10
153.631
20
-131.036
11
153.774
21
-130.751
0
LINE
8
Black
10
153.774
20
-130.751
11
153.774
21
-130.036
0
LINE
8
Black
10
153.774
20
-130.036
11
153.631
21
-129.751
0
LINE
8
Black
10
153.631
20
-129.751
11
153.488
21
-129.608
0
LINE
8
Black
10
153.488
20
-129.608
11
153.202
21
-129.465
0
LINE
8
Black
10
153.202
20
-129.465
11
152.631
21
-129.465
0
LINE
8
Black
10
152.631
20
-129.465
11
152.345
21
-129.608
0
LINE
8
Black
10
152.345
20
-129.608
11
152.202
21
-129.751
0
LINE
8
Black
10
152.202
20
-129.751
11
152.059
21
-130.036
0
LINE
8
Black
10
157.345
20
-131.322
11
157.345
21
-128.322
0
LINE
8
Black
10
158.631
20
-131.322
11
158.631
21
-129.751
0
LINE
8
Black
10
158.631
20
-129.751
11
158.488
21
-129.465
0
LINE
8
Black
10
158.488
20
-129.465
11
158.202
21
-129.322
0
LINE
8
Black
10
158.202
20
-129.322
11
157.774
21
-129.322
0
LINE
8
Black
10
157.774
20
-129.322
11
157.488
21
-129.465
0
LINE
8
Black
10
157.488
20
-129.465
11
157.345
21
-129.608
0
LINE
8
Black
10
160.488
20
-131.322
11
160.202
21
-131.179
0
LINE
8
Black
10
160.202
20
-131.179
11
160.059
21
-131.036
0
LINE
8
Black
10
160.059
20
-131.036
11
159.916
21
-130.751
0
LINE
8
Black
10
159.916
20
-130.751
11
159.916
21
-129.894
0
LINE
8
Black
10
159.916
20
-129.894
11
160.059
21
-129.608
0
LINE
8
Black
10
160.059
20
-129.608
11
160.202
21
-129.465
0
LINE
8
Black
10
160.202
20
-129.465
11
160.488
21
-129.322
0
LINE
8
Black
10
160.488
20
-129.322
11
160.916
21
-129.322
0
LINE
8
Black
10
160.916
20
-129.322
11
161.202
21
-129.465
0
LINE
8
Black
10
161.202
20
-129.465
11
161.345
21
-129.608
0
LINE
8
Black
10
161.345
20
-129.608
11
161.488
21
-129.894
0
LINE
8
Black
10
161.488
20
-129.894
11
161.488
21
-130.751
0
LINE
8
Black
10
161.488
20
-130.751
11
161.345
21
-131.036
0
LINE
8
Black
10
161.345
20
-131.036
11
161.202
21
-131.179
0
LINE
8
Black
10
161.202
20
-131.179
11
160.916
21
-131.322
0
LINE
8
Black
10
160.916
20
-131.322
11
160.488
21
-131.322
0
LINE
8
Black
10
163.202
20
-131.322
11
162.916
21
-131.179
0
LINE
8
Black
10
162.916
20
-131.179
11
162.774
21
-130.894
0
LINE
8
Black
10
162.774
20
-130.894
11
162.774
21
-128.322
0
LINE
8
Black
10
165.488
20
-131.179
11
165.202
21
-131.322
0
LINE
8
Black
10
165.202
20
-131.322
11
164.631
21
-131.322
0
LINE
8
Black
10
164.631
20
-131.322
11
164.345
21
-131.179
0
LINE
8
Black
10
164.345
20
-131.179
11
164.202
21
-130.894
0
LINE
8
Black
10
164.202
20
-130.894
11
164.202
21
-129.751
0
LINE
8
Black
10
164.202
20
-129.751
11
164.345
21
-129.465
0
LINE
8
Black
10
164.345
20
-129.465
11
164.631
21
-129.322
0
LINE
8
Black
10
164.631
20
-129.322
11
165.202
21
-129.322
0
LINE
8
Black
10
165.202
20
-129.322
11
165.488
21
-129.465
0
LINE
8
Black
10
165.488
20
-129.465
11
165.631
21
-129.751
0
LINE
8
Black
10
165.631
20
-129.751
11
165.631
21
-130.036
0
LINE
8
Black
10
165.631
20
-130.036
11
164.202
21
-130.322
0
LINE
8
Black
10
166.774
20
-131.179
11
167.059
21
-131.322
0
LINE
8
Black
10
167.059
20
-131.322
11
167.631
21
-131.322
0
LINE
8
Black
10
167.631
20
-131.322
11
167.916
21
-131.179
0
LINE
8
Black
10
167.916
20
-131.179
11
168.059
21
-130.894
0
LINE
8
Black
10
168.059
20
-130.894
11
168.059
21
-130.751
0
LINE
8
Black
10
168.059
20
-130.751
11
167.916
21
-130.465
0
LINE
8
Black
10
167.916
20
-130.465
11
167.631
21
-130.322
0
LINE
8
Black
10
167.631
20
-130.322
11
167.202
21
-130.322
0
LINE
8
Black
10
167.202
20
-130.322
11
166.916
21
-130.179
0
LINE
8
Black
10
166.916
20
-130.179
11
166.774
21
-129.894
0
LINE
8
Black
10
166.774
20
-129.894
11
166.774
21
-129.751
0
LINE
8
Black
10
166.774
20
-129.751
11
166.916
21
-129.465
0
LINE
8
Black
10
166.916
20
-129.465
11
167.202
21
-129.322
0
LINE
8
Black
10
167.202
20
-129.322
11
167.631
21
-129.322
0
LINE
8
Black
10
167.631
20
-129.322
11
167.916
21
-129.465
0
LINE
8
Black
10
169.059
20
-132.465
11
169.202
21
-132.322
0
LINE
8
Black
10
169.202
20
-132.322
11
169.488
21
-131.894
0
LINE
8
Black
10
169.488
20
-131.894
11
169.631
21
-131.608
0
LINE
8
Black
10
169.631
20
-131.608
11
169.774
21
-131.179
0
LINE
8
Black
10
169.774
20
-131.179
11
169.916
21
-130.465
0
LINE
8
Black
10
169.916
20
-130.465
11
169.916
21
-129.894
0
LINE
8
Black
10
169.916
20
-129.894
11
169.774
21
-129.179
0
LINE
8
Black
10
169.774
20
-129.179
11
169.631
21
-128.751
0
LINE
8
Black
10
169.631
20
-128.751
11
169.488
21
-128.465
0
LINE
8
Black
10
169.488
20
-128.465
11
169.202
21
-128.036
0
LINE
8
Black
10
169.202
20
-128.036
11
169.059
21
-127.894
0
LINE
8
Black
10
102.995
20
-135.275
11
104.345
21
-133.925
0
LINE
8
Black
10
104.345
20
-133.925
11
102.995
21
-132.575
0
LINE
8
Black
10
102.995
20
-132.575
11
101.645
21
-133.925
0
LINE
8
Black
10
101.645
20
-133.925
11
102.995
21
-135.275
0
LINE
8
Black
10
106.916
20
-132.568
11
107.059
21
-132.425
0
LINE
8
Black
10
107.059
20
-132.425
11
107.345
21
-132.282
0
LINE
8
Black
10
107.345
20
-132.282
11
108.059
21
-132.282
0
LINE
8
Black
10
108.059
20
-132.282
11
108.345
21
-132.425
0
LINE
8
Black
10
108.345
20
-132.425
11
108.488
21
-132.568
0
LINE
8
Black
10
108.488
20
-132.568
11
108.631
21
-132.854
0
LINE
8
Black
10
108.631
20
-132.854
11
108.631
21
-133.139
0
LINE
8
Black
10
108.631
20
-133.139
11
108.488
21
-133.568
0
LINE
8
Black
10
108.488
20
-133.568
11
106.774
21
-135.282
0
LINE
8
Black
10
106.774
20
-135.282
11
108.631
21
-135.282
0
LINE
8
Black
10
109.916
20
-134.996
11
110.059
21
-135.139
0
LINE
8
Black
10
110.059
20
-135.139
11
109.916
21
-135.282
0
LINE
8
Black
10
109.916
20
-135.282
11
109.774
21
-135.139
0
LINE
8
Black
10
109.774
20
-135.139
11
109.916
21
-134.996
0
LINE
8
Black
10
109.916
20
-134.996
11
109.916
21
-135.282
0
LINE
8
Black
10
111.059
20
-132.282
11
113.059
21
-132.282
0
LINE
8
Black
10
113.059
20
-132.282
11
111.774
21
-135.282
0
LINE
8
Black
10
114.774
20
-132.282
11
115.059
21
-132.282
0
LINE
8
Black
10
115.059
20
-132.282
11
115.345
21
-132.425
0
LINE
8
Black
10
115.345
20
-132.425
11
115.488
21
-132.568
0
LINE
8
Black
10
115.488
20
-132.568
11
115.631
21
-132.854
0
LINE
8
Black
10
115.631
20
-132.854
11
115.774
21
-133.425
0
LINE
8
Black
10
115.774
20
-133.425
11
115.774
21
-134.139
0
LINE
8
Black
10
115.774
20
-134.139
11
115.631
21
-134.711
0
LINE
8
Black
10
115.631
20
-134.711
11
115.488
21
-134.996
0
LINE
8
Black
10
115.488
20
-134.996
11
115.345
21
-135.139
0
LINE
8
Black
10
115.345
20
-135.139
11
115.059
21
-135.282
0
LINE
8
Black
10
115.059
20
-135.282
11
114.774
21
-135.282
0
LINE
8
Black
10
114.774
20
-135.282
11
114.488
21
-135.139
0
LINE
8
Black
10
114.488
20
-135.139
11
114.345
21
-134.996
0
LINE
8
Black
10
114.345
20
-134.996
11
114.202
21
-134.711
0
LINE
8
Black
10
114.202
20
-134.711
11
114.059
21
-134.139
0
LINE
8
Black
10
114.059
20
-134.139
11
114.059
21
-133.425
0
LINE
8
Black
10
114.059
20
-133.425
11
114.202
21
-132.854
0
LINE
8
Black
10
114.202
20
-132.854
11
114.345
21
-132.568
0
LINE
8
Black
10
114.345
20
-132.568
11
114.488
21
-132.425
0
LINE
8
Black
10
114.488
20
-132.425
11
114.774
21
-132.282
0
LINE
8
Black
10
117.059
20
-135.282
11
117.059
21
-133.282
0
LINE
8
Black
10
117.059
20
-133.568
11
117.202
21
-133.425
0
LINE
8
Black
10
117.202
20
-133.425
11
117.488
21
-133.282
0
LINE
8
Black
10
117.488
20
-133.282
11
117.916
21
-133.282
0
LINE
8
Black
10
117.916
20
-133.282
11
118.202
21
-133.425
0
LINE
8
Black
10
118.202
20
-133.425
11
118.345
21
-133.711
0
LINE
8
Black
10
118.345
20
-133.711
11
118.345
21
-135.282
0
LINE
8
Black
10
118.345
20
-133.711
11
118.488
21
-133.425
0
LINE
8
Black
10
118.488
20
-133.425
11
118.774
21
-133.282
0
LINE
8
Black
10
118.774
20
-133.282
11
119.202
21
-133.282
0
LINE
8
Black
10
119.202
20
-133.282
11
119.488
21
-133.425
0
LINE
8
Black
10
119.488
20
-133.425
11
119.631
21
-133.711
0
LINE
8
Black
10
119.631
20
-133.711
11
119.631
21
-135.282
0
LINE
8
Black
10
121.059
20
-135.282
11
121.059
21
-133.282
0
LINE
8
Black
10
121.059
20
-133.568
11
121.202
21
-133.425
0
LINE
8
Black
10
121.202
20
-133.425
11
121.488
21
-133.282
0
LINE
8
Black
10
121.488
20
-133.282
11
121.916
21
-133.282
0
LINE
8
Black
10
121.916
20
-133.282
11
122.202
21
-133.425
0
LINE
8
Black
10
122.202
20
-133.425
11
122.345
21
-133.711
0
LINE
8
Black
10
122.345
20
-133.711
11
122.345
21
-135.282
0
LINE
8
Black
10
122.345
20
-133.711
11
122.488
21
-133.425
0
LINE
8
Black
10
122.488
20
-133.425
11
122.774
21
-133.282
0
LINE
8
Black
10
122.774
20
-133.282
11
123.202
21
-133.282
0
LINE
8
Black
10
123.202
20
-133.282
11
123.488
21
-133.425
0
LINE
8
Black
10
123.488
20
-133.425
11
123.631
21
-133.711
0
LINE
8
Black
10
123.631
20
-133.711
11
123.631
21
-135.282
0
LINE
8
Black
10
129.488
20
-132.139
11
126.916
21
-135.996
0
LINE
8
Black
10
133.345
20
-132.282
11
133.631
21
-132.282
0
LINE
8
Black
10
133.631
20
-132.282
11
133.916
21
-132.425
0
LINE
8
Black
10
133.916
20
-132.425
11
134.059
21
-132.568
0
LINE
8
Black
10
134.059
20
-132.568
11
134.202
21
-132.854
0
LINE
8
Black
10
134.202
20
-132.854
11
134.345
21
-133.425
0
LINE
8
Black
10
134.345
20
-133.425
11
134.345
21
-134.139
0
LINE
8
Black
10
134.345
20
-134.139
11
134.202
21
-134.711
0
LINE
8
Black
10
134.202
20
-134.711
11
134.059
21
-134.996
0
LINE
8
Black
10
134.059
20
-134.996
11
133.916
21
-135.139
0
LINE
8
Black
10
133.916
20
-135.139
11
133.631
21
-135.282
0
LINE
8
Black
10
133.631
20
-135.282
11
133.345
21
-135.282
0
LINE
8
Black
10
133.345
20
-135.282
11
133.059
21
-135.139
0
LINE
8
Black
10
133.059
20
-135.139
11
132.916
21
-134.996
0
LINE
8
Black
10
132.916
20
-134.996
11
132.774
21
-134.711
0
LINE
8
Black
10
132.774
20
-134.711
11
132.631
21
-134.139
0
LINE
8
Black
10
132.631
20
-134.139
11
132.631
21
-133.425
0
LINE
8
Black
10
132.631
20
-133.425
11
132.774
21
-132.854
0
LINE
8
Black
10
132.774
20
-132.854
11
132.916
21
-132.568
0
LINE
8
Black
10
132.916
20
-132.568
11
133.059
21
-132.425
0
LINE
8
Black
10
133.059
20
-132.425
11
133.345
21
-132.282
0
LINE
8
Black
10
135.631
20
-134.996
11
135.774
21
-135.139
0
LINE
8
Black
10
135.774
20
-135.139
11
135.631
21
-135.282
0
LINE
8
Black
10
135.631
20
-135.282
11
135.488
21
-135.139
0
LINE
8
Black
10
135.488
20
-135.139
11
135.631
21
-134.996
0
LINE
8
Black
10
135.631
20
-134.996
11
135.631
21
-135.282
0
LINE
8
Black
10
138.631
20
-135.282
11
136.916
21
-135.282
0
LINE
8
Black
10
137.774
20
-135.282
11
137.774
21
-132.282
0
LINE
8
Black
10
137.774
20
-132.282
11
137.488
21
-132.711
0
LINE
8
Black
10
137.488
20
-132.711
11
137.202
21
-132.996
0
LINE
8
Black
10
137.202
20
-132.996
11
136.916
21
-133.139
0
LINE
8
Black
10
140.488
20
-132.282
11
140.774
21
-132.282
0
LINE
8
Black
10
140.774
20
-132.282
11
141.059
21
-132.425
0
LINE
8
Black
10
141.059
20
-132.425
11
141.202
21
-132.568
0
LINE
8
Black
10
141.202
20
-132.568
11
141.345
21
-132.854
0
LINE
8
Black
10
141.345
20
-132.854
11
141.488
21
-133.425
0
LINE
8
Black
10
141.488
20
-133.425
11
141.488
21
-134.139
0
LINE
8
Black
10
141.488
20
-134.139
11
141.345
21
-134.711
0
LINE
8
Black
10
141.345
20
-134.711
11
141.202
21
-134.996
0
LINE
8
Black
10
141.202
20
-134.996
11
141.059
21
-135.139
0
LINE
8
Black
10
141.059
20
-135.139
11
140.774
21
-135.282
0
LINE
8
Black
10
140.774
20
-135.282
11
140.488
21
-135.282
0
LINE
8
Black
10
140.488
20
-135.282
11
140.202
21
-135.139
0
LINE
8
Black
10
140.202
20
-135.139
11
140.059
21
-134.996
0
LINE
8
Black
10
140.059
20
-134.996
11
139.916
21
-134.711
0
LINE
8
Black
10
139.916
20
-134.711
11
139.774
21
-134.139
0
LINE
8
Black
10
139.774
20
-134.139
11
139.774
21
-133.425
0
LINE
8
Black
10
139.774
20
-133.425
11
139.916
21
-132.854
0
LINE
8
Black
10
139.916
20
-132.854
11
140.059
21
-132.568
0
LINE
8
Black
10
140.059
20
-132.568
11
140.202
21
-132.425
0
LINE
8
Black
10
140.202
20
-132.425
11
140.488
21
-132.282
0
LINE
8
Black
10
144.059
20
-132.282
11
143.488
21
-132.282
0
LINE
8
Black
10
143.488
20
-132.282
11
143.202
21
-132.425
0
LINE
8
Black
10
143.202
20
-132.425
11
143.059
21
-132.568
0
LINE
8
Black
10
143.059
20
-132.568
11
142.774
21
-132.996
0
LINE
8
Black
10
142.774
20
-132.996
11
142.631
21
-133.568
0
LINE
8
Black
10
142.631
20
-133.568
11
142.631
21
-134.711
0
LINE
8
Black
10
142.631
20
-134.711
11
142.774
21
-134.996
0
LINE
8
Black
10
142.774
20
-134.996
11
142.916
21
-135.139
0
LINE
8
Black
10
142.916
20
-135.139
11
143.202
21
-135.282
0
LINE
8
Black
10
143.202
20
-135.282
11
143.774
21
-135.282
0
LINE
8
Black
10
143.774
20
-135.282
11
144.059
21
-135.139
0
LINE
8
Black
10
144.059
20
-135.139
11
144.202
21
-134.996
0
LINE
8
Black
10
144.202
20
-134.996
11
144.345
21
-134.711
0
LINE
8
Black
10
144.345
20
-134.711
11
144.345
21
-133.996
0
LINE
8
Black
10
144.345
20
-133.996
11
144.202
21
-133.711
0
LINE
8
Black
10
144.202
20
-133.711
11
144.059
21
-133.568
0
LINE
8
Black
10
144.059
20
-133.568
11
143.774
21
-133.425
0
LINE
8
Black
10
143.774
20
-133.425
11
143.202
21
-133.425
0
LINE
8
Black
10
143.202
20
-133.425
11
142.916
21
-133.568
0
LINE
8
Black
10
142.916
20
-133.568
11
142.774
21
-133.711
0
LINE
8
Black
10
142.774
20
-133.711
11
142.631
21
-133.996
0
LINE
8
Black
10
145.488
20
-132.282
11
145.488
21
-132.854
0
LINE
8
Black
10
146.631
20
-132.282
11
146.631
21
-132.854
0
LINE
8
Black
10
151.059
20
-136.425
11
150.916
21
-136.282
0
LINE
8
Black
10
150.916
20
-136.282
11
150.631
21
-135.854
0
LINE
8
Black
10
150.631
20
-135.854
11
150.488
21
-135.568
0
LINE
8
Black
10
150.488
20
-135.568
11
150.345
21
-135.139
0
LINE
8
Black
10
150.345
20
-135.139
11
150.202
21
-134.425
0
LINE
8
Black
10
150.202
20
-134.425
11
150.202
21
-133.854
0
LINE
8
Black
10
150.202
20
-133.854
11
150.345
21
-133.139
0
LINE
8
Black
10
150.345
20
-133.139
11
150.488
21
-132.711
0
LINE
8
Black
10
150.488
20
-132.711
11
150.631
21
-132.425
0
LINE
8
Black
10
150.631
20
-132.425
11
150.916
21
-131.996
0
LINE
8
Black
10
150.916
20
-131.996
11
151.059
21
-131.854
0
LINE
8
Black
10
153.488
20
-133.282
11
153.488
21
-135.282
0
LINE
8
Black
10
152.774
20
-132.139
11
152.059
21
-134.282
0
LINE
8
Black
10
152.059
20
-134.282
11
153.916
21
-134.282
0
LINE
8
Black
10
157.345
20
-135.282
11
157.345
21
-132.282
0
LINE
8
Black
10
158.631
20
-135.282
11
158.631
21
-133.711
0
LINE
8
Black
10
158.631
20
-133.711
11
158.488
21
-133.425
0
LINE
8
Black
10
158.488
20
-133.425
11
158.202
21
-133.282
0
LINE
8
Black
10
158.202
20
-133.282
11
157.774
21
-133.282
0
LINE
8
Black
10
157.774
20
-133.282
11
157.488
21
-133.425
0
LINE
8
Black
10
157.488
20
-133.425
11
157.345
21
-133.568
0
LINE
8
Black
10
160.488
20
-135.282
11
160.202
21
-135.139
0
LINE
8
Black
10
160.202
20
-135.139
11
160.059
21
-134.996
0
LINE
8
Black
10
160.059
20
-134.996
11
159.916
21
-134.711
0
LINE
8
Black
10
159.916
20
-134.711
11
159.916
21
-133.854
0
LINE
8
Black
10
159.916
20
-133.854
11
160.059
21
-133.568
0
LINE
8
Black
10
160.059
20
-133.568
11
160.202
21
-133.425
0
LINE
8
Black
10
160.202
20
-133.425
11
160.488
21
-133.282
0
LINE
8
Black
10
160.488
20
-133.282
11
160.916
21
-133.282
0
LINE
8
Black
10
160.916
20
-133.282
11
161.202
21
-133.425
0
LINE
8
Black
10
161.202
20
-133.425
11
161.345
21
-133.568
0
LINE
8
Black
10
161.345
20
-133.568
11
161.488
21
-133.854
0
LINE
8
Black
10
161.488
20
-133.854
11
161.488
21
-134.711
0
LINE
8
Black
10
161.488
20
-134.711
11
161.345
21
-134.996
0
LINE
8
Black
10
161.345
20
-134.996
11
161.202
21
-135.139
0
LINE
8
Black
10
161.202
20
-135.139
11
160.916
21
-135.282
0
LINE
8
Black
10
160.916
20
-135.282
11
160.488
21
-135.282
0
LINE
8
Black
10
163.202
20
-135.282
11
162.916
21
-135.139
0
LINE
8
Black
10
162.916
20
-135.139
11
162.774
21
-134.854
0
LINE
8
Black
10
162.774
20
-134.854
11
162.774
21
-132.282
0
LINE
8
Black
10
165.488
20
-135.139
11
165.202
21
-135.282
0
LINE
8
Black
10
165.202
20
-135.282
11
164.631
21
-135.282
0
LINE
8
Black
10
164.631
20
-135.282
11
164.345
21
-135.139
0
LINE
8
Black
10
164.345
20
-135.139
11
164.202
21
-134.854
0
LINE
8
Black
10
164.202
20
-134.854
11
164.202
21
-133.711
0
LINE
8
Black
10
164.202
20
-133.711
11
164.345
21
-133.425
0
LINE
8
Black
10
164.345
20
-133.425
11
164.631
21
-133.282
0
LINE
8
Black
10
164.631
20
-133.282
11
165.202
21
-133.282
0
LINE
8
Black
10
165.202
20
-133.282
11
165.488
21
-133.425
0
LINE
8
Black
10
165.488
20
-133.425
11
165.631
21
-133.711
0
LINE
8
Black
10
165.631
20
-133.711
11
165.631
21
-133.996
0
LINE
8
Black
10
165.631
20
-133.996
11
164.202
21
-134.282
0
LINE
8
Black
10
166.774
20
-135.139
11
167.059
21
-135.282
0
LINE
8
Black
10
167.059
20
-135.282
11
167.631
21
-135.282
0
LINE
8
Black
10
167.631
20
-135.282
11
167.916
21
-135.139
0
LINE
8
Black
10
167.916
20
-135.139
11
168.059
21
-134.854
0
LINE
8
Black
10
168.059
20
-134.854
11
168.059
21
-134.711
0
LINE
8
Black
10
168.059
20
-134.711
11
167.916
21
-134.425
0
LINE
8
Black
10
167.916
20
-134.425
11
167.631
21
-134.282
0
LINE
8
Black
10
167.631
20
-134.282
11
167.202
21
-134.282
0
LINE
8
Black
10
167.202
20
-134.282
11
166.916
21
-134.139
0
LINE
8
Black
10
166.916
20
-134.139
11
166.774
21
-133.854
0
LINE
8
Black
10
166.774
20
-133.854
11
166.774
21
-133.711
0
LINE
8
Black
10
166.774
20
-133.711
11
166.916
21
-133.425
0
LINE
8
Black
10
166.916
20
-133.425
11
167.202
21
-133.282
0
LINE
8
Black
10
167.202
20
-133.282
11
167.631
21
-133.282
0
LINE
8
Black
10
167.631
20
-133.282
11
167.916
21
-133.425
0
LINE
8
Black
10
169.059
20
-136.425
11
169.202
21
-136.282
0
LINE
8
Black
10
169.202
20
-136.282
11
169.488
21
-135.854
0
LINE
8
Black
10
169.488
20
-135.854
11
169.631
21
-135.568
0
LINE
8
Black
10
169.631
20
-135.568
11
169.774
21
-135.139
0
LINE
8
Black
10
169.774
20
-135.139
11
169.916
21
-134.425
0
LINE
8
Black
10
169.916
20
-134.425
11
169.916
21
-133.854
0
LINE
8
Black
10
169.916
20
-133.854
11
169.774
21
-133.139
0
LINE
8
Black
10
169.774
20
-133.139
11
169.631
21
-132.711
0
LINE
8
Black
10
169.631
20
-132.711
11
169.488
21
-132.425
0
LINE
8
Black
10
169.488
20
-132.425
11
169.202
21
-131.996
0
LINE
8
Black
10
169.202
20
-131.996
11
169.059
21
-131.854
0
LINE
8
Black
10
98.245
20
-134.875
11
104.345
21
-140.975
0
LINE
8
Black
10
104.345
20
-134.875
11
98.245
21
-140.975
0
CIRCLE
8
Black
10
101.295
20
-137.925
40
3.05
0
LINE
8
Black
10
108.345
20
-136.282
11
107.774
21
-136.282
0
LINE
8
Black
10
107.774
20
-136.282
11
107.488
21
-136.425
0
LINE
8
Black
10
107.488
20
-136.425
11
107.345
21
-136.568
0
LINE
8
Black
10
107.345
20
-136.568
11
107.059
21
-136.996
0
LINE
8
Black
10
107.059
20
-136.996
11
106.916
21
-137.568
0
LINE
8
Black
10
106.916
20
-137.568
11
106.916
21
-138.711
0
LINE
8
Black
10
106.916
20
-138.711
11
107.059
21
-138.996
0
LINE
8
Black
10
107.059
20
-138.996
11
107.202
21
-139.139
0
LINE
8
Black
10
107.202
20
-139.139
11
107.488
21
-139.282
0
LINE
8
Black
10
107.488
20
-139.282
11
108.059
21
-139.282
0
LINE
8
Black
10
108.059
20
-139.282
11
108.345
21
-139.139
0
LINE
8
Black
10
108.345
20
-139.139
11
108.488
21
-138.996
0
LINE
8
Black
10
108.488
20
-138.996
11
108.631
21
-138.711
0
LINE
8
Black
10
108.631
20
-138.711
11
108.631
21
-137.996
0
LINE
8
Black
10
108.631
20
-137.996
11
108.488
21
-137.711
0
LINE
8
Black
10
108.488
20
-137.711
11
108.345
21
-137.568
0
LINE
8
Black
10
108.345
20
-137.568
11
108.059
21
-137.425
0
LINE
8
Black
10
108.059
20
-137.425
11
107.488
21
-137.425
0
LINE
8
Black
10
107.488
20
-137.425
11
107.202
21
-137.568
0
LINE
8
Black
10
107.202
20
-137.568
11
107.059
21
-137.711
0
LINE
8
Black
10
107.059
20
-137.711
11
106.916
21
-137.996
0
LINE
8
Black
10
109.916
20
-138.996
11
110.059
21
-139.139
0
LINE
8
Black
10
110.059
20
-139.139
11
109.916
21
-139.282
0
LINE
8
Black
10
109.916
20
-139.282
11
109.774
21
-139.139
0
LINE
8
Black
10
109.774
20
-139.139
11
109.916
21
-138.996
0
LINE
8
Black
10
109.916
20
-138.996
11
109.916
21
-139.282
0
LINE
8
Black
10
112.916
20
-139.282
11
111.202
21
-139.282
0
LINE
8
Black
10
112.059
20
-139.282
11
112.059
21
-136.282
0
LINE
8
Black
10
112.059
20
-136.282
11
111.774
21
-136.711
0
LINE
8
Black
10
111.774
20
-136.711
11
111.488
21
-136.996
0
LINE
8
Black
10
111.488
20
-136.996
11
111.202
21
-137.139
0
LINE
8
Black
10
114.774
20
-136.282
11
115.059
21
-136.282
0
LINE
8
Black
10
115.059
20
-136.282
11
115.345
21
-136.425
0
LINE
8
Black
10
115.345
20
-136.425
11
115.488
21
-136.568
0
LINE
8
Black
10
115.488
20
-136.568
11
115.631
21
-136.854
0
LINE
8
Black
10
115.631
20
-136.854
11
115.774
21
-137.425
0
LINE
8
Black
10
115.774
20
-137.425
11
115.774
21
-138.139
0
LINE
8
Black
10
115.774
20
-138.139
11
115.631
21
-138.711
0
LINE
8
Black
10
115.631
20
-138.711
11
115.488
21
-138.996
0
LINE
8
Black
10
115.488
20
-138.996
11
115.345
21
-139.139
0
LINE
8
Black
10
115.345
20
-139.139
11
115.059
21
-139.282
0
LINE
8
Black
10
115.059
20
-139.282
11
114.774
21
-139.282
0
LINE
8
Black
10
114.774
20
-139.282
11
114.488
21
-139.139
0
LINE
8
Black
10
114.488
20
-139.139
11
114.345
21
-138.996
0
LINE
8
Black
10
114.345
20
-138.996
11
114.202
21
-138.711
0
LINE
8
Black
10
114.202
20
-138.711
11
114.059
21
-138.139
0
LINE
8
Black
10
114.059
20
-138.139
11
114.059
21
-137.425
0
LINE
8
Black
10
114.059
20
-137.425
11
114.202
21
-136.854
0
LINE
8
Black
10
114.202
20
-136.854
11
114.345
21
-136.568
0
LINE
8
Black
10
114.345
20
-136.568
11
114.488
21
-136.425
0
LINE
8
Black
10
114.488
20
-136.425
11
114.774
21
-136.282
0
LINE
8
Black
10
117.059
20
-139.282
11
117.059
21
-137.282
0
LINE
8
Black
10
117.059
20
-137.568
11
117.202
21
-137.425
0
LINE
8
Black
10
117.202
20
-137.425
11
117.488
21
-137.282
0
LINE
8
Black
10
117.488
20
-137.282
11
117.916
21
-137.282
0
LINE
8
Black
10
117.916
20
-137.282
11
118.202
21
-137.425
0
LINE
8
Black
10
118.202
20
-137.425
11
118.345
21
-137.711
0
LINE
8
Black
10
118.345
20
-137.711
11
118.345
21
-139.282
0
LINE
8
Black
10
118.345
20
-137.711
11
118.488
21
-137.425
0
LINE
8
Black
10
118.488
20
-137.425
11
118.774
21
-137.282
0
LINE
8
Black
10
118.774
20
-137.282
11
119.202
21
-137.282
0
LINE
8
Black
10
119.202
20
-137.282
11
119.488
21
-137.425
0
LINE
8
Black
10
119.488
20
-137.425
11
119.631
21
-137.711
0
LINE
8
Black
10
119.631
20
-137.711
11
119.631
21
-139.282
0
LINE
8
Black
10
121.059
20
-139.282
11
121.059
21
-137.282
0
LINE
8
Black
10
121.059
20
-137.568
11
121.202
21
-137.425
0
LINE
8
Black
10
121.202
20
-137.425
11
121.488
21
-137.282
0
LINE
8
Black
10
121.488
20
-137.282
11
121.916
21
-137.282
0
LINE
8
Black
10
121.916
20
-137.282
11
122.202
21
-137.425
0
LINE
8
Black
10
122.202
20
-137.425
11
122.345
21
-137.711
0
LINE
8
Black
10
122.345
20
-137.711
11
122.345
21
-139.282
0
LINE
8
Black
10
122.345
20
-137.711
11
122.488
21
-137.425
0
LINE
8
Black
10
122.488
20
-137.425
11
122.774
21
-137.282
0
LINE
8
Black
10
122.774
20
-137.282
11
123.202
21
-137.282
0
LINE
8
Black
10
123.202
20
-137.282
11
123.488
21
-137.425
0
LINE
8
Black
10
123.488
20
-137.425
11
123.631
21
-137.711
0
LINE
8
Black
10
123.631
20
-137.711
11
123.631
21
-139.282
0
LINE
8
Black
10
129.488
20
-136.139
11
126.916
21
-139.996
0
LINE
8
Black
10
133.345
20
-136.282
11
133.631
21
-136.282
0
LINE
8
Black
10
133.631
20
-136.282
11
133.916
21
-136.425
0
LINE
8
Black
10
133.916
20
-136.425
11
134.059
21
-136.568
0
LINE
8
Black
10
134.059
20
-136.568
11
134.202
21
-136.854
0
LINE
8
Black
10
134.202
20
-136.854
11
134.345
21
-137.425
0
LINE
8
Black
10
134.345
20
-137.425
11
134.345
21
-138.139
0
LINE
8
Black
10
134.345
20
-138.139
11
134.202
21
-138.711
0
LINE
8
Black
10
134.202
20
-138.711
11
134.059
21
-138.996
0
LINE
8
Black
10
134.059
20
-138.996
11
133.916
21
-139.139
0
LINE
8
Black
10
133.916
20
-139.139
11
133.631
21
-139.282
0
LINE
8
Black
10
133.631
20
-139.282
11
133.345
21
-139.282
0
LINE
8
Black
10
133.345
20
-139.282
11
133.059
21
-139.139
0
LINE
8
Black
10
133.059
20
-139.139
11
132.916
21
-138.996
0
LINE
8
Black
10
132.916
20
-138.996
11
132.774
21
-138.711
0
LINE
8
Black
10
132.774
20
-138.711
11
132.631
21
-138.139
0
LINE
8
Black
10
132.631
20
-138.139
11
132.631
21
-137.425
0
LINE
8
Black
10
132.631
20
-137.425
11
132.774
21
-136.854
0
LINE
8
Black
10
132.774
20
-136.854
11
132.916
21
-136.568
0
LINE
8
Black
10
132.916
20
-136.568
11
133.059
21
-136.425
0
LINE
8
Black
10
133.059
20
-136.425
11
133.345
21
-136.282
0
LINE
8
Black
10
135.631
20
-138.996
11
135.774
21
-139.139
0
LINE
8
Black
10
135.774
20
-139.139
11
135.631
21
-139.282
0
LINE
8
Black
10
135.631
20
-139.282
11
135.488
21
-139.139
0
LINE
8
Black
10
135.488
20
-139.139
11
135.631
21
-138.996
0
LINE
8
Black
10
135.631
20
-138.996
11
135.631
21
-139.282
0
LINE
8
Black
10
136.916
20
-136.568
11
137.059
21
-136.425
0
LINE
8
Black
10
137.059
20
-136.425
11
137.345
21
-136.282
0
LINE
8
Black
10
137.345
20
-136.282
11
138.059
21
-136.282
0
LINE
8
Black
10
138.059
20
-136.282
11
138.345
21
-136.425
0
LINE
8
Black
10
138.345
20
-136.425
11
138.488
21
-136.568
0
LINE
8
Black
10
138.488
20
-136.568
11
138.631
21
-136.854
0
LINE
8
Black
10
138.631
20
-136.854
11
138.631
21
-137.139
0
LINE
8
Black
10
138.631
20
-137.139
11
138.488
21
-137.568
0
LINE
8
Black
10
138.488
20
-137.568
11
136.774
21
-139.282
0
LINE
8
Black
10
136.774
20
-139.282
11
138.631
21
-139.282
0
LINE
8
Black
10
141.202
20
-137.282
11
141.202
21
-139.282
0
LINE
8
Black
10
140.488
20
-136.139
11
139.774
21
-138.282
0
LINE
8
Black
10
139.774
20
-138.282
11
141.631
21
-138.282
0
LINE
8
Black
10
143.345
20
-136.282
11
143.631
21
-136.282
0
LINE
8
Black
10
143.631
20
-136.282
11
143.916
21
-136.425
0
LINE
8
Black
10
143.916
20
-136.425
11
144.059
21
-136.568
0
LINE
8
Black
10
144.059
20
-136.568
11
144.202
21
-136.854
0
LINE
8
Black
10
144.202
20
-136.854
11
144.345
21
-137.425
0
LINE
8
Black
10
144.345
20
-137.425
11
144.345
21
-138.139
0
LINE
8
Black
10
144.345
20
-138.139
11
144.202
21
-138.711
0
LINE
8
Black
10
144.202
20
-138.711
11
144.059
21
-138.996
0
LINE
8
Black
10
144.059
20
-138.996
11
143.916
21
-139.139
0
LINE
8
Black
10
143.916
20
-139.139
11
143.631
21
-139.282
0
LINE
8
Black
10
143.631
20
-139.282
11
143.345
21
-139.282
0
LINE
8
Black
10
143.345
20
-139.282
11
143.059
21
-139.139
0
LINE
8
Black
10
143.059
20
-139.139
11
142.916
21
-138.996
0
LINE
8
Black
10
142.916
20
-138.996
11
142.774
21
-138.711
0
LINE
8
Black
10
142.774
20
-138.711
11
142.631
21
-138.139
0
LINE
8
Black
10
142.631
20
-138.139
11
142.631
21
-137.425
0
LINE
8
Black
10
142.631
20
-137.425
11
142.774
21
-136.854
0
LINE
8
Black
10
142.774
20
-136.854
11
142.916
21
-136.568
0
LINE
8
Black
10
142.916
20
-136.568
11
143.059
21
-136.425
0
LINE
8
Black
10
143.059
20
-136.425
11
143.345
21
-136.282
0
LINE
8
Black
10
145.488
20
-136.282
11
145.488
21
-136.854
0
LINE
8
Black
10
146.631
20
-136.282
11
146.631
21
-136.854
0
LINE
8
Black
10
151.059
20
-140.425
11
150.916
21
-140.282
0
LINE
8
Black
10
150.916
20
-140.282
11
150.631
21
-139.854
0
LINE
8
Black
10
150.631
20
-139.854
11
150.488
21
-139.568
0
LINE
8
Black
10
150.488
20
-139.568
11
150.345
21
-139.139
0
LINE
8
Black
10
150.345
20
-139.139
11
150.202
21
-138.425
0
LINE
8
Black
10
150.202
20
-138.425
11
150.202
21
-137.854
0
LINE
8
Black
10
150.202
20
-137.854
11
150.345
21
-137.139
0
LINE
8
Black
10
150.345
20
-137.139
11
150.488
21
-136.711
0
LINE
8
Black
10
150.488
20
-136.711
11
150.631
21
-136.425
0
LINE
8
Black
10
150.631
20
-136.425
11
150.916
21
-135.996
0
LINE
8
Black
10
150.916
20
-135.996
11
151.059
21
-135.854
0
LINE
8
Black
10
153.488
20
-137.282
11
153.488
21
-139.282
0
LINE
8
Black
10
152.774
20
-136.139
11
152.059
21
-138.282
0
LINE
8
Black
10
152.059
20
-138.282
11
153.916
21
-138.282
0
LINE
8
Black
10
157.345
20
-139.282
11
157.345
21
-136.282
0
LINE
8
Black
10
158.631
20
-139.282
11
158.631
21
-137.711
0
LINE
8
Black
10
158.631
20
-137.711
11
158.488
21
-137.425
0
LINE
8
Black
10
158.488
20
-137.425
11
158.202
21
-137.282
0
LINE
8
Black
10
158.202
20
-137.282
11
157.774
21
-137.282
0
LINE
8
Black
10
157.774
20
-137.282
11
157.488
21
-137.425
0
LINE
8
Black
10
157.488
20
-137.425
11
157.345
21
-137.568
0
LINE
8
Black
10
160.488
20
-139.282
11
160.202
21
-139.139
0
LINE
8
Black
10
160.202
20
-139.139
11
160.059
21
-138.996
0
LINE
8
Black
10
160.059
20
-138.996
11
159.916
21
-138.711
0
LINE
8
Black
10
159.916
20
-138.711
11
159.916
21
-137.854
0
LINE
8
Black
10
159.916
20
-137.854
11
160.059
21
-137.568
0
LINE
8
Black
10
160.059
20
-137.568
11
160.202
21
-137.425
0
LINE
8
Black
10
160.202
20
-137.425
11
160.488
21
-137.282
0
LINE
8
Black
10
160.488
20
-137.282
11
160.916
21
-137.282
0
LINE
8
Black
10
160.916
20
-137.282
11
161.202
21
-137.425
0
LINE
8
Black
10
161.202
20
-137.425
11
161.345
21
-137.568
0
LINE
8
Black
10
161.345
20
-137.568
11
161.488
21
-137.854
0
LINE
8
Black
10
161.488
20
-137.854
11
161.488
21
-138.711
0
LINE
8
Black
10
161.488
20
-138.711
11
161.345
21
-138.996
0
LINE
8
Black
10
161.345
20
-138.996
11
161.202
21
-139.139
0
LINE
8
Black
10
161.202
20
-139.139
11
160.916
21
-139.282
0
LINE
8
Black
10
160.916
20
-139.282
11
160.488
21
-139.282
0
LINE
8
Black
10
163.202
20
-139.282
11
162.916
21
-139.139
0
LINE
8
Black
10
162.916
20
-139.139
11
162.774
21
-138.854
0
LINE
8
Black
10
162.774
20
-138.854
11
162.774
21
-136.282
0
LINE
8
Black
10
165.488
20
-139.139
11
165.202
21
-139.282
0
LINE
8
Black
10
165.202
20
-139.282
11
164.631
21
-139.282
0
LINE
8
Black
10
164.631
20
-139.282
11
164.345
21
-139.139
0
LINE
8
Black
10
164.345
20
-139.139
11
164.202
21
-138.854
0
LINE
8
Black
10
164.202
20
-138.854
11
164.202
21
-137.711
0
LINE
8
Black
10
164.202
20
-137.711
11
164.345
21
-137.425
0
LINE
8
Black
10
164.345
20
-137.425
11
164.631
21
-137.282
0
LINE
8
Black
10
164.631
20
-137.282
11
165.202
21
-137.282
0
LINE
8
Black
10
165.202
20
-137.282
11
165.488
21
-137.425
0
LINE
8
Black
10
165.488
20
-137.425
11
165.631
21
-137.711
0
LINE
8
Black
10
165.631
20
-137.711
11
165.631
21
-137.996
0
LINE
8
Black
10
165.631
20
-137.996
11
164.202
21
-138.282
0
LINE
8
Black
10
166.774
20
-139.139
11
167.059
21
-139.282
0
LINE
8
Black
10
167.059
20
-139.282
11
167.631
21
-139.282
0
LINE
8
Black
10
167.631
20
-139.282
11
167.916
21
-139.139
0
LINE
8
Black
10
167.916
20
-139.139
11
168.059
21
-138.854
0
LINE
8
Black
10
168.059
20
-138.854
11
168.059
21
-138.711
0
LINE
8
Black
10
168.059
20
-138.711
11
167.916
21
-138.425
0
LINE
8
Black
10
167.916
20
-138.425
11
167.631
21
-138.282
0
LINE
8
Black
10
167.631
20
-138.282
11
167.202
21
-138.282
0
LINE
8
Black
10
167.202
20
-138.282
11
166.916
21
-138.139
0
LINE
8
Black
10
166.916
20
-138.139
11
166.774
21
-137.854
0
LINE
8
Black
10
166.774
20
-137.854
11
166.774
21
-137.711
0
LINE
8
Black
10
166.774
20
-137.711
11
166.916
21
-137.425
0
LINE
8
Black
10
166.916
20
-137.425
11
167.202
21
-137.282
0
LINE
8
Black
10
167.202
20
-137.282
11
167.631
21
-137.282
0
LINE
8
Black
10
167.631
20
-137.282
11
167.916
21
-137.425
0
LINE
8
Black
10
169.059
20
-140.425
11
169.202
21
-140.282
0
LINE
8
Black
10
169.202
20
-140.282
11
169.488
21
-139.854
0
LINE
8
Black
10
169.488
20
-139.854
11
169.631
21
-139.568
0
LINE
8
Black
10
169.631
20
-139.568
11
169.774
21
-139.139
0
LINE
8
Black
10
169.774
20
-139.139
11
169.916
21
-138.425
0
LINE
8
Black
10
169.916
20
-138.425
11
169.916
21
-137.854
0
LINE
8
Black
10
169.916
20
-137.854
11
169.774
21
-137.139
0
LINE
8
Black
10
169.774
20
-137.139
11
169.631
21
-136.711
0
LINE
8
Black
10
169.631
20
-136.711
11
169.488
21
-136.425
0
LINE
8
Black
10
169.488
20
-136.425
11
169.202
21
-135.996
0
LINE
8
Black
10
169.202
20
-135.996
11
169.059
21
-135.854
  0
ENDSEC
  0
EOF
